<svg xmlns="http://www.w3.org/2000/svg" xmlns:xlink="http://www.w3.org/1999/xlink" width="183" height="150" version="1.1" viewBox="0 0 183 150"><title>Group</title><desc>Created with Sketch Beta.</desc><g id="Page-1" fill="none" fill-rule="evenodd" stroke="none" stroke-width="1"><g id="Group"><path id="Path" fill="#73D37A" d="M85.0656352,87.3038904 C84.4360581,87.3038904 83.8770371,86.8914088 83.6979333,86.2889687 C83.4808377,85.539989 83.8987466,84.758445 84.6422989,84.5250673 C89.6300692,83.0868093 93.689756,80.2645671 95.2311344,77.1926651 C95.9366949,75.9606478 96.077807,74.4789707 95.616479,73.1329783 C95.2202796,72.1180566 94.0316815,70.8209106 90.6449909,70.8209106 C89.6680609,70.8209106 88.6911309,70.9186036 87.7359105,71.1139896 C87.6327901,71.1248444 87.5242423,71.1248444 87.4211219,71.1139896 C86.7047066,71.0922801 86.1131213,70.5441138 86.0425652,69.8331259 C85.9665818,69.122138 86.4333372,68.4654239 87.128043,68.2971749 C88.273222,68.0420876 89.445538,67.9118303 90.6178539,67.9118303 C93.4075318,67.9118303 97.0058905,68.6445277 98.3138912,72.1017744 C99.0628709,74.1858917 98.883767,76.4925319 97.8254262,78.4409645 C95.8769937,82.3269748 91.372261,85.539989 85.4726894,87.2441891 C85.342432,87.2821808 85.2067473,87.298463 85.0656352,87.3038904 Z"/><path id="Shape" fill="#0C0C0C" fill-rule="nonzero" d="M90.6287087,68.9213246 C93.103598,68.9213246 96.2786204,69.5291921 97.374953,72.4491273 C98.0153848,74.2727299 97.8417084,76.2862911 96.9081975,77.974209 C95.0954497,81.6051321 90.8240947,84.6281877 85.1850378,86.2618317 L85.0710626,86.2618317 C84.8865314,86.2618317 84.7237097,86.1370018 84.6748632,85.9578979 C84.6422989,85.8493502 84.6585811,85.735375 84.7074276,85.637682 C84.7617015,85.539989 84.8485397,85.4694329 84.9570874,85.4368686 C90.2922106,83.8954902 94.4821547,80.9538455 96.1755,77.5780097 C97.0113179,76.0963325 97.1632848,74.3270038 96.6042638,72.7204967 C96.0995166,71.3636495 94.6558312,69.7462877 90.68841,69.7462877 C89.640924,69.7462877 88.5934379,69.8494081 87.5622341,70.0610762 L87.4699684,70.0610762 C87.2745825,70.0610762 87.1063334,69.9253915 87.0629143,69.7354329 C87.0140678,69.5129099 87.1497525,69.2958144 87.3668481,69.2361131 C88.441471,68.997308 89.5323762,68.8724781 90.6341361,68.8724781 L90.6287087,68.9213246 Z M90.6341361,66.8534894 C89.3804093,66.8534894 88.1321099,66.9946016 86.9109474,67.2713984 C85.5920919,67.5753322 84.7725562,68.8887602 85.07649,70.2021883 C85.3804238,71.5210438 86.6938519,72.3405795 88.0072799,72.0366457 C88.9027991,71.8683967 89.8146004,71.7978406 90.7264017,71.8141228 C92.3980375,71.8141228 94.2433496,72.1506209 94.7860885,73.4749038 C95.1388688,74.5549541 95.0140388,75.7326975 94.4387356,76.7096275 C93.0167598,79.5481518 89.2067329,82.1587258 84.4794772,83.5264278 C83.638232,83.7706603 82.9923727,84.4382291 82.7861319,85.2903291 C82.5744638,86.1370018 82.8349784,87.0325209 83.4645555,87.6403885 C84.0941326,88.2428286 85.0005066,88.4707789 85.8363244,88.2265464 C92.0126929,86.4409355 96.7399485,83.0433902 98.8077836,78.9077199 C99.985527,76.7259096 100.18634,74.1424726 99.3559499,71.8086954 C97.933974,68.0366602 94.1130923,66.9620372 90.7046922,66.9620372 L90.6341361,66.8534894 Z"/><path id="Path" fill="#FFF" d="M60.3004602,94.9185168 C58.6939532,94.9130894 57.3968072,93.6105161 57.3913799,92.0094364 L57.3913799,61.3284077 L86.8023996,61.3284077 L86.8023996,92.0094364 C86.8023996,93.6213709 85.4998263,94.9239442 83.8933192,94.9293716 L60.3004602,94.9185168 Z"/><path id="Shape" fill="#73D37A" fill-rule="nonzero" d="M62.2488928,74.9565809 L65.8581063,74.9565809 L65.8581063,89.6648045 L62.2488928,89.6648045 L62.2488928,74.9565809 Z M70.2814282,74.7394853 L73.8906417,74.7394853 L73.8906417,89.4477089 L70.2814282,89.4477089 L70.2814282,74.7394853 Z M78.6178974,75.2822242 L82.2271109,75.2822242 L82.2271109,89.9904478 L78.6178974,89.9904478 L78.6178974,75.2822242 Z"/><path id="Shape" fill="#0C0C0C" fill-rule="nonzero" d="M85.7766232,62.3433294 L85.7766232,92.0094364 C85.7766232,93.0569225 84.9299505,93.9090225 83.8824645,93.9144499 L60.3004602,93.9144499 C59.2529742,93.9090225 58.4117289,93.0623498 58.4063016,92.0202912 L58.4063016,62.3433294 L85.7929053,62.3433294 L85.7766232,62.3433294 Z M87.8173213,60.313486 L56.3764582,60.313486 L56.3764582,92.0094364 C56.3818855,94.1749645 58.1349321,95.9280111 60.3004602,95.9334385 L83.8824645,95.9334385 C84.9245231,95.9388659 85.92859,95.5263843 86.6667149,94.7882595 C87.4048398,94.0501346 87.8173213,93.0514951 87.8173213,92.0094364 L87.8173213,60.313486 Z"/><path id="Path" fill="#FEB100" d="M64.7726286,70.3215909 L64.5012592,70.3215909 C63.3560801,70.2293253 63.1606941,69.6323125 62.8567604,68.4057226 C62.6233826,67.4722118 62.238038,65.9091238 60.5229832,65.9091238 L60.4198628,65.9091238 C59.3560946,66.0285264 58.3466003,66.4410079 57.5107824,67.1085767 C57.0623376,67.4813106 56.5293835,67.7384703 55.9585492,67.8575564 C55.7577358,67.852129 55.5623498,67.7761455 55.410383,67.6458882 C54.3031956,66.8372073 54.0698179,63.4450893 54.2652039,61.3066981 C54.2489218,59.6730541 54.8839262,58.0991114 56.0345327,56.9376502 C57.1851391,55.776189 58.7482271,55.1194749 60.3818711,55.1140475 L84.3166556,55.1140475 C85.92859,55.1140475 87.4808232,55.7544794 88.6205749,56.894231 C89.7603265,58.0339827 90.4007584,59.5807885 90.4007584,61.1981503 C90.5147336,62.9620517 90.2813558,66.0448085 89.1633137,67.070585 C88.1375373,68.0312328 86.7861175,68.5631169 85.3804238,68.5631169 C84.9896518,68.5631169 84.5988798,68.5251252 84.2135352,68.4491417 C83.3994269,68.2700379 82.6775842,67.7978551 82.1836918,67.1194315 C81.545029,66.2253983 80.5345348,65.6702257 79.4374331,65.6106174 L79.2257649,65.6106174 C77.9883203,65.6920283 77.4510088,66.8372073 76.9733986,67.852129 C76.3221119,69.2415405 75.8390743,70.0827858 74.6396214,70.0827858 C73.4401685,70.0827858 73.2285003,69.4966278 72.6694793,68.1940545 C72.2352882,67.1791328 71.6545576,65.8331404 70.0806148,65.8331404 C68.5066721,65.8331404 67.9802154,67.0814398 67.3940574,68.1234984 C66.6396503,69.5020552 66.0806293,70.3215909 64.7726286,70.3215909 Z"/><path id="Shape" fill="#0C0C0C" fill-rule="nonzero" d="M84.3166556,56.1235418 C87.1171882,56.1235418 89.3858367,58.3921903 89.3858367,61.192723 L89.3858367,61.3229803 C89.5052392,63.1791472 89.152459,65.6866009 88.4740354,66.3107506 C87.6544997,67.0922946 86.5635945,67.531913 85.4292703,67.5373404 C85.0873448,67.5373404 84.7508467,67.5047761 84.4143486,67.4450748 C83.7956262,67.3310997 83.5025473,67.0380207 82.9435262,66.4301531 C82.1153791,65.3192387 80.8276293,64.6444179 79.4428605,64.5956957 L79.171491,64.5956957 C77.3370336,64.7096709 76.5663444,66.3378875 76.0561699,67.4179379 C75.388601,68.8453411 75.1335138,69.0624367 74.6070571,69.0624367 C74.2814137,69.0624367 74.1620112,69.0624367 73.5921354,67.7870003 C73.1362347,66.7720786 72.2949894,64.8127913 70.0751874,64.8127913 L69.9612123,64.8127913 C68.0127797,64.8724925 67.1009784,66.5169913 66.4931108,67.6024691 C65.7332764,69.0298723 65.4401974,69.3066692 64.7672012,69.3066692 L64.5718152,69.3066692 C64.1267693,69.3066692 64.1050598,69.3066692 63.8336903,68.1614901 C63.5623209,67.0163111 63.0304368,64.8942021 60.5175558,64.8942021 L60.3655889,64.8942021 C59.1172895,65.019032 57.9286913,65.4912149 56.9354792,66.2619041 C56.6369728,66.4735722 56.3276117,66.6635308 56.0019683,66.8317799 C55.4863664,66.4355805 55.0467479,63.9335543 55.2204243,61.3935363 L55.2204243,61.2090051 C55.2204243,59.8630127 55.7523084,58.5712942 56.7075289,57.6215011 C57.6573219,56.6717081 58.9490404,56.1343966 60.2950329,56.1343966 L84.2298174,56.1343966 L84.3166556,56.1235418 Z M84.2352447,54.115408 L60.3818711,54.115408 C58.4985672,54.115408 56.6912467,54.8643876 55.3615365,56.1940979 C54.0318262,57.5238081 53.2828466,59.3311286 53.2828466,61.2144325 C53.2828466,63.0977364 52.7672446,66.9349003 54.824225,68.4545691 C55.1552957,68.7150838 55.5569225,68.8616233 55.9802588,68.8724781 C57.4510811,68.8724781 58.7699366,66.9837468 60.4849915,66.9240455 L60.5446927,66.9240455 C62.6450922,66.9240455 61.0005934,71.0434336 64.4415579,71.3365126 L64.7943381,71.3365126 C68.2515848,71.3365126 68.1918835,66.9131907 70.0806148,66.8534894 C72.1104582,66.8534894 71.4103251,71.0325788 74.5527832,71.1031349 L74.634194,71.1031349 C77.8797725,71.1031349 77.6789591,66.7340869 79.2908936,66.6309665 L79.4428605,66.6309665 C81.3315917,66.6309665 81.4727039,68.9918806 84.0452861,69.4586361 C84.490332,69.5400469 84.9408053,69.5780386 85.3967059,69.5780386 C87.0520595,69.5780386 88.6531392,68.9484615 89.8580195,67.8141373 C91.7467508,66.0882276 91.442817,61.192723 91.442817,61.192723 C91.442817,59.3094191 90.6938374,57.5020986 89.3641271,56.1723883 C88.0344169,54.8426781 86.2270964,54.0936984 84.3437925,54.0936984 L84.2352447,54.115408 Z M64.5392509,76.2971459 L64.5392509,88.9755261 L62.9544534,88.9755261 L62.9544534,76.2971459 L64.5392509,76.2971459 Z M65.1199815,74.2673025 L62.3791501,74.2673025 C61.9938055,74.2673025 61.6247431,74.4192694 61.3533737,74.6906388 C61.0820042,74.9620083 60.9300373,75.3310707 60.9300373,75.7164153 L60.9300373,89.588821 C60.9300373,90.3920746 61.581324,91.0379338 62.3791501,91.0379338 L65.1091267,91.0379338 C65.4944713,91.0433612 65.8689611,90.8913943 66.1403306,90.6145975 C66.4171274,90.3432281 66.5690943,89.9741656 66.5690943,89.5833936 L66.5690943,75.7109879 C66.5690943,74.9185892 65.9178076,74.2673025 65.1199815,74.2673025 Z M72.87572,76.2971459 L72.87572,88.9755261 L71.2909225,88.9755261 L71.2909225,76.2971459 L72.87572,76.2971459 Z M73.4564506,74.2673025 L70.7156193,74.2673025 C70.3302747,74.2673025 69.9612123,74.4192694 69.6898428,74.6906388 C69.4184734,74.9620083 69.2665065,75.3310707 69.2665065,75.7164153 L69.2665065,89.588821 C69.2665065,90.3920746 69.9177932,91.0379338 70.7156193,91.0379338 L73.4835876,91.0379338 C74.2705589,91.0216517 74.9055634,90.3757924 74.9055634,89.588821 L74.9055634,75.7164153 C74.9055634,74.9294439 74.2759863,74.2835847 73.4835876,74.2673025 L73.4564506,74.2673025 Z M81.2121892,76.2971459 L81.2121892,88.9755261 L79.6273917,88.9755261 L79.6273917,76.2971459 L81.2121892,76.2971459 Z M81.7929198,74.2673025 L79.0520885,74.2673025 C78.6667439,74.2673025 78.2976814,74.4192694 78.026312,74.6906388 C77.7549425,74.9620083 77.6029757,75.3310707 77.6029757,75.7164153 L77.6029757,89.588821 C77.6029757,90.3920746 78.2542623,91.0379338 79.0520885,91.0379338 L81.782065,91.0379338 C82.1674096,91.0433612 82.5418994,90.8913943 82.8132689,90.6145975 C83.0900657,90.3432281 83.2420326,89.9741656 83.2420326,89.5833936 L83.2420326,75.7109879 C83.2420326,74.9185892 82.5907459,74.2673025 81.7929198,74.2673025 Z"/><path id="Shape" fill="#707070" fill-rule="nonzero" d="M148.114847,62.3920114 C148.033613,62.3927111 147.953069,62.3770497 147.878016,62.3459609 C147.562767,62.2089086 147.416195,61.8439455 147.549083,61.5269185 C148.091778,60.1744494 148.382729,58.7341852 148.407598,57.2771087 C148.414758,56.9352785 148.693954,56.6619296 149.035859,56.6620046 C149.205448,56.6653669 149.366471,56.7371598 149.482317,56.8610597 C149.598164,56.9849597 149.658989,57.1504379 149.650963,57.3198699 C149.619134,58.9250064 149.295916,60.5110026 148.697058,62.0005815 C148.601431,62.2379522 148.370754,62.3930401 148.114847,62.3920114 Z M137.940961,62.3920114 C137.685329,62.3921324 137.455113,62.2373543 137.35875,62.0005815 C136.753432,60.5066998 136.425713,58.914924 136.391688,57.3034233 C136.38616,56.9571245 136.660565,56.6709798 137.006792,56.6620046 C137.348697,56.6619296 137.627893,56.9352784 137.635053,57.2771087 C137.666769,58.7350283 137.963242,60.17504 138.510014,61.5269185 C138.64484,61.8439285 138.497718,62.2102615 138.181081,62.3459609 C138.105007,62.3774864 138.0233,62.3931563 137.940961,62.3920114 Z M135.11214,63.0531661 C134.869299,63.0529979 134.648064,62.9136069 134.543086,62.6946295 C133.857659,61.246727 133.440829,59.6864005 133.312878,58.0895723 C133.295251,57.8657037 133.398395,57.6494365 133.583457,57.5222364 C133.768519,57.3950363 134.007384,57.376228 134.210074,57.4728965 C134.412763,57.569565 134.548484,57.7670239 134.566112,57.9908925 C134.679097,59.439868 135.057052,60.8558042 135.681193,62.1683372 C135.829083,62.4826697 135.695345,62.8574289 135.381865,63.0071155 C135.296178,63.0412006 135.204282,63.0568901 135.11214,63.0531661 Z"/><path id="Shape" fill="#707070" fill-rule="nonzero" d="M162.781955,54.0502793 L119.803614,54.0502793 C119.356719,54.0502793 118.99444,54.412559 118.99444,54.8594537 L118.99444,71.9080331 C118.989873,73.35865 119.605036,74.7421679 120.685154,75.7104945 C122.658086,77.4563624 124.25896,79.5819114 125.39218,81.9602149 C125.444201,83.0431663 125.807376,84.08815 126.438186,84.9699487 C126.080914,86.9620999 126.429903,89.0164796 127.424984,90.7788994 L127.44143,90.8019247 L127.507217,90.9203404 C127.569714,91.0255989 127.635501,91.127568 127.704576,91.2328264 L127.780231,91.3479529 L127.898647,91.5222871 C127.951276,91.5946523 128.003905,91.6703068 128.059824,91.742672 L128.148635,91.8545091 L128.283498,92.0222648 L128.408492,92.1669952 C128.549933,92.3314615 128.697953,92.4959278 128.852551,92.6439475 L128.974256,92.7623633 C129.115697,92.8972257 129.263717,93.0287987 129.405158,93.1472145 L129.530153,93.2491836 L129.724223,93.4004926 L129.845928,93.4925938 L129.938029,93.5583803 C129.993948,93.6011415 130.053156,93.6406134 130.122231,93.686664 L130.243936,93.7688972 L130.37551,93.8511304 L130.490636,93.9202062 L130.579448,93.9761247 C130.711021,94.0517793 130.842594,94.1241444 130.984035,94.1965096 L131.168237,94.2886108 L131.342571,94.3708439 L131.474145,94.4300518 L131.714265,94.532021 C131.842549,94.5846502 131.970833,94.6307008 132.085959,94.6701727 C132.201086,94.7096446 132.257004,94.7326698 132.345816,94.7589845 L132.536597,94.814903 C132.707642,94.8642429 132.86553,94.9070042 133.066179,94.9530547 C135.757149,95.61411 138.518523,95.9454748 141.289495,95.9398527 C144.061347,95.9402269 146.822878,95.6022154 149.512811,94.9333188 L149.535837,94.9333188 L150.039104,94.8017457 C150.167387,94.7655631 150.295671,94.7228019 150.407508,94.6866193 L150.450269,94.6701727 L150.631182,94.6076754 L151.006166,94.4563664 C151.085109,94.4201839 151.167343,94.3872906 151.236418,94.351108 L151.391017,94.2787428 L151.594955,94.1767737 L151.746264,94.0945405 L151.933756,93.9892821 C154.607669,92.4431478 156.253917,89.5882297 156.252641,86.4994856 C156.25336,85.9933247 156.209331,85.4880912 156.121068,84.9896847 C156.79852,84.0579738 157.173936,82.9409118 157.196678,81.78917 C158.331151,79.4685194 159.911599,77.394042 161.847786,75.6841799 C162.937768,74.7143464 163.560376,73.3242559 163.558236,71.8652718 L163.558236,54.8594537 C163.558595,54.4250957 163.215954,54.067936 162.781955,54.0502793 Z M121.760763,74.5000224 C121.024301,73.8401982 120.605294,72.8968339 120.609499,71.9080331 L120.609468,55.6653387 L128.665119,55.6653387 L128.66506,63.5597223 C128.669436,64.0369253 128.43008,64.4833923 128.03022,64.7438799 C125.532781,66.3080616 124.660061,69.5309647 126.02702,72.1415752 C125.000307,74.0964626 125.208546,76.4706529 126.559891,78.2169614 C126.474368,78.3255091 126.392135,78.4406356 126.316481,78.545894 L126.250694,78.6511525 C126.194775,78.736675 126.142146,78.8254868 126.092806,78.9142986 L126.033598,79.0228463 C125.967812,79.1445514 125.908604,79.2662565 125.852686,79.3912509 C124.741505,77.5650152 123.36212,75.9161845 121.760763,74.5000224 Z M154.953357,83.8811816 C154.723944,83.9723544 154.549252,84.1640308 154.479694,84.4008952 C154.45009,84.499575 154.420486,84.6015441 154.394172,84.7035133 C154.316339,84.9795256 154.392988,85.2760687 154.594821,85.4797943 C155.012294,88.3303598 153.650592,91.1475832 151.157475,92.5913183 L150.999587,92.6801301 L150.877882,92.7426273 L150.713415,92.8281498 L150.595,92.8840683 L150.410797,92.9663015 L150.10489,93.0880066 L149.973317,93.1373465 L149.937134,93.1373465 L149.627938,93.2360263 L149.1773,93.3511527 L149.121381,93.3511527 C143.971033,94.6240887 138.588221,94.6240887 133.437872,93.3511527 C133.276695,93.3149701 133.10894,93.2722089 132.970788,93.232737 L132.809611,93.193265 L132.625409,93.1307678 C132.52344,93.0945852 132.421471,93.0584027 132.296476,93.0123521 L132.099117,92.9301189 L131.974122,92.8742004 L131.855706,92.8182818 L131.701108,92.739338 C131.589271,92.6834194 131.484013,92.6242115 131.372175,92.558425 L131.296521,92.5123745 L131.214288,92.4597452 L131.102451,92.3906694 L130.990614,92.3183042 L130.852462,92.2196244 L130.678128,92.0913406 L130.523529,91.9729249 L130.424849,91.8906917 C130.303144,91.7887226 130.184729,91.6834642 130.069602,91.5617591 C130.035072,91.5317007 130.002134,91.4998606 129.970922,91.4663686 C129.845928,91.3446635 129.727512,91.2163798 129.605807,91.0782281 C129.576203,91.0420455 129.546599,91.0091522 129.520285,90.9729696 L129.487391,90.9367871 L129.39529,90.8216606 L129.319636,90.7196915 C129.276874,90.6670623 129.237403,90.6111437 129.194641,90.5486465 C129.15188,90.4861493 129.132144,90.463124 129.092672,90.4006268 L129.030175,90.3085257 C128.974256,90.2262925 128.921627,90.14077 128.872287,90.0552475 L128.813079,89.9499891 C128.806867,89.9416958 128.801365,89.932893 128.796633,89.9236745 C127.980951,88.4700134 127.707063,86.7742391 128.023641,85.1377044 C128.117497,84.9599226 128.142109,84.7536568 128.092717,84.5587829 L128.063113,84.4633924 C128.015114,84.2970318 127.913317,84.1512773 127.773652,84.0489373 C127.268515,83.366464 126.990114,82.5427656 126.977635,81.6937795 L126.977635,81.6806222 C126.975784,80.5909382 127.418962,79.5477485 128.204554,78.7925935 C128.359819,78.6412704 128.447562,78.4337694 128.447964,78.2169614 C128.446972,77.999311 128.359389,77.7910063 128.204554,77.6380399 C126.843786,76.298498 126.609005,74.1882153 127.642079,72.582345 C127.81646,72.315563 127.81646,71.9708768 127.642079,71.7040948 C127.062103,70.7979754 126.867897,69.6978016 127.102587,68.6478752 C127.337276,67.5979488 127.981435,66.6851741 128.892023,66.1122397 C129.761355,65.5549061 130.286039,64.5923656 130.283408,63.5597223 L130.283408,55.6653387 L152.321896,55.6653387 L152.321896,63.5301184 C152.319988,64.5685143 152.85005,65.5355365 153.726439,66.0925037 C154.839396,66.7735099 155.550235,67.9545586 155.630959,69.2568359 L155.630959,69.519982 C155.627934,70.2963844 155.399381,71.0551814 154.973093,71.7040948 C154.798713,71.9708768 154.798713,72.315563 154.973093,72.582345 C156.006167,74.1882153 155.771386,76.298498 154.410618,77.6380399 C154.255783,77.7910063 154.168201,77.999311 154.167208,78.2169614 C154.16761,78.4337694 154.255353,78.6412704 154.410618,78.7925935 C155.170524,79.5363138 155.603621,80.5516059 155.614512,81.6148356 L155.614512,81.6806222 C155.612182,82.4627355 155.382471,83.2272946 154.953357,83.8811816 Z M161.97278,71.8652718 C161.975801,72.8606294 161.553271,73.8098245 160.811648,74.4737077 C159.217383,75.8794334 157.842557,77.5159199 156.732883,79.3287537 C156.683543,79.2169166 156.627625,79.1083688 156.568417,78.999821 L156.519077,78.9175879 C156.469737,78.8254868 156.413818,78.7333856 156.3579,78.6445738 L156.295403,78.5491833 C156.219748,78.4373462 156.144094,78.3255091 156.058571,78.2202507 C157.410233,76.4725606 157.617223,74.0966776 156.588153,72.1415752 C157.966924,69.5180011 157.080341,66.2748602 154.558638,64.7175653 C154.156059,64.4576587 153.9151,64.0092762 153.920509,63.5301184 L153.920509,55.6653387 L161.972796,55.6653387 L161.97278,71.8652718 Z"/><path id="Shape" fill="#707070" fill-rule="nonzero" d="M129.474234,56.3791225 L119.803614,56.3791225 C119.636417,56.3791202 119.476116,56.4457632 119.358199,56.5642974 C119.240282,56.6828317 119.174477,56.8434787 119.175353,57.0106732 L119.175353,62.3788541 C119.174477,62.5460486 119.240282,62.7066957 119.358199,62.8252299 C119.476116,62.9437641 119.636417,63.0104071 119.803614,63.0104048 L129.474234,63.0104048 C131.305412,63.0104048 132.789875,61.5259417 132.789875,59.6947637 C132.789875,57.8635856 131.305412,56.3791225 129.474234,56.3791225 Z M162.781955,56.3791225 L153.111335,56.3791225 C151.280156,56.3791225 149.795693,57.8635856 149.795693,59.6947637 C149.795693,61.5259417 151.280156,63.0104048 153.111335,63.0104048 L162.781955,63.0104048 C163.126358,63.0049996 163.402194,62.7232955 163.400348,62.3788541 L163.400348,57.0106732 C163.402194,56.6662318 163.126358,56.3845277 162.781955,56.3791225 Z"/><path id="Shape" fill="#000" fill-rule="nonzero" d="M169.488559,110.443695 C170.146307,110.443695 170.798326,110.2254 171.342733,109.777355 C171.88141,109.329513 172.221639,108.725572 172.340708,108.084805 L182.847894,23.8906605 C183.006653,23.0684248 182.808204,22.1897232 182.235564,21.4949453 C181.66272,20.8030317 180.834961,20.4429584 179.995745,20.4429584 L177.699254,20.4429584 L29.3101732,20.4429584 L21.0824977,1.84967212 C20.8670675,1.35068414 20.5041299,0.908366795 20.0163942,0.590847591 C19.5231347,0.270668754 18.973,0.120297224 18.4285936,0.120297224 L2.90329576,0.120297224 C2.16043994,0.120297224 1.41758413,0.403854967 0.850673228,0.970765865 C0.283557743,1.53788135 0,2.28053258 0,3.0233884 C0,3.76624422 0.283557743,4.50910003 0.850673228,5.07601093 C1.41758413,5.64292183 2.16043994,5.92647957 2.90329576,5.92647957 L14.6523247,5.92647957 C15.196731,5.92647957 15.7466611,6.07664652 16.2343968,6.39723453 C16.7278609,6.71475373 17.0850701,7.15707108 17.3060241,7.65605905 L47.3535293,107.540399 L34.8389354,107.540399 L33.4326035,107.540399 C32.4912982,107.540399 31.5669736,107.999697 31.011315,108.844642 C30.449928,109.692451 30.3932574,110.721524 30.7617187,111.586109 L36.9879184,126.102384 C37.2033487,126.60976 37.5605578,127.057805 38.0540219,127.383917 C38.5472814,127.710029 39.1029401,127.86306 39.6530748,127.86306 L43.5486181,127.86306 L168.989572,127.86306 C169.732427,127.86306 170.475283,127.579503 171.042194,127.012592 C171.609105,126.445681 171.892663,125.702825 171.892663,124.959969 C171.892663,124.217113 171.609105,123.474257 171.042194,122.907347 C170.475283,122.340436 169.732427,122.056878 168.989572,122.056878 L41.0592021,122.056878 L37.3224184,113.346991 L166.086071,110.443899 L169.488559,110.443899 L169.488559,110.443695 Z M53.7045271,107.540399 L31.8791736,26.2493453 L176.593665,26.2493453 L167.192274,104.636899 L53.7045271,107.540399 Z"/><path id="Path" fill="#000" d="M49.9280535,143.831085 C49.9280535,147.037977 52.5277531,149.637676 55.7346451,149.637676 C58.941537,149.637676 61.5412366,147.037977 61.5412366,143.831085 C61.5412366,140.624193 58.941537,138.024493 55.7346451,138.024493 C52.5277531,138.024493 49.9280535,140.624193 49.9280535,143.831085 Z"/><path id="Path" fill="#000" d="M151.541769,143.831085 C151.541769,147.037977 154.141468,149.637676 157.34836,149.637676 C160.555252,149.637676 163.154952,147.037977 163.154952,143.831085 C163.154952,140.624193 160.555252,138.024493 157.34836,138.024493 C154.141468,138.024493 151.541769,140.624193 151.541769,143.831085 Z"/></g></g></svg>