<?xml version="1.0" encoding="UTF-8"?>
<svg width="397px" height="177px" viewBox="0 0 397 177" version="1.1" xmlns="http://www.w3.org/2000/svg" xmlns:xlink="http://www.w3.org/1999/xlink">
    <!-- Generator: Sketch Beta 52 (65972) - http://www.bohemiancoding.com/sketch -->
    <title>Group</title>
    <desc>Created with Sketch Beta.</desc>
    <g id="Page-1" stroke="none" stroke-width="1" fill="none" fill-rule="evenodd">
        <g id="Group" transform="translate(0.000000, -4.000000)">
            <text id="牛奶" font-family="PingFangSC-Medium, PingFang SC" font-size="20" font-weight="400" fill="#4A4A4A" text-decoration="underline">
                <tspan x="94" y="21">牛奶</tspan>
            </text>
            <text id="咖啡" font-family="PingFangSC-Medium, PingFang SC" font-size="20" font-weight="400" fill="#4A4A4A" text-decoration="underline">
                <tspan x="179" y="21">咖啡</tspan>
            </text>
            <text id="啤酒" font-family="PingFangSC-Medium, PingFang SC" font-size="20" font-weight="400" fill="#4A4A4A" text-decoration="underline">
                <tspan x="264" y="21">啤酒</tspan>
            </text>
            <text id="牛奶-咖啡" font-family="PingFangSC-Medium, PingFang SC" font-size="20" font-weight="400" fill="#F5A623" text-decoration="underline">
                <tspan x="0.67" y="99">牛奶 咖啡</tspan>
            </text>
            <text id="牛奶-啤酒" font-family="PingFangSC-Medium, PingFang SC" font-size="20" font-weight="400" fill="#F5A623" text-decoration="underline">
                <tspan x="155.67" y="99">牛奶 啤酒</tspan>
            </text>
            <text id="咖啡-啤酒" font-family="PingFangSC-Medium, PingFang SC" font-size="20" font-weight="400" fill="#F5A623" text-decoration="underline">
                <tspan x="310.67" y="99">咖啡 啤酒</tspan>
            </text>
            <text id="牛奶-咖啡-啤酒" font-family="PingFangSC-Medium, PingFang SC" font-size="20" font-weight="400" fill="#F5A623" text-decoration="underline">
                <tspan x="132.34" y="177">牛奶 咖啡 啤酒</tspan>
            </text>
            <path id="Line" d="M47.3488328,74.9935247 L113.709381,27.5931333 L114.116248,27.3025142 L114.697486,28.1162476 L114.290619,28.4068667 L47.930071,75.8072582 C49.035449,77.7827052 48.5004039,80.3154921 46.6155719,81.6618006 C44.5932152,83.1063411 41.7827398,82.6379285 40.3381994,80.6155719 C38.8936589,78.5932152 39.3620715,75.7827398 41.3844281,74.3381994 C43.2692601,72.9918908 45.8386678,73.3072114 47.3488328,74.9935247 Z M46.5463132,75.5980825 C45.3647947,74.3423708 43.4076507,74.121944 41.9656663,75.1519329 C40.3927223,76.2754643 40.0284014,78.4613896 41.1519329,80.0343337 C42.2754643,81.6072777 44.4613896,81.9715986 46.0343337,80.8480671 C47.4763181,79.8180783 47.9025556,77.8952361 47.0979154,76.3703256 L46.5463132,75.5980825 Z" fill="#979797" fill-rule="nonzero"></path>
            <path id="Line-2" d="M202.601521,75.3013673 L283.74649,27.5690329 L284.177457,27.3155228 L284.684477,28.177457 L284.25351,28.4309671 L203.108542,76.1633015 C204.034942,78.2287393 203.278069,80.704305 201.281591,81.878704 C199.139442,83.1387916 196.381384,82.4237396 195.121296,80.2815906 C193.861208,78.1394415 194.57626,75.3813837 196.718409,74.121296 C198.714888,72.9468971 201.246357,73.4881438 202.601521,75.3013673 Z M201.926096,76.0794545 C200.909282,74.5275328 198.841898,74.0323666 197.22543,74.9832302 C195.559314,75.9632984 195.003162,78.1084545 195.98323,79.7745704 C196.963298,81.4406864 199.108455,81.9968379 200.77457,81.0167698 C202.391039,80.0659061 202.962707,78.0183557 202.100302,76.3756053 L201.926096,76.0794545 Z" fill="#979797" fill-rule="nonzero"></path>
            <path id="Line-3" d="M350.069929,75.8072582 L283.709381,28.4068667 L283.302514,28.1162476 L283.883752,27.3025142 L284.290619,27.5931333 L350.651167,74.9935247 C352.161332,73.3072114 354.73074,72.9918908 356.615572,74.3381994 C358.637929,75.7827398 359.106341,78.5932152 357.661801,80.6155719 C356.21726,82.6379285 353.406785,83.1063411 351.384428,81.6618006 C349.499596,80.3154921 348.964551,77.7827052 350.069929,75.8072582 Z M350.902085,76.3703256 C350.097444,77.8952361 350.523682,79.8180783 351.965666,80.8480671 C353.53861,81.9715986 355.724536,81.6072777 356.848067,80.0343337 C357.971599,78.4613896 357.607278,76.2754643 356.034334,75.1519329 C354.592349,74.121944 352.635205,74.3423708 351.453687,75.5980825 L350.902085,76.3703256 Z" fill="#979797" fill-rule="nonzero"></path>
            <path id="Line-5" d="M48.1030493,76.1510648 L198.846499,27.5241457 L199.322353,27.3706443 L199.629356,28.3223529 L199.153501,28.4758543 L48.4100521,77.1027734 C48.8640897,79.3204526 47.5859331,81.5715854 45.3815125,82.2826888 C43.0162488,83.0456771 40.4802995,81.7467762 39.7173112,79.3815125 C38.9543229,77.0162488 40.2532238,74.4802995 42.6184875,73.7173112 C44.8229081,73.0062078 47.1755896,74.0861024 48.1030493,76.1510648 Z M47.1915422,76.5625665 C46.4703794,74.9560761 44.6402628,74.1158674 42.9254903,74.6690198 C41.0858407,75.2624552 40.0755845,77.2348602 40.6690198,79.0745097 C41.2624552,80.9141593 43.2348602,81.9244155 45.0745097,81.3309802 C46.7892823,80.7778277 47.7834397,79.0265629 47.4299025,77.3014836 L47.1915422,76.5625665 Z" fill="#979797" fill-rule="nonzero"></path>
            <path id="Line-7" d="M349.589948,77.1027734 L198.846499,28.4758543 L198.370644,28.3223529 L198.677647,27.3706443 L199.153501,27.5241457 L349.896951,76.1510648 C350.82441,74.0861024 353.177092,73.0062078 355.381513,73.7173112 C357.746776,74.4802995 359.045677,77.0162488 358.282689,79.3815125 C357.5197,81.7467762 354.983751,83.0456771 352.618487,82.2826888 C350.414067,81.5715854 349.13591,79.3204526 349.589948,77.1027734 Z M350.570097,77.3014836 C350.21656,79.0265629 351.210718,80.7778277 352.92549,81.3309802 C354.76514,81.9244155 356.737545,80.9141593 357.33098,79.0745097 C357.924415,77.2348602 356.914159,75.2624552 355.07451,74.6690198 C353.359737,74.1158674 351.529621,74.9560761 350.808458,76.5625665 L350.570097,77.3014836 Z" fill="#979797" fill-rule="nonzero"></path>
            <path id="Line-8" d="M194.891458,76.1633015 L113.74649,28.4309671 L113.315523,28.177457 L113.822543,27.3155228 L114.25351,27.5690329 L195.398479,75.3013673 C196.753643,73.4881438 199.285112,72.9468971 201.281591,74.121296 C203.42374,75.3813837 204.138792,78.1394415 202.878704,80.2815906 C201.618616,82.4237396 198.860558,83.1387916 196.718409,81.878704 C194.721931,80.704305 193.965058,78.2287393 194.891458,76.1633015 Z M195.899698,76.3756053 C195.037293,78.0183557 195.608961,80.0659061 197.22543,81.0167698 C198.891545,81.9968379 201.036702,81.4406864 202.01677,79.7745704 C202.996838,78.1084545 202.440686,75.9632984 200.77457,74.9832302 C199.158102,74.0323666 197.090718,74.5275328 196.073904,76.0794545 L195.899698,76.3756053 Z" fill="#979797" fill-rule="nonzero"></path>
            <path id="Line-9" d="M194.589948,155.102773 L43.8464986,106.475854 L43.3706443,106.322353 L43.6776471,105.370644 L44.1535014,105.524146 L194.896951,154.151065 C195.82441,152.086102 198.177092,151.006208 200.381513,151.717311 C202.746776,152.4803 204.045677,155.016249 203.282689,157.381513 C202.5197,159.746776 199.983751,161.045677 197.618487,160.282689 C195.414067,159.571585 194.13591,157.320453 194.589948,155.102773 Z M195.570097,155.301484 C195.21656,157.026563 196.210718,158.777828 197.92549,159.33098 C199.76514,159.924415 201.737545,158.914159 202.33098,157.07451 C202.924415,155.23486 201.914159,153.262455 200.07451,152.66902 C198.359737,152.115867 196.529621,152.956076 195.808458,154.562567 L195.570097,155.301484 Z" fill="#979797" fill-rule="nonzero"></path>
            <path id="Line-10" d="M198.5,151.527464 L198.5,106 L198.5,105.5 L199.5,105.5 L199.5,106 L199.5,151.527464 C201.749975,151.776187 203.5,153.683723 203.5,156 C203.5,158.485281 201.485281,160.5 199,160.5 C196.514719,160.5 194.5,158.485281 194.5,156 C194.5,153.683723 196.250025,151.776187 198.5,151.527464 Z M199,159.5 C200.932997,159.5 202.5,157.932997 202.5,156 C202.5,154.067003 200.932997,152.5 199,152.5 C197.067003,152.5 195.5,154.067003 195.5,156 C195.5,157.932997 197.067003,159.5 199,159.5 Z" fill="#979797" fill-rule="nonzero"></path>
            <path id="Line-11" d="M203.103049,154.151065 L353.846499,105.524146 L354.322353,105.370644 L354.629356,106.322353 L354.153501,106.475854 L203.410052,155.102773 C203.86409,157.320453 202.585933,159.571585 200.381513,160.282689 C198.016249,161.045677 195.4803,159.746776 194.717311,157.381513 C193.954323,155.016249 195.253224,152.4803 197.618487,151.717311 C199.822908,151.006208 202.17559,152.086102 203.103049,154.151065 Z M202.191542,154.562567 C201.470379,152.956076 199.640263,152.115867 197.92549,152.66902 C196.085841,153.262455 195.075585,155.23486 195.66902,157.07451 C196.262455,158.914159 198.23486,159.924415 200.07451,159.33098 C201.789282,158.777828 202.78344,157.026563 202.429903,155.301484 L202.191542,154.562567 Z" fill="#979797" fill-rule="nonzero"></path>
        </g>
    </g>
</svg>