<?xml version="1.0" encoding="UTF-8"?>
<svg width="195px" height="438px" viewBox="0 0 195 438" version="1.1" xmlns="http://www.w3.org/2000/svg" xmlns:xlink="http://www.w3.org/1999/xlink">
    <!-- Generator: Sketch Beta 52 (65972) - http://www.bohemiancoding.com/sketch -->
    <title>数据采集流程</title>
    <desc>Created with Sketch Beta.</desc>
    <g id="week1" stroke="none" stroke-width="1" fill="none" fill-rule="evenodd">
        <g id="数据采集流程">
            <g id="Group">
                <rect id="Rectangle" stroke="#979797" fill="#F8E71C" x="0.5" y="0.5" width="194" height="72" rx="8"></rect>
                <text id="数据采集读取" font-family="PingFangSC-Medium, PingFang SC" font-size="24" font-weight="400" fill="#274A59">
                    <tspan x="26" y="44">数据采集读取</tspan>
                </text>
            </g>
            <path id="Line" d="M97.25,101.611111 L97.25,79.8333333 L97.25,78.8333333 L99.25,78.8333333 L99.25,79.8333333 L99.25,101.611111 L104.414885,101.611111 C104.876106,101.611111 105.25,101.985005 105.25,102.446226 C105.25,102.575874 105.219815,102.703741 105.161835,102.819701 L98.9970414,115.149288 C98.7907768,115.561817 98.2891456,115.729027 97.8766165,115.522763 C97.7149988,115.441954 97.5839504,115.310905 97.5031416,115.149288 L91.3383484,102.819701 C91.1320839,102.407172 91.2992943,101.905541 91.7118234,101.699277 C91.8277837,101.641296 91.9556507,101.611111 92.0852983,101.611111 L97.25,101.611111 Z" fill="#979797" fill-rule="nonzero"></path>
            <g id="Group-2" transform="translate(0.000000, 121.666667)">
                <rect id="Rectangle" stroke="#979797" fill="#50E3C2" x="0.5" y="0.5" width="194" height="72" rx="8"></rect>
                <text id="数据清洁预处理" font-family="PingFangSC-Medium, PingFang SC" font-size="24" font-weight="400" fill="#274A59">
                    <tspan x="14" y="44">数据清洁预处理</tspan>
                </text>
            </g>
            <path id="Line" d="M97.25,223.277778 L97.25,201.5 L97.25,200.5 L99.25,200.5 L99.25,201.5 L99.25,223.277778 L104.414885,223.277778 C104.876106,223.277778 105.25,223.651672 105.25,224.112893 C105.25,224.242541 105.219815,224.370408 105.161835,224.486368 L98.9970414,236.815954 C98.7907768,237.228483 98.2891456,237.395694 97.8766165,237.189429 C97.7149988,237.108621 97.5839504,236.977572 97.5031416,236.815954 L91.3383484,224.486368 C91.1320839,224.073839 91.2992943,223.572208 91.7118234,223.365943 C91.8277837,223.307963 91.9556507,223.277778 92.0852983,223.277778 L97.25,223.277778 Z" fill="#979797" fill-rule="nonzero"></path>
            <g id="Group-3" transform="translate(0.000000, 243.333333)">
                <rect id="Rectangle" stroke="#979797" fill="#B8E986" x="0.5" y="0.5" width="194" height="72" rx="8"></rect>
                <text id="数据建模" font-family="PingFangSC-Medium, PingFang SC" font-size="24" font-weight="400" fill="#274A59">
                    <tspan x="50" y="44">数据建模</tspan>
                </text>
            </g>
            <path id="Line" d="M97.25,344.944444 L97.25,323.166667 L97.25,322.166667 L99.25,322.166667 L99.25,323.166667 L99.25,344.944444 L104.414885,344.944444 C104.876106,344.944444 105.25,345.318338 105.25,345.77956 C105.25,345.909207 105.219815,346.037074 105.161835,346.153035 L98.9970414,358.482621 C98.7907768,358.89515 98.2891456,359.062361 97.8766165,358.856096 C97.7149988,358.775287 97.5839504,358.644239 97.5031416,358.482621 L91.3383484,346.153035 C91.1320839,345.740506 91.2992943,345.238874 91.7118234,345.03261 C91.8277837,344.97463 91.9556507,344.944444 92.0852983,344.944444 L97.25,344.944444 Z" fill="#979797" fill-rule="nonzero"></path>
            <g id="Group-4" transform="translate(0.000000, 365.000000)">
                <rect id="Rectangle" stroke="#979797" fill="#F5A623" x="0.5" y="0.5" width="194" height="72" rx="8"></rect>
                <text id="数据分析报告" font-family="PingFangSC-Medium, PingFang SC" font-size="24" font-weight="400" fill="#274A59">
                    <tspan x="26" y="44">数据分析报告</tspan>
                </text>
            </g>
        </g>
    </g>
</svg>