<svg xmlns="http://www.w3.org/2000/svg" xmlns:xlink="http://www.w3.org/1999/xlink" width="518" height="129" version="1.1" viewBox="0 0 518 129"><title>分组</title><desc>Created with Sketch.</desc><g id="Page-1" fill="none" fill-rule="evenodd" stroke="none" stroke-width="1"><g id="分组" transform="translate(1.000000, 1.000000)"><rect id="矩形" width="40" height="40" x="0" y="0" fill="#F5A623" stroke="#979797"/><rect id="矩形" width="40" height="40" x="40" y="0" fill="#F5A623" stroke="#979797"/><rect id="矩形" width="40" height="40" x="320" y="87" fill="#F5A623" stroke="#979797"/><rect id="矩形" width="40" height="40" x="360" y="87" fill="#F5A623" stroke="#979797"/><rect id="矩形" width="40" height="40" x="80" y="0" fill="#7ED321" stroke="#979797"/><rect id="矩形" width="40" height="40" x="120" y="0" fill="#7ED321" stroke="#979797"/><rect id="矩形" width="40" height="40" x="160" y="0" fill="#7ED321" stroke="#979797"/><rect id="矩形" width="40" height="40" x="200" y="0" fill="#7ED321" stroke="#979797"/><rect id="矩形" width="40" height="40" x="240" y="0" fill="#7ED321" stroke="#979797"/><rect id="矩形" width="40" height="40" x="280" y="0" fill="#7ED321" stroke="#979797"/><rect id="矩形" width="40" height="40" x="160" y="87" fill="#7ED321" stroke="#979797"/><rect id="矩形" width="40" height="40" x="80" y="87" fill="#7ED321" stroke="#979797"/><rect id="矩形" width="40" height="40" x="120" y="87" fill="#7ED321" stroke="#979797"/><rect id="矩形" width="40" height="40" x="200" y="87" fill="#7ED321" stroke="#979797"/><rect id="矩形" width="40" height="40" x="240" y="87" fill="#7ED321" stroke="#979797"/><rect id="矩形" width="40" height="40" x="280" y="87" fill="#7ED321" stroke="#979797"/><text id="延迟-k=2-期" fill="#F5A623" font-family="PingFangSC-Regular, PingFang SC" font-size="19" font-weight="normal"><tspan x="416.2" y="113">延迟 k=2 期</tspan></text><text id="计算相关性系数" fill="#7ED321" font-family="PingFangSC-Regular, PingFang SC" font-size="19" font-weight="normal"><tspan x="134" y="68">计算相关性系数</tspan></text></g></g></svg>