<?xml version="1.0" encoding="UTF-8"?>
<svg width="350px" height="263px" viewBox="0 0 350 263" version="1.1" xmlns="http://www.w3.org/2000/svg" xmlns:xlink="http://www.w3.org/1999/xlink">
    <!-- Generator: Sketch 52.2 (67145) - http://www.bohemiancoding.com/sketch -->
    <title>arima</title>
    <desc>Created with Sketch.</desc>
    <g id="Page-1" stroke="none" stroke-width="1" fill="none" fill-rule="evenodd">
        <g id="arima">
            <g id="分组-2">
                <rect id="矩形" stroke="#979797" fill="#D8D8D8" x="0.5" y="0.5" width="182" height="39" rx="8"></rect>
                <text id="时间序列数据" font-family="PingFangSC-Regular, PingFang SC" font-size="19" font-weight="normal" fill="#4A4A4A">
                    <tspan x="34" y="27">时间序列数据</tspan>
                </text>
            </g>
            <g id="分组-3" transform="translate(0.000000, 73.000000)">
                <rect id="矩形" stroke="#979797" fill="#F5A623" x="0.5" y="0.5" width="182" height="39" rx="8"></rect>
                <text id="平稳性检验" font-family="PingFangSC-Regular, PingFang SC" font-size="19" font-weight="normal" fill="#FFFFFF">
                    <tspan x="44" y="26">平稳性检验</tspan>
                </text>
            </g>
            <g id="分组" transform="translate(0.000000, 223.000000)">
                <rect id="矩形" stroke="#979797" fill="#B8E986" x="0.5" y="0.5" width="182" height="39" rx="8"></rect>
                <text id="AR(I)MA-建模" font-family="PingFangSC-Regular, PingFang SC" font-size="19" font-weight="normal" fill="#000000">
                    <tspan x="33.974" y="27">AR(I)MA 建模</tspan>
                </text>
            </g>
            <g id="分组-5" transform="translate(231.000000, 73.000000)">
                <rect id="矩形" stroke="#979797" fill="#BD10E0" x="0.5" y="0.5" width="118" height="39" rx="8"></rect>
                <text id="差分运算" font-family="PingFangSC-Regular, PingFang SC" font-size="19" font-weight="normal" fill="#FFFFFF">
                    <tspan x="21.5" y="27">差分运算</tspan>
                </text>
            </g>
            <g id="分组-4" transform="translate(0.000000, 145.000000)">
                <rect id="矩形" stroke="#979797" fill="#4A90E2" x="0.5" y="0.5" width="182" height="39" rx="8"></rect>
                <text id="纯随机性检验" font-family="PingFangSC-Regular, PingFang SC" font-size="19" font-weight="normal" fill="#FFFFFF">
                    <tspan x="35" y="27">纯随机性检验</tspan>
                </text>
            </g>
            <path id="直线-2" d="M222,92.5 L183,92.5 L182.5,92.5 L182.5,91.5 L183,91.5 L222,91.5 L222,87.5 L231,92 L222,96.5 L222,92.5 Z" fill="#979797" fill-rule="nonzero"></path>
            <path id="直线" d="M91.5,64.5 L91.5,40 L91.5,39.5 L92.5,39.5 L92.5,40 L92.5,64.5 L96.5,64.5 L92,73.5 L87.5,64.5 L91.5,64.5 Z" fill="#979797" fill-rule="nonzero"></path>
            <path id="直线" d="M91.5,136.5 L91.5,112 L91.5,111.5 L92.5,111.5 L92.5,112 L92.5,136.5 L96.5,136.5 L92,145.5 L87.5,136.5 L91.5,136.5 Z" fill="#979797" fill-rule="nonzero"></path>
            <path id="直线" d="M91.5,209.5 L91.5,185 L91.5,184.5 L92.5,184.5 L92.5,185 L92.5,209.5 L96.5,209.5 L92,218.5 L87.5,209.5 L91.5,209.5 Z" fill="#979797" fill-rule="nonzero"></path>
            <text id="Y" font-family="PingFangSC-Regular, PingFang SC" font-size="19" font-weight="normal" fill="#417505">
                <tspan x="68.211" y="134">Y</tspan>
            </text>
            <text id="Y" font-family="PingFangSC-Regular, PingFang SC" font-size="19" font-weight="normal" fill="#417505">
                <tspan x="68.211" y="206">Y</tspan>
            </text>
            <text id="N" font-family="PingFangSC-Regular, PingFang SC" font-size="19" font-weight="normal" fill="#D0021B">
                <tspan x="200.1695" y="112">N</tspan>
            </text>
            <g id="分组-5" transform="translate(231.000000, 145.000000)">
                <rect id="矩形" stroke="#979797" fill="#9B9B9B" x="0.5" y="0.5" width="118" height="39" rx="8"></rect>
                <text id="无价值" font-family="PingFangSC-Regular, PingFang SC" font-size="19" font-weight="normal" fill="#FFFFFF">
                    <tspan x="31" y="27">无价值</tspan>
                </text>
            </g>
            <path id="直线-2" d="M222,164.5 L183,164.5 L182.5,164.5 L182.5,163.5 L183,163.5 L222,163.5 L222,159.5 L231,164 L222,168.5 L222,164.5 Z" fill="#979797" fill-rule="nonzero"></path>
            <text id="N" font-family="PingFangSC-Regular, PingFang SC" font-size="19" font-weight="normal" fill="#D0021B">
                <tspan x="200.1695" y="184">N</tspan>
            </text>
            <path id="路径" d="M100.5,51.8671875 L287.125,51.8671875 L287.625,51.8671875 L287.625,52.3671875 L287.625,73 L286.625,73 L286.625,52.8671875 L100.5,52.8671875 L100.5,56.8671875 L91.5,52.3671875 L100.5,47.8671875 L100.5,51.8671875 Z" fill="#979797" fill-rule="nonzero"></path>
        </g>
    </g>
</svg>