<?xml version="1.0" encoding="UTF-8"?>
<svg width="518px" height="129px" viewBox="0 0 518 129" version="1.1" xmlns="http://www.w3.org/2000/svg" xmlns:xlink="http://www.w3.org/1999/xlink">
    <!-- Generator: Sketch 52.2 (67145) - http://www.bohemiancoding.com/sketch -->
    <title>分组</title>
    <desc>Created with Sketch.</desc>
    <g id="Page-1" stroke="none" stroke-width="1" fill="none" fill-rule="evenodd">
        <g id="分组" transform="translate(1.000000, 1.000000)">
            <rect id="矩形" stroke="#979797" fill="#F5A623" x="0" y="0" width="40" height="40"></rect>
            <rect id="矩形" stroke="#979797" fill="#F5A623" x="40" y="0" width="40" height="40"></rect>
            <rect id="矩形" stroke="#979797" fill="#F5A623" x="320" y="87" width="40" height="40"></rect>
            <rect id="矩形" stroke="#979797" fill="#F5A623" x="360" y="87" width="40" height="40"></rect>
            <rect id="矩形" stroke="#979797" fill="#7ED321" x="80" y="0" width="40" height="40"></rect>
            <rect id="矩形" stroke="#979797" fill="#7ED321" x="120" y="0" width="40" height="40"></rect>
            <rect id="矩形" stroke="#979797" fill="#7ED321" x="160" y="0" width="40" height="40"></rect>
            <rect id="矩形" stroke="#979797" fill="#7ED321" x="200" y="0" width="40" height="40"></rect>
            <rect id="矩形" stroke="#979797" fill="#7ED321" x="240" y="0" width="40" height="40"></rect>
            <rect id="矩形" stroke="#979797" fill="#7ED321" x="280" y="0" width="40" height="40"></rect>
            <rect id="矩形" stroke="#979797" fill="#7ED321" x="160" y="87" width="40" height="40"></rect>
            <rect id="矩形" stroke="#979797" fill="#7ED321" x="80" y="87" width="40" height="40"></rect>
            <rect id="矩形" stroke="#979797" fill="#7ED321" x="120" y="87" width="40" height="40"></rect>
            <rect id="矩形" stroke="#979797" fill="#7ED321" x="200" y="87" width="40" height="40"></rect>
            <rect id="矩形" stroke="#979797" fill="#7ED321" x="240" y="87" width="40" height="40"></rect>
            <rect id="矩形" stroke="#979797" fill="#7ED321" x="280" y="87" width="40" height="40"></rect>
            <text id="延迟-k=2-期" font-family="PingFangSC-Regular, PingFang SC" font-size="19" font-weight="normal" fill="#F5A623">
                <tspan x="416.2" y="113">延迟 k=2 期</tspan>
            </text>
            <text id="计算相关性系数" font-family="PingFangSC-Regular, PingFang SC" font-size="19" font-weight="normal" fill="#7ED321">
                <tspan x="134" y="68">计算相关性系数</tspan>
            </text>
        </g>
    </g>
</svg>