<?xml version="1.0" encoding="UTF-8"?>
<svg width="308px" height="312px" viewBox="0 0 308 312" version="1.1" xmlns="http://www.w3.org/2000/svg" xmlns:xlink="http://www.w3.org/1999/xlink">
    <!-- Generator: Sketch 52.5 (67469) - http://www.bohemiancoding.com/sketch -->
    <title>分组 6</title>
    <desc>Created with Sketch.</desc>
    <g id="Page-1" stroke="none" stroke-width="1" fill="none" fill-rule="evenodd">
        <g id="分组-6" transform="translate(0.000000, -3.000000)">
            <g id="分组-3" transform="translate(227.000000, 207.000000)">
                <g id="模型" transform="translate(0.000000, 0.000000)">
                    <path d="M77.7835498,79.976912 L2.30880231,79.976912 C1.08513709,79.976912 0.0923520924,78.984127 0.0923520924,77.7604618 L0.0923520924,2.27417027 C0.0923520924,1.05050505 1.08513709,0.0577200577 2.30880231,0.0577200577 L77.7950938,0.0577200577 C79.018759,0.0577200577 80.011544,1.05050505 80.011544,2.27417027 L80.011544,77.7604618 C80.011544,78.984127 79.018759,79.976912 77.7835498,79.976912 Z M4.52525253,75.5324675 L75.5670996,75.5324675 L75.5670996,4.49062049 L4.52525253,4.49062049 L4.52525253,75.5324675 Z" id="形状" fill="#808080" fill-rule="nonzero"></path>
                    <path d="M46.5800866,69.044733 L66.1125541,57.7662338 C66.989899,57.2582973 67.5209235,56.3232323 67.5209235,55.3189033 L67.5209235,32.7503608 C67.5209235,31.7344877 66.978355,30.8109668 66.1125541,30.3030303 L46.5800866,19.024531 C45.7027417,18.5165945 44.6291486,18.5165945 43.7518038,19.024531 L24.2193362,30.3030303 C23.3419913,30.8109668 22.8109668,31.7460317 22.8109668,32.7503608 L22.8109668,55.3073593 C22.8109668,56.3232323 23.3535354,57.2467532 24.2193362,57.7546898 L43.7518038,69.033189 C44.6176046,69.5526696 45.7027417,69.5526696 46.5800866,69.044733 Z" id="路径" fill="#33DEB4" opacity="0.4"></path>
                    <path d="M38.8571429,67.7056277 L16.6580087,54.8917749 C15.9191919,54.4646465 15.4574315,53.6796537 15.4574315,52.8253968 L15.4574315,27.1976912 C15.4574315,26.3434343 15.9076479,25.5584416 16.6580087,25.1313131 L38.8571429,12.3174603 C39.5959596,11.8903319 40.5079365,11.8903319 41.2467532,12.3174603 L63.4458874,25.1313131 C64.1847042,25.5584416 64.6464646,26.3434343 64.6464646,27.1976912 L64.6464646,52.8253968 C64.6464646,53.6796537 64.1962482,54.4646465 63.4574315,54.8917749 L41.2352092,67.7056277 C40.4963925,68.1327561 39.5959596,68.1327561 38.8571429,67.7056277 Z M21.0909091,52.3290043 L38.8455988,62.5800866 C39.5844156,63.007215 40.4963925,63.007215 41.2352092,62.5800866 L58.989899,52.3290043 C59.7287157,51.9018759 60.1789322,51.1168831 60.1789322,50.2626263 L60.1789322,29.7604618 C60.1789322,28.9062049 59.7287157,28.1212121 58.989899,27.6940837 L41.2352092,17.4430014 C40.4963925,17.015873 39.5844156,17.015873 38.8455988,17.4430014 L21.0909091,27.6940837 C20.3520924,28.1212121 19.9018759,28.9062049 19.9018759,29.7604618 L19.9018759,50.2510823 C19.9018759,51.1053391 20.3520924,51.9018759 21.0909091,52.3290043 Z" id="形状" fill="#33DEB4" fill-rule="nonzero"></path>
                    <path d="M40.0692641,43.001443 L16.6002886,29.4487734 C15.5382395,28.8369408 15.1688312,27.4747475 15.7922078,26.4126984 C16.4040404,25.3506494 17.7662338,24.981241 18.8282828,25.6046176 L40.0808081,37.8759019 L61.3333333,25.6046176 C62.3953824,24.981241 63.7460317,25.3506494 64.3694084,26.4126984 C64.981241,27.4747475 64.6233766,28.8369408 63.5613276,29.4487734 L40.0692641,43.001443 Z" id="路径" fill="#33DEB4"></path>
                    <path d="M40.0692641,67.047619 C38.8455988,67.047619 37.8528139,66.0548341 37.8528139,64.8311688 L37.8528139,40.4386724 C37.8528139,39.2150072 38.8455988,38.2222222 40.0692641,38.2222222 C41.2929293,38.2222222 42.2857143,39.2150072 42.2857143,40.4386724 L42.2857143,64.8196248 C42.2857143,66.0548341 41.2929293,67.047619 40.0692641,67.047619 Z" id="路径" fill="#33DEB4"></path>
                    <path d="M11.3593074,12.2828283 C10.7590188,12.2828283 10.1471861,12.040404 9.70851371,11.5555556 L4.0981241,5.33333333 C3.27849928,4.42135642 3.34776335,3.01298701 4.25974026,2.19336219 C5.17171717,1.37373737 6.56854257,1.44300144 7.3997114,2.35497835 L13.010101,8.57720058 C13.8297258,9.48917749 13.7604618,10.8975469 12.8484848,11.7171717 C12.4213564,12.0865801 11.8903319,12.2828283 11.3593074,12.2828283 Z M75.8095238,77.4025974 C75.2092352,77.4025974 74.5974026,77.1601732 74.1587302,76.6753247 L68.5483405,70.4531025 C67.7287157,69.5411255 67.7979798,68.1327561 68.7099567,67.3131313 C69.6219336,66.4935065 71.018759,66.5627706 71.8499278,67.4747475 L77.4603175,73.6969697 C78.2799423,74.6089466 78.2106782,76.017316 77.2987013,76.8369408 C76.8715729,77.2063492 76.3405483,77.4025974 75.8095238,77.4025974 Z M4.28282828,77.5873016 C3.67099567,77.5873016 3.07070707,77.3448773 2.63203463,76.8600289 C1.81240981,75.9480519 1.88167388,74.5396825 2.79365079,73.7200577 L9.01587302,68.1096681 C9.92784993,67.2784993 11.3246753,67.3593074 12.1558442,68.2712843 C12.975469,69.1832612 12.9062049,70.5916306 11.994228,71.4112554 L5.77200577,77.021645 C5.34487734,77.4025974 4.81385281,77.5873016 4.28282828,77.5873016 Z" id="形状" fill="#808080" fill-rule="nonzero"></path>
                    <path d="M69.4025974,13.1370851 C68.7907648,13.1370851 68.1904762,12.8946609 67.7518038,12.4098124 C66.9321789,11.4978355 67.001443,10.0894661 67.9134199,9.26984127 L74.1356421,3.65945166 C75.047619,2.83982684 76.4444444,2.90909091 77.2756133,3.82106782 C78.0952381,4.73304473 78.025974,6.14141414 77.1139971,6.96103896 L70.8917749,12.5714286 C70.4646465,12.9408369 69.9336219,13.1370851 69.4025974,13.1370851 Z" id="路径" fill="#808080"></path>
                </g>
                <text id="动态模型" font-family="PingFangSC-Regular, PingFang SC" font-size="15" font-weight="normal" fill="#111111">
                    <tspan x="10" y="106">动态模型</tspan>
                </text>
            </g>
            <g id="分组-5" transform="translate(227.000000, 0.000000)">
                <g id="云数据库" transform="translate(0.000000, 32.000000)" fill="#808080" fill-rule="nonzero">
                    <path d="M75.72838,43.0260337 L79,39.6937213 L65.2399513,25.7764165 L51.4799026,39.6937213 L54.7515225,43.0260337 L62.9305725,34.6952527 L62.9305725,64 L67.453106,64 L67.453106,34.6952527 L75.72838,43.0260337 Z M41.0876979,54.1990812 L41.0876979,24.992343 L36.4689403,24.992343 L36.4689403,54.2970904 L28.2898904,45.9663093 L25.1144945,49.2006126 L38.7783191,63.1179173 L52.5383678,49.1026034 L49.2667479,45.8683002 L41.0876979,54.1990812 Z M22.9013398,57.4333844 L18.3788063,57.4333844 C10.7771011,57.4333844 4.61875761,51.1607963 4.61875761,43.4180704 C4.61875761,35.6753446 10.7771011,29.4027565 18.3788063,29.4027565 C18.4750305,29.4027565 18.5712546,29.4027565 18.5712546,29.4027565 L20.7844093,29.4027565 C20.8806334,29.4027565 21.6504263,29.5007657 22.4202192,28.618683 C23.1900122,27.7366003 22.9013398,26.9525268 22.9013398,25.9724349 C22.9013398,14.3093415 32.2350792,4.80245023 43.589525,4.80245023 C48.9780755,4.80245023 53.8855055,6.86064319 57.5420219,10.2909648 C57.9269184,10.6830015 57.8306943,10.6830015 58.3118149,11.0750383 C58.7929354,11.7611026 59.4665043,12.1531394 60.3325213,12.1531394 C61.5834348,12.1531394 62.6419001,11.0750383 62.6419001,9.80091884 C62.6419001,9.01684533 62.2570037,8.33078101 61.679659,7.74272588 C61.2947625,7.35068913 61.3909866,7.44869832 60.909866,7.05666156 C56.3873325,2.64624809 50.3252132,0 43.589525,0 C30.0219245,0 18.956151,10.8790199 18.2825822,24.5022971 C8.17904994,24.5022971 0,32.8330781 0,43.1240429 C0,53.4150077 8.17904994,61.7457887 18.2825822,61.7457887 L22.7088916,61.7457887 C23.9598051,61.7457887 25.0182704,60.6676876 25.0182704,59.3935681 C25.1144945,58.4134763 24.1522533,57.4333844 22.9013398,57.4333844 Z" id="形状"></path>
                </g>
                <text id="增量数据" font-family="PingFangSC-Regular, PingFang SC" font-size="15" font-weight="normal" fill="#111111">
                    <tspan x="11" y="16">增量数据</tspan>
                </text>
            </g>
            <g id="分组" transform="translate(0.000000, 220.000000)">
                <text id="本地数据" font-family="PingFangSC-Regular, PingFang SC" font-size="15" font-weight="normal" fill="#111111">
                    <tspan x="0" y="93">本地数据</tspan>
                </text>
                <g id="数据库" transform="translate(4.000000, 0.000000)" fill="#808080">
                    <path d="M1.50772032,19.6488885 C2.03898003,20.5686229 2.70783484,21.4033447 3.49152372,22.1246485 C4.44363186,23.0474305 5.49466955,23.8644309 6.62593309,24.5611107 C8.1628512,25.5495597 9.79813811,26.3791598 11.5060894,27.0368707 C16.0871226,28.6686135 20.9212548,29.4932207 25.7894737,29.4733329 C30.6576926,29.4932207 35.4918248,28.6686135 40.072858,27.0368707 C41.7808093,26.3791598 43.4160962,25.5495597 44.9530143,24.5611107 C46.0842779,23.8644309 47.1353155,23.0474305 48.0874236,22.1246485 C48.8711125,21.4033447 49.5399673,20.5686229 50.071227,19.6488885 C50.5936881,18.9135817 50.9706551,18.0868275 51.182157,17.2124264 C51.447286,16.4135118 51.5812429,15.5776293 51.5789176,14.7366664 C51.5789176,6.56272877 40.0331819,0 25.7894737,0 C11.5457655,0 2.97595609e-05,6.56272877 2.97595609e-05,14.7366664 C-0.00229554144,15.5776293 0.131661447,16.4135118 0.396790474,17.2124264 C0.608292294,18.0868275 0.985259328,18.9135817 1.50772032,19.6488885 Z" id="路径"></path>
                    <path d="M50.0707185,24.6440526 C49.53947,25.6024142 48.8706292,26.4721929 48.0869567,27.2237902 C47.1348685,28.1853275 46.0838529,29.0366405 44.952613,29.7625797 C43.4157271,30.7925419 41.7804744,31.6569837 40.0725589,32.3423174 C35.4916216,34.0425906 30.6575907,34.9018298 25.7894737,34.8811068 C20.9213568,34.9018298 16.0873258,34.0425906 11.5063885,32.3423174 C9.798473,31.6569837 8.16322032,30.7925419 6.6263344,29.7625797 C5.49509455,29.0366405 4.44407887,28.1853275 3.49199068,27.2237902 C2.70831821,26.4721929 2.03947741,25.6024142 1.50822882,24.6440526 C0.985778765,23.8778641 0.608819625,23.0163876 0.397322235,22.1052632 C0.124313783,22.9216081 -0.00991311553,23.7805161 0.000569829311,24.6440526 C-0.00175542299,25.5203345 0.13219876,26.3913226 0.397322235,27.2237902 C0.608819618,28.1349147 0.985778759,28.9963912 1.50822882,29.7625797 C2.03947741,30.7209413 2.70831821,31.59072 3.49199068,32.3423174 C4.44407887,33.3038546 5.49509455,34.1551676 6.6263344,34.8811068 C8.16322032,35.911069 9.79847299,36.7755108 11.5063885,37.4608445 C16.0873258,39.1611178 20.9213568,40.020357 25.7894737,39.9996339 C30.6575907,40.020357 35.4916216,39.1611178 40.0725589,37.4608445 C41.7804744,36.7755108 43.4157271,35.911069 44.952613,34.8811068 C46.0838529,34.1551676 47.1348685,33.3038546 48.0869567,32.3423174 C48.8706292,31.59072 49.53947,30.7209413 50.0707185,29.7625797 C50.5931686,28.9963912 50.9701278,28.1349147 51.1816252,27.2237902 C51.4467486,26.3913226 51.5807028,25.5203345 51.5783775,24.6440526 C51.5888605,23.7805162 51.4546336,22.9216081 51.1816252,22.1052632 C50.9701278,23.0163876 50.5931686,23.8778641 50.0707185,24.6440526 Z" id="路径"></path>
                    <path d="M50.0707185,35.1703684 C49.53947,36.12873 48.8706292,36.9985087 48.0869567,37.7501061 C47.1348685,38.7116433 46.0838529,39.5629563 44.952613,40.2888955 C43.4157271,41.3188577 41.7804744,42.1832995 40.0725589,42.8686331 C35.4916216,44.5689064 30.6575907,45.4281456 25.7894737,45.4074226 C20.9213568,45.4281456 16.0873258,44.5689064 11.5063885,42.8686331 C9.798473,42.1832995 8.16322032,41.3188577 6.6263344,40.2888955 C5.49509455,39.5629563 4.44407887,38.7116433 3.49199068,37.7501061 C2.7083182,36.9985087 2.0394774,36.12873 1.50822882,35.1703684 C0.985778765,34.4041799 0.608819625,33.5427034 0.397322235,32.6315789 C0.124313783,33.4479239 -0.00991311553,34.3068319 0.000569829311,35.1703684 C-0.00175542922,36.0466503 0.132198754,36.9176384 0.397322235,37.7501061 C0.608819625,38.6612305 0.985778765,39.522707 1.50822882,40.2888955 C2.03947741,41.2472571 2.70831821,42.1170358 3.49199068,42.8686331 C4.44407887,43.8301704 5.49509455,44.6814834 6.6263344,45.4074226 C8.16322032,46.4373848 9.79847299,47.3018266 11.5063885,47.9871603 C16.0873258,49.6874336 20.9213568,50.5466728 25.7894737,50.5259497 C30.6575907,50.5466728 35.4916216,49.6874336 40.0725589,47.9871603 C41.7804744,47.3018266 43.4157271,46.4373848 44.952613,45.4074226 C46.0838529,44.6814834 47.1348685,43.8301704 48.0869567,42.8686331 C48.8706292,42.1170358 49.53947,41.2472571 50.0707185,40.2888955 C50.5931686,39.522707 50.9701278,38.6612305 51.1816252,37.7501061 C51.4467487,36.9176384 51.5807028,36.0466503 51.5783775,35.1703684 C51.5888605,34.3068319 51.4546336,33.4479239 51.1816252,32.6315789 C50.9701278,33.5427034 50.5931686,34.4041799 50.0707185,35.1703684 Z" id="路径"></path>
                    <path d="M50.0707185,44.6381444 C49.53947,45.5942758 48.8706292,46.4620304 48.0869567,47.2118787 C47.1348685,48.1711783 46.0838529,49.0205102 44.952613,49.74476 C39.1549249,53.2600967 32.5154445,55.0293931 25.7894737,54.8513756 C19.0635029,55.0293931 12.4240226,53.2600967 6.6263344,49.74476 C5.49509455,49.0205102 4.44407887,48.1711783 3.49199068,47.2118787 C2.7083182,46.4620304 2.0394774,45.5942758 1.50822882,44.6381444 C0.985778765,43.873739 0.608819625,43.0142673 0.397322235,42.1052632 C0.124313783,42.9197084 -0.00991311553,43.7766176 0.000569829311,44.6381444 C-0.00175542922,45.5123871 0.132198754,46.3813484 0.397322235,47.2118787 C0.608819625,48.1208828 0.985778765,48.9803545 1.50822882,49.74476 C2.03947741,50.7008913 2.70831821,51.5686459 3.49199068,52.3184942 C9.73293539,57.6506583 17.6900771,60.3769103 25.7894737,59.9579911 C33.8888703,60.3769103 41.846012,57.6506582 48.0869567,52.3184942 C48.8706292,51.5686459 49.53947,50.7008913 50.0707185,49.74476 C50.5931686,48.9803545 50.9701278,48.1208828 51.1816252,47.2118787 C51.4467487,46.3813484 51.5807028,45.5123871 51.5783775,44.6381444 C51.5888605,43.7766176 51.4546336,42.9197084 51.1816252,42.1052632 C50.9701278,43.0142673 50.5931686,43.873739 50.0707185,44.6381444 Z" id="路径"></path>
                </g>
            </g>
            <g id="分组-2" transform="translate(88.000000, 220.000000)">
                <text id="离线训练" font-family="PingFangSC-Regular, PingFang SC" font-size="15" font-weight="normal" fill="#111111">
                    <tspan x="25.5" y="16">离线训练</tspan>
                </text>
                <path id="直线" d="M103.614987,28.001443 L90.2694775,20.4945941 L88.5263264,19.5140716 L90.4873714,16.0277694 L92.2305225,17.0082919 L112.230522,28.2582919 C113.589826,29.0229001 113.589826,30.9799859 112.230522,31.7445941 L92.2305225,42.9945941 L90.4873714,43.9751166 L88.5263264,40.4888144 L90.2694775,39.5082919 L103.614987,32.001443 L91.25,32.001443 L1,32.001443 L-1,32.001443 L-1,28.001443 L1,28.001443 L91.25,28.001443 L103.614987,28.001443 Z" fill="#808080" fill-rule="nonzero"></path>
            </g>
            <g id="分组-4" transform="translate(197.000000, 115.000000)">
                <path id="直线-2" d="M72.5,66.1149867 L80.0068489,52.7694775 L80.9873714,51.0263264 L84.4736736,52.9873714 L83.4931511,54.7305225 L72.2431511,74.7305225 C71.4785429,76.0898258 69.5214571,76.0898258 68.7568489,74.7305225 L57.5068489,54.7305225 L56.5263264,52.9873714 L60.0126286,51.0263264 L60.9931511,52.7694775 L68.5,66.1149867 L68.5,53.75 L68.5,0.5 L68.5,-1.5 L72.5,-1.5 L72.5,0.5 L72.5,53.75 L72.5,66.1149867 Z" fill="#808080" fill-rule="nonzero"></path>
                <text id="在线训练" font-family="PingFangSC-Regular, PingFang SC" font-size="15" font-weight="normal" fill="#111111">
                    <tspan x="0" y="41">在线训练</tspan>
                </text>
            </g>
        </g>
    </g>
</svg>