<svg xmlns="http://www.w3.org/2000/svg" xmlns:xlink="http://www.w3.org/1999/xlink" width="659" height="395" version="1.1" viewBox="0 0 659 395"><title>Group 3</title><desc>Created with Sketch.</desc><defs><path id="path-1" d="M0,0 L659,0 L659,395 L0,395 L0,0 Z"/><mask id="mask-2" width="659" height="395" x="0" y="0" fill="#fff" maskContentUnits="userSpaceOnUse" maskUnits="objectBoundingBox"><use xlink:href="#path-1"/></mask></defs><g id="Page-3" fill="none" fill-rule="evenodd" stroke="none" stroke-width="1"><g id="Group-3"><use id="Rectangle-2" stroke="#979797" stroke-dasharray="5" stroke-width="4" mask="url(#mask-2)" xlink:href="#path-1"/><g id="Group-2" transform="translate(67.000000, 84.000000)"><g id="Group" transform="translate(95.000000, 0.000000)"><rect id="Rectangle" width="50" height="226" x=".5" y=".5" fill="#D8D8D8" stroke="#979797"/><text id="输入" fill="#4A4A4A" font-family="PingFangSC-Medium, PingFang SC" font-size="18" font-weight="400"><tspan x="7" y="256">输入</tspan></text></g><g id="Group" transform="translate(188.000000, 0.000000)"><rect id="Rectangle" width="50" height="226" x="2.5" y=".5" fill="#F5A623" stroke="#979797"/><text id="卷积层" fill="#4A4A4A" font-family="PingFangSC-Medium, PingFang SC" font-size="18" font-weight="400"><tspan x="0" y="256">卷积层</tspan></text></g><g id="Group" transform="translate(282.000000, 0.000000)"><rect id="Rectangle" width="50" height="226" x="2.5" y=".5" fill="#7ED321" stroke="#979797"/><text id="池化层" fill="#4A4A4A" font-family="PingFangSC-Medium, PingFang SC" font-size="18" font-weight="400"><tspan x="0" y="256">池化层</tspan></text></g><g id="Group" transform="translate(368.000000, 0.000000)"><rect id="Rectangle" width="50" height="226" x="11.5" y=".5" fill="#4A90E2" stroke="#979797"/><text id="全连接层" fill="#4A4A4A" font-family="PingFangSC-Medium, PingFang SC" font-size="18" font-weight="400"><tspan x="0" y="256">全连接层</tspan></text></g><g id="Group" transform="translate(473.000000, 0.000000)"><rect id="Rectangle" width="50" height="226" x=".5" y=".5" fill="#D8D8D8" stroke="#979797"/><text id="输出" fill="#4A4A4A" font-family="PingFangSC-Medium, PingFang SC" font-size="18" font-weight="400"><tspan x="7" y="256">输出</tspan></text></g><path id="Line" stroke="#8B572A" stroke-width="6" d="M0.5,113.5 L64.5,113.5"/><path id="Line-decoration-1" stroke="#8B572A" stroke-width="6" d="M64.5,113.5 L53.7,110.5 L53.7,116.5 L64.5,113.5 Z"/></g><text id="基础卷积神经网络结构" fill="#4A4A4A" font-family="PingFangSC-Medium, PingFang SC" font-size="18" font-weight="400"><tspan x="239" y="56">基础卷积神经网络结构</tspan></text></g></g></svg>