<svg xmlns="http://www.w3.org/2000/svg" xmlns:xlink="http://www.w3.org/1999/xlink" width="535" height="108" version="1.1" viewBox="0 0 535 108"><title>Group 5</title><desc>Created with Sketch.</desc><g id="Page-6" fill="none" fill-rule="evenodd" stroke="none" stroke-width="1"><g id="Group-5" transform="translate(0.000000, -4.000000)"><g id="Group" stroke="#F5A623" stroke-linecap="square" transform="translate(0.000000, 75.000000)"><path id="Line" stroke-width="4" d="M2.5,11.5 L247,11.5"/><path id="Line-3" stroke-width="3" d="M1.5,11.5 L1.5,0.5"/><path id="Line-3" stroke-width="3" d="M247.5,11.5 L247.5,0.5"/></g><g id="Group" stroke="#F5A623" stroke-linecap="square" transform="translate(204.000000, 98.000000)"><path id="Line" stroke-width="4" d="M2.5,11.5 L247,11.5"/><path id="Line-3" stroke-width="3" d="M1.5,11.5 L1.5,0.5"/><path id="Line-3" stroke-width="3" d="M247.5,11.5 L247.5,0.5"/></g><text id="Kernel-=-6；Stride-=" fill="#F5A623" font-family="PingFangSC-Medium, PingFang SC" font-size="11" font-weight="400"><tspan x="1.266" y="110">Kernel = 6；Stride = 5</tspan></text><text id="VALIED" fill="#666" font-family="PingFangSC-Medium, PingFang SC" font-size="11" font-weight="400"><tspan x="1.091" y="12">VALIED</tspan></text><g id="Group-4" transform="translate(1.000000, 25.000000)"><g id="Group-3" stroke="#4A4A4A"><rect id="Rectangle" width="41" height="41" x="0" y="0" fill="#B8E986"/><rect id="Rectangle" width="41" height="41" x="41" y="0" fill="#B8E986"/><rect id="Rectangle" width="41" height="41" x="82" y="0" fill="#B8E986"/><rect id="Rectangle" width="41" height="41" x="123" y="0" fill="#B8E986"/><rect id="Rectangle" width="41" height="41" x="164" y="0" fill="#B8E986"/><rect id="Rectangle" width="41" height="41" x="205" y="0" fill="#B8E986"/><rect id="Rectangle" width="41" height="41" x="246" y="0" fill="#B8E986"/><rect id="Rectangle" width="41" height="41" x="287" y="0" fill="#B8E986"/><rect id="Rectangle" width="41" height="41" x="328" y="0" fill="#B8E986"/><rect id="Rectangle" width="41" height="41" x="369" y="0" fill="#B8E986"/><rect id="Rectangle" width="41" height="41" x="410" y="0" fill="#B8E986"/><rect id="Rectangle" width="41" height="41" x="451" y="0" fill="#9B9B9B"/><rect id="Rectangle" width="41" height="41" x="492" y="0" fill="#9B9B9B"/></g><text id="丢弃" fill="#FFF" font-family="PingFangSC-Medium, PingFang SC" font-size="11" font-weight="400"><tspan x="461" y="24">丢弃</tspan></text><text id="丢弃" fill="#FFF" font-family="PingFangSC-Medium, PingFang SC" font-size="11" font-weight="400"><tspan x="502" y="24">丢弃</tspan></text></g></g></g></svg>