<svg xmlns="http://www.w3.org/2000/svg" xmlns:xlink="http://www.w3.org/1999/xlink" width="658" height="108" version="1.1" viewBox="0 0 658 108"><title>Group 5</title><desc>Created with Sketch.</desc><g id="Page-6" fill="none" fill-rule="evenodd" stroke="none" stroke-width="1"><g id="Group-5" transform="translate(1.000000, -4.000000)"><g id="Group" stroke="#F5A623" stroke-linecap="square" transform="translate(0.000000, 75.000000)"><path id="Line" stroke-width="4" d="M2.5,11.5 L247,11.5"/><path id="Line-3" stroke-width="3" d="M1.5,11.5 L1.5,0.5"/><path id="Line-3" stroke-width="3" d="M247.5,11.5 L247.5,0.5"/></g><g id="Group" stroke="#F5A623" stroke-linecap="square" transform="translate(204.000000, 98.000000)"><path id="Line" stroke-width="4" d="M2.5,11.5 L247,11.5"/><path id="Line-3" stroke-width="3" d="M1.5,11.5 L1.5,0.5"/><path id="Line-3" stroke-width="3" d="M247.5,11.5 L247.5,0.5"/></g><g id="Group" stroke="#F5A623" stroke-linecap="square" transform="translate(407.000000, 75.000000)"><path id="Line" stroke-width="4" d="M2.5,11.5 L247,11.5"/><path id="Line-3" stroke-width="3" d="M1.5,11.5 L1.5,0.5"/><path id="Line-3" stroke-width="3" d="M247.5,11.5 L247.5,0.5"/></g><text id="Kernel-=-6；Stride-=" fill="#F5A623" font-family="PingFangSC-Medium, PingFang SC" font-size="11" font-weight="400"><tspan x="1.266" y="110">Kernel = 6；Stride = 5</tspan></text><text id="SAME" fill="#666" font-family="PingFangSC-Medium, PingFang SC" font-size="11" font-weight="400"><tspan x=".27" y="12">SAME</tspan></text><g id="Group-4" transform="translate(0.000000, 25.000000)"><g id="Group-3"><rect id="Rectangle" width="41" height="41" x="41" y="0" fill="#B8E986" stroke="#4A4A4A"/><rect id="Rectangle" width="41" height="41" x="82" y="0" fill="#B8E986" stroke="#4A4A4A"/><rect id="Rectangle" width="41" height="41" x="123" y="0" fill="#B8E986" stroke="#4A4A4A"/><rect id="Rectangle" width="41" height="41" x="164" y="0" fill="#B8E986" stroke="#4A4A4A"/><rect id="Rectangle" width="41" height="41" x="205" y="0" fill="#B8E986" stroke="#4A4A4A"/><rect id="Rectangle" width="41" height="41" x="246" y="0" fill="#B8E986" stroke="#4A4A4A"/><rect id="Rectangle" width="41" height="41" x="287" y="0" fill="#B8E986" stroke="#4A4A4A"/><rect id="Rectangle" width="41" height="41" x="328" y="0" fill="#B8E986" stroke="#4A4A4A"/><rect id="Rectangle" width="41" height="41" x="369" y="0" fill="#B8E986" stroke="#4A4A4A"/><rect id="Rectangle" width="41" height="41" x="410" y="0" fill="#B8E986" stroke="#4A4A4A"/><rect id="Rectangle" width="41" height="41" x="492" y="0" fill="#B8E986" stroke="#4A4A4A"/><rect id="Rectangle" width="41" height="41" x="533" y="0" fill="#B8E986" stroke="#4A4A4A"/><rect id="Rectangle" width="41" height="41" x="451" y="0" fill="#B8E986" stroke="#4A4A4A"/><g id="Group-7" transform="translate(574.000000, 0.000000)"><rect id="Rectangle" width="41" height="41" x="0" y="0" fill="#4A90E2" stroke="#4A4A4A"/><text id="0" fill="#FFF" font-family="PingFangSC-Medium, PingFang SC" font-size="11" font-weight="400"><tspan x="17.7" y="24">0</tspan></text></g><g id="Group-6" transform="translate(615.000000, 0.000000)"><rect id="Rectangle" width="41" height="41" x="0" y="0" fill="#4A90E2" stroke="#4A4A4A"/><text id="0" fill="#FFF" font-family="PingFangSC-Medium, PingFang SC" font-size="11" font-weight="400"><tspan x="17.7" y="24">0</tspan></text></g><g id="Group-6"><rect id="Rectangle" width="41" height="41" x="0" y="0" fill="#4A90E2" stroke="#4A4A4A"/><text id="0" fill="#FFF" font-family="PingFangSC-Medium, PingFang SC" font-size="11" font-weight="400"><tspan x="17.7" y="24">0</tspan></text></g></g></g></g></g></svg>