<svg xmlns="http://www.w3.org/2000/svg" xmlns:xlink="http://www.w3.org/1999/xlink" width="689" height="265" version="1.1" viewBox="0 0 689 265"><title>编组 4</title><desc>Created with Sketch.</desc><g id="页面1" fill="none" fill-rule="evenodd" stroke="none" stroke-width="1"><g id="编组-4"><g id="编组-3" transform="translate(36.000000, 15.000000)"><g id="编组" fill="#D8D8D8" stroke="#979797" transform="translate(13.000000, 48.000000)"><circle id="椭圆形" cx="29" cy="29" r="29"/><circle id="椭圆形" cx="107" cy="29" r="29"/><circle id="椭圆形" cx="185" cy="29" r="29"/><circle id="椭圆形" cx="263" cy="29" r="29"/><circle id="椭圆形" cx="341" cy="29" r="29"/><circle id="椭圆形" cx="419" cy="29" r="29"/><circle id="椭圆形" cx="497" cy="29" r="29"/><circle id="椭圆形" cx="575" cy="29" r="29"/><circle id="椭圆形" cx="29" cy="107" r="29"/><circle id="椭圆形" cx="107" cy="107" r="29"/><circle id="椭圆形" cx="185" cy="107" r="29"/><circle id="椭圆形" cx="263" cy="107" r="29"/><circle id="椭圆形" cx="341" cy="107" r="29"/><circle id="椭圆形" cx="419" cy="107" r="29"/><circle id="椭圆形" cx="497" cy="107" r="29"/><circle id="椭圆形" cx="575" cy="107" r="29"/></g><g id="编组-2"><rect id="矩形" width="157" height="157" x="1.5" y="37.5" stroke="#0091FF" stroke-width="3"/><text id="Mini-Batch" fill="#0091FF" font-family="PingFangSC-Medium, PingFang SC" font-size="19" font-weight="400"><tspan x="33" y="20">Mini Batch</tspan></text></g></g><rect id="矩形" width="686" height="223" x="1.5" y="1.5" stroke="#FA6400" stroke-width="3"/><text id="Epoch" fill="#FA6400" font-family="PingFangSC-Medium, PingFang SC" font-size="19" font-weight="400"><tspan x="619" y="30">Epoch</tspan></text><text id="将数据集划分为-4-个-Mini-Bat" fill="#000" fill-opacity=".85" font-family="PingFangSC-Medium, PingFang SC" font-size="19" font-weight="400"><tspan x="67" y="261">将数据集划分为 4 个 Mini Batch，需迭代 4 次后完成一个 Epoch</tspan></text></g></g></svg>