<svg xmlns="http://www.w3.org/2000/svg" xmlns:xlink="http://www.w3.org/1999/xlink" width="300" height="57" version="1.1" viewBox="0 0 300 57"><title>wordmark</title><desc>Created with Sketch.</desc><g id="Page-1" fill="none" fill-rule="evenodd" stroke="none" stroke-width="1"><g id="wordmark" fill="#4A90E2" fill-rule="nonzero"><path id="Shape" d="M14.1038961,20.961039 L0,20.961039 L0,55.4805195 L7.63636364,55.4805195 L7.63636364,45.1168831 L13.4025974,45.1168831 C21.1168831,45.1168831 27.3506494,40.987013 27.3506494,32.961039 L27.3506494,32.8831169 C27.3506494,25.8701299 22.3636364,20.961039 14.1038961,20.961039 Z M19.6363636,33.1168831 C19.6363636,36.0779221 17.4545455,38.3376623 13.6363636,38.3376623 L7.63636364,38.3376623 L7.63636364,27.8181818 L13.4805195,27.8181818 C17.2987013,27.8181818 19.6363636,29.6103896 19.6363636,33.038961 L19.6363636,33.1168831 Z"/><path id="Shape" d="M71.6103896,32.4935065 L71.6103896,32.4155844 C71.6103896,29.1428571 70.5974026,26.4155844 68.6493506,24.5454545 C66.3896104,22.2857143 62.961039,21.038961 58.5974026,21.038961 L42.8571429,21.038961 L42.8571429,55.5584416 L50.4935065,55.5584416 L50.4935065,44.4155844 L56.4935065,44.4155844 L63.8961039,55.4805195 L72.7792208,55.4805195 L64.2077922,43.1688312 C68.6493506,41.5324675 71.6103896,38.025974 71.6103896,32.4935065 Z M63.974026,32.8831169 C63.974026,35.7662338 61.8701299,37.7922078 58.1298701,37.7922078 L50.4155844,37.7922078 L50.4155844,27.8181818 L57.974026,27.8181818 C61.6363636,27.8181818 63.974026,29.5324675 63.974026,32.7272727 L63.974026,32.8831169 Z"/><path id="Shape" d="M154.285714,20.961039 L140.181818,20.961039 L140.181818,55.4805195 L147.818182,55.4805195 L147.818182,45.1168831 L153.584416,45.1168831 C161.298701,45.1168831 167.532468,40.987013 167.532468,32.961039 L167.532468,32.8831169 C167.454545,25.8701299 162.467532,20.961039 154.285714,20.961039 Z M159.818182,33.1168831 C159.818182,36.0779221 157.636364,38.3376623 153.818182,38.3376623 L147.818182,38.3376623 L147.818182,27.8181818 L153.662338,27.8181818 C157.480519,27.8181818 159.818182,29.6103896 159.818182,33.038961 L159.818182,33.1168831 Z"/><polygon id="Shape" points="204.623 34.597 190.597 34.597 190.597 20.961 182.961 20.961 182.961 55.481 190.597 55.481 190.597 41.61 204.623 41.61 204.623 55.481 212.182 55.481 212.182 20.961 204.623 20.961"/><polygon id="Shape" points="237.896 41.455 254.182 41.455 254.182 34.753 237.896 34.753 237.896 27.74 256.364 27.74 256.364 20.961 230.338 20.961 230.338 55.481 256.597 55.481 256.597 48.701 237.896 48.701"/><polygon id="Shape" points="270.779 20.961 270.779 27.974 281.299 27.974 281.299 55.481 288.935 55.481 288.935 27.974 299.377 27.974 299.377 20.961"/><path id="Shape" d="M94.7532468,38.2597403 L94.7532468,38.1818182 C94.7532468,32.2597403 98.961039,27.4285714 105.116883,27.4285714 C106.051948,27.4285714 106.909091,27.5844156 107.766234,27.7402597 L112.597403,21.8181818 C110.415584,20.8831169 107.922078,20.4155844 105.194805,20.4155844 C94.5194805,20.4155844 86.8051948,28.4415584 86.8051948,38.2597403 L86.8051948,38.3376623 C86.8051948,42.3896104 88.1298701,46.2077922 90.4675325,49.1688312 L95.6883117,42.7012987 C95.0649351,41.3766234 94.7532468,39.8181818 94.7532468,38.2597403 Z"/><path id="Shape" d="M115.324675,35.9220779 C115.480519,36.7012987 115.558442,37.4805195 115.558442,38.2597403 L115.558442,38.3376623 C115.558442,44.2597403 111.350649,49.0909091 105.194805,49.0909091 C103.402597,49.0909091 101.844156,48.7012987 100.441558,47.9220779 L94.3636364,52.8311688 C97.3246753,54.8571429 100.987013,56.1038961 105.116883,56.1038961 C115.792208,56.1038961 123.506494,48.0779221 123.506494,38.2597403 L123.506494,38.1818182 C123.506494,35.4545455 122.883117,32.961039 121.87013,30.7012987 L115.324675,35.9220779 Z"/><circle id="Oval" cx="127.714" cy="15.74" r="5.377"/><circle id="Oval" cx="140.416" cy="3.039" r="3.039"/></g></g></svg>