<svg xmlns="http://www.w3.org/2000/svg" xmlns:xlink="http://www.w3.org/1999/xlink" width="520" height="384" version="1.1" viewBox="0 0 520 384"><title>Group 9</title><desc>Created with Sketch.</desc><g id="Page-1" fill="none" fill-rule="evenodd" stroke="none" stroke-width="1"><g id="Group-9" transform="translate(1.000000, 1.000000)"><g id="Group-6" transform="translate(209.000000, 0.000000)"><g id="Group-3"><rect id="Rectangle" width="50" height="50" x="0" y="0" fill="#ACFF8D" stroke="#979797"/><text id="A" fill="#4A4A4A" font-family="PingFangSC-Medium, PingFang SC" font-size="20" font-weight="400"><tspan x="18" y="31">A</tspan></text><rect id="Rectangle" width="50" height="50" x="0" y="50" fill="#ACFF8D" stroke="#979797"/><text id="A" fill="#4A4A4A" font-family="PingFangSC-Medium, PingFang SC" font-size="20" font-weight="400"><tspan x="18" y="81">A</tspan></text><rect id="Rectangle" width="50" height="50" x="50" y="0" fill="#ACFF8D" stroke="#979797"/><text id="1" fill="#4A4A4A" font-family="PingFangSC-Medium, PingFang SC" font-size="20" font-weight="400"><tspan x="68" y="31">1</tspan></text><rect id="Rectangle" width="50" height="50" x="50" y="50" fill="#ACFF8D" stroke="#979797"/><text id="4" fill="#4A4A4A" font-family="PingFangSC-Medium, PingFang SC" font-size="20" font-weight="400"><tspan x="68" y="81">4</tspan></text></g><g id="Group-4" transform="translate(0.000000, 141.000000)"><rect id="Rectangle" width="50" height="50" x="0" y="0" fill="#ACFF8D" stroke="#979797"/><text id="B" fill="#4A4A4A" font-family="PingFangSC-Medium, PingFang SC" font-size="20" font-weight="400"><tspan x="18" y="31">B</tspan></text><rect id="Rectangle" width="50" height="50" x="0" y="50" fill="#ACFF8D" stroke="#979797"/><text id="B" fill="#4A4A4A" font-family="PingFangSC-Medium, PingFang SC" font-size="20" font-weight="400"><tspan x="18" y="81">B</tspan></text><rect id="Rectangle" width="50" height="50" x="50" y="0" fill="#ACFF8D" stroke="#979797"/><text id="2" fill="#4A4A4A" font-family="PingFangSC-Medium, PingFang SC" font-size="20" font-weight="400"><tspan x="68" y="31">2</tspan></text><rect id="Rectangle" width="50" height="50" x="50" y="50" fill="#ACFF8D" stroke="#979797"/><text id="5" fill="#4A4A4A" font-family="PingFangSC-Medium, PingFang SC" font-size="20" font-weight="400"><tspan x="68" y="81">5</tspan></text></g><g id="Group-5" transform="translate(0.000000, 282.000000)"><rect id="Rectangle" width="50" height="50" x="0" y="0" fill="#ACFF8D" stroke="#979797"/><text id="C" fill="#4A4A4A" font-family="PingFangSC-Medium, PingFang SC" font-size="20" font-weight="400"><tspan x="18" y="31">C</tspan></text><rect id="Rectangle" width="50" height="50" x="0" y="50" fill="#ACFF8D" stroke="#979797"/><text id="C" fill="#4A4A4A" font-family="PingFangSC-Medium, PingFang SC" font-size="20" font-weight="400"><tspan x="18" y="81">C</tspan></text><rect id="Rectangle" width="50" height="50" x="50" y="0" fill="#ACFF8D" stroke="#979797"/><text id="3" fill="#4A4A4A" font-family="PingFangSC-Medium, PingFang SC" font-size="20" font-weight="400"><tspan x="68" y="31">3</tspan></text><rect id="Rectangle" width="50" height="50" x="50" y="50" fill="#ACFF8D" stroke="#979797"/><text id="6" fill="#4A4A4A" font-family="PingFangSC-Medium, PingFang SC" font-size="20" font-weight="400"><tspan x="68" y="81">6</tspan></text></g></g><g id="Group-8" transform="translate(0.000000, 41.000000)"><g id="Group-2"><rect id="Rectangle" width="50" height="50" x="0" y="0" fill="#F8E71C" stroke="#979797"/><text id="A" fill="#4A4A4A" font-family="PingFangSC-Medium, PingFang SC" font-size="20" font-weight="400"><tspan x="18" y="31">A</tspan></text><rect id="Rectangle" width="50" height="50" x="0" y="50" fill="#F8E71C" stroke="#979797"/><text id="B" fill="#4A4A4A" font-family="PingFangSC-Medium, PingFang SC" font-size="20" font-weight="400"><tspan x="18" y="81">B</tspan></text><rect id="Rectangle" width="50" height="50" x="0" y="100" fill="#F8E71C" stroke="#979797"/><text id="C" fill="#4A4A4A" font-family="PingFangSC-Medium, PingFang SC" font-size="20" font-weight="400"><tspan x="18" y="131">C</tspan></text><rect id="Rectangle" width="50" height="50" x="0" y="150" fill="#F8E71C" stroke="#979797"/><text id="A" fill="#4A4A4A" font-family="PingFangSC-Medium, PingFang SC" font-size="20" font-weight="400"><tspan x="18" y="181">A</tspan></text><rect id="Rectangle" width="50" height="50" x="0" y="200" fill="#F8E71C" stroke="#979797"/><text id="B" fill="#4A4A4A" font-family="PingFangSC-Medium, PingFang SC" font-size="20" font-weight="400"><tspan x="18" y="231">B</tspan></text><rect id="Rectangle" width="50" height="50" x="0" y="250" fill="#F8E71C" stroke="#979797"/><text id="C" fill="#4A4A4A" font-family="PingFangSC-Medium, PingFang SC" font-size="20" font-weight="400"><tspan x="18" y="281">C</tspan></text></g><g id="Group" transform="translate(50.000000, 0.000000)"><rect id="Rectangle" width="50" height="50" x="0" y="0" fill="#F8E71C" fill-opacity=".41" stroke="#979797"/><text id="1" fill="#4A4A4A" font-family="PingFangSC-Medium, PingFang SC" font-size="20" font-weight="400"><tspan x="18" y="31">1</tspan></text><rect id="Rectangle" width="50" height="50" x="0" y="50" fill="#F8E71C" fill-opacity=".41" stroke="#979797"/><text id="2" fill="#4A4A4A" font-family="PingFangSC-Medium, PingFang SC" font-size="20" font-weight="400"><tspan x="18" y="81">2</tspan></text><rect id="Rectangle" width="50" height="50" x="0" y="100" fill="#F8E71C" fill-opacity=".41" stroke="#979797"/><text id="3" fill="#4A4A4A" font-family="PingFangSC-Medium, PingFang SC" font-size="20" font-weight="400"><tspan x="18" y="131">3</tspan></text><rect id="Rectangle" width="50" height="50" x="0" y="150" fill="#F8E71C" fill-opacity=".41" stroke="#979797"/><text id="4" fill="#4A4A4A" font-family="PingFangSC-Medium, PingFang SC" font-size="20" font-weight="400"><tspan x="18" y="181">4</tspan></text><rect id="Rectangle" width="50" height="50" x="0" y="200" fill="#F8E71C" fill-opacity=".41" stroke="#979797"/><text id="5" fill="#4A4A4A" font-family="PingFangSC-Medium, PingFang SC" font-size="20" font-weight="400"><tspan x="18" y="231">5</tspan></text><rect id="Rectangle" width="50" height="50" x="0" y="250" fill="#F8E71C" fill-opacity=".41" stroke="#979797"/><text id="6" fill="#4A4A4A" font-family="PingFangSC-Medium, PingFang SC" font-size="20" font-weight="400"><tspan x="18" y="281">6</tspan></text></g></g><g id="Group-7" transform="translate(418.000000, 116.000000)"><rect id="Rectangle" width="50" height="50" x="0" y="0" fill="#4A90E2" stroke="#FFF"/><text id="A" fill="#FFF" font-family="PingFangSC-Medium, PingFang SC" font-size="20" font-weight="400"><tspan x="18" y="31">A</tspan></text><rect id="Rectangle" width="50" height="50" x="0" y="50" fill="#4A90E2" stroke="#FFF"/><text id="B" fill="#FFF" font-family="PingFangSC-Medium, PingFang SC" font-size="20" font-weight="400"><tspan x="18" y="81">B</tspan></text><rect id="Rectangle" width="50" height="50" x="0" y="100" fill="#4A90E2" stroke="#FFF"/><text id="C" fill="#FFF" font-family="PingFangSC-Medium, PingFang SC" font-size="20" font-weight="400"><tspan x="18" y="131">C</tspan></text><rect id="Rectangle" width="50" height="50" x="50" y="0" fill="#4A90E2" stroke="#FFF"/><text id="5" fill="#FFF" font-family="PingFangSC-Medium, PingFang SC" font-size="20" font-weight="400"><tspan x="68" y="31">5</tspan></text><rect id="Rectangle" width="50" height="50" x="50" y="50" fill="#4A90E2" stroke="#FFF"/><text id="7" fill="#FFF" font-family="PingFangSC-Medium, PingFang SC" font-size="20" font-weight="400"><tspan x="68" y="81">7</tspan></text><rect id="Rectangle" width="50" height="50" x="50" y="100" fill="#4A90E2" stroke="#FFF"/><text id="9" fill="#FFF" font-family="PingFangSC-Medium, PingFang SC" font-size="20" font-weight="400"><tspan x="68" y="131">9</tspan></text></g><text id="分组" fill="#4A4A4A" font-family="PingFangSC-Medium, PingFang SC" font-size="20" font-weight="400"><tspan x="124" y="184">分组</tspan></text><text id="聚合" fill="#4A4A4A" font-family="PingFangSC-Medium, PingFang SC" font-size="20" font-weight="400"><tspan x="331" y="184">聚合</tspan></text><path id="Line" fill="#979797" fill-rule="nonzero" d="M181.815954,191.996858 C181.977572,191.91605 182.108621,191.785001 182.189429,191.623383 C182.395694,191.210854 182.228483,190.709223 181.815954,190.502959 L169.486368,184.338165 C169.370408,184.280185 169.242541,184.25 169.112893,184.25 C168.651672,184.25 168.277778,184.623894 168.277778,185.085115 L168.277778,197.414702 C168.277778,197.544349 168.307963,197.672216 168.365943,197.788177 C168.572208,198.200706 169.073839,198.367916 169.486368,198.161652 L181.815954,191.996858 Z M124.5,192.25 L169.277778,192.25 L169.277778,190.25 L124.5,190.25 L124.5,192.25 Z"/><path id="Line" fill="#979797" fill-rule="nonzero" d="M388.815954,191.996858 C388.977572,191.91605 389.108621,191.785001 389.189429,191.623383 C389.395694,191.210854 389.228483,190.709223 388.815954,190.502959 L376.486368,184.338165 C376.370408,184.280185 376.242541,184.25 376.112893,184.25 C375.651672,184.25 375.277778,184.623894 375.277778,185.085115 L375.277778,197.414702 C375.277778,197.544349 375.307963,197.672216 375.365943,197.788177 C375.572208,198.200706 376.073839,198.367916 376.486368,198.161652 L388.815954,191.996858 Z M331.5,192.25 L376.277778,192.25 L376.277778,190.25 L331.5,190.25 L331.5,192.25 Z"/></g></g></svg>