<svg xmlns="http://www.w3.org/2000/svg" xmlns:xlink="http://www.w3.org/1999/xlink" width="287" height="156" version="1.1" viewBox="0 0 287 156"><title>Group 858</title><desc>Created with Sketch.</desc><g id="Page-7" fill="none" fill-rule="evenodd" stroke="none" stroke-width="1"><g id="learningfinancialmarketdatawithrecurrentautoencodersandtensorflow-160805121911" transform="translate(-86.000000, -36.000000)"><g id="Group-858" transform="translate(86.000000, 36.120000)"><g id="Group-438" font-family="LucidaGrande, Lucida Grande" font-weight="normal" transform="translate(0.000000, 4.000000)"><text id="." fill="#000" font-size="6.974"><tspan x="38.52" y="106.366">.</tspan></text><text id="A" fill="#2E474C" font-size="5.579"><tspan x=".35" y="5.759">A</tspan></text></g><g id="Group-440" font-family="LucidaGrande, Lucida Grande" font-weight="normal" transform="translate(2.000000, 38.000000)"><text id="." fill="#000" font-size="6.974"><tspan x="36.52" y="72.366">.</tspan></text><g id="Group-439" fill="#2E474C"><text id="L" font-size="5.579"><tspan x=".02" y="5.469">L</tspan></text><text id="3" font-size="3.985"><tspan x="2.66" y="7.147">3</tspan></text></g></g><g id="Group-442" font-family="LucidaGrande, Lucida Grande" font-weight="normal" transform="translate(2.000000, 72.000000)"><text id="." fill="#000" font-size="6.974"><tspan x="36.52" y="38.366">.</tspan></text><g id="Group-441" fill="#2E474C"><text id="L" font-size="5.579"><tspan x=".04" y="5.509">L</tspan></text><text id="2" font-size="3.985"><tspan x="2.672" y="7.187">2</tspan></text></g></g><g id="Group-444" font-family="LucidaGrande, Lucida Grande" font-weight="normal" transform="translate(2.000000, 103.000000)"><text id="." fill="#000" font-size="6.974"><tspan x="36.52" y="7.366">.</tspan></text><g id="Group-443" fill="#2E474C" transform="translate(0.000000, 3.000000)"><text id="L" font-size="5.579"><tspan x=".17" y="5.529">L</tspan></text><text id="1" font-size="3.985"><tspan x="2.802" y="7.199">1</tspan></text></g></g><g id="Group-445" font-family="LucidaGrande, Lucida Grande" font-weight="normal" transform="translate(2.000000, 103.000000)"><text id="." fill="#000" font-size="6.974"><tspan x="36.52" y="7.366">.</tspan></text><text id="iA" fill="#2E474C" font-size="5.579"><tspan x=".13" y="43.129">iA</tspan></text></g><g id="Group-451" transform="translate(29.000000, 0.000000)"><g id="Group-448"><path id="Fill-446" fill="#FFF" d="M18.591,9.53111 C18.591,4.52127 14.52984,0.46011 9.52,0.46011 C4.51016,0.46011 0.449,4.52127 0.449,9.53111 C0.449,14.54097 4.51016,18.60213 9.52,18.60213 C14.52984,18.60213 18.591,14.54097 18.591,9.53111 Z"/><path id="Stroke-447" stroke="#424242" stroke-width=".797" d="M18.591,9.53111 C18.591,4.52127 14.52984,0.46011 9.52,0.46011 C4.51016,0.46011 0.449,4.52127 0.449,9.53111 C0.449,14.54097 4.51016,18.60213 9.52,18.60213 C14.52984,18.60213 18.591,14.54097 18.591,9.53111 Z"/></g><g id="Group-450" font-family="LucidaGrande, Lucida Grande" font-weight="normal" transform="translate(7.000000, 4.000000)"><text id="." fill="#000" font-size="6.974"><tspan x="2.52" y="106.366">.</tspan></text><g id="Group-449" fill="#2E474C"><text id="A" font-size="5.579"><tspan x=".43" y="5.019">A</tspan></text><text id="t" font-size="3.985"><tspan x="2.87" y="6.689">t</tspan></text></g></g></g><g id="Group-457" transform="translate(29.000000, 34.000000)"><g id="Group-454"><path id="Fill-452" fill="#FFF" d="M18.591,9.5474 C18.591,4.53757 14.52984,0.47641 9.52,0.47641 C4.51016,0.47641 0.449,4.53757 0.449,9.5474 C0.449,14.55726 4.51016,18.61842 9.52,18.61842 C14.52984,18.61842 18.591,14.55726 18.591,9.5474 Z"/><path id="Stroke-453" stroke="#424242" stroke-width=".797" d="M18.591,9.5474 C18.591,4.53757 14.52984,0.47641 9.52,0.47641 C4.51016,0.47641 0.449,4.53757 0.449,9.5474 C0.449,14.55726 4.51016,18.61842 9.52,18.61842 C14.52984,18.61842 18.591,14.55726 18.591,9.5474 Z"/></g><g id="Group-456" font-family="LucidaGrande, Lucida Grande" font-weight="normal" transform="translate(6.000000, 4.000000)"><text id="." fill="#000" font-size="6.974"><tspan x="3.52" y="72.366">.</tspan></text><g id="Group-455" fill="#2E474C"><text id="h" font-size="5.579"><tspan x=".05" y="5.649">h</tspan></text><text id="3" font-size="3.985"><tspan x="3.314" y="7.327">3</tspan></text><text id="t" font-size="3.985"><tspan x="5.25" y="7.327">t</tspan></text></g></g></g><g id="Group-463" transform="translate(29.000000, 68.000000)"><g id="Group-460"><path id="Fill-458" fill="#FFF" d="M18.591,9.56372 C18.591,4.55388 14.52984,0.49272 9.52,0.49272 C4.51016,0.49272 0.449,4.55388 0.449,9.56372 C0.449,14.57358 4.51016,18.63473 9.52,18.63473 C14.52984,18.63473 18.591,14.57358 18.591,9.56372 Z"/><path id="Stroke-459" stroke="#424242" stroke-width=".797" d="M18.591,9.56372 C18.591,4.55388 14.52984,0.49272 9.52,0.49272 C4.51016,0.49272 0.449,4.55388 0.449,9.56372 C0.449,14.57358 4.51016,18.63473 9.52,18.63473 C14.52984,18.63473 18.591,14.57358 18.591,9.56372 Z"/></g><g id="Group-462" font-family="LucidaGrande, Lucida Grande" font-weight="normal" transform="translate(6.000000, 4.000000)"><text id="." fill="#000" font-size="6.974"><tspan x="3.52" y="38.366">.</tspan></text><g id="Group-461" fill="#2E474C"><text id="h" font-size="5.579"><tspan x=".06" y="5.669">h</tspan></text><text id="2" font-size="3.985"><tspan x="3.332" y="7.339">2</tspan></text><text id="t" font-size="3.985"><tspan x="5.236" y="7.339">t</tspan></text></g></g></g><g id="Group-469" transform="translate(29.000000, 102.000000)"><g id="Group-466"><path id="Fill-464" fill="#FFF" d="M18.591,9.58 C18.591,4.57016 14.52984,0.509 9.52,0.509 C4.51016,0.509 0.449,4.57016 0.449,9.58 C0.449,14.58984 4.51016,18.651 9.52,18.651 C14.52984,18.651 18.591,14.58984 18.591,9.58 Z"/><path id="Stroke-465" stroke="#424242" stroke-width=".797" d="M18.591,9.58 C18.591,4.57016 14.52984,0.509 9.52,0.509 C4.51016,0.509 0.449,4.57016 0.449,9.58 C0.449,14.58984 4.51016,18.651 9.52,18.651 C14.52984,18.651 18.591,14.58984 18.591,9.58 Z"/></g><g id="Group-468" font-family="LucidaGrande, Lucida Grande" font-weight="normal" transform="translate(6.000000, 1.000000)"><text id="." fill="#000" font-size="6.974"><tspan x="3.52" y="7.366">.</tspan></text><g id="Group-467" fill="#2E474C" transform="translate(0.000000, 3.000000)"><text id="h" font-size="5.579"><tspan x=".19" y="5.679">h</tspan></text><text id="1" font-size="3.985"><tspan x="3.462" y="7.357">1</tspan></text><text id="t" font-size="3.985"><tspan x="5.11" y="7.357">t</tspan></text></g></g></g><g id="Group-475" transform="translate(29.000000, 103.000000)"><g id="Group-472" transform="translate(0.000000, 33.000000)"><path id="Fill-470" fill="#FFF" d="M18.591,9.59628 C18.591,4.58642 14.52984,0.52527 9.52,0.52527 C4.51016,0.52527 0.449,4.58642 0.449,9.59628 C0.449,14.60612 4.51016,18.66728 9.52,18.66728 C14.52984,18.66728 18.591,14.60612 18.591,9.59628 Z"/><path id="Stroke-471" stroke="#424242" stroke-width=".797" d="M18.591,9.59628 C18.591,4.58642 14.52984,0.52527 9.52,0.52527 C4.51016,0.52527 0.449,4.58642 0.449,9.59628 C0.449,14.60612 4.51016,18.66728 9.52,18.66728 C14.52984,18.66728 18.591,14.60612 18.591,9.59628 Z"/></g><g id="Group-474" font-family="LucidaGrande, Lucida Grande" font-weight="normal" transform="translate(7.000000, 0.000000)"><text id="." fill="#000" font-size="6.974"><tspan x="2.52" y="7.366">.</tspan></text><g id="Group-473" fill="#2E474C" transform="translate(0.000000, 37.000000)"><text id="A" font-size="5.579"><tspan x=".3" y="5.079">A</tspan></text><text id="t" font-size="3.985"><tspan x="3.004" y="6.757">t</tspan></text></g></g></g><g id="Group-482" transform="translate(25.000000, 103.000000)"><path id="Stroke-476" stroke="#23373B" stroke-width=".797" d="M13.52,33.20775 L13.52,19.40486"/><g id="Group-479" transform="translate(11.000000, 18.000000)"><path id="Fill-477" fill="#23373B" d="M2.52,0.36876 C2.26098,1.66388 1.74293,2.95901 0.83635,4.51316 C2.00195,2.95901 3.03805,2.95901 4.20365,4.51316 C3.29707,2.95901 2.77902,1.66388 2.52,0.36876 Z"/><path id="Stroke-478" stroke="#23373B" stroke-linejoin="round" stroke-width=".797" d="M2.52,0.36876 C2.26098,1.66388 1.74293,2.95901 0.83635,4.51316 C2.00195,2.95901 3.03805,2.95901 4.20365,4.51316 C3.29707,2.95901 2.77902,1.66388 2.52,0.36876 Z"/></g><g id="Group-481" font-family="LucidaGrande, Lucida Grande" font-weight="normal"><text id="." fill="#000" font-size="6.974"><tspan x="13.52" y="7.366">.</tspan></text><g id="Group-480" fill="#2E474C" transform="translate(0.000000, 19.000000)"><text id="W" font-size="5.579"><tspan x=".26" y="5.779">W</tspan></text><text id="h" font-size="3.985"><tspan x="4.764" y="7.697">h</tspan></text><text id="1" font-size="3.985"><tspan x="7.084" y="8.969">1</tspan></text><text id="x" font-size="3.985"><tspan x="9.132" y="7.697">x</tspan></text></g></g></g><g id="Group-489" transform="translate(38.000000, 103.000000)"><path id="Stroke-483" stroke="#23373B" stroke-width=".797" d="M9.60809,6.14503 C24.28471,2.21216 24.28471,14.9478 11.96075,11.64552"/><g id="Group-486" transform="translate(10.000000, 10.000000)"><path id="Fill-484" fill="#23373B" d="M0.957991698,1.37685927 C2.14427085,1.96336862 3.2633932,2.80057498 4.53245446,4.08097233 C3.33055709,2.54989025 3.59921782,1.54713194 5.40559535,0.822032047 C3.6663817,1.29644721 2.27859862,1.46199915 0.957991698,1.37685927 Z"/><path id="Stroke-485" stroke="#23373B" stroke-linejoin="round" stroke-width=".797" d="M0.957991698,1.37685927 C2.14427085,1.96336862 3.2633932,2.80057498 4.53245446,4.08097233 C3.33055709,2.54989025 3.59921782,1.54713194 5.40559535,0.822032047 C3.6663817,1.29644721 2.27859862,1.46199915 0.957991698,1.37685927 Z"/></g><g id="Group-488" font-family="LucidaGrande, Lucida Grande" font-weight="normal"><text id="." fill="#000" font-size="6.974"><tspan x=".52" y="7.366">.</tspan></text><g id="Group-487" fill="#2E474C" transform="translate(22.000000, 2.000000)"><text id="W" font-size="5.579"><tspan x=".8" y="5.769">W</tspan></text><text id="h" font-size="3.985"><tspan x="5.304" y="7.687">h</tspan></text><text id="1" font-size="3.985"><tspan x="7.624" y="8.959">1</tspan></text><text id="h" font-size="3.985"><tspan x="9.664" y="7.687">h</tspan></text><text id="1" font-size="3.985"><tspan x="11.984" y="8.959">1</tspan></text></g></g></g><g id="Group-496" transform="translate(38.000000, 71.000000)"><path id="Stroke-490" stroke="#23373B" stroke-width=".797" d="M9.60809,4.12625 C24.28471,0.19409 24.28471,12.92976 11.96075,9.62749"/><g id="Group-493" transform="translate(10.000000, 8.000000)"><path id="Fill-491" fill="#23373B" d="M0.957991698,1.35882927 C2.14427085,1.94533862 3.2633932,2.78254498 4.53245446,4.06294233 C3.33055709,2.53186025 3.59921782,1.52910194 5.40559535,0.804002047 C3.6663817,1.27841721 2.27859862,1.44396915 0.957991698,1.35882927 Z"/><path id="Stroke-492" stroke="#23373B" stroke-linejoin="round" stroke-width=".797" d="M0.957991698,1.35882927 C2.14427085,1.94533862 3.2633932,2.78254498 4.53245446,4.06294233 C3.33055709,2.53186025 3.59921782,1.52910194 5.40559535,0.804002047 C3.6663817,1.27841721 2.27859862,1.44396915 0.957991698,1.35882927 Z"/></g><g id="Group-495" font-family="LucidaGrande, Lucida Grande" font-weight="normal"><text id="." fill="#000" font-size="6.974"><tspan x=".52" y="39.366">.</tspan></text><g id="Group-494" fill="#2E474C" transform="translate(22.000000, 0.000000)"><text id="W" font-size="5.579"><tspan x=".8" y="5.729">W</tspan></text><text id="h" font-size="3.985"><tspan x="5.304" y="7.647">h</tspan></text><text id="2" font-size="3.985"><tspan x="7.624" y="8.967">2</tspan></text><text id="h" font-size="3.985"><tspan x="9.928" y="7.647">h</tspan></text><text id="2" font-size="3.985"><tspan x="12.248" y="8.967">2</tspan></text></g></g></g><g id="Group-503" transform="translate(38.000000, 37.000000)"><path id="Stroke-497" stroke="#23373B" stroke-width=".797" d="M9.60809,4.10744 C24.28471,0.176 24.28471,12.91168 11.96075,9.6094"/><g id="Group-500" transform="translate(10.000000, 8.000000)"><path id="Fill-498" fill="#23373B" d="M0.957991698,1.34073927 C2.14427085,1.92724862 3.2633932,2.76445498 4.53245446,4.04485233 C3.33055709,2.51377025 3.59921782,1.51101194 5.40559535,0.785912047 C3.6663817,1.26032721 2.27859862,1.42587915 0.957991698,1.34073927 Z"/><path id="Stroke-499" stroke="#23373B" stroke-linejoin="round" stroke-width=".797" d="M0.957991698,1.34073927 C2.14427085,1.92724862 3.2633932,2.76445498 4.53245446,4.04485233 C3.33055709,2.51377025 3.59921782,1.51101194 5.40559535,0.785912047 C3.6663817,1.26032721 2.27859862,1.42587915 0.957991698,1.34073927 Z"/></g><g id="Group-502" font-family="LucidaGrande, Lucida Grande" font-weight="normal"><text id="." fill="#000" font-size="6.974"><tspan x=".52" y="73.366">.</tspan></text><g id="Group-501" fill="#2E474C" transform="translate(22.000000, 0.000000)"><text id="W" font-size="5.579"><tspan x=".8" y="5.689">W</tspan></text><text id="h" font-size="3.985"><tspan x="5.304" y="7.607">h</tspan></text><text id="3" font-size="3.985"><tspan x="7.624" y="8.927">3</tspan></text><text id="h" font-size="3.985"><tspan x="9.952" y="7.607">h</tspan></text><text id="3" font-size="3.985"><tspan x="12.272" y="8.927">3</tspan></text></g></g></g><g id="Group-510" transform="translate(29.000000, 87.000000)"><path id="Stroke-504" stroke="#23373B" stroke-width=".797" d="M9.52,15.1897 L9.52,1.38684"/><g id="Group-507" transform="translate(7.000000, 0.000000)"><path id="Fill-505" fill="#23373B" d="M2.52,0.35074 C2.26098,1.64586 1.74293,2.94099 0.83635,4.49514 C2.00195,2.94099 3.03805,2.94099 4.20365,4.49514 C3.29707,2.94099 2.77902,1.64586 2.52,0.35074 Z"/><path id="Stroke-506" stroke="#23373B" stroke-linejoin="round" stroke-width=".797" d="M2.52,0.35074 C2.26098,1.64586 1.74293,2.94099 0.83635,4.49514 C2.00195,2.94099 3.03805,2.94099 4.20365,4.49514 C3.29707,2.94099 2.77902,1.64586 2.52,0.35074 Z"/></g><g id="Group-509" font-family="LucidaGrande, Lucida Grande" font-weight="normal" transform="translate(0.000000, 2.000000)"><text id="." fill="#000" font-size="6.974"><tspan x="9.52" y="21.366">.</tspan></text><g id="Group-508" fill="#2E474C"><text id="h" font-size="5.579"><tspan x=".7" y="5.659">h</tspan></text><text id="1" font-size="3.985"><tspan x="3.948" y="7.329">1</tspan></text><text id="t" font-size="3.985"><tspan x="5.596" y="7.329">t</tspan></text></g></g></g><g id="Group-517" transform="translate(29.000000, 53.000000)"><path id="Stroke-511" stroke="#23373B" stroke-width=".797" d="M9.52,15.17164 L9.52,1.36874"/><g id="Group-514" transform="translate(7.000000, 0.000000)"><path id="Fill-512" fill="#23373B" d="M2.52,0.33264 C2.26098,1.62776 1.74293,2.92289 0.83635,4.47704 C2.00195,2.92289 3.03805,2.92289 4.20365,4.47704 C3.29707,2.92289 2.77902,1.62776 2.52,0.33264 Z"/><path id="Stroke-513" stroke="#23373B" stroke-linejoin="round" stroke-width=".797" d="M2.52,0.33264 C2.26098,1.62776 1.74293,2.92289 0.83635,4.47704 C2.00195,2.92289 3.03805,2.92289 4.20365,4.47704 C3.29707,2.92289 2.77902,1.62776 2.52,0.33264 Z"/></g><g id="Group-516" font-family="LucidaGrande, Lucida Grande" font-weight="normal" transform="translate(0.000000, 2.000000)"><text id="." fill="#000" font-size="6.974"><tspan x="9.52" y="55.366">.</tspan></text><g id="Group-515" fill="#2E474C"><text id="h" font-size="5.579"><tspan x=".44" y="5.639">h</tspan></text><text id="2" font-size="3.985"><tspan x="3.688" y="7.317">2</tspan></text><text id="t" font-size="3.985"><tspan x="5.6" y="7.317">t</tspan></text></g></g></g><g id="Group-522" transform="translate(36.000000, 53.000000)"><path id="Stroke-518" stroke="#23373B" stroke-width=".797" d="M2.52,15.17164 L2.52,1.36874"/><g id="Group-521"><path id="Fill-519" fill="#23373B" d="M2.52,0.33264 C2.26098,1.62776 1.74293,2.92289 0.83635,4.47704 C2.00195,2.92289 3.03805,2.92289 4.20365,4.47704 C3.29707,2.92289 2.77902,1.62776 2.52,0.33264 Z"/><path id="Stroke-520" stroke="#23373B" stroke-linejoin="round" stroke-width=".797" d="M2.52,0.33264 C2.26098,1.62776 1.74293,2.92289 0.83635,4.47704 C2.00195,2.92289 3.03805,2.92289 4.20365,4.47704 C3.29707,2.92289 2.77902,1.62776 2.52,0.33264 Z"/></g></g><g id="Group-529" transform="translate(25.000000, 19.000000)"><path id="Stroke-523" stroke="#23373B" stroke-width=".797" d="M13.52,15.15352 L13.52,1.35068"/><g id="Group-526" transform="translate(11.000000, 0.000000)"><path id="Fill-524" fill="#23373B" d="M2.52,0.31458 C2.26098,1.6097 1.74293,2.90483 0.83635,4.45898 C2.00195,2.90483 3.03805,2.90483 4.20365,4.45898 C3.29707,2.90483 2.77902,1.6097 2.52,0.31458 Z"/><path id="Stroke-525" stroke="#23373B" stroke-linejoin="round" stroke-width=".797" d="M2.52,0.31458 C2.26098,1.6097 1.74293,2.90483 0.83635,4.45898 C2.00195,2.90483 3.03805,2.90483 4.20365,4.45898 C3.29707,2.90483 2.77902,1.6097 2.52,0.31458 Z"/></g><g id="Group-528" font-family="LucidaGrande, Lucida Grande" font-weight="normal" transform="translate(0.000000, 1.000000)"><text id="." fill="#000" font-size="6.974"><tspan x="13.52" y="90.366">.</tspan></text><g id="Group-527" fill="#2E474C"><text id="W" font-size="5.579"><tspan x=".12" y="5.679">W</tspan></text><text id="zh" font-size="3.985"><tspan x="4.624" y="7.597">zh</tspan></text><text id="3" font-size="3.985"><tspan x="8.616" y="8.917">3</tspan></text></g></g></g><g id="Group-535" transform="translate(38.000000, 34.000000)"><g id="Group-532" transform="translate(59.000000, 0.000000)"><path id="Fill-530" fill="#FFF" d="M18.62359,9.5474 C18.62359,4.53757 14.56243,0.47641 9.5526,0.47641 C4.54274,0.47641 0.48158,4.53757 0.48158,9.5474 C0.48158,14.55726 4.54274,18.61842 9.5526,18.61842 C14.56243,18.61842 18.62359,14.55726 18.62359,9.5474 Z"/><path id="Stroke-531" stroke="#424242" stroke-width=".797" d="M18.62359,9.5474 C18.62359,4.53757 14.56243,0.47641 9.5526,0.47641 C4.54274,0.47641 0.48158,4.53757 0.48158,9.5474 C0.48158,14.55726 4.54274,18.61842 9.5526,18.61842 C14.56243,18.61842 18.62359,14.55726 18.62359,9.5474 Z"/></g><g id="Group-534" font-family="LucidaGrande, Lucida Grande" font-weight="normal" transform="translate(0.000000, 4.000000)"><text id="." fill="#000" font-size="6.974"><tspan x=".52" y="72.366">.</tspan></text><g id="Group-533" fill="#2E474C" transform="translate(64.000000, 0.000000)"><text id="h" font-size="5.579"><tspan x=".66" y="5.649">h</tspan></text><text id="30" font-size="3.985"><tspan x="3.932" y="7.327">30</tspan></text></g></g></g><g id="Group-541" transform="translate(38.000000, 68.000000)"><g id="Group-538" transform="translate(59.000000, 0.000000)"><path id="Fill-536" fill="#FFF" d="M18.62359,9.56372 C18.62359,4.55388 14.56243,0.49272 9.5526,0.49272 C4.54274,0.49272 0.48158,4.55388 0.48158,9.56372 C0.48158,14.57358 4.54274,18.63473 9.5526,18.63473 C14.56243,18.63473 18.62359,14.57358 18.62359,9.56372 Z"/><path id="Stroke-537" stroke="#424242" stroke-width=".797" d="M18.62359,9.56372 C18.62359,4.55388 14.56243,0.49272 9.5526,0.49272 C4.54274,0.49272 0.48158,4.55388 0.48158,9.56372 C0.48158,14.57358 4.54274,18.63473 9.5526,18.63473 C14.56243,18.63473 18.62359,14.57358 18.62359,9.56372 Z"/></g><g id="Group-540" font-family="LucidaGrande, Lucida Grande" font-weight="normal" transform="translate(0.000000, 4.000000)"><text id="." fill="#000" font-size="6.974"><tspan x=".52" y="38.366">.</tspan></text><g id="Group-539" fill="#2E474C" transform="translate(64.000000, 0.000000)"><text id="h" font-size="5.579"><tspan x=".67" y="5.669">h</tspan></text><text id="20" font-size="3.985"><tspan x="3.942" y="7.339">20</tspan></text></g></g></g><g id="Group-547" transform="translate(38.000000, 102.000000)"><g id="Group-544" transform="translate(59.000000, 0.000000)"><path id="Fill-542" fill="#FFF" d="M18.62359,9.58 C18.62359,4.57016 14.56243,0.509 9.5526,0.509 C4.54274,0.509 0.48158,4.57016 0.48158,9.58 C0.48158,14.58984 4.54274,18.651 9.5526,18.651 C14.56243,18.651 18.62359,14.58984 18.62359,9.58 Z"/><path id="Stroke-543" stroke="#424242" stroke-width=".797" d="M18.62359,9.58 C18.62359,4.57016 14.56243,0.509 9.5526,0.509 C4.54274,0.509 0.48158,4.57016 0.48158,9.58 C0.48158,14.58984 4.54274,18.651 9.5526,18.651 C14.56243,18.651 18.62359,14.58984 18.62359,9.58 Z"/></g><g id="Group-546" font-family="LucidaGrande, Lucida Grande" font-weight="normal" transform="translate(0.000000, 1.000000)"><text id="." fill="#000" font-size="6.974"><tspan x=".52" y="7.366">.</tspan></text><g id="Group-545" fill="#2E474C" transform="translate(64.000000, 3.000000)"><text id="h" font-size="5.579"><tspan x=".8" y="5.679">h</tspan></text><text id="10" font-size="3.985"><tspan x="4.072" y="7.357">10</tspan></text></g></g></g><g id="Group-553" transform="translate(38.000000, 0.000000)"><g id="Group-550" transform="translate(93.000000, 0.000000)"><path id="Fill-548" fill="#FFF" d="M18.63989,9.53111 C18.63989,4.52127 14.57873,0.46011 9.56889,0.46011 C4.55903,0.46011 0.49787,4.52127 0.49787,9.53111 C0.49787,14.54097 4.55903,18.60213 9.56889,18.60213 C14.57873,18.60213 18.63989,14.54097 18.63989,9.53111 Z"/><path id="Stroke-549" stroke="#424242" stroke-width=".797" d="M18.63989,9.53111 C18.63989,4.52127 14.57873,0.46011 9.56889,0.46011 C4.55903,0.46011 0.49787,4.52127 0.49787,9.53111 C0.49787,14.54097 4.55903,18.60213 9.56889,18.60213 C14.57873,18.60213 18.63989,14.54097 18.63989,9.53111 Z"/></g><g id="Group-552" font-family="LucidaGrande, Lucida Grande" font-weight="normal" transform="translate(0.000000, 4.000000)"><text id="." fill="#000" font-size="6.974"><tspan x=".52" y="106.366">.</tspan></text><g id="Group-551" fill="#2E474C" transform="translate(100.000000, 0.000000)"><text id="A" font-size="5.579"><tspan x=".33" y="5.039">A</tspan></text><text id="1" font-size="3.985"><tspan x="2.77" y="6.717">1</tspan></text></g></g></g><g id="Group-559" transform="translate(38.000000, 0.000000)"><g id="Group-556" transform="translate(127.000000, 0.000000)"><path id="Fill-554" fill="#FFF" d="M18.6562,9.53111 C18.6562,4.52127 14.59504,0.46011 9.5852,0.46011 C4.57534,0.46011 0.51419,4.52127 0.51419,9.53111 C0.51419,14.54097 4.57534,18.60213 9.5852,18.60213 C14.59504,18.60213 18.6562,14.54097 18.6562,9.53111 Z"/><path id="Stroke-555" stroke="#424242" stroke-width=".797" d="M18.6562,9.53111 C18.6562,4.52127 14.59504,0.46011 9.5852,0.46011 C4.57534,0.46011 0.51419,4.52127 0.51419,9.53111 C0.51419,14.54097 4.57534,18.60213 9.5852,18.60213 C14.59504,18.60213 18.6562,14.54097 18.6562,9.53111 Z"/></g><g id="Group-558" font-family="LucidaGrande, Lucida Grande" font-weight="normal" transform="translate(0.000000, 4.000000)"><text id="." fill="#000" font-size="6.974"><tspan x=".52" y="106.366">.</tspan></text><g id="Group-557" fill="#2E474C" transform="translate(134.000000, 0.000000)"><text id="A" font-size="5.579"><tspan x=".22" y="5.039">A</tspan></text><text id="2" font-size="3.985"><tspan x="2.652" y="6.717">2</tspan></text></g></g></g><g id="Group-565" transform="translate(38.000000, 0.000000)"><g id="Group-562" transform="translate(161.000000, 0.000000)"><path id="Fill-560" fill="#FFF" d="M18.6725,9.53111 C18.6725,4.52127 14.61134,0.46011 9.6015,0.46011 C4.59164,0.46011 0.53048,4.52127 0.53048,9.53111 C0.53048,14.54097 4.59164,18.60213 9.6015,18.60213 C14.61134,18.60213 18.6725,14.54097 18.6725,9.53111 Z"/><path id="Stroke-561" stroke="#424242" stroke-width=".797" d="M18.6725,9.53111 C18.6725,4.52127 14.61134,0.46011 9.6015,0.46011 C4.59164,0.46011 0.53048,4.52127 0.53048,9.53111 C0.53048,14.54097 4.59164,18.60213 9.6015,18.60213 C14.61134,18.60213 18.6725,14.54097 18.6725,9.53111 Z"/></g><g id="Group-564" font-family="LucidaGrande, Lucida Grande" font-weight="normal" transform="translate(0.000000, 4.000000)"><text id="." fill="#000" font-size="6.974"><tspan x=".52" y="106.366">.</tspan></text><g id="Group-563" fill="#2E474C" transform="translate(168.000000, 0.000000)"><text id="A" font-size="5.579"><tspan x=".22" y="5.019">A</tspan></text><text id="3" font-size="3.985"><tspan x="2.66" y="6.689">3</tspan></text></g></g></g><g id="Group-571" transform="translate(38.000000, 34.000000)"><g id="Group-568" transform="translate(93.000000, 0.000000)"><path id="Fill-566" fill="#FFF" d="M18.63989,9.5474 C18.63989,4.53757 14.57873,0.47641 9.56889,0.47641 C4.55903,0.47641 0.49787,4.53757 0.49787,9.5474 C0.49787,14.55726 4.55903,18.61842 9.56889,18.61842 C14.57873,18.61842 18.63989,14.55726 18.63989,9.5474 Z"/><path id="Stroke-567" stroke="#424242" stroke-width=".797" d="M18.63989,9.5474 C18.63989,4.53757 14.57873,0.47641 9.56889,0.47641 C4.55903,0.47641 0.49787,4.53757 0.49787,9.5474 C0.49787,14.55726 4.55903,18.61842 9.56889,18.61842 C14.57873,18.61842 18.63989,14.55726 18.63989,9.5474 Z"/></g><g id="Group-570" font-family="LucidaGrande, Lucida Grande" font-weight="normal" transform="translate(0.000000, 4.000000)"><text id="." fill="#000" font-size="6.974"><tspan x=".52" y="72.366">.</tspan></text><g id="Group-569" fill="#2E474C" transform="translate(98.000000, 0.000000)"><text id="h" font-size="5.579"><tspan x=".95" y="5.649">h</tspan></text><text id="31" font-size="3.985"><tspan x="4.214" y="7.327">31</tspan></text></g></g></g><g id="Group-577" transform="translate(38.000000, 34.000000)"><g id="Group-574" transform="translate(127.000000, 0.000000)"><path id="Fill-572" fill="#FFF" d="M18.6562,9.5474 C18.6562,4.53757 14.59504,0.47641 9.5852,0.47641 C4.57534,0.47641 0.51419,4.53757 0.51419,9.5474 C0.51419,14.55726 4.57534,18.61842 9.5852,18.61842 C14.59504,18.61842 18.6562,14.55726 18.6562,9.5474 Z"/><path id="Stroke-573" stroke="#424242" stroke-width=".797" d="M18.6562,9.5474 C18.6562,4.53757 14.59504,0.47641 9.5852,0.47641 C4.57534,0.47641 0.51419,4.53757 0.51419,9.5474 C0.51419,14.55726 4.57534,18.61842 9.5852,18.61842 C14.59504,18.61842 18.6562,14.55726 18.6562,9.5474 Z"/></g><g id="Group-576" font-family="LucidaGrande, Lucida Grande" font-weight="normal" transform="translate(0.000000, 4.000000)"><text id="." fill="#000" font-size="6.974"><tspan x=".52" y="72.366">.</tspan></text><g id="Group-575" fill="#2E474C" transform="translate(132.000000, 0.000000)"><text id="h" font-size="5.579"><tspan x=".83" y="5.649">h</tspan></text><text id="32" font-size="3.985"><tspan x="4.102" y="7.327">32</tspan></text></g></g></g><g id="Group-583" transform="translate(38.000000, 34.000000)"><g id="Group-580" transform="translate(161.000000, 0.000000)"><path id="Fill-578" fill="#FFF" d="M18.6725,9.5474 C18.6725,4.53757 14.61134,0.47641 9.6015,0.47641 C4.59164,0.47641 0.53048,4.53757 0.53048,9.5474 C0.53048,14.55726 4.59164,18.61842 9.6015,18.61842 C14.61134,18.61842 18.6725,14.55726 18.6725,9.5474 Z"/><path id="Stroke-579" stroke="#424242" stroke-width=".797" d="M18.6725,9.5474 C18.6725,4.53757 14.61134,0.47641 9.6015,0.47641 C4.59164,0.47641 0.53048,4.53757 0.53048,9.5474 C0.53048,14.55726 4.59164,18.61842 9.6015,18.61842 C14.61134,18.61842 18.6725,14.55726 18.6725,9.5474 Z"/></g><g id="Group-582" font-family="LucidaGrande, Lucida Grande" font-weight="normal" transform="translate(0.000000, 4.000000)"><text id="." fill="#000" font-size="6.974"><tspan x=".52" y="72.366">.</tspan></text><g id="Group-581" fill="#2E474C" transform="translate(166.000000, 0.000000)"><text id="h" font-size="5.579"><tspan x=".83" y="5.649">h</tspan></text><text id="33" font-size="3.985"><tspan x="4.102" y="7.327">33</tspan></text></g></g></g><g id="Group-589" transform="translate(38.000000, 68.000000)"><g id="Group-586" transform="translate(93.000000, 0.000000)"><path id="Fill-584" fill="#FFF" d="M18.63989,9.56372 C18.63989,4.55388 14.57873,0.49272 9.56889,0.49272 C4.55903,0.49272 0.49787,4.55388 0.49787,9.56372 C0.49787,14.57358 4.55903,18.63473 9.56889,18.63473 C14.57873,18.63473 18.63989,14.57358 18.63989,9.56372 Z"/><path id="Stroke-585" stroke="#424242" stroke-width=".797" d="M18.63989,9.56372 C18.63989,4.55388 14.57873,0.49272 9.56889,0.49272 C4.55903,0.49272 0.49787,4.55388 0.49787,9.56372 C0.49787,14.57358 4.55903,18.63473 9.56889,18.63473 C14.57873,18.63473 18.63989,14.57358 18.63989,9.56372 Z"/></g><g id="Group-588" font-family="LucidaGrande, Lucida Grande" font-weight="normal" transform="translate(0.000000, 4.000000)"><text id="." fill="#000" font-size="6.974"><tspan x=".52" y="38.366">.</tspan></text><g id="Group-587" fill="#2E474C" transform="translate(98.000000, 0.000000)"><text id="h" font-size="5.579"><tspan x=".96" y="5.689">h</tspan></text><text id="21" font-size="3.985"><tspan x="4.232" y="7.359">21</tspan></text></g></g></g><g id="Group-595" transform="translate(38.000000, 68.000000)"><g id="Group-592" transform="translate(127.000000, 0.000000)"><path id="Fill-590" fill="#FFF" d="M18.6562,9.56372 C18.6562,4.55388 14.59504,0.49272 9.5852,0.49272 C4.57534,0.49272 0.51419,4.55388 0.51419,9.56372 C0.51419,14.57358 4.57534,18.63473 9.5852,18.63473 C14.59504,18.63473 18.6562,14.57358 18.6562,9.56372 Z"/><path id="Stroke-591" stroke="#424242" stroke-width=".797" d="M18.6562,9.56372 C18.6562,4.55388 14.59504,0.49272 9.5852,0.49272 C4.57534,0.49272 0.51419,4.55388 0.51419,9.56372 C0.51419,14.57358 4.57534,18.63473 9.5852,18.63473 C14.59504,18.63473 18.6562,14.57358 18.6562,9.56372 Z"/></g><g id="Group-594" font-family="LucidaGrande, Lucida Grande" font-weight="normal" transform="translate(0.000000, 4.000000)"><text id="." fill="#000" font-size="6.974"><tspan x=".52" y="38.366">.</tspan></text><g id="Group-593" fill="#2E474C" transform="translate(132.000000, 0.000000)"><text id="h" font-size="5.579"><tspan x=".85" y="5.689">h</tspan></text><text id="22" font-size="3.985"><tspan x="4.114" y="7.359">22</tspan></text></g></g></g><g id="Group-601" transform="translate(38.000000, 68.000000)"><g id="Group-598" transform="translate(161.000000, 0.000000)"><path id="Fill-596" fill="#FFF" d="M18.6725,9.56372 C18.6725,4.55388 14.61134,0.49272 9.6015,0.49272 C4.59164,0.49272 0.53048,4.55388 0.53048,9.56372 C0.53048,14.57358 4.59164,18.63473 9.6015,18.63473 C14.61134,18.63473 18.6725,14.57358 18.6725,9.56372 Z"/><path id="Stroke-597" stroke="#424242" stroke-width=".797" d="M18.6725,9.56372 C18.6725,4.55388 14.61134,0.49272 9.6015,0.49272 C4.59164,0.49272 0.53048,4.55388 0.53048,9.56372 C0.53048,14.57358 4.59164,18.63473 9.6015,18.63473 C14.61134,18.63473 18.6725,14.57358 18.6725,9.56372 Z"/></g><g id="Group-600" font-family="LucidaGrande, Lucida Grande" font-weight="normal" transform="translate(0.000000, 4.000000)"><text id="." fill="#000" font-size="6.974"><tspan x=".52" y="38.366">.</tspan></text><g id="Group-599" fill="#2E474C" transform="translate(166.000000, 0.000000)"><text id="h" font-size="5.579"><tspan x=".85" y="5.669">h</tspan></text><text id="23" font-size="3.985"><tspan x="4.114" y="7.339">23</tspan></text></g></g></g><g id="Group-607" transform="translate(38.000000, 102.000000)"><g id="Group-604" transform="translate(93.000000, 0.000000)"><path id="Fill-602" fill="#FFF" d="M18.63989,9.58 C18.63989,4.57016 14.57873,0.509 9.56889,0.509 C4.55903,0.509 0.49787,4.57016 0.49787,9.58 C0.49787,14.58984 4.55903,18.651 9.56889,18.651 C14.57873,18.651 18.63989,14.58984 18.63989,9.58 Z"/><path id="Stroke-603" stroke="#424242" stroke-width=".797" d="M18.63989,9.58 C18.63989,4.57016 14.57873,0.509 9.56889,0.509 C4.55903,0.509 0.49787,4.57016 0.49787,9.58 C0.49787,14.58984 4.55903,18.651 9.56889,18.651 C14.57873,18.651 18.63989,14.58984 18.63989,9.58 Z"/></g><g id="Group-606" font-family="LucidaGrande, Lucida Grande" font-weight="normal" transform="translate(0.000000, 1.000000)"><text id="." fill="#000" font-size="6.974"><tspan x=".52" y="7.366">.</tspan></text><g id="Group-605" fill="#2E474C" transform="translate(99.000000, 3.000000)"><text id="h" font-size="5.579"><tspan x=".09" y="5.699">h</tspan></text><text id="11" font-size="3.985"><tspan x="3.362" y="7.377">11</tspan></text></g></g></g><g id="Group-613" transform="translate(38.000000, 102.000000)"><g id="Group-610" transform="translate(127.000000, 0.000000)"><path id="Fill-608" fill="#FFF" d="M18.6562,9.58 C18.6562,4.57016 14.59504,0.509 9.5852,0.509 C4.57534,0.509 0.51419,4.57016 0.51419,9.58 C0.51419,14.58984 4.57534,18.651 9.5852,18.651 C14.59504,18.651 18.6562,14.58984 18.6562,9.58 Z"/><path id="Stroke-609" stroke="#424242" stroke-width=".797" d="M18.6562,9.58 C18.6562,4.57016 14.59504,0.509 9.5852,0.509 C4.57534,0.509 0.51419,4.57016 0.51419,9.58 C0.51419,14.58984 4.57534,18.651 9.5852,18.651 C14.59504,18.651 18.6562,14.58984 18.6562,9.58 Z"/></g><g id="Group-612" font-family="LucidaGrande, Lucida Grande" font-weight="normal" transform="translate(0.000000, 1.000000)"><text id="." fill="#000" font-size="6.974"><tspan x=".52" y="7.366">.</tspan></text><g id="Group-611" fill="#2E474C" transform="translate(132.000000, 3.000000)"><text id="h" font-size="5.579"><tspan x=".98" y="5.699">h</tspan></text><text id="12" font-size="3.985"><tspan x="4.244" y="7.377">12</tspan></text></g></g></g><g id="Group-619" transform="translate(38.000000, 102.000000)"><g id="Group-616" transform="translate(161.000000, 0.000000)"><path id="Fill-614" fill="#FFF" d="M18.6725,9.58 C18.6725,4.57016 14.61134,0.509 9.6015,0.509 C4.59164,0.509 0.53048,4.57016 0.53048,9.58 C0.53048,14.58984 4.59164,18.651 9.6015,18.651 C14.61134,18.651 18.6725,14.58984 18.6725,9.58 Z"/><path id="Stroke-615" stroke="#424242" stroke-width=".797" d="M18.6725,9.58 C18.6725,4.57016 14.61134,0.509 9.6015,0.509 C4.59164,0.509 0.53048,4.57016 0.53048,9.58 C0.53048,14.58984 4.59164,18.651 9.6015,18.651 C14.61134,18.651 18.6725,14.58984 18.6725,9.58 Z"/></g><g id="Group-618" font-family="LucidaGrande, Lucida Grande" font-weight="normal" transform="translate(0.000000, 1.000000)"><text id="." fill="#000" font-size="6.974"><tspan x=".52" y="7.366">.</tspan></text><g id="Group-617" fill="#2E474C" transform="translate(166.000000, 3.000000)"><text id="h" font-size="5.579"><tspan x=".98" y="5.679">h</tspan></text><text id="13" font-size="3.985"><tspan x="4.252" y="7.357">13</tspan></text></g></g></g><g id="Group-625" transform="translate(38.000000, 103.000000)"><g id="Group-622" transform="translate(93.000000, 33.000000)"><path id="Fill-620" fill="#FFF" d="M18.63989,9.59628 C18.63989,4.58642 14.57873,0.52527 9.56889,0.52527 C4.55903,0.52527 0.49787,4.58642 0.49787,9.59628 C0.49787,14.60612 4.55903,18.66728 9.56889,18.66728 C14.57873,18.66728 18.63989,14.60612 18.63989,9.59628 Z"/><path id="Stroke-621" stroke="#424242" stroke-width=".797" d="M18.63989,9.59628 C18.63989,4.58642 14.57873,0.52527 9.56889,0.52527 C4.55903,0.52527 0.49787,4.58642 0.49787,9.59628 C0.49787,14.60612 4.55903,18.66728 9.56889,18.66728 C14.57873,18.66728 18.63989,14.60612 18.63989,9.59628 Z"/></g><g id="Group-624" font-family="LucidaGrande, Lucida Grande" font-weight="normal"><text id="." fill="#000" font-size="6.974"><tspan x=".52" y="7.366">.</tspan></text><g id="Group-623" fill="#2E474C" transform="translate(100.000000, 37.000000)"><text id="A" font-size="5.579"><tspan x=".2" y="5.099">A</tspan></text><text id="1" font-size="3.985"><tspan x="2.904" y="6.777">1</tspan></text></g></g></g><g id="Group-631" transform="translate(38.000000, 103.000000)"><g id="Group-628" transform="translate(127.000000, 33.000000)"><path id="Fill-626" fill="#FFF" d="M18.6562,9.59628 C18.6562,4.58642 14.59504,0.52527 9.5852,0.52527 C4.57534,0.52527 0.51419,4.58642 0.51419,9.59628 C0.51419,14.60612 4.57534,18.66728 9.5852,18.66728 C14.59504,18.66728 18.6562,14.60612 18.6562,9.59628 Z"/><path id="Stroke-627" stroke="#424242" stroke-width=".797" d="M18.6562,9.59628 C18.6562,4.58642 14.59504,0.52527 9.5852,0.52527 C4.57534,0.52527 0.51419,4.58642 0.51419,9.59628 C0.51419,14.60612 4.57534,18.66728 9.5852,18.66728 C14.59504,18.66728 18.6562,14.60612 18.6562,9.59628 Z"/></g><g id="Group-630" font-family="LucidaGrande, Lucida Grande" font-weight="normal"><text id="." fill="#000" font-size="6.974"><tspan x=".52" y="7.366">.</tspan></text><g id="Group-629" fill="#2E474C" transform="translate(134.000000, 37.000000)"><text id="A" font-size="5.579"><tspan x=".08" y="5.099">A</tspan></text><text id="2" font-size="3.985"><tspan x="2.784" y="6.777">2</tspan></text></g></g></g><g id="Group-637" transform="translate(38.000000, 103.000000)"><g id="Group-634" transform="translate(161.000000, 33.000000)"><path id="Fill-632" fill="#FFF" d="M18.6725,9.59628 C18.6725,4.58642 14.61134,0.52527 9.6015,0.52527 C4.59164,0.52527 0.53048,4.58642 0.53048,9.59628 C0.53048,14.60612 4.59164,18.66728 9.6015,18.66728 C14.61134,18.66728 18.6725,14.60612 18.6725,9.59628 Z"/><path id="Stroke-633" stroke="#424242" stroke-width=".797" d="M18.6725,9.59628 C18.6725,4.58642 14.61134,0.52527 9.6015,0.52527 C4.59164,0.52527 0.53048,4.58642 0.53048,9.59628 C0.53048,14.60612 4.59164,18.66728 9.6015,18.66728 C14.61134,18.66728 18.6725,14.60612 18.6725,9.59628 Z"/></g><g id="Group-636" font-family="LucidaGrande, Lucida Grande" font-weight="normal"><text id="." fill="#000" font-size="6.974"><tspan x=".52" y="7.366">.</tspan></text><g id="Group-635" fill="#2E474C" transform="translate(168.000000, 37.000000)"><text id="A" font-size="5.579"><tspan x=".08" y="5.079">A</tspan></text><text id="3" font-size="3.985"><tspan x="2.792" y="6.757">3</tspan></text></g></g></g><g id="Group-643" transform="translate(38.000000, 0.000000)"><g id="Group-640" transform="translate(229.000000, 0.000000)"><path id="Fill-638" fill="#FFF" d="M18.70509,9.53111 C18.70509,4.52127 14.64393,0.46011 9.63409,0.46011 C4.62425,0.46011 0.56308,4.52127 0.56308,9.53111 C0.56308,14.54097 4.62425,18.60213 9.63409,18.60213 C14.64393,18.60213 18.70509,14.54097 18.70509,9.53111 Z"/><path id="Stroke-639" stroke="#424242" stroke-width=".797" d="M18.70509,9.53111 C18.70509,4.52127 14.64393,0.46011 9.63409,0.46011 C4.62425,0.46011 0.56308,4.52127 0.56308,9.53111 C0.56308,14.54097 4.62425,18.60213 9.63409,18.60213 C14.64393,18.60213 18.70509,14.54097 18.70509,9.53111 Z"/></g><g id="Group-642" font-family="LucidaGrande, Lucida Grande" font-weight="normal" transform="translate(0.000000, 4.000000)"><text id="." fill="#000" font-size="6.974"><tspan x=".52" y="106.366">.</tspan></text><g id="Group-641" fill="#2E474C" transform="translate(236.000000, 0.000000)"><text id="A" font-size="5.579"><tspan x=".24" y="5.029">A</tspan></text><text id="T" font-size="3.985"><tspan x="2.672" y="6.715">T</tspan></text></g></g></g><g id="Group-649" transform="translate(38.000000, 34.000000)"><g id="Group-646" transform="translate(229.000000, 0.000000)"><path id="Fill-644" fill="#FFF" d="M18.70509,9.5474 C18.70509,4.53757 14.64393,0.47641 9.63409,0.47641 C4.62425,0.47641 0.56308,4.53757 0.56308,9.5474 C0.56308,14.55726 4.62425,18.61842 9.63409,18.61842 C14.64393,18.61842 18.70509,14.55726 18.70509,9.5474 Z"/><path id="Stroke-645" stroke="#424242" stroke-width=".797" d="M18.70509,9.5474 C18.70509,4.53757 14.64393,0.47641 9.63409,0.47641 C4.62425,0.47641 0.56308,4.53757 0.56308,9.5474 C0.56308,14.55726 4.62425,18.61842 9.63409,18.61842 C14.64393,18.61842 18.70509,14.55726 18.70509,9.5474 Z"/></g><g id="Group-648" font-family="LucidaGrande, Lucida Grande" font-weight="normal" transform="translate(0.000000, 4.000000)"><text id="." fill="#000" font-size="6.974"><tspan x=".52" y="72.366">.</tspan></text><g id="Group-647" fill="#2E474C" transform="translate(234.000000, 0.000000)"><text id="h" font-size="5.579"><tspan x=".85" y="5.639">h</tspan></text><text id="3" font-size="3.985"><tspan x="4.122" y="7.325">3</tspan></text><text id="T" font-size="3.985"><tspan x="6.058" y="7.325">T</tspan></text></g></g></g><g id="Group-655" transform="translate(38.000000, 68.000000)"><g id="Group-652" transform="translate(229.000000, 0.000000)"><path id="Fill-650" fill="#FFF" d="M18.70509,9.56372 C18.70509,4.55388 14.64393,0.49272 9.63409,0.49272 C4.62425,0.49272 0.56308,4.55388 0.56308,9.56372 C0.56308,14.57358 4.62425,18.63473 9.63409,18.63473 C14.64393,18.63473 18.70509,14.57358 18.70509,9.56372 Z"/><path id="Stroke-651" stroke="#424242" stroke-width=".797" d="M18.70509,9.56372 C18.70509,4.55388 14.64393,0.49272 9.63409,0.49272 C4.62425,0.49272 0.56308,4.55388 0.56308,9.56372 C0.56308,14.57358 4.62425,18.63473 9.63409,18.63473 C14.64393,18.63473 18.70509,14.57358 18.70509,9.56372 Z"/></g><g id="Group-654" font-family="LucidaGrande, Lucida Grande" font-weight="normal" transform="translate(0.000000, 4.000000)"><text id="." fill="#000" font-size="6.974"><tspan x=".52" y="38.366">.</tspan></text><g id="Group-653" fill="#2E474C" transform="translate(234.000000, 0.000000)"><text id="h" font-size="5.579"><tspan x=".87" y="5.679">h</tspan></text><text id="2" font-size="3.985"><tspan x="4.134" y="7.365">2</tspan></text><text id="T" font-size="3.985"><tspan x="6.046" y="7.365">T</tspan></text></g></g></g><g id="Group-661" transform="translate(38.000000, 102.000000)"><g id="Group-658" transform="translate(229.000000, 0.000000)"><path id="Fill-656" fill="#FFF" d="M18.70509,9.58 C18.70509,4.57016 14.64393,0.509 9.63409,0.509 C4.62425,0.509 0.56308,4.57016 0.56308,9.58 C0.56308,14.58984 4.62425,18.651 9.63409,18.651 C14.64393,18.651 18.70509,14.58984 18.70509,9.58 Z"/><path id="Stroke-657" stroke="#424242" stroke-width=".797" d="M18.70509,9.58 C18.70509,4.57016 14.64393,0.509 9.63409,0.509 C4.62425,0.509 0.56308,4.57016 0.56308,9.58 C0.56308,14.58984 4.62425,18.651 9.63409,18.651 C14.64393,18.651 18.70509,14.58984 18.70509,9.58 Z"/></g><g id="Group-660" font-family="LucidaGrande, Lucida Grande" font-weight="normal" transform="translate(0.000000, 1.000000)"><text id="." fill="#000" font-size="6.974"><tspan x=".52" y="7.366">.</tspan></text><g id="Group-659" fill="#2E474C" transform="translate(235.000000, 3.000000)"><text id="h" font-size="5.579"><tspan x="0" y="5.699">h</tspan></text><text id="1" font-size="3.985"><tspan x="3.272" y="7.385">1</tspan></text><text id="T" font-size="3.985"><tspan x="4.912" y="7.385">T</tspan></text></g></g></g><g id="Group-667" transform="translate(38.000000, 103.000000)"><g id="Group-664" transform="translate(229.000000, 33.000000)"><path id="Fill-662" fill="#FFF" d="M18.70509,9.59628 C18.70509,4.58642 14.64393,0.52527 9.63409,0.52527 C4.62425,0.52527 0.56308,4.58642 0.56308,9.59628 C0.56308,14.60612 4.62425,18.66728 9.63409,18.66728 C14.64393,18.66728 18.70509,14.60612 18.70509,9.59628 Z"/><path id="Stroke-663" stroke="#424242" stroke-width=".797" d="M18.70509,9.59628 C18.70509,4.58642 14.64393,0.52527 9.63409,0.52527 C4.62425,0.52527 0.56308,4.58642 0.56308,9.59628 C0.56308,14.60612 4.62425,18.66728 9.63409,18.66728 C14.64393,18.66728 18.70509,14.60612 18.70509,9.59628 Z"/></g><g id="Group-666" font-family="LucidaGrande, Lucida Grande" font-weight="normal"><text id="." fill="#000" font-size="6.974"><tspan x=".52" y="7.366">.</tspan></text><g id="Group-665" fill="#2E474C" transform="translate(236.000000, 37.000000)"><text id="A" font-size="5.579"><tspan x=".1" y="5.099">A</tspan></text><text id="T" font-size="3.985"><tspan x="2.812" y="6.785">T</tspan></text></g></g></g><g id="Group-672" transform="translate(138.000000, 121.000000)"><path id="Stroke-668" stroke="#23373B" stroke-width=".797" d="M2.57667,15.20773 L2.5756,1.40486"/><g id="Group-671"><path id="Fill-669" fill="#23373B" d="M2.5755482,0.36876 C2.31659295,1.66389295 1.79860771,2.95904885 0.892105415,4.51324418 C2.05762771,2.9590359 3.09372771,2.9589841 4.25940542,4.51307582 C3.35274771,2.95897115 2.83463295,1.66386705 2.5755482,0.36876 Z"/><path id="Stroke-670" stroke="#23373B" stroke-linejoin="round" stroke-width=".797" d="M2.5755482,0.36876 C2.31659295,1.66389295 1.79860771,2.95904885 0.892105415,4.51324418 C2.05762771,2.9590359 3.09372771,2.9589841 4.25940542,4.51307582 C3.35274771,2.95897115 2.83463295,1.66386705 2.5755482,0.36876 Z"/></g></g><g id="Group-677" transform="translate(138.000000, 87.000000)"><path id="Stroke-673" stroke="#23373B" stroke-width=".797" d="M2.57667,15.18971 L2.57559,1.38684"/><g id="Group-676"><path id="Fill-674" fill="#23373B" d="M2.57552783,0.35074 C2.31658554,1.64587554 1.79861325,2.94103662 0.892126498,4.49524102 C2.05763325,2.94102108 3.09373325,2.94095892 4.2594265,4.49503898 C3.35275325,2.94094338 2.83462554,1.64584446 2.57552783,0.35074 Z"/><path id="Stroke-675" stroke="#23373B" stroke-linejoin="round" stroke-width=".797" d="M2.57552783,0.35074 C2.31658554,1.64587554 1.79861325,2.94103662 0.892126498,4.49524102 C2.05763325,2.94102108 3.09373325,2.94095892 4.2594265,4.49503898 C3.35275325,2.94094338 2.83462554,1.64584446 2.57552783,0.35074 Z"/></g></g><g id="Group-682" transform="translate(138.000000, 53.000000)"><path id="Stroke-678" stroke="#23373B" stroke-width=".797" d="M2.57667,15.17164 L2.5756,1.36874"/><g id="Group-681"><path id="Fill-679" fill="#23373B" d="M2.5755482,0.33264 C2.31659295,1.62777295 1.79860771,2.92292885 0.892105415,4.47712418 C2.05762771,2.9229159 3.09372771,2.9228641 4.25940542,4.47695582 C3.35274771,2.92285115 2.83463295,1.62774705 2.5755482,0.33264 Z"/><path id="Stroke-680" stroke="#23373B" stroke-linejoin="round" stroke-width=".797" d="M2.5755482,0.33264 C2.31659295,1.62777295 1.79860771,2.92292885 0.892105415,4.47712418 C2.05762771,2.9229159 3.09372771,2.9228641 4.25940542,4.47695582 C3.35274771,2.92285115 2.83463295,1.62774705 2.5755482,0.33264 Z"/></g></g><g id="Group-687" transform="translate(138.000000, 19.000000)"><path id="Stroke-683" stroke="#23373B" stroke-width=".797" d="M2.57667,15.15352 L2.57559,1.35066"/><g id="Group-686"><path id="Fill-684" fill="#23373B" d="M2.57552783,0.31456 C2.31658554,1.60969554 1.79861325,2.90485662 0.892126498,4.45906102 C2.05763325,2.90484108 3.09373325,2.90477892 4.2594265,4.45885898 C3.35275325,2.90476338 2.83462554,1.60966446 2.57552783,0.31456 Z"/><path id="Stroke-685" stroke="#23373B" stroke-linejoin="round" stroke-width=".797" d="M2.57552783,0.31456 C2.31658554,1.60969554 1.79861325,2.90485662 0.892126498,4.45906102 C2.05763325,2.90484108 3.09373325,2.90477892 4.2594265,4.45885898 C3.35275325,2.90476338 2.83462554,1.60966446 2.57552783,0.31456 Z"/></g></g><g id="Group-692" transform="translate(172.000000, 121.000000)"><path id="Stroke-688" stroke="#23373B" stroke-width=".797" d="M2.59579,15.20773 L2.59431,1.40486"/><g id="Group-691"><path id="Fill-689" fill="#23373B" d="M2.59422711,0.36876 C2.33531072,1.66390072 1.81736433,2.95907217 0.910908664,4.51329469 C2.07638433,2.95905144 3.11248433,2.95896856 4.27820866,4.51302531 C3.37150433,2.95894783 2.85335072,1.66385928 2.59422711,0.36876 Z"/><path id="Stroke-690" stroke="#23373B" stroke-linejoin="round" stroke-width=".797" d="M2.59422711,0.36876 C2.33531072,1.66390072 1.81736433,2.95907217 0.910908664,4.51329469 C2.07638433,2.95905144 3.11248433,2.95896856 4.27820866,4.51302531 C3.37150433,2.95894783 2.85335072,1.66385928 2.59422711,0.36876 Z"/></g></g><g id="Group-697" transform="translate(172.000000, 87.000000)"><path id="Stroke-693" stroke="#23373B" stroke-width=".797" d="M2.59576,15.18971 L2.59431,1.38684"/><g id="Group-696"><path id="Fill-694" fill="#23373B" d="M2.59422711,0.35074 C2.33531072,1.64588072 1.81736433,2.94105217 0.910908664,4.49527469 C2.07638433,2.94103144 3.11248433,2.94094856 4.27820866,4.49500531 C3.37150433,2.94092783 2.85335072,1.64583928 2.59422711,0.35074 Z"/><path id="Stroke-695" stroke="#23373B" stroke-linejoin="round" stroke-width=".797" d="M2.59422711,0.35074 C2.33531072,1.64588072 1.81736433,2.94105217 0.910908664,4.49527469 C2.07638433,2.94103144 3.11248433,2.94094856 4.27820866,4.49500531 C3.37150433,2.94092783 2.85335072,1.64583928 2.59422711,0.35074 Z"/></g></g><g id="Group-702" transform="translate(172.000000, 53.000000)"><path id="Stroke-698" stroke="#23373B" stroke-width=".797" d="M2.59579,15.17164 L2.59431,1.36874"/><g id="Group-701"><path id="Fill-699" fill="#23373B" d="M2.59422711,0.33264 C2.33531072,1.62778072 1.81736433,2.92295217 0.910908664,4.47717469 C2.07638433,2.92293144 3.11248433,2.92284856 4.27820866,4.47690531 C3.37150433,2.92282783 2.85335072,1.62773928 2.59422711,0.33264 Z"/><path id="Stroke-700" stroke="#23373B" stroke-linejoin="round" stroke-width=".797" d="M2.59422711,0.33264 C2.33531072,1.62778072 1.81736433,2.92295217 0.910908664,4.47717469 C2.07638433,2.92293144 3.11248433,2.92284856 4.27820866,4.47690531 C3.37150433,2.92282783 2.85335072,1.62773928 2.59422711,0.33264 Z"/></g></g><g id="Group-707" transform="translate(172.000000, 19.000000)"><path id="Stroke-703" stroke="#23373B" stroke-width=".797" d="M2.59576,15.15352 L2.59431,1.35066"/><g id="Group-706"><path id="Fill-704" fill="#23373B" d="M2.59422711,0.31456 C2.33531072,1.60970072 1.81736433,2.90487217 0.910908664,4.45909469 C2.07638433,2.90485144 3.11248433,2.90476856 4.27820866,4.45882531 C3.37150433,2.90474783 2.85335072,1.60965928 2.59422711,0.31456 Z"/><path id="Stroke-705" stroke="#23373B" stroke-linejoin="round" stroke-width=".797" d="M2.59422711,0.31456 C2.33531072,1.60970072 1.81736433,2.90487217 0.910908664,4.45909469 C2.07638433,2.90485144 3.11248433,2.90476856 4.27820866,4.45882531 C3.37150433,2.90474783 2.85335072,1.60965928 2.59422711,0.31456 Z"/></g></g><g id="Group-712" transform="translate(206.000000, 121.000000)"><path id="Stroke-708" stroke="#23373B" stroke-width=".797" d="M2.61471,15.20775 L2.61288,1.40486"/><g id="Group-711"><path id="Fill-709" fill="#23373B" d="M2.61277639,0.36876 C2.3538859,1.6639059 1.83596542,2.95908771 0.92954083,4.51332837 C2.09498541,2.95906181 3.13108542,2.95895819 4.29684083,4.51299164 C3.39010541,2.95893229 2.8719259,1.6638541 2.61277639,0.36876 Z"/><path id="Stroke-710" stroke="#23373B" stroke-linejoin="round" stroke-width=".797" d="M2.61277639,0.36876 C2.3538859,1.6639059 1.83596542,2.95908771 0.92954083,4.51332837 C2.09498541,2.95906181 3.13108542,2.95895819 4.29684083,4.51299164 C3.39010541,2.95893229 2.8719259,1.6638541 2.61277639,0.36876 Z"/></g></g><g id="Group-717" transform="translate(206.000000, 87.000000)"><path id="Stroke-713" stroke="#23373B" stroke-width=".797" d="M2.61473,15.1897 L2.61286,1.38684"/><g id="Group-716"><path id="Fill-714" fill="#23373B" d="M2.61275639,0.35074 C2.3538659,1.6458859 1.83594542,2.94106771 0.92952083,4.49530836 C2.09496541,2.9410418 3.13106542,2.9409382 4.29682083,4.49497164 C3.39008541,2.94091229 2.8719059,1.6458341 2.61275639,0.35074 Z"/><path id="Stroke-715" stroke="#23373B" stroke-linejoin="round" stroke-width=".797" d="M2.61275639,0.35074 C2.3538659,1.6458859 1.83594542,2.94106771 0.92952083,4.49530836 C2.09496541,2.9410418 3.13106542,2.9409382 4.29682083,4.49497164 C3.39008541,2.94091229 2.8719059,1.6458341 2.61275639,0.35074 Z"/></g></g><g id="Group-722" transform="translate(206.000000, 53.000000)"><path id="Stroke-718" stroke="#23373B" stroke-width=".797" d="M2.61471,15.17164 L2.61288,1.36874"/><g id="Group-721"><path id="Fill-719" fill="#23373B" d="M2.61277639,0.33264 C2.3538859,1.6277859 1.83596542,2.92296771 0.92954083,4.47720836 C2.09498541,2.9229418 3.13108542,2.92283819 4.29684083,4.47687164 C3.39010541,2.92281229 2.8719259,1.6277341 2.61277639,0.33264 Z"/><path id="Stroke-720" stroke="#23373B" stroke-linejoin="round" stroke-width=".797" d="M2.61277639,0.33264 C2.3538859,1.6277859 1.83596542,2.92296771 0.92954083,4.47720836 C2.09498541,2.9229418 3.13108542,2.92283819 4.29684083,4.47687164 C3.39010541,2.92281229 2.8719259,1.6277341 2.61277639,0.33264 Z"/></g></g><g id="Group-727" transform="translate(206.000000, 19.000000)"><path id="Stroke-723" stroke="#23373B" stroke-width=".797" d="M2.61473,15.15352 L2.61286,1.35068"/><g id="Group-726"><path id="Fill-724" fill="#23373B" d="M2.61275639,0.31458 C2.3538659,1.6097259 1.83594542,2.90490771 0.92952083,4.45914837 C2.09496541,2.90488181 3.13106542,2.9047782 4.29682083,4.45881164 C3.39008541,2.90475229 2.8719059,1.6096741 2.61275639,0.31458 Z"/><path id="Stroke-725" stroke="#23373B" stroke-linejoin="round" stroke-width=".797" d="M2.61275639,0.31458 C2.3538659,1.6097259 1.83594542,2.90490771 0.92952083,4.45914837 C2.09496541,2.90488181 3.13106542,2.9047782 4.29682083,4.45881164 C3.39008541,2.90475229 2.8719059,1.6096741 2.61275639,0.31458 Z"/></g></g><g id="Group-732" transform="translate(115.000000, 41.000000)"><path id="Stroke-728" stroke="#23373B" stroke-width=".797" d="M0.94648,2.54227 L14.74934,2.54297"/><g id="Group-731" transform="translate(11.000000, 0.000000)"><path id="Fill-729" fill="#23373B" d="M4.78544,2.54300108 C3.49032777,2.28394223 2.19521331,1.76585338 0.64109051,0.859226751 C2.19520554,2.02487338 2.19517446,3.06097338 0.640989491,4.22652675 C2.19516669,3.31999338 3.49031223,2.80198223 4.78544,2.54300108 Z"/><path id="Stroke-730" stroke="#23373B" stroke-linejoin="round" stroke-width=".797" d="M4.78544,2.54300108 C3.49032777,2.28394223 2.19521331,1.76585338 0.64109051,0.859226751 C2.19520554,2.02487338 2.19517446,3.06097338 0.640989491,4.22652675 C2.19516669,3.31999338 3.49031223,2.80198223 4.78544,2.54300108 Z"/></g></g><g id="Group-737" transform="translate(115.000000, 75.000000)"><path id="Stroke-733" stroke="#23373B" stroke-width=".797" d="M0.94648,2.56137 L14.74932,2.56167"/><g id="Group-736" transform="translate(11.000000, 0.000000)"><path id="Fill-734" fill="#23373B" d="M4.78542,2.56167 C3.4903,2.30265 2.19517,1.7846 0.64102,0.87802 C2.19517,2.04362 2.19517,3.07972 0.64102,4.24532 C2.19517,3.33874 3.4903,2.82069 4.78542,2.56167 Z"/><path id="Stroke-735" stroke="#23373B" stroke-linejoin="round" stroke-width=".797" d="M4.78542,2.56167 C3.4903,2.30265 2.19517,1.7846 0.64102,0.87802 C2.19517,2.04362 2.19517,3.07972 0.64102,4.24532 C2.19517,3.33874 3.4903,2.82069 4.78542,2.56167 Z"/></g></g><g id="Group-742" transform="translate(115.000000, 109.000000)"><path id="Stroke-738" stroke="#23373B" stroke-width=".797" d="M0.94648,2.58 L14.74934,2.58"/><g id="Group-741" transform="translate(11.000000, 0.000000)"><path id="Fill-739" fill="#23373B" d="M4.78544,2.58 C3.49032,2.32098 2.19519,1.80293 0.64104,0.89635 C2.19519,2.06195 2.19519,3.09805 0.64104,4.26365 C2.19519,3.35707 3.49032,2.83902 4.78544,2.58 Z"/><path id="Stroke-740" stroke="#23373B" stroke-linejoin="round" stroke-width=".797" d="M4.78544,2.58 C3.49032,2.32098 2.19519,1.80293 0.64104,0.89635 C2.19519,2.06195 2.19519,3.09805 0.64104,4.26365 C2.19519,3.35707 3.49032,2.83902 4.78544,2.58 Z"/></g></g><g id="Group-747" transform="translate(115.000000, 41.000000)"><path id="Stroke-743" stroke="#23373B" stroke-width=".797" d="M0.94648,2.54227 L14.74934,2.54297"/><g id="Group-746" transform="translate(11.000000, 0.000000)"><path id="Fill-744" fill="#23373B" d="M4.78544,2.54300108 C3.49032777,2.28394223 2.19521331,1.76585338 0.64109051,0.859226751 C2.19520554,2.02487338 2.19517446,3.06097338 0.640989491,4.22652675 C2.19516669,3.31999338 3.49031223,2.80198223 4.78544,2.54300108 Z"/><path id="Stroke-745" stroke="#23373B" stroke-linejoin="round" stroke-width=".797" d="M4.78544,2.54300108 C3.49032777,2.28394223 2.19521331,1.76585338 0.64109051,0.859226751 C2.19520554,2.02487338 2.19517446,3.06097338 0.640989491,4.22652675 C2.19516669,3.31999338 3.49031223,2.80198223 4.78544,2.54300108 Z"/></g></g><g id="Group-752" transform="translate(115.000000, 75.000000)"><path id="Stroke-748" stroke="#23373B" stroke-width=".797" d="M0.94648,2.56137 L14.74932,2.56167"/><g id="Group-751" transform="translate(11.000000, 0.000000)"><path id="Fill-749" fill="#23373B" d="M4.78542,2.56167 C3.4903,2.30265 2.19517,1.7846 0.64102,0.87802 C2.19517,2.04362 2.19517,3.07972 0.64102,4.24532 C2.19517,3.33874 3.4903,2.82069 4.78542,2.56167 Z"/><path id="Stroke-750" stroke="#23373B" stroke-linejoin="round" stroke-width=".797" d="M4.78542,2.56167 C3.4903,2.30265 2.19517,1.7846 0.64102,0.87802 C2.19517,2.04362 2.19517,3.07972 0.64102,4.24532 C2.19517,3.33874 3.4903,2.82069 4.78542,2.56167 Z"/></g></g><g id="Group-757" transform="translate(115.000000, 109.000000)"><path id="Stroke-753" stroke="#23373B" stroke-width=".797" d="M0.94648,2.58 L14.74934,2.58"/><g id="Group-756" transform="translate(11.000000, 0.000000)"><path id="Fill-754" fill="#23373B" d="M4.78544,2.58 C3.49032,2.32098 2.19519,1.80293 0.64104,0.89635 C2.19519,2.06195 2.19519,3.09805 0.64104,4.26365 C2.19519,3.35707 3.49032,2.83902 4.78544,2.58 Z"/><path id="Stroke-755" stroke="#23373B" stroke-linejoin="round" stroke-width=".797" d="M4.78544,2.58 C3.49032,2.32098 2.19519,1.80293 0.64104,0.89635 C2.19519,2.06195 2.19519,3.09805 0.64104,4.26365 C2.19519,3.35707 3.49032,2.83902 4.78544,2.58 Z"/></g></g><g id="Group-762" transform="translate(115.000000, 41.000000)"><path id="Stroke-758" stroke="#23373B" stroke-width=".797" d="M0.94648,2.54227 L14.74934,2.54297"/><g id="Group-761" transform="translate(11.000000, 0.000000)"><path id="Fill-759" fill="#23373B" d="M4.78544,2.54300108 C3.49032777,2.28394223 2.19521331,1.76585338 0.64109051,0.859226751 C2.19520554,2.02487338 2.19517446,3.06097338 0.640989491,4.22652675 C2.19516669,3.31999338 3.49031223,2.80198223 4.78544,2.54300108 Z"/><path id="Stroke-760" stroke="#23373B" stroke-linejoin="round" stroke-width=".797" d="M4.78544,2.54300108 C3.49032777,2.28394223 2.19521331,1.76585338 0.64109051,0.859226751 C2.19520554,2.02487338 2.19517446,3.06097338 0.640989491,4.22652675 C2.19516669,3.31999338 3.49031223,2.80198223 4.78544,2.54300108 Z"/></g></g><g id="Group-767" transform="translate(115.000000, 75.000000)"><path id="Stroke-763" stroke="#23373B" stroke-width=".797" d="M0.94648,2.56137 L14.74932,2.56167"/><g id="Group-766" transform="translate(11.000000, 0.000000)"><path id="Fill-764" fill="#23373B" d="M4.78542,2.56167 C3.4903,2.30265 2.19517,1.7846 0.64102,0.87802 C2.19517,2.04362 2.19517,3.07972 0.64102,4.24532 C2.19517,3.33874 3.4903,2.82069 4.78542,2.56167 Z"/><path id="Stroke-765" stroke="#23373B" stroke-linejoin="round" stroke-width=".797" d="M4.78542,2.56167 C3.4903,2.30265 2.19517,1.7846 0.64102,0.87802 C2.19517,2.04362 2.19517,3.07972 0.64102,4.24532 C2.19517,3.33874 3.4903,2.82069 4.78542,2.56167 Z"/></g></g><g id="Group-772" transform="translate(115.000000, 109.000000)"><path id="Stroke-768" stroke="#23373B" stroke-width=".797" d="M0.94648,2.58 L14.74934,2.58"/><g id="Group-771" transform="translate(11.000000, 0.000000)"><path id="Fill-769" fill="#23373B" d="M4.78544,2.58 C3.49032,2.32098 2.19519,1.80293 0.64104,0.89635 C2.19519,2.06195 2.19519,3.09805 0.64104,4.26365 C2.19519,3.35707 3.49032,2.83902 4.78544,2.58 Z"/><path id="Stroke-770" stroke="#23373B" stroke-linejoin="round" stroke-width=".797" d="M4.78544,2.58 C3.49032,2.32098 2.19519,1.80293 0.64104,0.89635 C2.19519,2.06195 2.19519,3.09805 0.64104,4.26365 C2.19519,3.35707 3.49032,2.83902 4.78544,2.58 Z"/></g></g><g id="Group-777" transform="translate(149.000000, 41.000000)"><path id="Stroke-773" stroke="#23373B" stroke-width=".797" d="M0.96455,2.54227 L14.76744,2.54297"/><g id="Group-776" transform="translate(11.000000, 0.000000)"><path id="Fill-774" fill="#23373B" d="M4.80354,2.54300108 C3.50842777,2.28394223 2.21331331,1.76585338 0.65919051,0.859226751 C2.21330554,2.02487338 2.21327446,3.06097338 0.659089491,4.22652675 C2.21326669,3.31999338 3.50841223,2.80198223 4.80354,2.54300108 Z"/><path id="Stroke-775" stroke="#23373B" stroke-linejoin="round" stroke-width=".797" d="M4.80354,2.54300108 C3.50842777,2.28394223 2.21331331,1.76585338 0.65919051,0.859226751 C2.21330554,2.02487338 2.21327446,3.06097338 0.659089491,4.22652675 C2.21326669,3.31999338 3.50841223,2.80198223 4.80354,2.54300108 Z"/></g></g><g id="Group-782" transform="translate(149.000000, 75.000000)"><path id="Stroke-778" stroke="#23373B" stroke-width=".797" d="M0.96453,2.56137 L14.76745,2.56167"/><g id="Group-781" transform="translate(11.000000, 0.000000)"><path id="Fill-779" fill="#23373B" d="M4.80355,2.56167 C3.50843,2.30265 2.2133,1.7846 0.65915,0.87802 C2.2133,2.04362 2.2133,3.07972 0.65915,4.24532 C2.2133,3.33874 3.50843,2.82069 4.80355,2.56167 Z"/><path id="Stroke-780" stroke="#23373B" stroke-linejoin="round" stroke-width=".797" d="M4.80355,2.56167 C3.50843,2.30265 2.2133,1.7846 0.65915,0.87802 C2.2133,2.04362 2.2133,3.07972 0.65915,4.24532 C2.2133,3.33874 3.50843,2.82069 4.80355,2.56167 Z"/></g></g><g id="Group-787" transform="translate(149.000000, 109.000000)"><path id="Stroke-783" stroke="#23373B" stroke-width=".797" d="M0.96455,2.58 L14.76744,2.58"/><g id="Group-786" transform="translate(11.000000, 0.000000)"><path id="Fill-784" fill="#23373B" d="M4.80354,2.58 C3.50842,2.32098 2.21329,1.80293 0.65914,0.89635 C2.21329,2.06195 2.21329,3.09805 0.65914,4.26365 C2.21329,3.35707 3.50842,2.83902 4.80354,2.58 Z"/><path id="Stroke-785" stroke="#23373B" stroke-linejoin="round" stroke-width=".797" d="M4.80354,2.58 C3.50842,2.32098 2.21329,1.80293 0.65914,0.89635 C2.21329,2.06195 2.21329,3.09805 0.65914,4.26365 C2.21329,3.35707 3.50842,2.83902 4.80354,2.58 Z"/></g></g><g id="Group-792" transform="translate(183.000000, 41.000000)"><path id="Stroke-788" stroke="#23373B" stroke-width=".797" d="M0.98265,2.54227 L14.78552,2.54297"/><g id="Group-791" transform="translate(11.000000, 0.000000)"><path id="Fill-789" fill="#23373B" d="M4.82162,2.54300108 C3.52650777,2.28394223 2.23139331,1.76585338 0.67727051,0.859226751 C2.23138554,2.02487338 2.23135446,3.06097338 0.677169491,4.22652675 C2.23134669,3.31999338 3.52649223,2.80198223 4.82162,2.54300108 Z"/><path id="Stroke-790" stroke="#23373B" stroke-linejoin="round" stroke-width=".797" d="M4.82162,2.54300108 C3.52650777,2.28394223 2.23139331,1.76585338 0.67727051,0.859226751 C2.23138554,2.02487338 2.23135446,3.06097338 0.677169491,4.22652675 C2.23134669,3.31999338 3.52649223,2.80198223 4.82162,2.54300108 Z"/></g></g><g id="Group-797" transform="translate(183.000000, 75.000000)"><path id="Stroke-793" stroke="#23373B" stroke-width=".797" d="M0.98265,2.56137 L14.7855,2.56166"/><g id="Group-796" transform="translate(11.000000, 0.000000)"><path id="Fill-794" fill="#23373B" d="M4.8216,2.56166 C3.52648,2.30264 2.23135,1.78459 0.6772,0.87801 C2.23135,2.04361 2.23135,3.07971 0.6772,4.24531 C2.23135,3.33873 3.52648,2.82068 4.8216,2.56166 Z"/><path id="Stroke-795" stroke="#23373B" stroke-linejoin="round" stroke-width=".797" d="M4.8216,2.56166 C3.52648,2.30264 2.23135,1.78459 0.6772,0.87801 C2.23135,2.04361 2.23135,3.07971 0.6772,4.24531 C2.23135,3.33873 3.52648,2.82068 4.8216,2.56166 Z"/></g></g><g id="Group-802" transform="translate(183.000000, 109.000000)"><path id="Stroke-798" stroke="#23373B" stroke-width=".797" d="M0.98265,2.58 L14.78552,2.58"/><g id="Group-801" transform="translate(11.000000, 0.000000)"><path id="Fill-799" fill="#23373B" d="M4.82162,2.58 C3.5265,2.32098 2.23137,1.80293 0.67722,0.89635 C2.23137,2.06195 2.23137,3.09805 0.67722,4.26365 C2.23137,3.35707 3.5265,2.83902 4.82162,2.58 Z"/><path id="Stroke-800" stroke="#23373B" stroke-linejoin="round" stroke-width=".797" d="M4.82162,2.58 C3.5265,2.32098 2.23137,1.80293 0.67722,0.89635 C2.23137,2.06195 2.23137,3.09805 0.67722,4.26365 C2.23137,3.35707 3.5265,2.83902 4.82162,2.58 Z"/></g></g><text id="." fill="#000" font-family="LucidaGrande, Lucida Grande" font-size="6.974" font-weight="normal"><tspan x="38.52" y="110.366">.</tspan></text><text id="." fill="#000" font-family="LucidaGrande, Lucida Grande" font-size="6.974" font-weight="normal"><tspan x="38.52" y="110.366">.</tspan></text><text id="." fill="#000" font-family="LucidaGrande, Lucida Grande" font-size="6.974" font-weight="normal"><tspan x="38.52" y="110.366">.</tspan></text><text id="." fill="#000" font-family="LucidaGrande, Lucida Grande" font-size="6.974" font-weight="normal"><tspan x="38.52" y="110.366">.</tspan></text><text id="." fill="#000" font-family="LucidaGrande, Lucida Grande" font-size="6.974" font-weight="normal"><tspan x="38.52" y="110.366">.</tspan></text><g id="Group-807" transform="translate(218.000000, 41.000000)"><path id="Stroke-803" stroke="#23373B" stroke-width=".797" d="M0.00076,2.54227 L13.80363,2.54297"/><g id="Group-806" transform="translate(10.000000, 0.000000)"><path id="Fill-804" fill="#23373B" d="M4.83973,2.54300108 C3.54461777,2.28394223 2.24950331,1.76585338 0.69538051,0.859226751 C2.24949554,2.02487338 2.24946446,3.06097338 0.695279491,4.22652675 C2.24945669,3.31999338 3.54460223,2.80198223 4.83973,2.54300108 Z"/><path id="Stroke-805" stroke="#23373B" stroke-linejoin="round" stroke-width=".797" d="M4.83973,2.54300108 C3.54461777,2.28394223 2.24950331,1.76585338 0.69538051,0.859226751 C2.24949554,2.02487338 2.24946446,3.06097338 0.695279491,4.22652675 C2.24945669,3.31999338 3.54460223,2.80198223 4.83973,2.54300108 Z"/></g></g><g id="Group-812" transform="translate(218.000000, 75.000000)"><path id="Stroke-808" stroke="#23373B" stroke-width=".797" d="M0.00074,2.56137 L13.80363,2.56166"/><g id="Group-811" transform="translate(10.000000, 0.000000)"><path id="Fill-809" fill="#23373B" d="M4.83973,2.56166 C3.54461,2.30264 2.24948,1.78459 0.69533,0.87801 C2.24948,2.04361 2.24948,3.07971 0.69533,4.24531 C2.24948,3.33873 3.54461,2.82068 4.83973,2.56166 Z"/><path id="Stroke-810" stroke="#23373B" stroke-linejoin="round" stroke-width=".797" d="M4.83973,2.56166 C3.54461,2.30264 2.24948,1.78459 0.69533,0.87801 C2.24948,2.04361 2.24948,3.07971 0.69533,4.24531 C2.24948,3.33873 3.54461,2.82068 4.83973,2.56166 Z"/></g></g><g id="Group-817" transform="translate(218.000000, 109.000000)"><path id="Stroke-813" stroke="#23373B" stroke-width=".797" d="M0.00076,2.58 L13.80363,2.58"/><g id="Group-816" transform="translate(10.000000, 0.000000)"><path id="Fill-814" fill="#23373B" d="M4.83973,2.58 C3.54461,2.32098 2.24948,1.80293 0.69533,0.89635 C2.24948,2.06195 2.24948,3.09805 0.69533,4.26365 C2.24948,3.35707 3.54461,2.83902 4.83973,2.58 Z"/><path id="Stroke-815" stroke="#23373B" stroke-linejoin="round" stroke-width=".797" d="M4.83973,2.58 C3.54461,2.32098 2.24948,1.80293 0.69533,0.89635 C2.24948,2.06195 2.24948,3.09805 0.69533,4.26365 C2.24948,3.35707 3.54461,2.83902 4.83973,2.58 Z"/></g></g><g id="Group-822" transform="translate(252.000000, 41.000000)"><path id="Stroke-818" stroke="#23373B" stroke-width=".797" d="M0.01883,2.54228 L13.8217,2.54297"/><g id="Group-821" transform="translate(10.000000, 0.000000)"><path id="Fill-819" fill="#23373B" d="M4.8578,2.54300108 C3.56268777,2.28394223 2.26757331,1.76585338 0.71345051,0.859226751 C2.26756554,2.02487338 2.26753446,3.06097338 0.713349491,4.22652675 C2.26752669,3.31999338 3.56267223,2.80198223 4.8578,2.54300108 Z"/><path id="Stroke-820" stroke="#23373B" stroke-linejoin="round" stroke-width=".797" d="M4.8578,2.54300108 C3.56268777,2.28394223 2.26757331,1.76585338 0.71345051,0.859226751 C2.26756554,2.02487338 2.26753446,3.06097338 0.713349491,4.22652675 C2.26752669,3.31999338 3.56267223,2.80198223 4.8578,2.54300108 Z"/></g></g><g id="Group-827" transform="translate(252.000000, 75.000000)"><path id="Stroke-823" stroke="#23373B" stroke-width=".797" d="M0.01883,2.56137 L13.82171,2.56167"/><g id="Group-826" transform="translate(10.000000, 0.000000)"><path id="Fill-824" fill="#23373B" d="M4.85781,2.56167 C3.56269,2.30265 2.26756,1.7846 0.71341,0.87802 C2.26756,2.04362 2.26756,3.07972 0.71341,4.24532 C2.26756,3.33874 3.56269,2.82069 4.85781,2.56167 Z"/><path id="Stroke-825" stroke="#23373B" stroke-linejoin="round" stroke-width=".797" d="M4.85781,2.56167 C3.56269,2.30265 2.26756,1.7846 0.71341,0.87802 C2.26756,2.04362 2.26756,3.07972 0.71341,4.24532 C2.26756,3.33874 3.56269,2.82069 4.85781,2.56167 Z"/></g></g><g id="Group-832" transform="translate(252.000000, 109.000000)"><path id="Stroke-828" stroke="#23373B" stroke-width=".797" d="M0.01883,2.58 L13.8217,2.58"/><g id="Group-831" transform="translate(10.000000, 0.000000)"><path id="Fill-829" fill="#23373B" d="M4.8578,2.58 C3.56268,2.32098 2.26755,1.80293 0.7134,0.89635 C2.26755,2.06195 2.26755,3.09805 0.7134,4.26365 C2.26755,3.35707 3.56268,2.83902 4.8578,2.58 Z"/><path id="Stroke-830" stroke="#23373B" stroke-linejoin="round" stroke-width=".797" d="M4.8578,2.58 C3.56268,2.32098 2.26755,1.80293 0.7134,0.89635 C2.26755,2.06195 2.26755,3.09805 0.7134,4.26365 C2.26755,3.35707 3.56268,2.83902 4.8578,2.58 Z"/></g></g><g id="Group-837" transform="translate(274.000000, 121.000000)"><path id="Stroke-833" stroke="#23373B" stroke-width=".797" d="M2.65248,15.20773 L2.65011,1.40486"/><g id="Group-836"><path id="Fill-834" fill="#23373B" d="M2.64995459,0.36876 C2.39112885,1.66391885 1.87327312,2.95912656 0.966926245,4.51341255 C2.13229312,2.95908771 3.16839312,2.95893229 4.33422625,4.51290745 C3.42741312,2.95889344 2.90916885,1.66384115 2.64995459,0.36876 Z"/><path id="Stroke-835" stroke="#23373B" stroke-linejoin="round" stroke-width=".797" d="M2.64995459,0.36876 C2.39112885,1.66391885 1.87327312,2.95912656 0.966926245,4.51341255 C2.13229312,2.95908771 3.16839312,2.95893229 4.33422625,4.51290745 C3.42741312,2.95889344 2.90916885,1.66384115 2.64995459,0.36876 Z"/></g></g><g id="Group-842" transform="translate(274.000000, 87.000000)"><path id="Stroke-838" stroke="#23373B" stroke-width=".797" d="M2.65248,15.18971 L2.65011,1.38684"/><g id="Group-841"><path id="Fill-839" fill="#23373B" d="M2.64995459,0.35074 C2.39112885,1.64589885 1.87327312,2.94110656 0.966926245,4.49539255 C2.13229312,2.94106771 3.16839312,2.94091229 4.33422625,4.49488745 C3.42741312,2.94087344 2.90916885,1.64582115 2.64995459,0.35074 Z"/><path id="Stroke-840" stroke="#23373B" stroke-linejoin="round" stroke-width=".797" d="M2.64995459,0.35074 C2.39112885,1.64589885 1.87327312,2.94110656 0.966926245,4.49539255 C2.13229312,2.94106771 3.16839312,2.94091229 4.33422625,4.49488745 C3.42741312,2.94087344 2.90916885,1.64582115 2.64995459,0.35074 Z"/></g></g><g id="Group-847" transform="translate(274.000000, 53.000000)"><path id="Stroke-843" stroke="#23373B" stroke-width=".797" d="M2.65248,15.17164 L2.65011,1.36874"/><g id="Group-846"><path id="Fill-844" fill="#23373B" d="M2.64995459,0.33264 C2.39112885,1.62779885 1.87327312,2.92300656 0.966926245,4.47729255 C2.13229312,2.92296771 3.16839312,2.92281229 4.33422625,4.47678745 C3.42741312,2.92277344 2.90916885,1.62772115 2.64995459,0.33264 Z"/><path id="Stroke-845" stroke="#23373B" stroke-linejoin="round" stroke-width=".797" d="M2.64995459,0.33264 C2.39112885,1.62779885 1.87327312,2.92300656 0.966926245,4.47729255 C2.13229312,2.92296771 3.16839312,2.92281229 4.33422625,4.47678745 C3.42741312,2.92277344 2.90916885,1.62772115 2.64995459,0.33264 Z"/></g></g><g id="Group-852" transform="translate(274.000000, 19.000000)"><path id="Stroke-848" stroke="#23373B" stroke-width=".797" d="M2.65248,15.15352 L2.65011,1.35066"/><g id="Group-851"><path id="Fill-849" fill="#23373B" d="M2.64995459,0.31456 C2.39112885,1.60971885 1.87327312,2.90492656 0.966926245,4.45921255 C2.13229312,2.90488771 3.16839312,2.90473229 4.33422625,4.45870745 C3.42741312,2.90469344 2.90916885,1.60964115 2.64995459,0.31456 Z"/><path id="Stroke-850" stroke="#23373B" stroke-linejoin="round" stroke-width=".797" d="M2.64995459,0.31456 C2.39112885,1.60971885 1.87327312,2.90492656 0.966926245,4.45921255 C2.13229312,2.90488771 3.16839312,2.90473229 4.33422625,4.45870745 C3.42741312,2.90469344 2.90916885,1.60964115 2.64995459,0.31456 Z"/></g></g><g id="Group-857" transform="translate(274.000000, 121.000000)"><path id="Stroke-853" stroke="#23373B" stroke-width=".797" d="M2.65248,15.20773 L2.65011,1.40486"/><g id="Group-856"><path id="Fill-854" fill="#23373B" d="M2.64995459,0.36876 C2.39112885,1.66391885 1.87327312,2.95912656 0.966926245,4.51341255 C2.13229312,2.95908771 3.16839312,2.95893229 4.33422625,4.51290745 C3.42741312,2.95889344 2.90916885,1.66384115 2.64995459,0.36876 Z"/><path id="Stroke-855" stroke="#23373B" stroke-linejoin="round" stroke-width=".797" d="M2.64995459,0.36876 C2.39112885,1.66391885 1.87327312,2.95912656 0.966926245,4.51341255 C2.13229312,2.95908771 3.16839312,2.95893229 4.33422625,4.51290745 C3.42741312,2.95889344 2.90916885,1.66384115 2.64995459,0.36876 Z"/></g></g></g></g></g></svg>