<svg xmlns="http://www.w3.org/2000/svg" xmlns:xlink="http://www.w3.org/1999/xlink" width="314" height="241" version="1.1" viewBox="0 0 314 241"><title>roc</title><desc>Created with Sketch.</desc><g id="Page-1" fill="none" fill-rule="evenodd" stroke="none" stroke-width="1"><g id="roc" transform="translate(-9.000000, -10.000000)"><path id="Shape" d="M32.9,10.1 L32.9,228.7"/><path id="Shape" stroke="#424242" stroke-linejoin="round" stroke-width="3" d="M32.9,10.1 L32.9,228.7"/><path id="Shape" d="M32.9,228.7 L299.4,228.7"/><path id="Shape" stroke="#424242" stroke-linejoin="round" stroke-width="3" d="M32.9,228.7 L299.4,228.7"/><path id="Shape" fill="#000" fill-opacity="0" fill-rule="nonzero" d="M32.9,228.2 C34.3,220.5 36.1,198.6 41.2,181.9 C46.3,165.2 55.5,141.6 63.5,128 C71.5,114.4 78.9,109.4 89.4,100.3 C99.9,91.2 114.8,81.9 126.7,73.1 C138.6,64.3 151.2,54 160.9,47.4 C170.7,40.8 174.5,38.2 185.3,33.3 C196.1,28.4 206.7,21.8 225.7,18.2 C244.7,14.6 287,12.7 299.3,11.7"/><path id="Shape" stroke="#15C" stroke-dasharray="12 9" stroke-linejoin="round" stroke-width="3" d="M32.9,228.2 C34.3,220.5 36.1,198.6 41.2,181.9 C46.3,165.2 55.5,141.6 63.5,128 C71.5,114.4 78.9,109.4 89.4,100.3 C99.9,91.2 114.8,81.9 126.7,73.1 C138.6,64.3 151.2,54 160.9,47.4 C170.7,40.8 174.5,38.2 185.3,33.3 C196.1,28.4 206.7,21.8 225.7,18.2 C244.7,14.6 287,12.7 299.3,11.7"/><text id="FP-率" fill="#000" font-family="Helvetica" font-size="11" font-weight="normal"><tspan x="152.037" y="244.591">FP </tspan> <tspan x="168.956" y="244.591" font-family="PingFangSC-Regular, PingFang SC">率</tspan></text><text id="TP-率" fill="#000" font-family="Helvetica" font-size="11" font-weight="normal" transform="translate(15.310200, 119.705000) rotate(-90.000000) translate(-15.310200, -119.705000)"><tspan x="1.31" y="121.705">TP </tspan> <tspan x="18.229" y="121.705" font-family="PingFangSC-Regular, PingFang SC">率</tspan></text><rect id="Rectangle-path" width="27.7" height="22" x="0" y=".6" fill="#000" fill-opacity="0" fill-rule="nonzero"/><text id="1" fill="#000" font-family="Helvetica" font-size="11" font-weight="normal" transform="translate(13.810100, 12.343200) rotate(-90.000000) translate(-13.810100, -12.343200)"><tspan x="10.31" y="15.843">1</tspan></text><rect id="Rectangle-path" width="27.7" height="22" x="0" y="216.6" fill="#000" fill-opacity="0" fill-rule="nonzero"/><text id="0" fill="#000" font-family="Helvetica" font-size="11" font-weight="normal" transform="translate(13.810100, 228.343200) rotate(-90.000000) translate(-13.810100, -228.343200)"><tspan x="10.31" y="231.843">0</tspan></text><rect id="Rectangle-path" width="22" height="27.7" x="20.9" y="231.7" fill="#000" fill-opacity="0" fill-rule="nonzero"/><text id="0" fill="#000" font-family="Helvetica" font-size="11" font-weight="normal"><tspan x="27.608" y="249.051">0</tspan></text><rect id="Rectangle-path" width="22" height="27.7" x="284.9" y="231.7" fill="#000" fill-opacity="0" fill-rule="nonzero"/><text id="1" fill="#000" font-family="Helvetica" font-size="11" font-weight="normal"><tspan x="291.608" y="249.051">1</tspan></text><path id="Shape" fill="#FFF2CC" fill-rule="nonzero" d="M90.1,132.3 C90.1,127.7 93.8,124 98.4,124 L110.3,124 L140.7,124 L203.4,124 C205.6,124 207.7,124.9 209.3,126.4 C210.9,128 211.7,130.1 211.7,132.3 L211.7,144.8 L211.7,165.7 C211.7,170.3 208,174 203.4,174 L140.7,174 L110.3,174 L98.4,174 C93.8,174 90.1,170.3 90.1,165.7 L90.1,144.8 L69.2,125.3 L90.1,132.3 Z"/><path id="Shape" stroke="#424242" stroke-linejoin="round" stroke-width=".75" d="M90.1,132.3 C90.1,127.7 93.8,124 98.4,124 L110.3,124 L140.7,124 L203.4,124 C205.6,124 207.7,124.9 209.3,126.4 C210.9,128 211.7,130.1 211.7,132.3 L211.7,144.8 L211.7,165.7 C211.7,170.3 208,174 203.4,174 L140.7,174 L110.3,174 L98.4,174 C93.8,174 90.1,170.3 90.1,165.7 L90.1,144.8 L69.2,125.3 L90.1,132.3 Z"/><path id="Shape" fill="#FFF2CC" fill-rule="nonzero" d="M207.4,43.9 C207.4,38.7 211.7,34.4 216.9,34.4 L226.5,34.4 L221.7,22.3 L255.1,34.4 L312.3,34.4 C314.8,34.4 317.2,35.4 319,37.2 C320.8,39 321.8,41.4 321.8,43.9 L321.8,58.2 L321.8,82 C321.8,87.2 317.5,91.5 312.3,91.5 L255.1,91.5 L226.5,91.5 L216.9,91.5 C211.7,91.5 207.4,87.2 207.4,82 L207.4,58.2 L207.4,43.9 Z"/><path id="Shape" stroke="#424242" stroke-linejoin="round" stroke-width=".75" d="M207.4,43.9 C207.4,38.7 211.7,34.4 216.9,34.4 L226.5,34.4 L221.7,22.3 L255.1,34.4 L312.3,34.4 C314.8,34.4 317.2,35.4 319,37.2 C320.8,39 321.8,41.4 321.8,43.9 L321.8,58.2 L321.8,82 C321.8,87.2 317.5,91.5 312.3,91.5 L255.1,91.5 L226.5,91.5 L216.9,91.5 C211.7,91.5 207.4,87.2 207.4,82 L207.4,58.2 L207.4,43.9 Z"/><rect id="Rectangle-path" width="95.6" height="77.5" x="216.9" y="46.5"/><g id="Group" fill="#000" font-size="11" font-weight="normal" transform="translate(220.938400, 50.348000)"><text id="特定判定阈值下的" font-family="PingFangSC-Regular, PingFang SC"><tspan x="0" y="12">特定判定阈值下的</tspan></text><text id="TP-率与-FP-率" font-family="Helvetica"><tspan x="0" y="23.2">TP </tspan> <tspan x="16.919" y="23.2" font-family="PingFangSC-Regular, PingFang SC">率与</tspan> <tspan x="38.919" y="23.2"> FP </tspan> <tspan x="58.894" y="23.2" font-family="PingFangSC-Regular, PingFang SC">率</tspan></text></g><rect id="Rectangle-path" width="103" height="58.5" x="99.3" y="132.6"/><g id="Group" fill="#000" font-size="11" font-weight="normal" transform="translate(100.257900, 136.476000)"><text id="另一个判定阈值下的" font-family="PingFangSC-Regular, PingFang SC"><tspan x="0" y="12">另一个判定阈值下的</tspan></text><text id="TP-率与-FP-率" font-family="Helvetica"><tspan x="0" y="23.2">TP </tspan> <tspan x="16.919" y="23.2" font-family="PingFangSC-Regular, PingFang SC">率与</tspan> <tspan x="38.919" y="23.2"> FP </tspan> <tspan x="58.894" y="23.2" font-family="PingFangSC-Regular, PingFang SC">率</tspan></text></g></g></g></svg>