<svg xmlns="http://www.w3.org/2000/svg" xmlns:xlink="http://www.w3.org/1999/xlink" width="310" height="218" version="1.1" viewBox="0 0 310 218"><title>分组 2</title><desc>Created with Sketch.</desc><g id="Page-1" fill="none" fill-rule="evenodd" stroke="none" stroke-width="1"><g id="分组-2"><path id="直线" fill="#4A4A4A" fill-rule="nonzero" d="M16.5,14.5 L16.5,210.5 L16.5,211.5 L14.5,211.5 L14.5,210.5 L14.5,14.5 L8.5,14.5 L15.5,0.5 L22.5,14.5 L16.5,14.5 Z"/><path id="直线-2" fill="#4A4A4A" fill-rule="nonzero" d="M296,211.5 L15.5,211.5 L14.5,211.5 L14.5,209.5 L15.5,209.5 L296,209.5 L296,203.5 L310,210.5 L296,217.5 L296,211.5 Z"/><path id="直线-3" stroke="#D0021B" stroke-linecap="square" stroke-width="2" d="M15.5,184.5 L279.5,53.5"/><g id="equation-(2)" fill="#7ED321" transform="translate(229.000000, 97.000000)"><g id="分组" transform="translate(5.000000, 7.000000) scale(-1, 1) rotate(-180.000000) translate(-5.000000, -7.000000)"><g id="MJMATHI-59-link" transform="translate(0.000000, 1.585064)"><path id="MJMATHI-59" d="M0.342133052,6.30062869 C0.266103485,6.30062869 0.212249208,6.30062869 0.180570222,6.30062869 C0.148891235,6.30062869 0.117212249,6.30393091 0.0855332629,6.31053534 C0.0538542767,6.31713977 0.0316789863,6.32704642 0.0190073918,6.34025529 C0.00633579725,6.35346415 0,6.37327745 0,6.39969518 C0,6.42611291 0.00950369588,6.48225059 0.0285110876,6.56810821 C0.0475184794,6.65396583 0.0760295671,6.71340573 0.114044351,6.74642789 C0.126715945,6.75303232 0.171066526,6.75633454 0.247096093,6.75633454 C0.551214361,6.73652124 0.896515312,6.72661459 1.28299894,6.72661459 C2.06230201,6.72661459 2.50897571,6.73652124 2.62302006,6.75633454 L2.71805702,6.75633454 C2.75607181,6.71670794 2.7750792,6.686988 2.7750792,6.6671747 C2.7750792,6.6473614 2.7687434,6.58792151 2.75607181,6.48885502 C2.73072862,6.4029974 2.69904963,6.34025529 2.66103485,6.30062869 L2.5469905,6.30062869 C2.19218585,6.30062869 2.01478353,6.25769988 2.01478353,6.17184226 C2.01478353,6.13882009 2.17317846,5.6533943 2.48996832,4.71556487 C2.80675818,3.77773544 2.96832101,3.3022163 2.97465681,3.28900743 L3.0031679,3.31872738 C3.02851109,3.34514511 3.06652587,3.38807392 3.11721225,3.44751381 C3.16789863,3.50695371 3.2344245,3.5862069 3.31678986,3.68527339 C3.39915523,3.78433987 3.50052798,3.90652188 3.62090813,4.05181939 C3.74128828,4.19711691 3.87750792,4.36552994 4.02956705,4.55705849 C4.6124604,5.26373277 4.95142555,5.67981203 5.04646251,5.80529625 C5.14149947,5.93078047 5.19218585,6.03314917 5.19852165,6.11240236 C5.19852165,6.21807328 5.09714889,6.28081539 4.89440338,6.30062869 C4.78669483,6.30062869 4.73284055,6.33365085 4.73284055,6.39969518 C4.73284055,6.41290405 4.73917635,6.45913507 4.75184794,6.53838826 C4.77085533,6.63745475 4.78669483,6.69689465 4.79936642,6.71670794 C4.81203801,6.73652124 4.8563886,6.74973011 4.93241816,6.75633454 C4.94508976,6.75633454 5.03695882,6.75303232 5.20802534,6.74642789 C5.37909187,6.73982346 5.62935586,6.73321903 5.95881732,6.72661459 C6.12988384,6.72661459 6.30728617,6.72991681 6.49102429,6.73652124 C6.67476241,6.74312567 6.77930306,6.74642789 6.80464625,6.74642789 C6.9123548,6.74642789 6.96620908,6.71670794 6.96620908,6.65726805 C6.96620908,6.63085032 6.95670539,6.57801486 6.93769799,6.49876167 C6.9186906,6.41950848 6.90285111,6.37327745 6.89017951,6.36006858 C6.87750792,6.32044199 6.81098205,6.30062869 6.6906019,6.30062869 C6.2344245,6.26760653 5.86378036,6.10249571 5.57866948,5.80529625 C5.52164731,5.74585635 5.0781415,5.2075951 4.24815206,4.19051248 L3.02217529,2.6946085 L2.7750792,1.66431701 C2.60401267,0.957642726 2.51847941,0.587794501 2.51847941,0.554772338 C2.51847941,0.482123579 2.73389652,0.4457992 3.16473073,0.4457992 C3.26610348,0.4457992 3.33262936,0.442496984 3.36430834,0.435892551 C3.39598733,0.429288118 3.41499472,0.396265955 3.42133052,0.336826062 C3.42133052,0.323617197 3.41499472,0.283990601 3.40232313,0.217946275 C3.37697994,0.105670921 3.35797254,0.0429288118 3.34530095,0.0297199467 C3.33262936,0.0165110815 3.28194298,0.00660443259 3.19324182,0 C3.16156283,0 3.02851109,0 2.79408659,0 C2.55966209,0 2.26821542,0.0033022163 1.91974657,0.00990664889 C1.52692714,0.00990664889 1.22914467,0.00990664889 1.02639916,0.00990664889 C0.823653643,0.00990664889 0.709609293,0.00660443259 0.684266103,0 C0.570221753,0 0.513199578,0.0264177304 0.513199578,0.0792531911 C0.513199578,0.112275354 0.522703273,0.161808598 0.541710665,0.227852924 C0.548046463,0.247666222 0.55438226,0.26747952 0.560718057,0.287292818 C0.567053854,0.307106115 0.570221753,0.323617197 0.570221753,0.336826062 C0.570221753,0.350034927 0.573389652,0.363243792 0.579725449,0.376452658 C0.586061246,0.389661523 0.592397043,0.399568172 0.598732841,0.406172604 C0.605068638,0.412777037 0.614572334,0.419381469 0.627243928,0.425985902 C0.639915523,0.432590335 0.655755016,0.435892551 0.674762408,0.435892551 C0.693769799,0.435892551 0.712777191,0.435892551 0.731784583,0.435892551 C0.750791975,0.435892551 0.779303062,0.439194767 0.817317846,0.4457992 C0.855332629,0.452403632 0.896515312,0.452403632 0.940865892,0.4457992 C1.18796199,0.452403632 1.34952482,0.465612498 1.42555438,0.485425795 C1.50158395,0.505239093 1.55860612,0.548167905 1.59662091,0.614212231 C1.6156283,0.647234394 1.70749736,1.00387375 1.87222809,1.68413031 L2.10982049,2.70451515 L0.940865892,6.16193561 C0.934530095,6.16854004 0.928194298,6.17514447 0.921858501,6.1817489 C0.915522703,6.18835334 0.909186906,6.19495777 0.902851109,6.2015622 C0.896515312,6.20816663 0.887011616,6.21477107 0.874340021,6.2213755 C0.861668427,6.22797993 0.848996832,6.23458437 0.836325238,6.2411888 C0.823653643,6.24779323 0.80781415,6.25439766 0.788806758,6.2610021 C0.769799366,6.26760653 0.744456177,6.27090874 0.712777191,6.27090874 C0.681098205,6.27090874 0.652587117,6.27421096 0.627243928,6.28081539 C0.601900739,6.28741983 0.560718057,6.29072204 0.503695882,6.29072204 C0.446673706,6.29072204 0.39281943,6.29402426 0.342133052,6.30062869 Z"/></g><g id="MJMAIN-5E-link" transform="translate(3.145723, 9.143837)"><path id="MJMAIN-5E" d="M0,0.574585635 L1.30200634,3.22956754 L1.3780359,3.07106115 C2.20168955,1.43316187 2.61351637,0.601003366 2.61351637,0.574585635 L2.36642027,0 C2.35374868,0.0132088652 2.17001056,0.343430495 1.81520591,0.990664889 L1.31151003,1.90207659 L0.788806758,0.970851591 C0.706441394,0.825554074 0.62407603,0.673652124 0.541710665,0.515145742 C0.459345301,0.35663936 0.39281943,0.231155141 0.342133052,0.138693084 L0.266103485,0.0198132978 C0.25343189,-0.00660443259 0.205913411,0.0858576237 0.123548046,0.297199467 L0,0.574585635 Z"/></g><g id="MJMATHI-69-link" fill-rule="nonzero" transform="translate(7.105913, 0.006261)"><path id="MJMATHI-69" d="M0.932755585,4.27944447 C0.932755585,4.39150848 0.968997622,4.48956449 1.0414817,4.5736125 C1.11396577,4.65766051 1.1978947,4.70201918 1.29326848,4.70668851 C1.3619376,4.70668851 1.41916187,4.67867251 1.46494129,4.6226405 C1.5107207,4.5666085 1.53551789,4.49656849 1.53933284,4.41252048 C1.53933284,4.3051258 1.50118332,4.20706979 1.4248843,4.11835245 C1.34858527,4.02963511 1.26465635,3.98294177 1.17309752,3.97827243 C1.11587325,3.97827243 1.06246393,4.0016191 1.01286956,4.04831244 C0.963275195,4.09500578 0.936570536,4.17204979 0.932755585,4.27944447 Z M0,2.08719223 C0,2.1245469 0.0171672807,2.19692157 0.0515018421,2.30431625 C0.0858364035,2.41171093 0.131615819,2.53077894 0.188840088,2.66152029 C0.246064357,2.79226164 0.329993285,2.91132965 0.440626871,3.01872433 C0.551260458,3.12611901 0.665708996,3.17748168 0.783972486,3.17281235 C0.932755585,3.17281235 1.0567415,3.11911501 1.15593023,3.01172033 C1.25511897,2.90432565 1.30662081,2.7595763 1.31043576,2.57747228 C1.31043576,2.49809361 1.2837311,2.36735226 1.23032178,2.18524824 C1.17691247,2.00314422 1.10061344,1.75800419 1.00142471,1.44982816 C0.902235975,1.14165212 0.822121998,0.877834762 0.761082778,0.658376072 C0.742008022,0.555650727 0.732470644,0.480941386 0.732470644,0.434248047 C0.732470644,0.317514701 0.764897729,0.259148028 0.829751901,0.259148028 C0.864086462,0.259148028 0.900328499,0.266152029 0.938478012,0.28016003 C0.976627525,0.294168032 1.02049946,0.326853369 1.07009383,0.378216041 C1.1196882,0.429578713 1.17119004,0.511292056 1.22459936,0.623356068 C1.27800867,0.73542008 1.32569557,0.873165428 1.36766003,1.03659211 C1.37910488,1.09262412 1.38864226,1.12530946 1.39627216,1.13464812 C1.40390207,1.14398679 1.43632915,1.14865612 1.49355342,1.14865612 C1.56985245,1.14865612 1.60800196,1.12530946 1.60800196,1.07861612 C1.60800196,1.04126145 1.59083468,0.968886772 1.55650012,0.861492094 C1.52216556,0.754097415 1.47447867,0.635029402 1.41343944,0.504288055 C1.35240022,0.373546707 1.26656382,0.256813361 1.15593023,0.154088017 C1.04529665,0.0513626723 0.927033158,0 0.801139766,0 C0.679061326,0 0.566520263,0.0490280053 0.463516579,0.147084016 C0.360512895,0.245140027 0.307103577,0.39455871 0.303288626,0.595340065 C0.303288626,0.67471874 0.312826004,0.749428082 0.33190076,0.819468089 C0.350975517,0.889508097 0.432996969,1.15566013 0.577965117,1.61792418 C0.722933265,2.08952689 0.806862193,2.37202159 0.829751901,2.46540827 C0.852641608,2.55879495 0.865993938,2.64984695 0.869808889,2.7385643 C0.869808889,2.85062831 0.837381803,2.90666032 0.772527632,2.90666032 L0.761082778,2.90666032 C0.64663424,2.90666032 0.54172308,2.82961631 0.446349298,2.67552829 C0.350975517,2.52144027 0.278491443,2.32532825 0.228897076,2.08719223 C0.225082125,2.08252289 0.221267174,2.07551889 0.217452222,2.06618022 C0.213637271,2.05684156 0.211729795,2.04983756 0.211729795,2.04516822 C0.211729795,2.04049889 0.207914844,2.03582955 0.200284942,2.03116022 C0.192655039,2.02649089 0.186932612,2.02415622 0.183117661,2.02415622 C0.17930271,2.02415622 0.171672807,2.02415622 0.160227953,2.02415622 C0.148783099,2.02415622 0.133523294,2.02415622 0.114448538,2.02415622 L0.0343345614,2.02415622 C0.0114448538,2.05217222 0,2.07318423 0,2.08719223 Z"/></g></g></g><g id="equation-(1)" fill="#4A90E2" fill-rule="nonzero" transform="translate(228.000000, 47.000000)"><g id="分组" transform="translate(5.000000, 5.500000) scale(-1, 1) rotate(-180.000000) translate(-5.000000, -5.500000)"><g id="MJMATHI-65-link" transform="translate(0.000000, 2.402531)"><path id="MJMATHI-65" d="M0,2.90576384 C0,3.52262991 0.0988039522,4.08538491 0.296411856,4.59402886 C0.494019761,5.10267281 0.748829953,5.52473907 1.06084243,5.86022763 C1.37285491,6.19571619 1.72126885,6.4770937 2.10608424,6.70436014 C2.49089964,6.93162659 2.8549142,7.09937087 3.19812793,7.20759299 C3.54134165,7.3158151 3.86895476,7.36451506 4.18096724,7.35369285 L4.22776911,7.35369285 C4.69578783,7.35369285 5.10140406,7.23464852 5.44461778,6.99655986 C5.78783151,6.7584712 5.95943838,6.40674932 5.95943838,5.94139422 C5.95943838,4.96739517 5.38221529,4.32888468 4.22776911,4.02586275 C3.71814873,3.885174 3.02132085,3.80941852 2.13728549,3.7985963 C1.7524701,3.7985963 1.55486219,3.78777409 1.54446178,3.76612967 C1.54446178,3.74448525 1.51326053,3.55509654 1.45085803,3.19796356 C1.38845554,2.84083057 1.35205408,2.52698643 1.34165367,2.25643114 C1.34165367,1.74778719 1.45085803,1.34736536 1.66926677,1.05516564 C1.88767551,0.762965924 2.21528861,0.611454961 2.65210608,0.600632749 C3.08892356,0.589810537 3.5725429,0.692621548 4.10296412,0.909065782 C4.63338534,1.12551002 5.11180447,1.482643 5.53822153,1.98046474 C5.63182527,2.08868686 5.69422777,2.14279792 5.72542902,2.14279792 C5.76703068,2.14279792 5.83463339,2.09409796 5.92823713,1.99669806 C6.02184087,1.89929815 6.07384295,1.82354267 6.08424337,1.76943161 C6.09464379,1.71532055 6.04784191,1.62874286 5.94383775,1.50969853 C5.83983359,1.3906542 5.68382735,1.24455434 5.47581903,1.07139896 C5.26781071,0.898243571 5.02860114,0.730499289 4.75819033,0.568166114 C4.48777951,0.405832938 4.16016641,0.270555292 3.77535101,0.162333175 C3.39053562,0.0541110585 2.99531981,0 2.58970359,0 C1.76807072,0 1.13364535,0.28678861 0.686427457,0.86036583 C0.239209568,1.43394305 0.010400416,2.11574239 0,2.90576384 Z M5.21060842,5.90892758 C5.14820593,6.47168259 4.79459178,6.7530601 4.14976599,6.7530601 C3.80655226,6.7530601 3.48933957,6.67730461 3.19812793,6.52579365 C2.90691628,6.37428269 2.67290692,6.19030509 2.49609984,5.97386085 C2.31929277,5.75741662 2.16848674,5.53556128 2.04368175,5.30829484 C1.91887676,5.08102839 1.83567343,4.88622858 1.79407176,4.7238954 C1.7524701,4.56156223 1.72646906,4.45875122 1.71606864,4.41546237 C1.71606864,4.40464016 1.8200728,4.39922905 2.02808112,4.39922905 C3.20332813,4.39922905 4.024961,4.52909559 4.49297972,4.78882867 C4.96099844,5.04856175 5.20020801,5.42192806 5.21060842,5.90892758 Z"/></g><g id="MJMATHI-69-link" transform="translate(6.891732, 0.010259)"><path id="MJMATHI-69" d="M1.53085342,7.01241981 C1.53085342,7.1960511 1.59033443,7.35672848 1.70929645,7.49445194 C1.82825848,7.63217541 1.96600398,7.70486279 2.12253296,7.7125141 C2.23523382,7.7125141 2.32915121,7.66660627 2.40428512,7.57479063 C2.47941903,7.48297499 2.52011656,7.36820543 2.52637772,7.23048197 C2.52637772,7.05450198 2.46376613,6.8938246 2.33854295,6.74844983 C2.21331976,6.60307506 2.07557426,6.52656203 1.92530644,6.51891072 C1.83138905,6.51891072 1.74373283,6.55716724 1.66233776,6.63368028 C1.58094269,6.71019332 1.53711457,6.83643983 1.53085342,7.01241981 Z M0,3.42013274 C0,3.48134317 0.0281752162,3.59993838 0.0845256487,3.77591836 C0.140876081,3.95189834 0.216009991,4.14700659 0.309927379,4.36124309 C0.403844766,4.57547959 0.541590268,4.77058784 0.723163883,4.94656782 C0.904737499,5.1225478 1.09257227,5.20671215 1.28666821,5.19906084 C1.53085342,5.19906084 1.73434109,5.11107085 1.89713123,4.93509087 C2.05992136,4.75911088 2.14444701,4.52192047 2.15070817,4.22351962 C2.15070817,4.09344746 2.10688006,3.87921096 2.01922383,3.58081012 C1.9315676,3.28240927 1.80634442,2.88071583 1.64355428,2.37572979 C1.48076414,1.87074375 1.3492798,1.43844509 1.24910125,1.07883382 C1.21779546,0.910505136 1.20214256,0.788084278 1.20214256,0.711571241 C1.20214256,0.520288649 1.25536241,0.424647354 1.36180212,0.424647354 C1.41815255,0.424647354 1.47763356,0.436124309 1.54024515,0.45907822 C1.60285675,0.482032131 1.67486008,0.535591257 1.75625515,0.619755597 C1.83765021,0.703919937 1.92217586,0.837817752 2.00983209,1.02144904 C2.09748832,1.20508033 2.17575281,1.43079379 2.24462556,1.69858941 C2.26340904,1.79040506 2.27906194,1.84396418 2.29158425,1.85926679 C2.30410657,1.8745694 2.35732642,1.8822207 2.45124381,1.8822207 C2.576467,1.8822207 2.63907859,1.84396418 2.63907859,1.76745115 C2.63907859,1.70624072 2.61090337,1.58764551 2.55455294,1.41166553 C2.49820251,1.23568554 2.41993802,1.0405773 2.31975947,0.826340796 C2.21958092,0.612104293 2.07870484,0.420821702 1.89713123,0.252493021 C1.71555761,0.0841643403 1.52146168,0 1.31484342,0 C1.11448633,0 0.929782136,0.0803386885 0.760730838,0.241016066 C0.591679541,0.401693443 0.504023313,0.64653516 0.497762153,0.975541218 C0.497762153,1.10561338 0.513415051,1.22803424 0.544720847,1.34280379 C0.576026643,1.45757335 0.710641565,1.89369766 0.948565613,2.65117672 C1.18648966,3.42395839 1.32423516,3.88686226 1.36180212,4.03988834 C1.39936907,4.19291441 1.42128313,4.34211483 1.42754429,4.4874896 C1.42754429,4.67112089 1.37432444,4.76293653 1.26788473,4.76293653 L1.24910125,4.76293653 C1.06126648,4.76293653 0.889084601,4.63669002 0.732555622,4.384197 C0.576026643,4.13170398 0.457064619,3.81034923 0.37566955,3.42013274 C0.369408391,3.41248144 0.363147231,3.40100448 0.356886072,3.38570187 C0.350624913,3.37039927 0.347494334,3.35892231 0.347494334,3.35127101 C0.347494334,3.3436197 0.341233174,3.3359684 0.328710856,3.3283171 C0.316188538,3.32066579 0.306796799,3.31684014 0.30053564,3.31684014 C0.294274481,3.31684014 0.281752162,3.31684014 0.262968685,3.31684014 C0.244185207,3.31684014 0.219140571,3.31684014 0.187834775,3.31684014 L0.0563504325,3.31684014 C0.0187834775,3.36274796 0,3.39717883 0,3.42013274 Z"/></g></g></g><path id="直线-4" stroke="#4A4A4A" stroke-dasharray="5" stroke-linecap="square" stroke-width="2" d="M15.5,134.5 L279.5,134.5"/><path id="直线-5" stroke="#4A90E2" stroke-linecap="square" stroke-width="2" d="M221,21 L221,82.5"/><circle id="椭圆形" cx="221" cy="21" r="3" fill="#F5A623"/><path id="直线-6" stroke="#7ED321" stroke-linecap="square" stroke-width="2" d="M221,82.5 L221,134.5"/><g id="equation" fill="#000" opacity=".595" transform="translate(226.000000, 16.000000)"><g id="分组" transform="translate(17.000000, 5.500000) scale(-1, 1) rotate(-180.000000) translate(-17.000000, -5.500000)"><g id="MJMAIN-28-link"><path id="MJMAIN-28" d="M0,5.5 C0,6.006 0.0395838419,6.48633333 0.118751526,6.941 C0.19791921,7.39566667 0.288962046,7.788 0.391880035,8.118 C0.494798024,8.448 0.641258239,8.77066667 0.831260681,9.086 C1.02126312,9.40133333 1.17168172,9.647 1.28251648,9.823 C1.39335124,9.999 1.55960337,10.1896667 1.78127289,10.395 C2.0029424,10.6003333 2.13356908,10.725 2.17315292,10.769 C2.21273676,10.813 2.31169637,10.89 2.47003174,11 L2.62440872,11 L2.67190933,11 C2.78274409,11 2.83816147,10.967 2.83816147,10.901 C2.83816147,10.879 2.77086894,10.802 2.63628387,10.67 C2.50169881,10.538 2.33940506,10.3436667 2.14940262,10.087 C1.95940018,9.83033333 1.76543935,9.515 1.56752014,9.141 C1.36960093,8.767 1.20334879,8.261 1.06876373,7.623 C0.93417867,6.985 0.866886138,6.27733333 0.866886138,5.5 C0.866886138,4.72266667 0.93417867,4.01866667 1.06876373,3.388 C1.20334879,2.75733333 1.36564255,2.24766667 1.55564499,1.859 C1.74564743,1.47033333 1.93960825,1.155 2.13752746,0.913 C2.33544667,0.671 2.50169881,0.476666667 2.63628387,0.33 C2.77086894,0.183333333 2.83816147,0.106333333 2.83816147,0.099 C2.83816147,0.033 2.7787857,0 2.66003418,0 L2.62440872,0 L2.47003174,0 L2.13752746,0.264 C1.39335124,0.887333333 0.851052601,1.66466667 0.510631561,2.596 C0.17021052,3.52733333 0,4.49533333 0,5.5 Z"/></g><g transform="translate(3.918800, 1.001000)"><g id="MJMATHI-78-link" transform="translate(0.000000, 1.628000)"><path id="MJMATHI-78" d="M0.201877594,3.3 C0.257294973,3.608 0.471047719,3.96366667 0.843135833,4.367 C1.21522395,4.77033333 1.67439651,4.97566667 2.22065353,4.983 C2.49774043,4.983 2.75107701,4.917 2.9806633,4.785 C3.21024958,4.653 3.3804601,4.488 3.49129486,4.29 C3.82379913,4.752 4.22359593,4.983 4.69068527,4.983 C4.9836057,4.983 5.23694229,4.90233333 5.45069503,4.741 C5.66444778,4.57966667 5.77528254,4.36333333 5.78319931,4.092 C5.78319931,3.87933333 5.72778193,3.707 5.61694717,3.575 C5.50611241,3.443 5.39923604,3.36233333 5.29631805,3.333 C5.19340006,3.30366667 5.10235722,3.289 5.02318954,3.289 C4.87277094,3.289 4.75006103,3.32933333 4.65505981,3.41 C4.56005859,3.49066667 4.51255798,3.597 4.51255798,3.729 C4.51255798,4.06633333 4.71047719,4.29733333 5.10631561,4.422 C5.01923116,4.51733333 4.86089579,4.565 4.63130951,4.565 C4.52839152,4.565 4.45318222,4.55766667 4.40568161,4.543 C4.10484441,4.42566667 3.88317489,4.18366667 3.74067306,3.817 C3.26566696,2.19633333 3.02816391,1.25033333 3.02816391,0.979 C3.02816391,0.773666667 3.09149805,0.627 3.21816635,0.539 C3.34483464,0.451 3.48337809,0.407 3.63379669,0.407 C3.92671712,0.407 4.21567917,0.528 4.50068283,0.77 C4.78568649,1.012 4.97964731,1.309 5.0825653,1.661 C5.10631561,1.73433333 5.13006591,1.77466667 5.15381622,1.782 C5.17756652,1.78933333 5.24090067,1.79666667 5.34381866,1.804 L5.39131927,1.804 C5.5100708,1.804 5.56944656,1.77466667 5.56944656,1.716 C5.56944656,1.70866667 5.56152979,1.66833333 5.54569625,1.595 C5.41902796,1.177 5.17360814,0.806666667 4.80943679,0.484 C4.44526545,0.161333333 4.02171834,0 3.53879547,0 C2.98462168,0 2.56503296,0.231 2.2800293,0.693 C1.95544179,0.238333333 1.58335368,0.011 1.16376495,0.011 L1.09251404,0.011 C0.704592386,0.011 0.427505493,0.106333333 0.261253357,0.297 C0.0950012206,0.487666667 0.00791676839,0.689333333 0,0.902 C0,1.13666667 0.0752092997,1.32733333 0.225627899,1.474 C0.376046498,1.62066667 0.554173787,1.694 0.760009765,1.694 C1.10043081,1.694 1.27064133,1.54 1.27064133,1.232 C1.27064133,1.08533333 1.22314072,0.957 1.12813949,0.847 C1.03313827,0.737 0.942095438,0.663666667 0.855010986,0.627 C0.767926533,0.590333333 0.716467539,0.572 0.700634002,0.572 L0.665008544,0.561 C0.665008544,0.553666667 0.68875885,0.539 0.73625946,0.517 C0.78376007,0.495 0.847094217,0.469333333 0.926261901,0.44 C1.00542958,0.410666667 1.08063888,0.399666667 1.1518898,0.407 C1.43689346,0.407 1.68231328,0.572 1.88814926,0.902 C1.95940018,1.01933333 2.05044301,1.26866667 2.16127777,1.65 C2.27211253,2.03133333 2.38294728,2.42733333 2.49378204,2.838 C2.6046168,3.24866667 2.66795095,3.49066667 2.68378448,3.564 C2.72336832,3.762 2.74316025,3.905 2.74316025,3.993 C2.74316025,4.19833333 2.68378448,4.345 2.56503296,4.433 C2.44628143,4.521 2.31169637,4.565 2.16127777,4.565 C1.84460703,4.565 1.54772822,4.44766667 1.27064133,4.213 C0.993554432,3.97833333 0.799593607,3.67766667 0.68875885,3.311 C0.672925313,3.245 0.653133392,3.20833333 0.629383087,3.201 C0.605632782,3.19366667 0.542298634,3.18633333 0.439380645,3.179 L0.273128509,3.179 C0.225627899,3.223 0.201877594,3.26333333 0.201877594,3.3 Z"/></g><g id="MJMATHI-69-link" fill-rule="nonzero" transform="translate(6.552828, 0.006952)"><path id="MJMATHI-69" d="M1.16562178,4.751747 C1.16562178,4.876179 1.21091179,4.985057 1.30149181,5.078381 C1.39207182,5.171705 1.49695395,5.22095933 1.61613818,5.226144 C1.70195083,5.226144 1.77346137,5.195036 1.8306698,5.13282 C1.88787823,5.070604 1.91886613,4.992834 1.9236335,4.89951 C1.9236335,4.78026267 1.8759598,4.67138467 1.78061242,4.572876 C1.68526503,4.47436733 1.58038291,4.42252067 1.46596605,4.417336 C1.39445551,4.417336 1.32771234,4.44325933 1.26573654,4.495106 C1.20376074,4.54695267 1.17038915,4.63249967 1.16562178,4.751747 Z M0,2.317546 C0,2.35902333 0.0214531617,2.43938567 0.064359485,2.558633 C0.107265808,2.67788033 0.16447424,2.81008933 0.235984778,2.95526 C0.307495317,3.10043067 0.412377441,3.23263967 0.55063115,3.351887 C0.688884858,3.47113433 0.831905936,3.52816567 0.979694383,3.522981 C1.16562178,3.522981 1.32056129,3.46335733 1.44451289,3.34411 C1.56846449,3.22486267 1.63282397,3.064138 1.63759134,2.861936 C1.63759134,2.77379667 1.60421976,2.628626 1.53747659,2.426424 C1.47073342,2.224222 1.37538603,1.952027 1.25143443,1.609839 C1.12748283,1.267651 1.02736808,0.974717333 0.951090168,0.731038 C0.927253321,0.616975333 0.915334898,0.534020667 0.915334898,0.482174 C0.915334898,0.352557333 0.955857537,0.287749 1.03690281,0.287749 C1.07980914,0.287749 1.12509915,0.295526 1.17277284,0.31108 C1.22044653,0.326634 1.27527128,0.362926667 1.33724708,0.419958 C1.39922288,0.476989333 1.46358236,0.567721 1.53032553,0.692153 C1.5970687,0.816585 1.65666082,0.969532667 1.70910188,1.150996 C1.72340399,1.213212 1.73532241,1.24950467 1.74485715,1.259874 C1.75439189,1.27024333 1.79491453,1.275428 1.86642507,1.275428 C1.96177245,1.275428 2.00944614,1.24950467 2.00944614,1.197658 C2.00944614,1.15618067 1.98799298,1.07581833 1.94508666,0.956571 C1.90218034,0.837323667 1.84258822,0.705114667 1.76631031,0.559944 C1.6900324,0.414773333 1.58276659,0.285156667 1.44451289,0.171094 C1.30625918,0.0570313333 1.15847073,0 1.00114754,0 C0.848591729,0 0.707954335,0.054439 0.579235365,0.163317 C0.450516395,0.272195 0.383773226,0.438104333 0.379005856,0.661045 C0.379005856,0.749184333 0.390924279,0.832139 0.414761126,0.909909 C0.438597972,0.987679 0.541096411,1.283205 0.722256443,1.796487 C0.903416475,2.32013833 1.0082986,2.63381067 1.03690281,2.737504 C1.06550703,2.84119733 1.08219282,2.94229833 1.08696019,3.040807 C1.08696019,3.165239 1.04643755,3.227455 0.965392275,3.227455 L0.951090168,3.227455 C0.80806909,3.227455 0.676966435,3.141908 0.557782204,2.970814 C0.438597972,2.79972 0.348017956,2.581964 0.286042156,2.317546 C0.281274786,2.31236133 0.276507417,2.30458433 0.271740048,2.294215 C0.266972679,2.28384567 0.264588994,2.27606867 0.264588994,2.270884 C0.264588994,2.26569933 0.259821625,2.26051467 0.250286886,2.25533 C0.240752148,2.25014533 0.233601094,2.247553 0.228833725,2.247553 C0.224066355,2.247553 0.214531617,2.247553 0.200229509,2.247553 C0.185927401,2.247553 0.166857924,2.247553 0.143021078,2.247553 L0.0429063234,2.247553 C0.0143021078,2.278661 0,2.301992 0,2.317546 Z"/></g></g><g id="MJMAIN-2C-link" transform="translate(15.318947, 0.605000)"><path id="MJMAIN-2C" d="M0,3.44693781 C0,3.44693781 0,3.57182687 0,3.82160497 C0,4.07138307 0.0388366573,4.28619224 0.116509972,4.46603247 C0.194183287,4.64587271 0.298556803,4.73579282 0.429630522,4.73579282 C0.565558823,4.73579282 0.686923377,4.61090377 0.793724184,4.36112567 C0.900524992,4.11134757 0.956352687,3.67173811 0.961207269,3.04229729 C0.961207269,2.69260795 0.939361649,2.35290973 0.89567041,2.02320263 C0.85197917,1.69349554 0.801006058,1.4087485 0.742751072,1.16896152 C0.684496086,0.929174541 0.621386517,0.724356497 0.553422367,0.554507388 C0.485458217,0.384658278 0.427203231,0.249778103 0.378657409,0.149866862 C0.330111587,0.0499556205 0.298556803,0.00499556205 0.283993057,0.0149866862 C0.264574728,0.0149866862 0.233019944,0.0599467446 0.189328705,0.149866862 C0.145637465,0.239786978 0.123791845,0.304729285 0.123791845,0.344693781 C0.123791845,0.384658278 0.150492047,0.464587271 0.203892451,0.58448076 C0.257292855,0.704374249 0.317975132,0.854241111 0.385939282,1.03408134 C0.453903433,1.21392158 0.517013001,1.46369968 0.575267987,1.78341565 C0.633522973,2.10313162 0.67235963,2.46780765 0.691777959,2.87744374 L0.691777959,3.05728398 L0.684496086,3.04229729 C0.674786921,3.03230616 0.662650466,3.02231504 0.648086719,3.01232392 C0.633522973,3.00233279 0.618959226,2.98734611 0.60439548,2.96736386 C0.589831733,2.94738161 0.567986114,2.93739049 0.538858621,2.93739049 C0.509731128,2.93739049 0.480603635,2.93239492 0.451476142,2.9224038 C0.320402423,2.9224038 0.213601615,3.00732835 0.131073719,3.17717746 L0,3.44693781 Z"/></g><g transform="translate(19.926506, 0.495000)"><g id="MJMATHI-79-link"><path id="MJMATHI-79" d="M0,5.412 C0,5.51466667 0.0593757629,5.69066667 0.178127289,5.94 C0.296878814,6.18933333 0.486881256,6.44966667 0.748134612,6.721 C1.00938797,6.99233333 1.3023084,7.12433333 1.6268959,7.117 C1.95148341,7.117 2.21273676,7.03266667 2.41065597,6.864 C2.60857518,6.69533333 2.71149317,6.46066667 2.71940994,6.16 C2.7035764,6.02066667 2.69170125,5.94366667 2.68378448,5.929 C2.68378448,5.907 2.62045034,5.73833333 2.49378204,5.423 C2.36711375,5.10766667 2.23648707,4.752 2.10190201,4.356 C1.96731694,3.96 1.9039828,3.64466667 1.91189957,3.41 C1.91189957,3.09466667 1.96731694,2.87466667 2.0781517,2.75 C2.18898646,2.62533333 2.35523859,2.55933333 2.57690811,2.552 C2.75899378,2.552 2.9292043,2.59233333 3.08753967,2.673 C3.24587504,2.75366667 3.36858495,2.838 3.4556694,2.926 C3.54275385,3.014 3.64963023,3.135 3.77629852,3.289 C3.77629852,3.29633333 3.79609044,3.36966667 3.83567428,3.509 C3.87525812,3.64833333 3.9306755,3.86466667 4.00192642,4.158 C4.07317733,4.45133333 4.14838663,4.72266667 4.22755432,4.972 C4.52839152,6.072 4.69464365,6.64766667 4.72631073,6.699 C4.82922872,6.897 4.99943924,6.996 5.23694229,6.996 C5.33986028,6.996 5.42298634,6.97033333 5.48632049,6.919 C5.54965464,6.86766667 5.59319686,6.82366667 5.61694717,6.787 C5.64069747,6.75033333 5.64861424,6.71733333 5.64069747,6.688 C5.64069747,6.59266667 5.44673665,5.82266667 5.058815,4.378 C4.67089335,2.93333333 4.44922383,2.14133333 4.39380645,2.002 C4.17213694,1.39333333 3.78817367,0.909333333 3.24191665,0.55 C2.69565964,0.190666667 2.14940262,0.00733333333 1.6031456,0 C1.24689102,0 0.93417867,0.0806666667 0.665008544,0.242 C0.395838419,0.403333333 0.261253357,0.645333333 0.261253357,0.968 C0.261253357,1.12933333 0.288962046,1.265 0.344379425,1.375 C0.399796803,1.485 0.475006103,1.56566667 0.570007324,1.617 C0.665008544,1.66833333 0.744176228,1.705 0.807510375,1.727 C0.870844522,1.749 0.938137054,1.76 1.00938797,1.76 C1.35772578,1.76 1.53189468,1.606 1.53189468,1.298 C1.53189468,1.15133333 1.48439407,1.023 1.38939285,0.913 C1.29439163,0.803 1.20334879,0.729666667 1.11626434,0.693 C1.02917989,0.656333333 0.977720896,0.638 0.961887359,0.638 L0.926261901,0.627 C0.942095438,0.590333333 1.01730474,0.546333333 1.1518898,0.495 C1.28647486,0.443666667 1.42105993,0.418 1.55564499,0.418 L1.65064621,0.418 C1.78523127,0.418 1.88814926,0.425333333 1.95940018,0.44 C2.22065353,0.506 2.46211497,0.645333333 2.68378448,0.858 C2.905454,1.07066667 3.07566452,1.298 3.19441604,1.54 C3.31316757,1.782 3.40421041,1.98733333 3.46754455,2.156 C3.5308787,2.32466667 3.56254577,2.43466667 3.56254577,2.486 L3.49129486,2.442 C3.44379425,2.41266667 3.36858495,2.37233333 3.26566696,2.321 C3.16274897,2.26966667 3.05983098,2.22566667 2.95691299,2.189 C2.79857762,2.15233333 2.64420064,2.134 2.49378204,2.134 C2.1296107,2.134 1.80898158,2.21466667 1.53189468,2.376 C1.25480779,2.53733333 1.07272212,2.79766667 0.985637664,3.157 C0.977720896,3.20833333 0.973762511,3.322 0.973762511,3.498 C0.973762511,3.916 1.11230596,4.46233333 1.38939285,5.137 C1.66647975,5.81166667 1.80502319,6.24066667 1.80502319,6.424 C1.80502319,6.43133333 1.80502319,6.43866667 1.80502319,6.446 C1.80502319,6.512 1.80502319,6.556 1.80502319,6.578 C1.80502319,6.6 1.78918966,6.62566667 1.75752258,6.655 C1.72585551,6.68433333 1.68231328,6.699 1.6268959,6.699 L1.57939529,6.699 C1.39730962,6.699 1.23105748,6.62933333 1.08063888,6.49 C0.930220285,6.35066667 0.81146876,6.20033333 0.724384307,6.039 C0.637299855,5.87766667 0.570007324,5.72366667 0.522506713,5.577 C0.475006103,5.43033333 0.44333903,5.34966667 0.427505493,5.335 C0.411671956,5.32033333 0.348337809,5.313 0.237503052,5.313 L0.0712509155,5.313 C0.0237503052,5.357 0,5.39 0,5.412 Z"/></g><g id="MJMATHI-69-link" fill-rule="nonzero" transform="translate(5.745175, 0.512952)"><path id="MJMATHI-69" d="M1.16562178,4.751747 C1.16562178,4.876179 1.21091179,4.985057 1.30149181,5.078381 C1.39207182,5.171705 1.49695395,5.22095933 1.61613818,5.226144 C1.70195083,5.226144 1.77346137,5.195036 1.8306698,5.13282 C1.88787823,5.070604 1.91886613,4.992834 1.9236335,4.89951 C1.9236335,4.78026267 1.8759598,4.67138467 1.78061242,4.572876 C1.68526503,4.47436733 1.58038291,4.42252067 1.46596605,4.417336 C1.39445551,4.417336 1.32771234,4.44325933 1.26573654,4.495106 C1.20376074,4.54695267 1.17038915,4.63249967 1.16562178,4.751747 Z M0,2.317546 C0,2.35902333 0.0214531617,2.43938567 0.064359485,2.558633 C0.107265808,2.67788033 0.16447424,2.81008933 0.235984778,2.95526 C0.307495317,3.10043067 0.412377441,3.23263967 0.55063115,3.351887 C0.688884858,3.47113433 0.831905936,3.52816567 0.979694383,3.522981 C1.16562178,3.522981 1.32056129,3.46335733 1.44451289,3.34411 C1.56846449,3.22486267 1.63282397,3.064138 1.63759134,2.861936 C1.63759134,2.77379667 1.60421976,2.628626 1.53747659,2.426424 C1.47073342,2.224222 1.37538603,1.952027 1.25143443,1.609839 C1.12748283,1.267651 1.02736808,0.974717333 0.951090168,0.731038 C0.927253321,0.616975333 0.915334898,0.534020667 0.915334898,0.482174 C0.915334898,0.352557333 0.955857537,0.287749 1.03690281,0.287749 C1.07980914,0.287749 1.12509915,0.295526 1.17277284,0.31108 C1.22044653,0.326634 1.27527128,0.362926667 1.33724708,0.419958 C1.39922288,0.476989333 1.46358236,0.567721 1.53032553,0.692153 C1.5970687,0.816585 1.65666082,0.969532667 1.70910188,1.150996 C1.72340399,1.213212 1.73532241,1.24950467 1.74485715,1.259874 C1.75439189,1.27024333 1.79491453,1.275428 1.86642507,1.275428 C1.96177245,1.275428 2.00944614,1.24950467 2.00944614,1.197658 C2.00944614,1.15618067 1.98799298,1.07581833 1.94508666,0.956571 C1.90218034,0.837323667 1.84258822,0.705114667 1.76631031,0.559944 C1.6900324,0.414773333 1.58276659,0.285156667 1.44451289,0.171094 C1.30625918,0.0570313333 1.15847073,0 1.00114754,0 C0.848591729,0 0.707954335,0.054439 0.579235365,0.163317 C0.450516395,0.272195 0.383773226,0.438104333 0.379005856,0.661045 C0.379005856,0.749184333 0.390924279,0.832139 0.414761126,0.909909 C0.438597972,0.987679 0.541096411,1.283205 0.722256443,1.796487 C0.903416475,2.32013833 1.0082986,2.63381067 1.03690281,2.737504 C1.06550703,2.84119733 1.08219282,2.94229833 1.08696019,3.040807 C1.08696019,3.165239 1.04643755,3.227455 0.965392275,3.227455 L0.951090168,3.227455 C0.80806909,3.227455 0.676966435,3.141908 0.557782204,2.970814 C0.438597972,2.79972 0.348017956,2.581964 0.286042156,2.317546 C0.281274786,2.31236133 0.276507417,2.30458433 0.271740048,2.294215 C0.266972679,2.28384567 0.264588994,2.27606867 0.264588994,2.270884 C0.264588994,2.26569933 0.259821625,2.26051467 0.250286886,2.25533 C0.240752148,2.25014533 0.233601094,2.247553 0.228833725,2.247553 C0.224066355,2.247553 0.214531617,2.247553 0.200229509,2.247553 C0.185927401,2.247553 0.166857924,2.247553 0.143021078,2.247553 L0.0429063234,2.247553 C0.0143021078,2.278661 0,2.301992 0,2.317546 Z"/></g></g><g id="MJMAIN-29-link" transform="translate(30.246014, 0.000000)"><path id="MJMAIN-29" d="M0.0593757629,10.989 L0.106876373,11 C0.146460215,11 0.186044057,11 0.225627899,11 L0.36812973,11 L0.700634002,10.736 C1.44481023,10.1126667 1.98710886,9.33533333 2.32752991,8.404 C2.66795095,7.47266667 2.83816147,6.50466667 2.83816147,5.5 C2.83816147,5.00133333 2.79857762,4.521 2.71940994,4.059 C2.64024226,3.597 2.54919942,3.20466667 2.44628143,2.882 C2.34336344,2.55933333 2.19690323,2.23666667 2.00690079,1.914 C1.81689834,1.59133333 1.66647975,1.34566667 1.55564499,1.177 C1.44481023,1.00833333 1.28251648,0.821333333 1.06876373,0.616 C0.855010986,0.410666667 0.728342691,0.289666667 0.68875885,0.253 C0.649175008,0.216333333 0.558132171,0.146666667 0.41563034,0.044 C0.391880035,0.022 0.376046498,0.00733333333 0.36812973,0 L0.225627899,0 C0.162293752,0 0.118751526,0 0.0950012206,0 C0.0712509155,0 0.0514589945,0.011 0.0356254577,0.033 C0.019791921,0.055 0.00791676839,0.088 0,0.132 C0.00791676839,0.139333333 0.0514589945,0.187 0.130626678,0.275 C1.35772578,1.45566667 1.97127533,3.19733333 1.97127533,5.5 C1.97127533,7.80266667 1.35772578,9.54433333 0.130626678,10.725 C0.0514589945,10.813 0.00791676839,10.8606667 0,10.868 C0,10.9266667 0.019791921,10.967 0.0593757629,10.989 Z"/></g></g></g><g id="equation-(3)" fill="#000" transform="translate(0.000000, 126.000000)"><g id="分组" transform="translate(4.500000, 8.500000) scale(-1, 1) rotate(-180.000000) translate(-4.500000, -8.500000)"><g id="MJMATHI-79-link" transform="translate(0.677606, 0.000000)"><path id="MJMATHI-79" d="M0,8.06895684 C0,8.22202648 0.0806674021,8.48443158 0.242002206,8.85617214 C0.40333701,9.2279127 0.661472697,9.61605358 1.01640927,10.0205948 C1.37134584,10.425136 1.76930502,10.6219398 2.21028682,10.6110062 C2.65126862,10.6110062 3.00620518,10.4852705 3.27509653,10.2337989 C3.54398787,9.98232736 3.68381136,9.6324539 3.69456702,9.18417852 C3.67305571,8.97644114 3.65692223,8.86163891 3.64616657,8.83977182 C3.64616657,8.80697118 3.56012135,8.55549963 3.38803089,8.08535716 C3.21594043,7.61521469 3.03847215,7.08493771 2.85562603,6.49452624 C2.67277992,5.90411476 2.58673469,5.43397229 2.59749035,5.08409882 C2.59749035,4.61395635 2.67277992,4.28594997 2.82335907,4.10007969 C2.97393822,3.91420942 3.19980695,3.8158075 3.50096525,3.80487396 C3.74834528,3.80487396 3.97959184,3.86500846 4.19470491,3.98527746 C4.40981798,4.10554647 4.57653061,4.23128224 4.6948428,4.3624848 C4.81315499,4.49368735 4.95835632,4.67409085 5.13044677,4.90369531 C5.13044677,4.91462886 5.15733591,5.02396432 5.21111418,5.23170169 C5.26489244,5.43943906 5.34018202,5.76197866 5.4369829,6.1993205 C5.53378378,6.63666233 5.63596249,7.04120353 5.74351903,7.41294409 C6.15223387,9.05297597 6.37810259,9.91125932 6.42112521,9.98779414 C6.5609487,10.2829999 6.79219526,10.4306027 7.11486486,10.4306027 C7.25468836,10.4306027 7.36762272,10.3923353 7.45366795,10.3158005 C7.53971318,10.2392657 7.59886928,10.1736644 7.63113624,10.1189967 C7.6634032,10.064329 7.67415885,10.015128 7.6634032,9.97139382 C7.6634032,9.82925772 7.39988969,8.68123541 6.87286266,6.52732687 C6.34583563,4.37341834 6.04467733,3.19259539 5.96938776,2.98485802 C5.66822945,2.07737371 5.14658025,1.35575969 4.40444015,0.820015939 C3.66230006,0.284272192 2.92015996,0.0109335459 2.17801986,0 C1.69401544,0 1.26916713,0.120269004 0.903474903,0.360807013 C0.537782681,0.601345022 0.354936569,0.962152035 0.354936569,1.44322805 C0.354936569,1.68376606 0.392581357,1.88603666 0.467870932,2.05003985 C0.543160507,2.21404304 0.645339217,2.33431204 0.77440706,2.41084686 C0.903474903,2.48738168 1.01103144,2.54204941 1.09707667,2.57485005 C1.1831219,2.60765069 1.27454495,2.624051 1.37134584,2.624051 C1.84459459,2.624051 2.08121897,2.39444654 2.08121897,1.93523762 C2.08121897,1.7165667 2.01668505,1.52522965 1.88761721,1.36122646 C1.75854937,1.19722327 1.63485935,1.08788781 1.51654716,1.03322008 C1.39823497,0.978552354 1.32832322,0.951218489 1.30681191,0.951218489 L1.25841147,0.93481817 C1.27992278,0.880150441 1.38210149,0.814549166 1.5649476,0.738014345 C1.74779371,0.661479524 1.93063982,0.623212114 2.11348593,0.623212114 L2.24255378,0.623212114 C2.42539989,0.623212114 2.56522339,0.634145659 2.66202427,0.656012751 C3.01696084,0.754414664 3.34500827,0.962152035 3.64616657,1.27922486 C3.94732488,1.59629769 4.17857143,1.93523762 4.33990623,2.29604463 C4.50124104,2.65685164 4.62493105,2.96299093 4.71097628,3.21446248 C4.79702151,3.46593404 4.84004413,3.62993722 4.84004413,3.70647204 L4.74324324,3.64087077 C4.67870932,3.59713659 4.57653061,3.53700208 4.43670712,3.46046726 C4.29688362,3.38393244 4.15706012,3.31833117 4.01723662,3.26366344 C3.80212355,3.20899571 3.59238831,3.18166184 3.38803089,3.18166184 C2.89327082,3.18166184 2.45766685,3.30193085 2.08121897,3.54246886 C1.7047711,3.78300686 1.45739106,4.17114774 1.33907887,4.70689149 C1.32832322,4.78342631 1.32294539,4.95289627 1.32294539,5.21530137 C1.32294539,5.83851349 1.51116933,6.65306265 1.88761721,7.65894887 C2.26406509,8.66483509 2.45228902,9.30444752 2.45228902,9.57778617 C2.45228902,9.58871971 2.45228902,9.59965326 2.45228902,9.6105868 C2.45228902,9.70898872 2.45228902,9.77458999 2.45228902,9.80739063 C2.45228902,9.84019127 2.43077772,9.87845868 2.3877551,9.92219286 C2.34473249,9.96592704 2.28557639,9.98779414 2.21028682,9.98779414 L2.1457529,9.98779414 C1.89837286,9.98779414 1.67250414,9.88392545 1.46814672,9.67618808 C1.2637893,9.46845071 1.1024545,9.24431302 0.984142306,9.00377501 C0.865830116,8.763237 0.77440706,8.53363254 0.709873138,8.31496162 C0.645339217,8.0962907 0.602316602,7.9760217 0.580805295,7.95415461 C0.559293988,7.93228752 0.473248759,7.92135397 0.322669608,7.92135397 L0.0968008825,7.92135397 C0.0322669608,7.98695525 0,8.0361562 0,8.06895684 Z"/></g><g id="MJMAIN-AF-link"><g transform="translate(0.000000, 13.923871) translate(0.004727, 0.019943)"><polygon id="MJMAIN-AF" points="0 0 0 1.412 4.118 1.412 4.118 0"/></g><g transform="translate(0.000000, 13.923871) translate(3.917112, 0.019943)"><polygon id="MJMAIN-AF" points="0 0 0 1.412 4.118 1.412 4.118 0"/></g></g></g></g></g></g></svg>