<svg xmlns="http://www.w3.org/2000/svg" xmlns:xlink="http://www.w3.org/1999/xlink" width="607" height="242" version="1.1" viewBox="0 0 607 242"><title>Group 4</title><desc>Created with Sketch.</desc><g id="Page-7" fill="none" fill-rule="evenodd" stroke="none" stroke-width="1"><g id="Group-4" transform="translate(1.000000, 1.000000)"><g id="Group-5" transform="translate(315.000000, 97.000000)"><path id="Line" stroke="#4A90E2" stroke-width="6" d="M16.5,45.5 L80.5,45.5"/><path id="Line-decoration-1" stroke="#4A90E2" stroke-width="6" d="M80.5,45.5 L69.7,42.5 L69.7,48.5 L80.5,45.5 Z"/><text id="最大池化" fill="#666" font-family="PingFangSC-Medium, PingFang SC" font-size="24" font-weight="400"><tspan x="0" y="25">最大池化</tspan></text></g><g id="Group-3"><g id="Group"><rect id="Rectangle" width="60" height="60" x="0" y="0" fill="#F5A623" stroke="#979797"/><rect id="Rectangle" width="60" height="60" x="60" y="60" fill="#F5A623" stroke="#979797"/><rect id="Rectangle" width="60" height="60" x="60" y="0" fill="#F5A623" stroke="#979797"/><rect id="Rectangle" width="60" height="60" x="0" y="60" fill="#F5A623" stroke="#979797"/><text id="2" fill="#666" font-family="PingFangSC-Medium, PingFang SC" font-size="24" font-weight="400"><tspan x="22.3" y="37">2</tspan></text><text id="1" fill="#666" font-family="PingFangSC-Medium, PingFang SC" font-size="24" font-weight="400"><tspan x="84.604" y="37">1</tspan></text><text id="2" fill="#666" font-family="PingFangSC-Medium, PingFang SC" font-size="24" font-weight="400"><tspan x="22.3" y="97">2</tspan></text><text id="3" fill="#666" font-family="PingFangSC-Medium, PingFang SC" font-size="24" font-weight="400"><tspan x="82.3" y="97">3</tspan></text></g><g id="Group" transform="translate(120.000000, 0.000000)"><rect id="Rectangle" width="60" height="60" x="0" y="0" fill="#7ED321" stroke="#979797"/><rect id="Rectangle" width="60" height="60" x="60" y="60" fill="#7ED321" stroke="#979797"/><rect id="Rectangle" width="60" height="60" x="60" y="0" fill="#7ED321" stroke="#979797"/><rect id="Rectangle" width="60" height="60" x="0" y="60" fill="#7ED321" stroke="#979797"/><text id="3" fill="#666" font-family="PingFangSC-Medium, PingFang SC" font-size="24" font-weight="400"><tspan x="22.3" y="37">3</tspan></text><text id="4" fill="#666" font-family="PingFangSC-Medium, PingFang SC" font-size="24" font-weight="400"><tspan x="82.3" y="37">4</tspan></text><text id="3" fill="#666" font-family="PingFangSC-Medium, PingFang SC" font-size="24" font-weight="400"><tspan x="22.3" y="97">3</tspan></text><text id="6" fill="#666" font-family="PingFangSC-Medium, PingFang SC" font-size="24" font-weight="400"><tspan x="82.3" y="97">6</tspan></text></g><g id="Group" transform="translate(0.000000, 120.000000)"><rect id="Rectangle" width="60" height="60" x="0" y="0" fill="#F8E71C" stroke="#979797"/><rect id="Rectangle" width="60" height="60" x="60" y="60" fill="#F8E71C" stroke="#979797"/><rect id="Rectangle" width="60" height="60" x="60" y="0" fill="#F8E71C" stroke="#979797"/><rect id="Rectangle" width="60" height="60" x="0" y="60" fill="#F8E71C" stroke="#979797"/><text id="1" fill="#666" font-family="PingFangSC-Medium, PingFang SC" font-size="24" font-weight="400"><tspan x="24.604" y="37">1</tspan></text><text id="7" fill="#666" font-family="PingFangSC-Medium, PingFang SC" font-size="24" font-weight="400"><tspan x="82.888" y="37">7</tspan></text><text id="2" fill="#666" font-family="PingFangSC-Medium, PingFang SC" font-size="24" font-weight="400"><tspan x="22.3" y="97">2</tspan></text><text id="4" fill="#666" font-family="PingFangSC-Medium, PingFang SC" font-size="24" font-weight="400"><tspan x="82.3" y="97">4</tspan></text></g><g id="Group" transform="translate(120.000000, 120.000000)"><rect id="Rectangle" width="60" height="60" x="0" y="0" fill="#50E3C2" stroke="#979797"/><rect id="Rectangle" width="60" height="60" x="60" y="60" fill="#50E3C2" stroke="#979797"/><rect id="Rectangle" width="60" height="60" x="60" y="0" fill="#50E3C2" stroke="#979797"/><rect id="Rectangle" width="60" height="60" x="0" y="60" fill="#50E3C2" stroke="#979797"/><text id="3" fill="#666" font-family="PingFangSC-Medium, PingFang SC" font-size="24" font-weight="400"><tspan x="22.3" y="37">3</tspan></text><text id="1" fill="#666" font-family="PingFangSC-Medium, PingFang SC" font-size="24" font-weight="400"><tspan x="84.604" y="37">1</tspan></text><text id="6" fill="#666" font-family="PingFangSC-Medium, PingFang SC" font-size="24" font-weight="400"><tspan x="22.3" y="97">6</tspan></text><text id="2" fill="#666" font-family="PingFangSC-Medium, PingFang SC" font-size="24" font-weight="400"><tspan x="82.3" y="97">2</tspan></text></g></g><g id="Group-2" transform="translate(485.000000, 60.000000)"><rect id="Rectangle" width="60" height="60" x="0" y="0" fill="#F5A623" stroke="#979797"/><rect id="Rectangle" width="60" height="60" x="60" y="0" fill="#7ED321" stroke="#979797"/><rect id="Rectangle" width="60" height="60" x="0" y="60" fill="#F8E71C" stroke="#979797"/><rect id="Rectangle" width="60" height="60" x="60" y="60" fill="#50E3C2" stroke="#979797"/><text id="3" fill="#666" font-family="PingFangSC-Medium, PingFang SC" font-size="24" font-weight="400"><tspan x="22.3" y="37">3</tspan></text><text id="6" fill="#666" font-family="PingFangSC-Medium, PingFang SC" font-size="24" font-weight="400"><tspan x="82.3" y="37">6</tspan></text><text id="7" fill="#666" font-family="PingFangSC-Medium, PingFang SC" font-size="24" font-weight="400"><tspan x="22.888" y="97">7</tspan></text><text id="6" fill="#666" font-family="PingFangSC-Medium, PingFang SC" font-size="24" font-weight="400"><tspan x="82.3" y="97">6</tspan></text></g></g></g></svg>