<?xml version="1.0" encoding="UTF-8"?>
<svg width="535px" height="108px" viewBox="0 0 535 108" version="1.1" xmlns="http://www.w3.org/2000/svg" xmlns:xlink="http://www.w3.org/1999/xlink">
    <!-- Generator: Sketch 50 (54983) - http://www.bohemiancoding.com/sketch -->
    <title>Group 5</title>
    <desc>Created with Sketch.</desc>
    <defs></defs>
    <g id="Page-6" stroke="none" stroke-width="1" fill="none" fill-rule="evenodd">
        <g id="Group-5" transform="translate(0.000000, -4.000000)">
            <g id="Group" transform="translate(0.000000, 75.000000)" stroke="#F5A623" stroke-linecap="square">
                <path d="M2.5,11.5 L247,11.5" id="Line" stroke-width="4"></path>
                <path d="M1.5,11.5 L1.5,0.5" id="Line-3" stroke-width="3"></path>
                <path d="M247.5,11.5 L247.5,0.5" id="Line-3" stroke-width="3"></path>
            </g>
            <g id="Group" transform="translate(204.000000, 98.000000)" stroke="#F5A623" stroke-linecap="square">
                <path d="M2.5,11.5 L247,11.5" id="Line" stroke-width="4"></path>
                <path d="M1.5,11.5 L1.5,0.5" id="Line-3" stroke-width="3"></path>
                <path d="M247.5,11.5 L247.5,0.5" id="Line-3" stroke-width="3"></path>
            </g>
            <text id="Kernel-=-6；Stride-=" font-family="PingFangSC-Medium, PingFang SC" font-size="11" font-weight="400" fill="#F5A623">
                <tspan x="1.266" y="110">Kernel = 6；Stride = 5</tspan>
            </text>
            <text id="VALIED" font-family="PingFangSC-Medium, PingFang SC" font-size="11" font-weight="400" fill="#666666">
                <tspan x="1.0905" y="12">VALIED</tspan>
            </text>
            <g id="Group-4" transform="translate(1.000000, 25.000000)">
                <g id="Group-3" stroke="#4A4A4A">
                    <rect id="Rectangle" fill="#B8E986" x="0" y="0" width="41" height="41"></rect>
                    <rect id="Rectangle" fill="#B8E986" x="41" y="0" width="41" height="41"></rect>
                    <rect id="Rectangle" fill="#B8E986" x="82" y="0" width="41" height="41"></rect>
                    <rect id="Rectangle" fill="#B8E986" x="123" y="0" width="41" height="41"></rect>
                    <rect id="Rectangle" fill="#B8E986" x="164" y="0" width="41" height="41"></rect>
                    <rect id="Rectangle" fill="#B8E986" x="205" y="0" width="41" height="41"></rect>
                    <rect id="Rectangle" fill="#B8E986" x="246" y="0" width="41" height="41"></rect>
                    <rect id="Rectangle" fill="#B8E986" x="287" y="0" width="41" height="41"></rect>
                    <rect id="Rectangle" fill="#B8E986" x="328" y="0" width="41" height="41"></rect>
                    <rect id="Rectangle" fill="#B8E986" x="369" y="0" width="41" height="41"></rect>
                    <rect id="Rectangle" fill="#B8E986" x="410" y="0" width="41" height="41"></rect>
                    <rect id="Rectangle" fill="#9B9B9B" x="451" y="0" width="41" height="41"></rect>
                    <rect id="Rectangle" fill="#9B9B9B" x="492" y="0" width="41" height="41"></rect>
                </g>
                <text id="丢弃" font-family="PingFangSC-Medium, PingFang SC" font-size="11" font-weight="400" fill="#FFFFFF">
                    <tspan x="461" y="24">丢弃</tspan>
                </text>
                <text id="丢弃" font-family="PingFangSC-Medium, PingFang SC" font-size="11" font-weight="400" fill="#FFFFFF">
                    <tspan x="502" y="24">丢弃</tspan>
                </text>
            </g>
        </g>
    </g>
</svg>