<?xml version="1.0" encoding="UTF-8"?>
<svg width="326px" height="317px" viewBox="0 0 326 317" version="1.1" xmlns="http://www.w3.org/2000/svg" xmlns:xlink="http://www.w3.org/1999/xlink">
    <!-- Generator: Sketch 55.1 (78136) - https://sketchapp.com -->
    <title>border-box</title>
    <desc>Created with Sketch.</desc>
    <g id="页面1" stroke="none" stroke-width="1" fill="none" fill-rule="evenodd">
        <g id="border-box" transform="translate(1.000000, 0.000000)">
            <g id="编组-2" fill="#000000" fill-opacity="0.85" fill-rule="nonzero">
                <path id="直线" d="M311,283 L-0.5,283 L-0.5,281 L311,281 L311,275 L325,282 L311,289 L311,283 Z"></path>
                <path id="直线-2" d="M32,14.5 L32,316.5 L30,316.5 L30,14.5 L24,14.5 L31,0.5 L38,14.5 L32,14.5 Z"></path>
            </g>
            <rect id="矩形" stroke-opacity="0.85" stroke="#000000" stroke-width="2" fill="#D8D8D8" x="53" y="52" width="211" height="211"></rect>
            <g id="latex-eq" transform="translate(141.000000, 149.000000)" fill="#000000" fill-rule="nonzero" stroke="#000000" stroke-width="0.5">
                <g id="编组" transform="translate(17.000000, 8.000000) scale(-1, 1) rotate(-180.000000) translate(-17.000000, -8.000000) ">
                    <path d="M0,7.89728149 C0,8.62383139 0.0533217983,9.31352731 0.159965395,9.96636925 C0.266608992,10.6192112 0.389249128,11.1825506 0.527885803,11.6563875 C0.666522479,12.1302244 0.863813133,12.5935316 1.11975776,13.046309 C1.3757024,13.4990865 1.57832523,13.8518317 1.72762627,14.1045447 C1.8769273,14.3572578 2.10087885,14.6310302 2.39948092,14.925862 C2.698083,15.2206939 2.87404493,15.3996989 2.92736673,15.4628772 C2.98068853,15.5260554 3.11399302,15.6366174 3.32728022,15.794563 L3.53523523,15.794563 L3.59922139,15.794563 C3.74852242,15.794563 3.82317294,15.7471793 3.82317294,15.6524119 C3.82317294,15.6208228 3.73252588,15.5102609 3.55123177,15.3207261 C3.36993765,15.1311913 3.15131828,14.8521541 2.89537365,14.4836143 C2.63942902,14.1150745 2.37815221,13.662297 2.11154321,13.1252818 C1.84493422,12.5882667 1.62098267,11.8617168 1.43968855,10.9456322 C1.25839444,10.0295475 1.16774738,9.01343061 1.16774738,7.89728149 C1.16774738,6.78113238 1.25839444,5.77028035 1.43968855,4.8647254 C1.62098267,3.95917046 1.83960204,3.2273557 2.09554667,2.66928115 C2.35149131,2.11120659 2.61276812,1.65842911 2.87937711,1.31094873 C3.1459861,0.963468342 3.36993765,0.684431063 3.55123177,0.47383689 C3.73252588,0.263242716 3.82317294,0.152680776 3.82317294,0.142151067 C3.82317294,0.047383689 3.74319024,0 3.58322485,0 L3.53523523,0 L3.32728022,0 L2.87937711,0.379069512 C1.8769273,1.27409475 1.14641866,2.39024387 0.687851198,3.72751687 C0.229283733,5.06478986 0,6.45471141 0,7.89728149 Z" id="路径"></path>
                    <g transform="translate(5.278858, 3.774901)" id="路径">
                        <path d="M0.271941171,4.7383689 C0.346591689,5.18061666 0.6345294,5.69130753 1.1357543,6.27044151 C1.63697921,6.84957548 2.25551207,7.14440732 2.99135289,7.15493703 C3.36460547,7.15493703 3.70586498,7.06016966 4.01513141,6.8706349 C4.32439784,6.68110014 4.55368158,6.4441817 4.70298261,6.15987957 C5.15088572,6.82325121 5.68943588,7.15493703 6.3186331,7.15493703 C6.71321441,7.15493703 7.05447392,7.03911024 7.34241163,6.80745665 C7.63034934,6.57580306 7.77965038,6.26517665 7.79031474,5.87557743 C7.79031474,5.57021588 7.71566422,5.32276773 7.56636318,5.13323297 C7.41706215,4.94369822 7.27309329,4.82787142 7.13445662,4.78575259 C6.99581994,4.74363375 6.8731798,4.72257433 6.76653621,4.72257433 C6.56391337,4.72257433 6.3986158,4.78048773 6.27064348,4.89631453 C6.14267117,5.01214132 6.07868501,5.1648221 6.07868501,5.35435685 C6.07868501,5.83872345 6.345294,6.17040927 6.87851198,6.34941432 C6.76120403,6.48630053 6.54791683,6.55474364 6.2386504,6.55474364 C6.10001373,6.55474364 5.99870231,6.54421393 5.93471615,6.52315451 C5.52947049,6.35467918 5.23086842,6.00719879 5.03890994,5.48071336 C4.39904836,3.15364774 4.07911757,1.79531533 4.07911757,1.40571611 C4.07911757,1.11088426 4.16443245,0.90029009 4.3350622,0.773933586 C4.50569196,0.647577083 4.69231825,0.584398831 4.89494109,0.584398831 C5.28952239,0.584398831 5.67877152,0.758139023 6.06268847,1.10561941 C6.44660542,1.45309979 6.70788223,1.879553 6.8465189,2.38497901 C6.87851198,2.4902761 6.91050506,2.5481895 6.94249814,2.5587192 C6.97449122,2.56924891 7.0598061,2.57977862 7.19844277,2.59030833 L7.26242893,2.59030833 C7.42239433,2.59030833 7.50237702,2.5481895 7.50237702,2.46395183 C7.50237702,2.45342212 7.49171266,2.39550872 7.47038395,2.29021163 C7.29975419,1.69001824 6.96915904,1.15826795 6.4785985,0.694960771 C5.98803795,0.23165359 5.41749471,0 4.76696877,0 C4.02046359,0 3.45525253,0.331685823 3.07133558,0.995057468 C2.63409684,0.342215531 2.13287193,0.015794563 1.56766087,0.015794563 L1.47168163,0.015794563 C0.94912801,0.015794563 0.575875422,0.152680776 0.351923869,0.426453201 C0.127972316,0.700225626 0.0106643597,0.989792614 0,1.29515417 C0,1.63210484 0.101311417,1.90587727 0.30393425,2.11647144 C0.506557084,2.32706561 0.746505177,2.4323627 1.02377853,2.4323627 C1.48234599,2.4323627 1.71162973,2.21123882 1.71162973,1.76899105 C1.71162973,1.55839688 1.64764357,1.37412698 1.51967125,1.21618135 C1.39169894,1.05823572 1.2690588,0.952938634 1.15175084,0.90029009 C1.03444289,0.847641547 0.96512455,0.821317275 0.94379583,0.821317275 L0.895806212,0.805522712 C0.895806212,0.794993004 0.927799291,0.773933586 0.991785449,0.74234446 C1.05577161,0.710755334 1.14108648,0.673901354 1.24773008,0.63178252 C1.35437368,0.589663685 1.45568509,0.573869122 1.55166433,0.584398831 C1.93558128,0.584398831 2.26617643,0.821317275 2.54344978,1.29515417 C2.63942902,1.4636295 2.76206915,1.8216396 2.91137019,2.36918445 C3.06067122,2.9167293 3.20997226,3.48533357 3.35927329,4.07499725 C3.50857433,4.66466094 3.59388921,5.01214132 3.61521793,5.11743841 C3.66853972,5.40174054 3.69520062,5.60706986 3.69520062,5.73342636 C3.69520062,6.02825821 3.61521793,6.23885238 3.45525253,6.36520888 C3.29528714,6.49156539 3.11399302,6.55474364 2.91137019,6.55474364 C2.4847958,6.55474364 2.08488231,6.3862683 1.71162973,6.04931762 C1.33837714,5.71236695 1.07710033,5.28064889 0.927799291,4.75416346 C0.906470571,4.65939608 0.879809672,4.60674754 0.847816593,4.59621783 C0.815823514,4.58568812 0.730508637,4.57515841 0.591871961,4.5646287 L0.367920408,4.5646287 C0.30393425,4.62780696 0.271941171,4.68572035 0.271941171,4.7383689 Z"></path>
                    </g>
                    <g transform="translate(15.116730, 0.868701)" id="路径">
                        <path d="M0,4.94936709 C0,4.94936709 0,5.12869198 0,5.48734177 C0,5.84599156 0.0523151408,6.15443038 0.156945423,6.41265823 C0.261575704,6.67088608 0.402172645,6.8 0.578736246,6.8 C0.761839239,6.8 0.925324054,6.62067511 1.06919069,6.26202532 C1.21305733,5.90337553 1.28826034,5.2721519 1.29479974,4.36835443 C1.29479974,3.86624473 1.26537247,3.37848101 1.20651794,2.90506329 C1.1476634,2.43164557 1.07899978,2.02278481 1.00052707,1.67848101 C0.922054357,1.33417722 0.837042254,1.04008439 0.745490757,0.796202532 C0.653939261,0.552320675 0.575466549,0.358649789 0.510072623,0.215189873 C0.444678697,0.0717299578 0.402172645,0.00717299578 0.382554467,0.0215189873 C0.356396897,0.0215189873 0.313890845,0.0860759494 0.255036312,0.215189873 C0.196181778,0.344303797 0.166754511,0.437552743 0.166754511,0.494936709 C0.166754511,0.552320675 0.202721171,0.667088608 0.274654489,0.839240506 C0.346587808,1.01139241 0.428330216,1.22658228 0.519881712,1.48481013 C0.611433209,1.74303797 0.696445313,2.10168776 0.774918024,2.56075949 C0.853390735,3.01983122 0.905705876,3.54345992 0.931863446,4.13164557 L0.931863446,4.38987342 L0.922054357,4.36835443 C0.908975572,4.35400844 0.892627091,4.33966245 0.873008913,4.32531646 C0.853390735,4.31097046 0.833772557,4.28945148 0.814154379,4.26075949 C0.794536202,4.23206751 0.765108935,4.21772152 0.725872579,4.21772152 C0.686636224,4.21772152 0.647399868,4.21054852 0.608163512,4.19620253 C0.431599912,4.19620253 0.287733275,4.31814346 0.1765636,4.56202532 L0,4.94936709 Z"></path>
                    </g>
                    <g transform="translate(21.307391, 0.710755)" id="路径">
                        <path d="M0,7.77092499 C0,7.91834091 0.0799826975,8.17105392 0.239948092,8.52906401 C0.399913487,8.88707411 0.655858119,9.26087877 1.00778199,9.65047799 C1.35970586,10.0400772 1.75428716,10.229612 2.19152591,10.2190823 C2.62876466,10.2190823 2.98068853,10.0979906 3.24729752,9.8558073 C3.51390651,9.61362401 3.65254319,9.27667333 3.66320754,8.84495527 C3.64187883,8.64489081 3.62588229,8.53432887 3.61521793,8.51326945 C3.61521793,8.48168032 3.52990305,8.23949703 3.35927329,7.78671955 C3.18864354,7.33394208 3.01268161,6.82325121 2.83138749,6.25464694 C2.65009338,5.68604268 2.5647785,5.2332652 2.57544286,4.89631453 C2.57544286,4.44353705 2.65009338,4.12764579 2.79939441,3.94864075 C2.94869545,3.7696357 3.172647,3.67486832 3.47124907,3.66433861 C3.71652934,3.66433861 3.94581308,3.72225201 4.15910027,3.83807881 C4.37238746,3.9539056 4.53768504,4.07499725 4.65499299,4.20135375 C4.77230095,4.32771026 4.91626981,4.50145045 5.08689956,4.72257433 C5.08689956,4.73310404 5.11356046,4.83840113 5.16688226,5.03846559 C5.22020406,5.23853006 5.29485457,5.54915646 5.39083381,5.97034481 C5.48681305,6.39153316 5.58812446,6.78113238 5.69476806,7.13914247 C6.10001373,8.71859877 6.32396528,9.5451809 6.36662272,9.61888886 C6.5052594,9.90319099 6.73454313,10.0453421 7.05447392,10.0453421 C7.19311059,10.0453421 7.30508637,10.0084881 7.39040125,9.93478012 C7.47571612,9.86107216 7.5343701,9.79789391 7.56636318,9.74524536 C7.59835626,9.69259682 7.60902062,9.64521313 7.59835626,9.6030943 C7.59835626,9.46620808 7.33707945,8.36058868 6.81452583,6.28623607 C6.2919722,4.21188346 5.99337013,3.07467493 5.91871961,2.87461046 C5.62011754,2.00064465 5.1028961,1.30568387 4.36705528,0.789728149 C3.63121447,0.273772425 2.89537365,0.0105297087 2.15953283,0 C1.67963665,0 1.25839444,0.115826795 0.895806212,0.347480386 C0.533217983,0.579133976 0.351923869,0.926614362 0.351923869,1.38992154 C0.351923869,1.62157513 0.389249128,1.81637474 0.463899645,1.97432037 C0.538550163,2.132266 0.63986158,2.2480928 0.767833896,2.32180076 C0.895806212,2.39550872 1.00244981,2.44815726 1.08776469,2.47974639 C1.17307956,2.51133552 1.26372662,2.52713008 1.35970586,2.52713008 C1.82893768,2.52713008 2.0635536,2.3060062 2.0635536,1.86375843 C2.0635536,1.65316426 1.99956744,1.46889436 1.87159512,1.31094873 C1.74362281,1.1530031 1.62098267,1.04770601 1.50367471,0.995057468 C1.38636676,0.942408925 1.31704842,0.916084653 1.2957197,0.916084653 L1.24773008,0.90029009 C1.2690588,0.847641547 1.37037022,0.784463295 1.55166433,0.710755334 C1.73295845,0.637047374 1.91425256,0.600193394 2.09554667,0.600193394 L2.22351899,0.600193394 C2.4048131,0.600193394 2.54344978,0.610723102 2.63942902,0.63178252 C2.99135289,0.726549897 3.31661586,0.926614362 3.61521793,1.23197591 C3.91382,1.53733746 4.14310373,1.86375843 4.30306912,2.21123882 C4.46303452,2.5587192 4.58567466,2.85355105 4.67098953,3.09573435 C4.75630441,3.33791764 4.79896185,3.49586327 4.79896185,3.56957124 L4.70298261,3.50639298 C4.63899645,3.46427415 4.53768504,3.40636075 4.39904836,3.33265279 C4.26041169,3.25894483 4.12177501,3.19576658 3.98313833,3.14311803 C3.76985114,3.09046949 3.56189613,3.06414522 3.35927329,3.06414522 C2.86871275,3.06414522 2.43680618,3.17997201 2.0635536,3.41162561 C1.69030101,3.6432792 1.44502073,4.01708385 1.32771278,4.53303958 C1.31704842,4.60674754 1.31171624,4.76995802 1.31171624,5.02267103 C1.31171624,5.62286442 1.49834253,6.40732772 1.87159512,7.37606092 C2.24484771,8.34479411 2.431474,8.96078207 2.431474,9.22402479 C2.431474,9.23455449 2.431474,9.2450842 2.431474,9.25561391 C2.431474,9.35038129 2.431474,9.41355954 2.431474,9.44514867 C2.431474,9.47673779 2.41014528,9.51359177 2.36748785,9.55571061 C2.32483041,9.59782944 2.26617643,9.61888886 2.19152591,9.61888886 L2.12753975,9.61888886 C1.88225948,9.61888886 1.65830793,9.51885663 1.45568509,9.31879216 C1.25306226,9.1187277 1.09309687,8.90286867 0.975788909,8.67121508 C0.858480953,8.43956149 0.767833896,8.21843761 0.703847738,8.00784344 C0.63986158,7.79724926 0.597204141,7.68142247 0.575875422,7.66036305 C0.554546703,7.63930363 0.469231825,7.62877392 0.31993079,7.62877392 L0.095979237,7.62877392 C0.031993079,7.69195218 0,7.73933586 0,7.77092499 Z"></path>
                    </g>
                    <g transform="translate(29.801553, 0.000000)" id="路径">
                        <path d="M0.0799826975,15.7787684 L0.143968855,15.794563 C0.197290654,15.794563 0.250612452,15.794563 0.30393425,15.794563 L0.495892724,15.794563 L0.94379583,15.4154935 C1.94624564,14.5204682 2.67675428,13.4043191 3.13532174,12.0670461 C3.59388921,10.7297731 3.82317294,9.33985158 3.82317294,7.89728149 C3.82317294,7.18126131 3.76985114,6.49156539 3.66320754,5.82819374 C3.55656395,5.1648221 3.43392381,4.60148268 3.29528714,4.1381755 C3.15665046,3.67486832 2.95935981,3.21156114 2.70341517,2.74825396 C2.44747054,2.28494678 2.24484771,1.93220154 2.09554667,1.69001824 C1.94624564,1.44783494 1.72762627,1.17932737 1.43968855,0.884495527 C1.15175084,0.589663685 0.981121089,0.415923492 0.927799291,0.363274949 C0.874477493,0.310626405 0.751837356,0.210594173 0.559878882,0.063178252 C0.527885803,0.031589126 0.506557084,0.0105297087 0.495892724,0 L0.30393425,0 C0.218619373,0 0.159965395,0 0.127972316,0 C0.095979237,0 0.0693183378,0.015794563 0.0479896185,0.047383689 C0.0266608992,0.0789728149 0.0106643597,0.126356504 0,0.189534756 C0.0106643597,0.200064465 0.0693183378,0.268507571 0.175961934,0.394864075 C1.82893768,2.09014717 2.65542556,4.59095298 2.65542556,7.89728149 C2.65542556,11.20361 1.82893768,13.7044158 0.175961934,15.3996989 C0.0693183378,15.5260554 0.0106643597,15.5944985 0,15.6050282 C0,15.6892659 0.0266608992,15.7471793 0.0799826975,15.7787684 Z"></path>
                    </g>
                </g>
            </g>
            <g id="latex-eq" transform="translate(276.000000, 151.000000)" fill="#000000" fill-rule="nonzero" stroke="#000000" stroke-width="0.5">
                <g id="编组" transform="translate(4.431942, 6.162759) scale(-1, 1) rotate(-180.000000) translate(-4.431942, -6.162759) ">
                    <path d="M1.55598739,12.133205 C1.56764273,12.133205 1.98723483,12.1623434 2.81476371,12.2206201 C3.64229258,12.2788967 4.06771235,12.3138628 4.09102303,12.3255181 C4.23088706,12.3255181 4.30081908,12.2730691 4.30081908,12.1681711 C4.30081908,12.0399624 4.09102303,11.1599845 3.67143092,9.52823739 C3.22852814,7.80324762 3.00707675,6.92326974 3.00707675,6.88830373 C3.00707675,6.86499306 3.04787043,6.8941314 3.12945779,6.97571875 C3.8404333,7.60510691 4.59803015,7.91980099 5.40224836,7.91980099 C6.03163651,7.91980099 6.53864364,7.76245395 6.92326974,7.44775987 C7.30789583,7.13306579 7.50603655,6.67268001 7.51769189,6.06660252 C7.51769189,5.47218037 7.2962405,4.55140881 6.85333772,3.30428783 C6.41043494,2.05716685 6.18898355,1.31122533 6.18898355,1.06646327 C6.20063889,0.90328856 6.22977723,0.792562865 6.27639857,0.734286184 C6.32301992,0.676009503 6.41043494,0.646871162 6.53864364,0.646871162 C6.86499306,0.646871162 7.1680318,0.821701206 7.44775987,1.17136129 C7.72748794,1.52102138 7.954767,1.99889017 8.12959704,2.60496765 C8.16456305,2.73317635 8.19952906,2.80893604 8.23449507,2.83224671 C8.26946107,2.85555738 8.36270376,2.86721272 8.51422314,2.86721272 C8.74732986,2.86721272 8.86388322,2.82059137 8.86388322,2.72734868 C8.86388322,2.71569335 8.84057255,2.62827833 8.79395121,2.46510362 C8.60746583,1.77743878 8.31025475,1.21215497 7.90231798,0.769252193 C7.50603655,0.268072734 7.03399543,0.0174830044 6.48619463,0.0174830044 L6.39877961,0.0174830044 C5.8509788,0.0174830044 5.45469737,0.174830044 5.20993531,0.489524123 C4.96517325,0.804218202 4.84279221,1.13639529 4.84279221,1.48605537 C4.84279221,1.67254075 5.05258827,2.36020559 5.47218037,3.54904989 C5.89177248,4.73789419 6.1073962,5.62952741 6.11905154,6.22394956 C6.11905154,6.9116144 5.86263414,7.25544682 5.34979934,7.25544682 L5.26238432,7.25544682 C4.29499141,7.25544682 3.4558072,6.68433534 2.74483169,5.54211239 L2.62245066,5.31483333 L2.02802851,2.95462774 C1.65505775,1.43943403 1.43943403,0.611905154 1.38115735,0.472041118 C1.22963798,0.157347039 0.973220577,0 0.611905154,0 C0.448730446,0 0.308866411,0.0524490132 0.192313048,0.157347039 C0.0757596857,0.262245066 0.0116553363,0.367143092 0,0.472041118 C0,0.635215826 0.425419773,2.40682694 1.27625932,5.78687445 L2.57000164,10.9618437 C2.57000164,11.1133631 2.52920797,11.2066058 2.44762061,11.2415718 C2.36603326,11.2765378 2.1387542,11.3056762 1.76578344,11.3289868 L1.39864035,11.3289868 C1.32870833,11.3989189 1.29374232,11.4455402 1.29374232,11.4688509 C1.29374232,11.4921615 1.30539766,11.6028872 1.32870833,11.801028 C1.38698501,12.0224793 1.4627447,12.133205 1.55598739,12.133205 Z" id="路径"></path>
                </g>
            </g>
            <g id="latex-eq" transform="translate(151.000000, 32.000000)" fill="#000000" fill-rule="nonzero" stroke="#000000" stroke-width="0.5">
                <g id="编组" transform="translate(6.923077, 5.076302) scale(-1, 1) rotate(-180.000000) translate(-6.923077, -5.076302) translate(0.000000, 0.460917)">
                    <path d="M10.9860196,7.78258272 C10.9860196,8.05772454 11.1104885,8.31321336 11.3594263,8.5490492 C11.6083641,8.78488505 11.8835059,8.90935396 12.1848517,8.92245595 C12.4206876,8.92245595 12.6368704,8.80453803 12.8334003,8.56870219 C13.0299302,8.33286635 13.1347461,7.9594596 13.1478481,7.44848195 C13.1478481,7.06852421 13.0233792,6.31515972 12.7744413,5.18838848 C12.5779115,4.45467698 12.4010346,3.85198539 12.2438107,3.38031371 C12.0865868,2.90864203 11.857302,2.37801139 11.5559562,1.78842179 C11.2546104,1.19883219 10.8943056,0.753364489 10.4750419,0.452018694 C10.0557782,0.150672898 9.5841065,0 9.06002686,0 C8.48353925,0 7.9725616,0.104815929 7.5270939,0.314447787 C7.0816262,0.524079645 6.76062742,0.805772454 6.56409755,1.15952621 C6.55099556,1.14642422 6.53134257,1.12022024 6.50513859,1.08091427 C5.96795695,0.360304756 5.3128574,0 4.53983992,0 C4.19918815,0 3.87163838,0.0393059734 3.55719059,0.11791792 C3.2427428,0.196529867 2.93484601,0.320998782 2.63350021,0.491324667 C2.33215442,0.661650551 2.08976758,0.917139378 1.90633971,1.25779115 C1.72291183,1.59844292 1.63119789,2.01115564 1.63119789,2.49592931 C1.63119789,3.20343683 1.85393174,4.15988218 2.29939944,5.36526536 C2.74486714,6.57064855 2.97415198,7.33711503 2.98725398,7.6646648 C2.98725398,7.6777668 2.98725398,7.69086879 2.98725398,7.70397078 C2.98725398,7.8218887 2.98725398,7.90050064 2.98725398,7.93980662 C2.98725398,7.97911259 2.96104999,8.02496956 2.90864203,8.07737752 C2.85623406,8.12978549 2.78417311,8.15598947 2.69245917,8.15598947 L2.61384723,8.15598947 C2.31250143,8.15598947 2.03735962,8.03152056 1.78842179,7.78258272 C1.53948396,7.53364489 1.34295409,7.26505408 1.19883219,6.97681027 C1.05471029,6.68856647 0.943343361,6.41342465 0.864731414,6.15138483 C0.786119467,5.88934501 0.733711503,5.74522311 0.70750752,5.71901912 C0.681303538,5.69281514 0.576487609,5.67971315 0.393059734,5.67971315 L0.11791792,5.67971315 C0.0393059734,5.7583251 0,5.81728406 0,5.85659003 C0,5.93520198 0.0524079645,6.11862985 0.157223893,6.40687366 C0.262039822,6.69511746 0.41271272,7.02921824 0.609242587,7.40917598 C0.805772454,7.78913372 1.09401626,8.12978549 1.473974,8.43113128 C1.85393174,8.73247708 2.27974645,8.88314998 2.75141813,8.88314998 C3.31480375,8.88314998 3.74716946,8.71937509 4.04851526,8.39182531 C4.34986105,8.06427553 4.50053395,7.68431779 4.50053395,7.25195208 C4.50053395,7.01611624 4.2843511,6.30860872 3.85198539,5.12942952 C3.41961968,3.95025032 3.20343683,3.03966194 3.20343683,2.39766437 C3.20343683,1.79497278 3.34100774,1.36915807 3.61614955,1.12022024 C3.89129136,0.871282409 4.23849413,0.740262498 4.65775784,0.727160507 C5.22114346,0.727160507 5.71901912,1.12677124 6.15138483,1.92599269 L6.24964976,2.10286957 L6.24964976,2.55488827 C6.24964976,2.59419424 6.24964976,2.6531532 6.24964976,2.73176515 C6.24964976,2.81037709 6.25620076,2.86278506 6.26930275,2.88898904 C6.28240474,2.91519302 6.28895574,2.96104999 6.28895574,3.02655995 C6.28895574,3.0920699 6.29550673,3.15102886 6.30860872,3.20343683 C6.32171071,3.25584479 6.3413637,3.34100774 6.36756768,3.45892566 C6.39377167,3.57684358 6.41342465,3.6882105 6.42652664,3.79302643 C6.43962863,3.89784236 6.47893461,4.05506625 6.54444456,4.26469811 C6.60995452,4.47432997 6.66236248,4.68396182 6.70166846,4.89359368 C6.74097443,5.10322554 6.81303538,5.38491835 6.91785131,5.73867211 C7.29780905,7.2322991 7.51399191,8.03807155 7.56639987,8.15598947 C7.73672576,8.50974323 8.01841856,8.68662011 8.4114783,8.68662011 C8.66041613,8.68662011 8.83074201,8.62111016 8.92245595,8.49009024 C9.01416989,8.35907033 9.06657785,8.23460142 9.07967985,8.1166835 C9.07967985,7.94635761 8.88970097,7.10783018 8.50974323,5.6011012 C8.12978549,4.09437222 7.92015363,3.22964081 7.88084766,3.00690696 C7.85464368,2.86278506 7.84154168,2.63350021 7.84154168,2.31905243 L7.84154168,2.18148152 C7.84154168,1.98495165 7.86119467,1.79497278 7.90050064,1.61154491 C7.93980662,1.42811703 8.06427553,1.23813816 8.27390739,1.04160829 C8.48353925,0.845078427 8.77833405,0.740262498 9.15829179,0.727160507 C10.0885332,0.727160507 10.8287957,1.52638197 11.3790793,3.12482488 C11.4969972,3.42617068 11.6280171,3.85198539 11.772139,4.40226902 C11.9162609,4.95255264 11.9948729,5.34561238 12.0079749,5.58144822 C12.0079749,6.01381392 11.9228119,6.35446569 11.752486,6.60340352 C11.5821601,6.85234136 11.4118343,7.06197321 11.2415084,7.2322991 C11.0711825,7.40262498 10.9860196,7.58605286 10.9860196,7.78258272 Z" id="路径"></path>
                </g>
            </g>
        </g>
    </g>
</svg>