<svg xmlns="http://www.w3.org/2000/svg" xmlns:xlink="http://www.w3.org/1999/xlink" width="467" height="269" version="1.1" viewBox="0 0 467 269"><title>编组 3</title><desc>Created with Sketch.</desc><g id="页面1" fill="none" fill-rule="evenodd" stroke="none" stroke-width="1"><g id="编组-3"><rect id="矩形" width="467" height="269" x="0" y="0" fill="#FFF"/><g id="编组-4" transform="translate(38.000000, 26.000000)"><g id="编组" fill="#979797" fill-rule="nonzero"><path id="直线" d="M376,218 L0,218 L0,216 L376,216 L376,210 L390,217 L376,224 L376,218 Z"/><path id="直线-2" d="M2,14.5 L2,218 L0,218 L0,14.5 L-6,14.5 L1,0.5 L8,14.5 L2,14.5 Z"/></g><g id="编组-2" fill="#D8D8D8" stroke="#979797" transform="translate(66.000000, 48.000000)"><circle id="椭圆形" cx="7.5" cy="14.5" r="7.5"/><circle id="椭圆形" cx="31.5" cy="25.5" r="7.5"/><circle id="椭圆形" cx="7.5" cy="50.5" r="7.5"/><circle id="椭圆形" cx="59.5" cy="45.5" r="7.5"/><circle id="椭圆形" cx="39.5" cy="60.5" r="7.5"/><circle id="椭圆形" cx="46.5" cy="7.5" r="7.5"/><circle id="椭圆形" cx="16.5" cy="32.5" r="7.5"/><circle id="椭圆形" cx="40.5" cy="43.5" r="7.5"/><circle id="椭圆形" cx="16.5" cy="68.5" r="7.5"/><circle id="椭圆形" cx="68.5" cy="63.5" r="7.5"/><circle id="椭圆形" cx="48.5" cy="78.5" r="7.5"/><circle id="椭圆形" cx="55.5" cy="25.5" r="7.5"/></g><g id="编组-2" fill="#D8D8D8" stroke="#979797" transform="translate(243.000000, 119.000000) rotate(50.000000) translate(-243.000000, -119.000000) translate(190.000000, 71.000000)"><circle id="椭圆形" cx="22.5" cy="23.5" r="7.5"/><circle id="椭圆形" cx="54.277" cy="34.143" r="7.5"/><circle id="椭圆形" cx="7.679" cy="69.451" r="7.5"/><circle id="椭圆形" cx="74.5" cy="54.5" r="7.5"/><circle id="椭圆形" cx="54.5" cy="69.5" r="7.5"/><circle id="椭圆形" cx="48.475" cy="8.388" r="7.5"/><circle id="椭圆形" cx="15.076" cy="40.412" r="7.5"/><circle id="椭圆形" cx="43.57" cy="57.794" r="7.5"/><circle id="椭圆形" cx="31.5" cy="77.5" r="7.5"/><circle id="椭圆形" cx="98.065" cy="72.191" r="7.5"/><circle id="椭圆形" cx="63.5" cy="87.5" r="7.5"/><circle id="椭圆形" cx="78.993" cy="32.691" r="7.5"/></g></g></g></g></svg>