<svg xmlns="http://www.w3.org/2000/svg" xmlns:xlink="http://www.w3.org/1999/xlink" width="120" height="120" version="1.1" viewBox="0 0 120 120"><title>logo-lite-white</title><desc>Created with Sketch.</desc><g id="页面-1" fill="none" fill-rule="evenodd" stroke="none" stroke-width="1"><g id="logo-lite-white" fill-rule="nonzero"><circle id="椭圆形" cx="60" cy="60" r="60" fill="#F1F1F6"/><g id="logo-lite" fill="#4A4A4A" transform="translate(14.000000, 44.000000)"><path id="形状" d="M1.09885259,15.2841855 L0.90476333,16.4359239 L39.7418097,43.8440992 L39.0123753,42.0706353 L1.09885259,15.2841855 Z M1.65979186,11.9708047 L1.47956612,13.0382956 L37.5471081,38.509844 L36.8230059,36.7481108 L1.65979186,11.9708047 Z M43.4892252,30.3058406 L43.3559222,31.3626672 L71.1181505,26.5850856 L71.5500524,26.0817332 L69.9621462,25.7767359 L43.4892252,30.3058406 Z M61.7357481,24.199494 L43.8646067,27.2931914 L43.7313036,28.3585495 L64.5895,24.7476362 L61.7357481,24.199494 Z M53.2395443,22.568931 L44.2602501,24.12911 L44.126947,25.1934017 L56.095429,23.1170732 L53.2395443,22.568931 Z M44.6612257,20.9234381 L44.5353876,21.9269435 L47.3219548,21.4342554 L44.6612257,20.9234381 Z M32.1488674,25.3874909 L21.5347447,17.8798627 L18.2928143,16.8464973 L32.8793682,27.1652205 L32.1488674,25.3874909 Z M10.5580376,14.3841232 L7.30970871,13.3486251 L35.3278788,33.1148026 L34.5995109,31.3456044 L10.5580376,14.3841232 Z"/><path id="形状" d="M85.6097924,0.49074526 L85.6097924,7.94078662 L11.5050226,2.93179087 L2.51506428,6.91275343 L1.83895117,10.7977378 L30.7699806,20.013778 L40.9170094,44.6737774 L43.9989761,20.013778 L72.1259214,25.4066866 L96.1428671,8.32576586 L85.6097924,0.49074526 Z M11.5519452,12.6127922 L10.6582815,12.298197 L10.4844543,11.366142 L11.2032244,10.7497487 L12.0979546,11.0643439 L12.2717818,11.9963989 L11.5519452,12.6127922 Z"/></g></g></g></svg>