<svg xmlns="http://www.w3.org/2000/svg" width="1276" height="282" fill="none" viewBox="0 0 1276 282"><g clip-path="url(#clip0_201_39)"><rect width="1276" height="282" fill="#2E7EEE"/><circle cx="1275.5" cy="422.5" r="422.5" fill="url(#paint0_linear_201_39)" fill-opacity=".6"/><circle cx="825.5" cy="110.5" r="99.5" fill="url(#paint1_linear_201_39)" fill-opacity=".5"/><path fill="#fff" d="M520.678 171H523.078V141.84H520.678V171ZM537.776 171H540.216V143.88H549.416V141.84H528.616V143.88H537.776V171ZM581.883 143.76C581.363 142.04 579.963 139.4 578.563 137.4L576.883 138C578.243 140 579.643 142.72 580.122 144.48L581.883 143.76ZM565.003 146.28H594.443V151.92H596.323V144.52H589.283C590.723 142.84 592.283 140.64 593.563 138.72L591.723 137.92C590.683 139.88 588.763 142.68 587.243 144.52H570.283L571.683 143.68C571.003 142.16 569.283 139.8 567.723 138.08L566.123 138.84C567.643 140.56 569.283 142.92 570.043 144.52H563.163V151.92H565.003V146.28ZM597.163 160.24H580.443V158.04C584.123 156.52 588.203 154.28 590.803 151.92L589.523 150.92L589.083 151.04H568.563V152.8H586.923C584.603 154.44 581.363 156.12 578.523 157.12V160.24H562.163V162.04H578.523V171.24C578.523 171.8 578.363 172 577.523 172.08C576.723 172.16 574.203 172.16 570.763 172.08C571.123 172.64 571.523 173.36 571.683 173.92C575.443 173.92 577.603 173.92 578.843 173.6C580.043 173.24 580.443 172.64 580.443 171.24V162.04H597.163V160.24ZM628.163 158.24C619.323 161.2 609.803 164.36 604.083 166.16L604.763 168.12C610.843 166.08 620.083 162.96 628.523 160.04L628.163 158.24ZM609.123 148.12C612.923 150.68 617.763 154.32 620.083 156.64L621.483 155.12C619.043 152.88 614.203 149.36 610.403 146.88L609.123 148.12ZM634.603 140.96H604.603V142.76H632.723C632.443 162.68 632.003 169.84 630.803 171.24C630.403 171.76 629.923 171.88 629.243 171.84C628.283 171.84 625.883 171.84 623.203 171.64C623.563 172.16 623.763 172.92 623.803 173.52C625.963 173.64 628.363 173.72 629.763 173.64C631.043 173.56 631.803 173.2 632.563 172.2C634.003 170.28 634.323 163.6 634.603 142.16V140.96ZM660.643 159.68C662.963 158.24 665.243 156.44 667.323 154.32C669.123 156.28 671.283 158.16 673.723 159.68H660.643ZM661.563 170.56V161.44H673.083V170.56H661.563ZM663.082 143.68H672.123C670.923 146.6 669.243 149.28 667.243 151.64C665.283 149.28 663.763 146.76 662.683 144.44L663.082 143.68ZM654.083 149.4H645.203V141.2H654.083V149.4ZM673.323 141.84L672.923 141.92H663.923C664.443 140.68 664.963 139.4 665.403 138.12L663.523 137.64C661.923 142.72 659.203 147.44 655.883 150.48V139.48H643.443V151.16H649.123V168.04L645.363 168.96V155.44H643.643V169.36L641.403 169.84L641.803 171.72C645.803 170.76 651.322 169.4 656.723 168L656.523 166.28C654.643 166.72 652.723 167.16 650.883 167.6V159.32H656.283V157.56H650.883V151.16H655.883V150.68C656.363 151 657.043 151.6 657.323 151.88C658.883 150.28 660.403 148.36 661.723 146.16C662.803 148.32 664.283 150.64 666.123 152.88C662.883 156.32 659.003 158.88 655.283 160.36C655.723 160.68 656.243 161.36 656.483 161.84C657.563 161.36 658.683 160.8 659.762 160.2V173.88H661.563V172.36H673.083V173.76H674.963V160.44C675.603 160.76 676.203 161.08 676.883 161.4C677.203 160.88 677.723 160.16 678.123 159.84C674.283 158.24 671.083 155.8 668.483 153C671.043 150.04 673.203 146.52 674.523 142.4L673.323 141.84ZM715.003 142C713.603 140.92 710.923 139.48 708.723 138.68L707.643 139.76C709.843 140.72 712.523 142.16 713.923 143.36L715.003 142ZM685.723 160.6C688.963 156.84 692.203 152.04 695.003 147.24L693.323 146.28C692.523 147.8 691.643 149.36 690.683 150.8L684.643 151.48C687.083 147.92 689.523 143.28 691.363 138.72L689.523 137.84C687.843 142.76 684.883 148.08 684.003 149.44C683.123 150.84 682.443 151.84 681.803 151.96C682.043 152.52 682.323 153.44 682.443 153.88C682.963 153.6 683.883 153.4 689.523 152.6C687.563 155.56 685.723 157.96 684.923 158.84C683.763 160.36 682.763 161.36 682.043 161.52C682.283 162.04 682.603 163 682.643 163.4C683.363 163 684.562 162.68 694.683 160.56C694.603 160.16 694.563 159.4 694.603 158.92L685.723 160.6ZM695.043 165.92C690.163 167.16 685.163 168.44 681.923 169.16L682.363 171.04C685.883 170.12 690.643 168.88 695.283 167.6L695.043 165.92ZM715.563 157.16C713.763 159.96 711.163 162.64 708.163 164.92C707.323 162.48 706.643 159.44 706.203 155.96L717.003 153.92L716.643 152.2L705.963 154.2C705.723 152.28 705.563 150.24 705.403 148.04L715.803 146.52L715.483 144.8L705.323 146.28C705.163 143.56 705.123 140.72 705.123 137.68H703.203C703.243 140.76 703.323 143.72 703.483 146.56L696.923 147.52L697.243 149.28L703.603 148.32C703.763 150.52 703.923 152.6 704.163 154.56L696.123 156.08L696.483 157.8L704.403 156.32C704.923 160.04 705.643 163.32 706.563 166C703.123 168.36 699.163 170.24 695.003 171.56C695.443 172 695.963 172.68 696.243 173.12C700.163 171.8 703.923 169.92 707.243 167.72C708.883 171.56 711.123 173.76 714.123 173.76C716.643 173.76 717.363 172.48 717.723 168.24C717.283 168.08 716.643 167.68 716.243 167.24C716.043 170.96 715.563 171.92 714.323 171.92C712.083 171.92 710.243 170.04 708.763 166.64C712.243 164.08 715.163 161.16 717.203 157.88L715.563 157.16ZM730.803 164.64C736.323 165.28 743.203 166.96 746.923 168.24L747.843 166.68C744.083 165.36 737.123 163.84 731.763 163.2L730.803 164.64ZM734.963 159.56C738.123 160.24 742.043 161.64 744.163 162.72L745.003 161.24C742.923 160.24 738.923 158.92 735.843 158.28L734.963 159.56ZM734.763 147.52H746.123C744.603 149.48 742.403 151.2 739.883 152.68C737.603 151.32 735.683 149.8 734.283 148.08L734.763 147.52ZM747.763 145.8L747.443 145.88H736.203C736.843 145.04 737.483 144.16 738.003 143.28L736.323 142.72C734.283 146.2 730.803 149.4 727.323 151.52C727.763 151.8 728.483 152.4 728.763 152.72C730.243 151.72 731.723 150.56 733.123 149.2C734.483 150.76 736.283 152.28 738.283 153.52C734.563 155.44 730.363 156.84 726.523 157.6C726.883 158 727.323 158.76 727.523 159.2C731.563 158.28 736.003 156.72 739.923 154.52C743.363 156.48 747.403 157.96 751.363 158.8C751.603 158.28 752.083 157.6 752.523 157.24C748.683 156.56 744.803 155.28 741.483 153.56C744.562 151.64 747.203 149.28 748.883 146.52L747.763 145.8ZM725.123 170.36V141.36H753.963V170.36H725.123ZM723.243 139.56V173.96H725.123V172.12H753.963V173.96H755.883V139.56H723.243ZM441.049 230H443.449V200.84H441.049V230ZM458.147 230H460.587V202.88H469.787V200.84H448.987V202.88H458.147V230ZM484.174 230H499.854V227.92H486.574V200.84H484.174V230ZM512.523 230.52C515.603 230.52 517.603 229.52 519.323 228.44L518.443 226.72C516.843 227.84 515.043 228.56 512.763 228.56C508.163 228.56 505.083 224.92 504.963 219.72H520.083C520.163 219.2 520.203 218.64 520.203 218.04C520.203 211.8 517.123 208.12 511.963 208.12C507.123 208.12 502.603 212.44 502.603 219.36C502.603 226.36 507.043 230.52 512.523 230.52ZM504.963 217.88C505.403 213 508.523 210.12 512.003 210.12C515.723 210.12 518.083 212.72 518.083 217.88H504.963ZM529.943 230.52C532.663 230.52 535.223 229.04 537.383 227.28H537.463L537.703 230H539.663V216.48C539.663 211.76 537.863 208.12 532.783 208.12C529.303 208.12 526.343 209.8 524.703 210.92L525.743 212.6C527.223 211.48 529.663 210.16 532.463 210.16C536.503 210.16 537.423 213.44 537.343 216.6C527.943 217.68 523.743 219.92 523.743 224.64C523.743 228.6 526.503 230.52 529.943 230.52ZM530.423 228.56C528.063 228.56 526.063 227.44 526.063 224.52C526.063 221.24 528.943 219.28 537.343 218.32V225.24C534.823 227.44 532.783 228.56 530.423 228.56ZM547.098 230H549.418V215.68C550.978 211.72 553.258 210.32 555.138 210.32C555.978 210.32 556.378 210.4 557.098 210.68L557.578 208.6C556.898 208.24 556.258 208.12 555.418 208.12C552.938 208.12 550.818 209.96 549.378 212.64H549.298L549.018 208.68H547.098V230ZM561.473 230H563.793V214.04C566.273 211.48 568.033 210.2 570.513 210.2C573.793 210.2 575.193 212.24 575.193 216.68V230H577.513V216.36C577.513 210.88 575.473 208.12 571.033 208.12C568.113 208.12 565.913 209.8 563.753 211.92H563.673L563.393 208.68H561.473V230ZM585.184 230H587.504V208.68H585.184V230ZM586.384 203.68C587.424 203.68 588.344 202.92 588.344 201.84C588.344 200.64 587.424 199.92 586.384 199.92C585.304 199.92 584.424 200.64 584.424 201.84C584.424 202.92 585.304 203.68 586.384 203.68ZM595.457 230H597.777V214.04C600.257 211.48 602.017 210.2 604.497 210.2C607.777 210.2 609.177 212.24 609.177 216.68V230H611.497V216.36C611.497 210.88 609.457 208.12 605.017 208.12C602.097 208.12 599.897 209.8 597.737 211.92H597.657L597.377 208.68H595.457V230ZM626.168 240.16C632.408 240.16 636.408 236.64 636.408 232.92C636.408 229.52 634.128 228 629.288 228H624.808C621.728 228 620.808 226.84 620.808 225.32C620.808 223.96 621.568 223.08 622.488 222.36C623.448 222.92 624.768 223.24 625.928 223.24C630.128 223.24 633.448 220.12 633.448 215.72C633.448 213.56 632.528 211.72 631.248 210.6H636.048V208.68H628.768C628.088 208.4 627.088 208.12 625.928 208.12C621.728 208.12 618.288 211.24 618.288 215.68C618.288 218.24 619.648 220.36 621.008 221.48V221.64C620.048 222.36 618.648 223.76 618.648 225.6C618.648 227.28 619.488 228.4 620.568 229.04V229.24C618.608 230.56 617.368 232.44 617.368 234.32C617.368 237.92 620.848 240.16 626.168 240.16ZM625.928 221.48C623.088 221.48 620.608 219.16 620.608 215.68C620.608 212.16 623.008 210 625.928 210C628.808 210 631.208 212.16 631.208 215.68C631.208 219.16 628.728 221.48 625.928 221.48ZM626.448 238.4C622.088 238.4 619.568 236.64 619.568 234.04C619.568 232.6 620.368 231.04 622.208 229.76C623.288 230 624.408 230.12 624.888 230.12H629.248C632.408 230.12 634.088 230.96 634.088 233.24C634.088 235.8 631.088 238.4 626.448 238.4ZM652.394 202.84H657.954C662.994 202.84 665.794 204.4 665.794 208.64C665.794 212.84 662.994 214.84 657.954 214.84H652.394V202.84ZM668.834 230L660.954 216.64C665.394 215.96 668.234 213.28 668.234 208.64C668.234 202.96 664.314 200.84 658.514 200.84H649.994V230H652.394V216.84H658.354L666.114 230H668.834ZM681.54 230.52C686.7 230.52 691.18 226.44 691.18 219.36C691.18 212.24 686.7 208.12 681.54 208.12C676.38 208.12 671.9 212.24 671.9 219.36C671.9 226.44 676.38 230.52 681.54 230.52ZM681.54 228.52C677.38 228.52 674.34 224.8 674.34 219.36C674.34 213.92 677.38 210.16 681.54 210.16C685.7 210.16 688.78 213.92 688.78 219.36C688.78 224.8 685.7 228.52 681.54 228.52ZM701.466 230.52C704.186 230.52 706.746 229.04 708.906 227.28H708.986L709.226 230H711.186V216.48C711.186 211.76 709.386 208.12 704.306 208.12C700.826 208.12 697.866 209.8 696.226 210.92L697.266 212.6C698.746 211.48 701.186 210.16 703.986 210.16C708.026 210.16 708.946 213.44 708.866 216.6C699.466 217.68 695.266 219.92 695.266 224.64C695.266 228.6 698.026 230.52 701.466 230.52ZM701.946 228.56C699.586 228.56 697.586 227.44 697.586 224.52C697.586 221.24 700.466 219.28 708.866 218.32V225.24C706.346 227.44 704.306 228.56 701.946 228.56ZM725.701 230.52C728.461 230.52 730.821 229.04 732.541 227.32H732.621L732.901 230H734.821V198.2H732.501V206.88L732.661 210.72C730.581 209.08 728.861 208.12 726.301 208.12C721.261 208.12 716.861 212.48 716.861 219.36C716.861 226.52 720.341 230.52 725.701 230.52ZM726.101 228.48C721.781 228.48 719.341 224.88 719.341 219.36C719.341 214.12 722.461 210.16 726.541 210.16C728.541 210.16 730.341 210.88 732.501 212.8V225.12C730.381 227.32 728.381 228.48 726.101 228.48ZM742.84 230H745.16V214.04C747.4 211.48 749.44 210.2 751.32 210.2C754.48 210.2 755.92 212.24 755.92 216.68V230H758.24V214.04C760.52 211.48 762.48 210.2 764.4 210.2C767.52 210.2 769 212.24 769 216.68V230H771.32V216.36C771.32 210.88 769.2 208.12 764.92 208.12C762.44 208.12 760.12 209.84 757.72 212.44C756.96 209.84 755.24 208.12 751.84 208.12C749.44 208.12 747.04 209.8 745.12 211.92H745.04L744.76 208.68H742.84V230ZM783.732 230.52C786.452 230.52 789.012 229.04 791.172 227.28H791.252L791.492 230H793.452V216.48C793.452 211.76 791.652 208.12 786.572 208.12C783.092 208.12 780.132 209.8 778.492 210.92L779.532 212.6C781.012 211.48 783.452 210.16 786.252 210.16C790.292 210.16 791.212 213.44 791.132 216.6C781.732 217.68 777.532 219.92 777.532 224.64C777.532 228.6 780.292 230.52 783.732 230.52ZM784.212 228.56C781.852 228.56 779.852 227.44 779.852 224.52C779.852 221.24 782.732 219.28 791.132 218.32V225.24C788.612 227.44 786.572 228.56 784.212 228.56ZM800.887 239.52H803.207V231.84L803.167 227.92C805.327 229.6 807.447 230.52 809.447 230.52C814.447 230.52 818.847 226.28 818.847 219C818.847 212.44 815.967 208.12 810.287 208.12C807.687 208.12 805.247 209.68 803.167 211.28H803.087L802.807 208.68H800.887V239.52ZM809.247 228.48C807.687 228.48 805.487 227.8 803.207 225.88V213.56C805.687 211.36 807.807 210.16 809.847 210.16C814.607 210.16 816.367 213.88 816.367 219C816.367 224.72 813.407 228.48 809.247 228.48ZM830.345 230.52C835.065 230.52 837.665 227.72 837.665 224.44C837.665 220.32 834.065 219.16 830.785 217.92C828.305 217 825.825 216.12 825.825 213.76C825.825 211.84 827.265 210.08 830.425 210.08C832.505 210.08 834.065 210.92 835.505 212L836.705 210.4C835.105 209.12 832.825 208.12 830.505 208.12C826.025 208.12 823.505 210.76 823.505 213.88C823.505 217.56 827.025 218.88 830.185 220C832.665 220.88 835.345 222.04 835.345 224.56C835.345 226.76 833.705 228.6 830.465 228.6C827.545 228.6 825.585 227.48 823.745 225.92L822.505 227.6C824.425 229.2 827.225 230.52 830.345 230.52Z"/><path fill="#fff" fill-rule="evenodd" d="M527.323 56.5806C531.349 59.7195 533.942 64.6033 533.949 70.0967H536.31C536.307 64.1765 534.161 58.7588 530.612 54.5638C529.437 55.1141 528.335 55.7913 527.323 56.5806Z" clip-rule="evenodd"/><mask id="mask0_201_39" width="49" height="25" x="509" y="46" maskUnits="userSpaceOnUse" style="mask-type:alpha"><path fill="#fff" d="M509.135 46H557.447V70.0965H509.135V46Z"/></mask><g mask="url(#mask0_201_39)"><path fill="#fff" fill-rule="evenodd" d="M518.535 51.0243C517.757 51.6241 517.016 52.2717 516.317 52.962C511.888 57.3285 509.142 63.392 509.135 70.0965H520.699C520.705 64.6031 523.297 59.7193 527.322 56.5804C528.336 55.7928 529.436 55.1139 530.611 54.5636C532.822 53.5305 535.289 52.9505 537.892 52.9505C547.382 52.9505 555.075 60.6255 555.085 70.0965H557.447C557.436 56.7864 546.627 45.9988 533.292 45.9988C529.501 45.9988 525.915 46.8721 522.724 48.4259C522.425 48.5709 522.132 48.7225 521.84 48.8774C521.259 49.1921 520.694 49.5282 520.142 49.8858C519.59 50.2433 519.054 50.6239 518.535 51.0243Z" clip-rule="evenodd"/></g><mask id="mask1_201_39" width="34" height="25" x="488" y="46" maskUnits="userSpaceOnUse" style="mask-type:alpha"><path fill="#fff" d="M488 46H521.2V70.0975H488V46Z"/></mask><g mask="url(#mask1_201_39)"><path fill="#fff" fill-rule="evenodd" d="M521.2 47.7563C518.405 46.6277 515.355 45.9999 512.154 45.9999C498.819 45.9999 488.008 56.7858 488 70.0976H499.562C499.572 61.4306 506.016 54.2763 514.38 53.1229C514.713 52.7538 515.054 52.3913 515.41 52.042C517.136 50.3383 519.079 48.9015 521.2 47.7563Z" clip-rule="evenodd"/></g><path fill="#fff" fill-rule="evenodd" d="M518.535 51.0244C519.054 50.624 519.59 50.2434 520.142 49.8858C519.59 50.2434 519.054 50.624 518.535 51.0244Z" clip-rule="evenodd"/><path fill="#fff" fill-rule="evenodd" d="M512.126 94.23C515.415 94.23 518.549 93.5742 521.407 92.3879H502.849C505.706 93.5742 508.839 94.23 512.126 94.23Z" clip-rule="evenodd"/><path fill="#fff" fill-rule="evenodd" d="M500.396 75.5228H488.555C488.77 76.4488 489.038 77.3517 489.355 78.2349H501.572C501.106 77.3715 500.709 76.4653 500.396 75.5228Z" clip-rule="evenodd"/><path fill="#fff" fill-rule="evenodd" d="M518.712 89.377H497.582C498.464 90.0377 499.39 90.6457 500.358 91.1845H521.494C520.525 90.6441 519.595 90.0394 518.712 89.377Z" clip-rule="evenodd"/><path fill="#fff" fill-rule="evenodd" d="M502.288 79.4392H489.822C490.215 80.3735 490.667 81.278 491.169 82.1497H504.47C503.654 81.3242 502.924 80.4147 502.288 79.4392Z" clip-rule="evenodd"/><path fill="#fff" fill-rule="evenodd" d="M516.256 87.2643C514.495 87.2165 512.801 86.9018 511.21 86.3646H494.268C494.848 86.999 495.459 87.6037 496.105 88.1722H517.237C516.902 87.8772 516.573 87.5757 516.256 87.2643Z" clip-rule="evenodd"/><path fill="#fff" fill-rule="evenodd" d="M505.789 83.3527H491.921C492.331 83.9771 492.771 84.5802 493.236 85.1618H508.462C507.513 84.6412 506.618 84.0348 505.789 83.3527Z" clip-rule="evenodd"/><path fill="#fff" fill-rule="evenodd" d="M533.084 82.149C533.588 81.279 534.038 80.3744 534.43 79.4385H531.18C530.544 80.4156 529.811 81.3235 528.996 82.149H533.084Z" clip-rule="evenodd"/><path fill="#fff" fill-rule="evenodd" d="M527.298 83.6583C528.02 84.2186 528.788 84.7195 529.593 85.161H531.022C531.488 84.5811 531.928 83.9763 532.338 83.3519H527.677C527.552 83.4557 527.427 83.5578 527.298 83.6583Z" clip-rule="evenodd"/><path fill="#fff" fill-rule="evenodd" d="M535.697 75.5228H533.072C532.757 76.4653 532.362 77.3715 531.896 78.2349H534.901C535.216 77.3517 535.484 76.4488 535.697 75.5228Z" clip-rule="evenodd"/><path fill="#fff" fill-rule="evenodd" d="M546.141 85.1612H552.147C552.613 84.5795 553.051 83.9765 553.463 83.352H548.81C547.981 84.0341 547.088 84.6421 546.141 85.1612Z" clip-rule="evenodd"/><path fill="#fff" fill-rule="evenodd" d="M521.494 91.1841H545.023C545.994 90.6453 546.92 90.0389 547.8 89.3765H518.713C519.594 90.0406 520.524 90.6436 521.494 91.1841Z" clip-rule="evenodd"/><path fill="#fff" fill-rule="evenodd" d="M550.128 82.149H554.213C554.717 81.279 555.168 80.3744 555.56 79.4385H552.309C551.673 80.414 550.944 81.3235 550.128 82.149Z" clip-rule="evenodd"/><path fill="#fff" fill-rule="evenodd" d="M537.863 87.2756C535.926 87.2756 534.064 86.9543 532.327 86.3644H515.394C515.675 86.6709 515.96 86.9724 516.257 87.264C516.573 87.5771 516.903 87.877 517.236 88.1719H549.279C549.923 87.6035 550.534 86.9987 551.114 86.3644H543.406C541.666 86.9559 539.803 87.2756 537.863 87.2756Z" clip-rule="evenodd"/><path fill="#fff" fill-rule="evenodd" d="M533.256 94.23C536.545 94.23 539.677 93.5742 542.534 92.3879H523.976C526.835 93.5742 529.967 94.23 533.256 94.23Z" clip-rule="evenodd"/><path fill="#fff" fill-rule="evenodd" d="M526.919 83.3527H513.042C513.454 83.9771 513.896 84.5786 514.362 85.1618H529.593C528.788 84.7186 528.02 84.2177 527.298 83.6591C527.17 83.5586 527.044 83.4548 526.919 83.3527Z" clip-rule="evenodd"/><path fill="#fff" fill-rule="evenodd" d="M521.525 75.5228H509.685C509.899 76.4488 510.168 77.3517 510.484 78.2349H522.702C522.236 77.3715 521.839 76.4653 521.525 75.5228Z" clip-rule="evenodd"/><path fill="#fff" fill-rule="evenodd" d="M525.601 82.149C524.786 81.3235 524.052 80.4156 523.416 79.4385H510.951C511.345 80.3744 511.797 81.279 512.301 82.149H525.601Z" clip-rule="evenodd"/><path fill="#fff" fill-rule="evenodd" d="M556.826 75.5228H554.202C553.887 76.4653 553.491 77.3715 553.025 78.2349H556.027C556.344 77.3517 556.614 76.4488 556.826 75.5228Z" clip-rule="evenodd"/><path fill="#fff" fill-rule="evenodd" d="M765.856 55.8017C765.856 56.3141 765.492 56.7409 765.033 56.7409H760.501C760.04 56.7409 759.678 56.3141 759.678 55.8017V54.0551C759.678 53.546 760.04 53.1159 760.501 53.1159H765.033C765.492 53.1159 765.856 53.546 765.856 54.0551V55.8017ZM765.856 62.6084C765.856 63.134 765.492 63.5294 765.033 63.5294H760.501C760.04 63.5294 759.678 63.134 759.678 62.6084V60.8766C759.678 60.351 760.04 59.9391 760.501 59.9391H765.033C765.492 59.9391 765.856 60.351 765.856 60.8766V62.6084ZM772.958 60.8766C772.958 60.351 773.319 59.9391 773.782 59.9391H778.313C778.758 59.9391 779.137 60.351 779.137 60.8766V62.6084C779.137 63.134 778.758 63.5294 778.313 63.5294H773.782C773.319 63.5294 772.958 63.134 772.958 62.6084V60.8766ZM772.958 54.0551C772.958 53.546 773.319 53.1159 773.782 53.1159H778.313C778.758 53.1159 779.137 53.546 779.137 54.0551V55.8017C779.137 56.3141 778.758 56.7409 778.313 56.7409H773.782C773.319 56.7409 772.958 56.3141 772.958 55.8017V54.0551ZM787.176 69.0179H772.958V66.7441H784.573C785.497 66.7441 786.22 65.9038 786.22 64.8822V51.7829C786.22 50.7597 785.497 49.921 784.573 49.921H754.238C753.317 49.921 752.591 50.7597 752.591 51.7829V64.8822C752.591 65.9038 753.317 66.7441 754.238 66.7441H765.856V69.0179H751.637C751.192 69.0179 750.813 69.4299 750.813 69.939V71.2901C750.813 71.7844 751.192 72.2128 751.637 72.2128H764.209C765.115 72.2128 765.856 73.0548 765.856 74.0764V90.3557C765.856 91.262 766.58 92.0034 767.504 92.0034H771.31C772.215 92.0034 772.958 91.262 772.958 90.3557V74.0764C772.958 73.0548 773.683 72.2128 774.606 72.2128H787.176C787.623 72.2128 788 71.7844 788 71.2901V69.939C788 69.4299 787.623 69.0179 787.176 69.0179ZM643.892 59.9391H641.867C640.959 59.9391 640.219 60.7794 640.219 61.801V68.0606L645.539 67.5515V61.801C645.539 60.7794 644.798 59.9391 643.892 59.9391ZM640.219 71.1583V86.7967C640.219 87.8183 640.959 88.6569 641.867 88.6569H643.892C644.798 88.6569 645.539 87.8183 645.539 86.7967V71.0611L640.219 71.1583ZM611.137 87.8182C611.137 88.3274 610.774 88.7393 610.313 88.7393H605.583C605.123 88.7393 604.759 88.3274 604.759 87.8182V81.2752C604.759 80.7644 605.123 80.3377 605.583 80.3377H610.313C610.774 80.3377 611.137 80.7644 611.137 81.2752V87.8182ZM598.367 87.8182C598.367 88.3274 598.005 88.7393 597.543 88.7393H592.813C592.353 88.7393 591.989 88.3274 591.989 87.8182V81.2752C591.989 80.7644 592.353 80.3377 592.813 80.3377H597.543C598.005 80.3377 598.367 80.7644 598.367 81.2752V87.8182ZM585.598 87.8182C585.598 88.3274 585.235 88.7393 584.774 88.7393H580.043C579.583 88.7393 579.219 88.3274 579.219 87.8182V81.2752C579.219 80.7644 579.583 80.3377 580.043 80.3377H584.774C585.235 80.3377 585.598 80.7644 585.598 81.2752V87.8182ZM620.249 88.7393H618.352C617.893 88.7393 617.528 88.3274 617.528 87.8182V79.0195C617.528 77.9798 616.789 77.156 615.881 77.156H574.475C573.569 77.156 572.828 77.9798 572.828 79.0195V87.8182C572.828 88.3274 572.465 88.7393 572.004 88.7393H570.109C569.648 88.7393 569.285 89.1677 569.285 89.6802V91.0132C569.285 91.5256 569.648 91.9523 570.109 91.9523H620.249C620.71 91.9523 621.073 91.5256 621.073 91.0132V89.6802C621.073 89.1677 620.71 88.7393 620.249 88.7393ZM740.531 71.1583L740.365 90.1069C740.35 91.1614 741.091 92.0034 742.013 92.0034H746.049C746.956 92.0034 747.697 91.1614 747.697 90.1415V71.043L740.531 71.1583ZM746.873 59.9556H737.022C736.575 59.9556 736.198 60.3823 736.198 60.8947V62.2277C736.198 62.7567 736.575 63.1686 737.022 63.1686H739.773C740.233 63.1686 740.597 63.5953 740.597 64.0896L740.563 68.0771L747.697 67.3851V60.8947C747.697 60.3823 747.32 59.9556 746.873 59.9556ZM727.432 88.7393L722.637 73.9759C722.406 73.2344 721.78 72.7401 721.088 72.7401H717.513C716.359 72.7401 715.567 74.0418 715.964 75.2627L719.523 86.2513C719.918 87.4541 719.128 88.7393 717.973 88.7393H695.417C694.28 88.7393 693.489 87.4722 693.868 86.2678L697.262 75.3122L690.144 75.4259L686.009 88.7393L685.776 89.5319C685.447 90.7166 686.239 91.9523 687.358 91.9523H726.079C727.183 91.9523 727.976 90.733 727.646 89.5319L727.432 88.7393ZM729.953 63.9414H681.823C681.377 63.9414 681 64.3533 681 64.8822V66.2152C681 66.7276 681.377 67.156 681.823 67.156H690.39C691.528 67.156 692.319 68.4231 691.94 69.6276L691.182 72.0645L698.48 71.4071L699.421 68.3753C699.65 67.6339 700.276 67.156 700.986 67.156H729.953C730.413 67.156 730.777 66.7276 730.777 66.2152V64.8822C730.777 64.3533 730.413 63.9414 729.953 63.9414ZM628.982 59.9391H626.97C626.049 59.9391 625.322 60.7794 625.322 61.801V69.5106L630.629 69.0179V61.801C630.629 60.7794 629.886 59.9391 628.982 59.9391ZM625.322 71.4071V86.7967C625.322 87.8183 626.049 88.6569 626.97 88.6569H628.982C629.886 88.6569 630.629 87.8183 630.629 86.7967V71.3066L625.322 71.4071ZM676.32 70.9952L666.104 62.2788H676.221C676.666 62.2788 677.045 61.8669 677.045 61.3545V60.005C677.045 59.509 676.666 59.0806 676.221 59.0806H667.472C666.564 59.0806 665.824 58.2403 665.824 57.2187V55.3568C665.824 54.3204 666.564 53.4966 667.472 53.4966H673.931C674.374 53.4966 674.755 53.0681 674.755 52.5557V51.2227C674.755 50.6938 674.374 50.2819 673.931 50.2819H651.24C650.797 50.2819 650.417 50.6938 650.417 51.2227V52.5557C650.417 53.0681 650.797 53.4966 651.24 53.4966H657.619C658.523 53.4966 659.266 54.3204 659.266 55.3568V57.2187C659.266 58.2403 658.523 59.0806 657.619 59.0806H648.835C648.392 59.0806 648.011 59.509 648.011 60.005V61.3545C648.011 61.8669 648.392 62.2788 648.835 62.2788H659.579L648.803 71.5554C648.309 71.8849 648.011 72.4765 648.011 73.1207V75.2776L651.077 73.0202C651.621 72.6083 652.363 73.0696 652.344 73.8276L652.064 90.0328C652.049 91.0873 652.791 91.9458 653.712 91.9458H656.118C656.993 91.9458 657.734 91.1532 657.765 90.1498L658.476 68.489L659.413 67.797L662.428 65.7225C662.694 65.5231 663.023 65.5231 663.287 65.7225L667.174 68.4577L667.884 68.9833V90.0921C667.884 91.1137 668.624 91.9523 669.532 91.9523H671.558C672.463 91.9523 673.206 91.1137 673.206 90.0921V73.9264C673.206 73.2179 673.882 72.7747 674.425 73.1207L677.111 74.7338V72.5918C677.111 71.9327 676.814 71.3247 676.32 70.9952ZM644.716 54.3352H639.741C638.835 54.3352 638.093 53.4966 638.093 52.4733V49.7892C638.093 48.766 637.352 47.9273 636.446 47.9273H634.417C633.513 47.9273 632.77 48.766 632.77 49.7892V52.4733C632.77 53.4966 632.03 54.3352 631.122 54.3352H626.146C625.686 54.3352 625.322 54.7472 625.322 55.2596V56.6091C625.322 57.1034 625.686 57.5334 626.146 57.5334H631.122C632.03 57.5334 632.77 58.3573 632.77 59.3953V68.7873L638.093 68.2748V59.3953C638.093 58.3573 638.835 57.5334 639.741 57.5334H644.716C645.162 57.5334 645.539 57.1034 645.539 56.6091V55.2596C645.539 54.7472 645.162 54.3352 644.716 54.3352ZM632.77 71.2753V90.0575C632.77 91.0972 633.513 91.921 634.417 91.921H636.446C637.352 91.921 638.093 91.0972 638.093 90.0575V71.1929L632.77 71.2753ZM588.201 60.7283H584.395C583.488 60.7283 582.747 61.5687 582.747 62.5902V73.2838C582.747 74.3054 583.488 75.1457 584.395 75.1457H588.201C589.105 75.1457 589.849 74.3054 589.849 73.2838V62.5902C589.849 61.5687 589.105 60.7283 588.201 60.7283ZM595.171 71.1929V73.5986L618.42 72.8571V70.4663L595.171 71.1929ZM577.557 62.3925H573.75C572.844 62.3925 572.103 63.2345 572.103 64.2725V71.6872C572.103 72.7088 572.844 73.5491 573.75 73.5491H577.557C578.463 73.5491 579.204 72.7088 579.204 71.6872V64.2725C579.204 63.2345 578.463 62.3925 577.557 62.3925ZM605.288 65.9516C603.623 65.9862 602.272 64.4703 602.272 62.5902C602.272 61.5687 601.547 60.7283 600.625 60.7283H596.818C595.896 60.7283 595.171 61.5522 595.171 62.5902V69.593L618.42 68.1941V65.7884L605.288 65.9516ZM620.249 51.9296H613.493C612.585 51.9296 611.845 51.0909 611.845 50.0693V49.7892C611.845 48.766 611.104 47.9273 610.198 47.9273H606.392C605.485 47.9273 604.744 48.766 604.744 49.7892C604.744 50.9739 603.902 51.9296 602.865 51.9296H587.229C586.322 51.9296 585.581 51.0909 585.581 50.0693V49.7892C585.581 48.766 584.856 47.9273 583.933 47.9273H580.144C579.219 47.9273 578.496 48.766 578.496 49.7892C578.496 50.9739 577.639 51.9296 576.601 51.9296H570.091C569.631 51.9296 569.267 52.3415 569.267 52.8704V54.2034C569.267 54.7159 569.631 55.1443 570.091 55.1443H576.848C577.754 55.1443 578.496 55.9516 578.496 57.0045V57.2533C578.496 58.3078 579.219 59.1152 580.144 59.1152H583.933C584.856 59.1152 585.581 58.3078 585.581 57.2533C585.581 56.0834 586.438 55.1443 587.476 55.1443H603.096C604.019 55.1443 604.744 55.9516 604.744 57.0045V57.2533C604.744 58.3078 605.485 59.1152 606.392 59.1152H610.198C611.104 59.1152 611.845 58.3078 611.845 57.2533C611.845 56.0834 612.702 55.1443 613.74 55.1443H620.249C620.71 55.1443 621.073 54.7159 621.073 54.2034V52.8704C621.073 52.3415 620.71 51.9296 620.249 51.9296ZM747.056 54.4835L745.689 49.2603C745.474 48.4875 744.83 47.9421 744.107 47.9421H740.449C739.345 47.9421 738.554 49.1631 738.884 50.3478L740.251 55.5397C740.465 56.3454 741.106 56.8892 741.833 56.8892H745.491C746.595 56.8892 747.386 55.6715 747.056 54.4835ZM724.202 51.9296H687.572C687.129 51.9296 686.748 52.3415 686.748 52.8704V54.2034C686.748 54.7159 687.129 55.1443 687.572 55.1443H724.202C724.664 55.1443 725.026 54.7159 725.026 54.2034V52.8704C725.026 52.3415 724.664 51.9296 724.202 51.9296Z" clip-rule="evenodd"/><path fill="#fff" fill-rule="evenodd" d="M761.333 77.2364L760.589 88.1179C760.44 88.8939 759.761 89.4558 758.969 89.4558H755.23C754.197 89.4558 753.418 88.5149 753.61 87.5L754.359 76.6185C754.505 75.8408 755.186 75.2806 755.975 75.2806H759.717C760.75 75.2806 761.528 76.2214 761.333 77.2364Z" clip-rule="evenodd"/><path fill="#fff" fill-rule="evenodd" d="M784.393 76.4463L784.912 87.3277C785.235 88.3856 784.443 89.4566 783.335 89.4566H779.687C778.961 89.4566 778.32 88.9804 778.11 88.2884L777.591 77.4069C777.268 76.3474 778.059 75.2797 779.167 75.2797H782.816C783.541 75.2797 784.181 75.7526 784.393 76.4463Z" clip-rule="evenodd"/><circle cx="150" cy="200" r="281" fill="url(#paint2_linear_201_39)"/></g><defs><linearGradient id="paint0_linear_201_39" x1="1275.5" x2="1275.5" y1="0" y2="845" gradientUnits="userSpaceOnUse"><stop stop-color="#006AFF"/><stop offset="1" stop-color="#2E7EEE"/></linearGradient><linearGradient id="paint1_linear_201_39" x1="825.5" x2="825.5" y1="11" y2="210" gradientUnits="userSpaceOnUse"><stop stop-color="#38F"/><stop offset="1" stop-color="#1774F7"/></linearGradient><linearGradient id="paint2_linear_201_39" x1="115.548" x2="150" y1="-81" y2="481" gradientUnits="userSpaceOnUse"><stop stop-color="#006AFF" stop-opacity=".76"/><stop offset="1" stop-color="#2E7EEE" stop-opacity="0"/></linearGradient><clipPath id="clip0_201_39"><rect width="1276" height="282" fill="#fff"/></clipPath></defs></svg>