<svg xmlns="http://www.w3.org/2000/svg" xmlns:xlink="http://www.w3.org/1999/xlink" width="200" height="146" version="1.1" viewBox="0 0 200 146"><title>undraw_upgrade_06a0</title><desc>Created with Sketch.</desc><g id="页面-1" fill="none" fill-rule="evenodd" stroke="none" stroke-width="1"><g id="undraw_upgrade_06a0"><path id="路径" fill="#FFC107" d="M186.714822,69.3939962 C186.825516,68.1238274 186.883677,66.8330206 186.883677,65.5290807 C186.883677,45.1106942 173.030019,28.5572233 155.941839,28.5572233 C150.500938,28.5572233 145.371482,30.2457786 140.932458,33.2007505 C128.836773,23.8198874 113.045028,18.15197 95.7692308,18.15197 C67.6585366,18.15197 43.478424,33.1744841 32.750469,54.7185741 C32.1557223,54.6772983 31.5553471,54.6547842 30.9493433,54.6547842 C13.8517824,54.6547842 0,71.206379 0,91.6247655 C0,99.1294559 1.87617261,106.114447 5.09193246,111.945591 C5.09193246,130.315197 19.8105066,145.212008 37.9662289,145.212008 L60.8555347,145.212008 L60.956848,145.037523 C62.3020638,142.853659 65.5234522,142.307692 67.7673546,143.547842 C68.3602251,143.874296 68.9118199,144.298311 69.5741088,144.448405 C72.2251407,145.011257 74.0056285,140.746717 76.6885553,141.161351 C78.0356473,141.369606 79.0863039,142.761726 80.4409006,142.619137 C81.3395872,142.523452 82.0206379,141.771107 82.8649156,141.452158 C84.217636,140.938086 85.5891182,141.651032 86.5365854,142.80863 C87.0863039,141.227017 87.0825516,139.35272 87.9718574,137.902439 C89.3170732,135.718574 92.5384615,135.172608 94.782364,136.412758 C95.3752345,136.739212 95.9268293,137.163227 96.5891182,137.313321 C99.2401501,137.876173 101.020638,133.611632 103.703565,134.026266 C105.050657,134.234522 106.101313,135.626642 107.45591,135.484053 C108.354597,135.388368 109.035647,134.636023 109.879925,134.317073 C111.984991,133.515947 114.140713,135.690432 114.658537,137.881801 C114.859182,138.847308 114.965374,139.830053 114.97561,140.816135 C116.791745,139.93621 118.326454,137.461538 120.399625,137.782364 C121.746717,137.990619 122.797373,139.382739 124.15197,139.24015 C125.050657,139.144465 125.731707,138.39212 126.575985,138.073171 C128.681051,137.272045 130.836773,139.446529 131.354597,141.637899 C131.630394,142.801126 131.649156,144.009381 131.69606,145.202627 L169.622889,145.202627 C183.881801,145.202627 195.435272,133.510319 195.435272,119.086304 C198.32833,113.457786 200,106.838649 200,99.750469 C200,87.1801126 194.746717,76.0731707 186.714822,69.3939962 Z" opacity=".1"/><circle id="椭圆形" cx="116.886" cy="33.583" r="16.323" fill="#FFC107"/><path id="形状" fill="#FFF" fill-rule="nonzero" d="M138.371482,75.272045 C137.9188,72.93922 136.038725,71.1487946 133.686582,70.8105393 C131.334439,70.4722839 129.026032,71.6603751 127.934334,73.7711069 C125.575189,74.0280729 123.828704,76.0847872 123.957465,78.4543898 C124.086226,80.8239925 126.045288,82.6793523 128.418386,82.6791745 L138.110694,82.6791745 C140.163379,82.673026 141.827329,81.0132628 141.838649,78.9606004 C141.845938,77.0053975 140.323396,75.3856373 138.371482,75.272045 Z M134.084428,77.4709193 L134.084428,80.2964353 L131.707317,80.2964353 L131.707317,77.4634146 L129.165103,77.4634146 L132.893058,73.7354597 L136.619137,77.4634146 L134.084428,77.4709193 Z"/><path id="形状" fill="#FFF" fill-rule="nonzero" d="M166.889306,121.613508 C166.436624,119.280683 164.556549,117.490258 162.204406,117.152003 C159.852263,116.813747 157.543856,118.001838 156.452158,120.11257 C154.093013,120.369536 152.346528,122.426251 152.475289,124.795853 C152.60405,127.165456 154.563112,129.020816 156.93621,129.020638 L166.628518,129.020638 C168.681202,129.014489 170.345153,127.354726 170.356473,125.302064 C170.363761,123.346861 168.84122,121.727101 166.889306,121.613508 Z M162.602251,123.812383 L162.602251,126.637899 L160.225141,126.637899 L160.225141,123.804878 L157.682927,123.804878 L161.410882,120.076923 L165.136961,123.804878 L162.602251,123.812383 Z"/><path id="形状" fill="#FFF" fill-rule="nonzero" d="M61.8105066,88.1763602 C61.1041248,84.5736234 58.1957998,81.8121232 54.5613314,81.293155 C50.9268631,80.7741867 47.3618903,82.6113601 45.6754221,85.8724203 C42.0315017,86.2726608 39.3356325,89.450861 39.5351638,93.1112621 C39.7346951,96.7716631 42.7600563,99.6379947 46.4258912,99.6397749 L61.4071295,99.6397749 C64.5853908,99.6294665 67.1587408,97.0544399 67.1669794,93.8761726 C67.1771637,90.8557464 64.8257448,88.3536061 61.8105066,88.1763602 Z M55.1857411,91.5722326 L55.1857411,95.9512195 L51.4990619,95.9512195 L51.4990619,91.5722326 L47.5816135,91.5722326 L53.3433396,85.8123827 L59.0994371,91.5722326 L55.1857411,91.5722326 Z"/><polygon id="路径" fill="#FFF" points="126.266 103.186 126.266 98.627 128.368 100.728 128.893 100.184 125.891 97.182 122.889 100.184 123.415 100.709 125.516 98.627 125.516 103.186"/><polygon id="路径" fill="#FFF" points="21.388 109.377 21.388 104.818 23.49 106.919 24.015 106.375 21.013 103.373 18.011 106.375 18.537 106.901 20.638 104.818 20.638 109.377"/><polygon id="路径" fill="#FFF" points="126.079 60.221 126.079 56.805 127.655 58.381 128.049 57.974 125.797 55.722 123.546 57.974 123.94 58.368 125.516 56.805 125.516 60.221"/><polygon id="路径" fill="#FFF" points="84.991 35.456 84.991 32.039 86.567 33.615 86.961 33.208 84.709 30.957 82.458 33.208 82.852 33.602 84.428 32.039 84.428 35.456"/><polygon id="路径" fill="#FFF" points="69.606 69.227 69.606 65.811 71.182 67.386 71.576 66.979 69.325 64.728 67.073 66.979 67.467 67.373 69.043 65.811 69.043 69.227"/><polygon id="路径" fill="#FFF" points="166.041 84.987 166.041 81.57 167.617 83.146 168.011 82.739 165.76 80.488 163.508 82.739 163.902 83.133 165.478 81.57 165.478 84.987"/><polygon id="路径" fill="#FFF" points="66.229 115.193 66.229 111.777 67.805 113.353 68.199 112.946 65.947 110.694 63.696 112.946 64.09 113.34 65.666 111.777 65.666 115.193"/><circle id="椭圆形" cx="148.03" cy="54.972" r="1.126" fill="#FFF"/><circle id="椭圆形" cx="42.026" cy="51.97" r="1.126" fill="#FFF"/><circle id="椭圆形" cx="75.235" cy="80.488" r="1.126" fill="#FFF"/><circle id="椭圆形" cx="173.546" cy="99.625" r="1" fill="#FFF"/><circle id="椭圆形" cx="131.332" cy="115.197" r="1" fill="#FFF"/><circle id="椭圆形" cx="59.099" cy="128.33" r="1" fill="#FFF"/><circle id="椭圆形" cx="18.011" cy="82.739" r="1" fill="#FFF"/><circle id="椭圆形" cx="23.452" cy="70.732" r="1" fill="#FFF"/><circle id="椭圆形" cx="144.465" cy="133.771" r="1" fill="#FFF"/><circle id="椭圆形" cx="40.338" cy="114.259" r="1" fill="#FFF"/><circle id="椭圆形" cx="53.283" cy="62.664" r="1" fill="#FFF"/><polygon id="路径" fill="#FFF" points="72.514 42.683 69.606 42.683 69.606 39.775 69.231 39.775 69.231 42.683 66.323 42.683 66.323 43.058 69.231 43.058 69.231 45.966 69.606 45.966 69.606 43.058 72.514 43.058"/><polygon id="路径" fill="#FFF" points="143.34 96.415 141.578 96.415 141.578 94.653 141.349 94.653 141.349 96.415 139.587 96.415 139.587 96.644 141.349 96.644 141.349 98.405 141.578 98.405 141.578 96.644 143.34 96.644"/><polygon id="路径" fill="#FFF" points="132.645 129.248 130.884 129.248 130.884 127.486 130.655 127.486 130.655 129.248 128.893 129.248 128.893 129.477 130.655 129.477 130.655 131.238 130.884 131.238 130.884 129.477 132.645 129.477"/><polygon id="路径" fill="#FFF" points="45.028 125.12 43.266 125.12 43.266 123.358 43.038 123.358 43.038 125.12 41.276 125.12 41.276 125.349 43.038 125.349 43.038 127.111 43.266 127.111 43.266 125.349 45.028 125.349"/><polygon id="路径" fill="#FFF" points="32.645 92.099 30.884 92.099 30.884 90.338 30.655 90.338 30.655 92.099 28.893 92.099 28.893 92.328 30.655 92.328 30.655 94.09 30.884 94.09 30.884 92.328 32.645 92.328"/><polygon id="路径" fill="#3F3D56" points="85.077 125.644 85.09 124.587 84.456 124.58 84.443 125.636 83.349 128.795 86.096 128.827"/><polygon id="路径" fill="#3F3D56" points="87.833 125.704 87.846 124.621 87.195 124.612 87.182 125.696 86.06 128.936 88.878 128.968"/><polygon id="路径" fill="#3F3D56" points="90.572 125.709 90.585 124.653 89.951 124.645 89.938 125.702 88.844 128.861 91.593 128.893"/><polygon id="路径" fill="#3F3D56" points="110.163 125.97 110.176 124.886 109.525 124.878 109.512 125.962 108.39 129.201 111.208 129.235"/><polygon id="路径" fill="#3F3D56" points="112.981 126.004 112.994 124.919 112.343 124.912 112.33 125.996 111.208 129.235 114.026 129.268"/><polygon id="路径" fill="#3F3D56" points="115.799 126.038 115.812 124.953 115.161 124.946 115.148 126.03 114.026 129.268 116.844 129.302"/><polygon id="路径" fill="#3F3D56" points="97.371 125.818 97.385 124.734 96.734 124.726 96.72 125.811 95.598 129.049 98.417 129.083"/><polygon id="路径" fill="#3F3D56" points="100.189 125.852 100.203 124.767 99.553 124.76 99.54 125.844 98.417 129.083 101.235 129.116"/><polygon id="路径" fill="#3F3D56" points="103.008 125.886 103.021 124.801 102.371 124.794 102.358 125.878 101.235 129.116 104.054 129.15"/><path id="路径" fill="#3F3D56" d="M95.4521576,50.0150094 C95.412758,46.2814259 91.0150094,39.6622889 88.641651,39.6341463 C86.2682927,39.6060038 81.9287054,46.120075 81.8011257,49.8517824 L81.6885553,49.8517824 L80.793621,124.863039 L94.5609756,125.026266 L95.4559099,50.0168856 L95.4521576,50.0150094 Z"/><path id="路径" fill="#3F3D56" d="M120.600375,50.315197 C120.560976,46.5816135 116.163227,39.9624765 113.789869,39.934334 C111.41651,39.9061914 107.076923,46.4202627 106.95122,50.15197 L106.838649,50.15197 L105.943715,125.163227 L119.711069,125.326454 L120.606004,50.3170732 L120.600375,50.315197 Z"/><path id="路径" fill="#2F2E41" d="M108.228893,15.1819887 C108.208255,9.70919325 103.846154,0.0281425891 101.474672,-2.66620222e-15 C99.1031895,-0.0281425891 94.7204503,9.5478424 94.575985,15.0093809 L94.4652908,15.0093809 L93.15197,124.998124 L106.917448,125.163227 L108.230769,15.1726079 L108.228893,15.1819887 Z"/><g id="分组" fill="#000" opacity=".1" transform="translate(80.675422, 0.187617)"><path id="路径" d="M27.1801126,51.3921201 C28.6041276,48.0694184 31.3846154,44.6041276 33.1144465,44.6247655 C35.3658537,44.6510319 39.4221388,50.5891182 39.8818011,54.380863 L39.9305816,50.3076923 C39.891182,46.5741088 35.4934334,39.9549719 33.120075,39.9268293 C31.412758,39.9061914 28.684803,43.2814259 27.2439024,46.564728 L27.1801126,51.3921201 Z"/><path id="路径" d="M1.01500938,54.5403377 L1.12757974,54.5403377 C1.2532833,50.8086304 5.59474672,44.2945591 7.96622889,44.3227017 C9.51594747,44.3414634 11.9268293,47.1688555 13.4258912,50.1688555 L13.7898687,19.7073171 L13.9005629,19.7073171 C14.0469043,14.2363977 18.4277674,4.66041276 20.7992495,4.69793621 C23.0393996,4.72420263 27.0581614,13.3677298 27.5121951,18.9380863 L27.5553471,15.1857411 C27.5347092,9.71294559 23.1726079,0.0318949343 20.8011257,0.00375234522 C18.4296435,-0.0243902439 14.0469043,9.55159475 13.902439,15.0225141 L13.7917448,15.0225141 L13.4277674,45.4840525 C11.9268293,42.4821764 9.51782364,39.6566604 7.96810507,39.6378987 C5.59662289,39.6097561 1.25515947,46.1238274 1.12945591,49.8555347 L1.01688555,49.8555347 L0.12195122,124.866792 L0.178236398,124.866792 L1.01500938,54.5403377 Z"/></g><path id="矩形" fill="#ECECF3" d="M101.439828,4.76256236 L101.439828,4.76256236 C102.15842,4.76256236 102.740954,5.34509618 102.740954,6.06368807 L102.740954,9.09933535 C102.740954,9.81792723 102.15842,10.400461 101.439828,10.400461 L101.439828,10.400461 C100.721237,10.400461 100.138703,9.81792723 100.138703,9.09933535 L100.138703,6.06368807 C100.138703,5.34509618 100.721237,4.76256236 101.439828,4.76256236 Z" transform="translate(101.439828, 7.581512) rotate(0.680000) translate(-101.439828, -7.581512)"/></g></g></svg>