<svg xmlns="http://www.w3.org/2000/svg" xmlns:xlink="http://www.w3.org/1999/xlink" width="279" height="146" version="1.1" viewBox="0 0 279 146"><title>分组</title><desc>Created with Sketch.</desc><g id="页面-1" fill="none" fill-rule="evenodd" stroke="none" stroke-width="1"><g id="分组"><g id="福到" transform="translate(84.000000, 38.000000)"><path id="路径" fill="#FFF5C5" d="M85.5875,89.7875 L82.4125,92.9625 L77.5875,97.7875 C69.6625,105.7125 56.6875,105.7125 48.7625,97.7875 L20.7625,69.8 C12.8375,61.875 12.8375,48.9 20.7625,40.975 L48.75,12.9875 C56.675,5.0625 69.65,5.0625 77.575,12.9875 L105.5625,40.975 C113.4875,48.9 113.4875,61.875 105.5625,69.8 L101.325,74.0375 L98.75,76.6125"/><path id="路径" fill="#E22B60" d="M53.7375,107.4375 C47.3375,107.4375 41.3375,104.9625 36.8375,100.4625 L7.025,70.65 C2.525,66.15 0.05,60.15 0.05,53.75 C0.05,47.35 2.525,41.35 7.025,36.85 L36.8375,7.0375 C41.3375,2.5375 47.3375,0.0625 53.7375,0.0625 C60.1375,0.0625 66.1375,2.5375 70.6375,7.0375 L100.45,36.85 C104.95,41.35 107.425,47.35 107.425,53.75 C107.425,60.15 104.95,66.15 100.45,70.65 L93.2,77.9 C92.3375,78.7625 90.95,78.7625 90.0875,77.9 C89.225,77.0375 89.225,75.65 90.0875,74.7875 L97.3375,67.5375 C104.95,59.925 104.95,47.55 97.3375,39.95 L67.5375,10.15 C59.925,2.5375 47.55,2.5375 39.95,10.15 L10.1375,39.95 C2.525,47.5625 2.525,59.9375 10.1375,67.5375 L39.95,97.35 C47.5625,104.9625 59.9375,104.9625 67.5375,97.35 L76.0625,88.825 C76.925,87.9625 78.3125,87.9625 79.175,88.825 C80.0375,89.6875 80.0375,91.075 79.175,91.9375 L70.65,100.4625 C66.15,104.9625 60.15,107.4375 53.7375,107.4375 Z"/><path id="形状" fill="#E22B60" fill-rule="nonzero" d="M84.5,86.025 C83.9375,86.025 83.375,85.8125 82.9375,85.375 C82.0875,84.5125 82.0875,83.125 82.95,82.2625 L83.3125,81.9 C84.175,81.05 85.5625,81.05 86.425,81.9125 C87.275,82.775 87.275,84.1625 86.4125,85.025 L86.05,85.3875 C85.625,85.8125 85.0625,86.025 84.5,86.025 Z M26.3625,53.8 C26.925,52.1125 27.2125,50.5125 27.2125,49.0125 C27.4,46.95 27.6875,43.575 28.0625,38.8875 C28.4375,33.075 28.725,29.0375 28.9125,26.7875 C29.1,25.475 29.6625,24.5375 30.6,23.975 C31.1625,23.225 31.6375,22.85 32.0125,22.85 C32.575,22.85 32.8625,23.225 32.8625,23.975 C33.425,26.225 33.9,28.0125 34.275,29.325 C34.65,29.7 35.025,29.8875 35.4,29.8875 C38.9625,29.8875 44.4,29.425 51.7125,28.475 C52.275,28.2875 52.75,28.1875 53.125,28.1875 L53.125,24.525 C53.125,23.5875 53.5,23.3125 54.25,23.675 C55.1875,24.05 56.225,24.8 57.35,25.925 C57.725,26.3 57.825,26.675 57.6375,27.05 C57.2625,29.1125 57.175,32.4 57.35,36.9 C57.35,41.2125 57.5375,44.5 57.9125,46.75 C58.1,49.5625 58.7625,51.9 59.8875,53.7875 C60.075,54.35 59.9875,54.725 59.6,54.9125 C59.4125,55.1 59.0375,55 58.475,54.625 L55.6625,52.65 C49.475,53.025 42.725,53.675 35.4125,54.625 C33.35,55.1875 32.0375,55.75 31.475,56.3125 C31.1,56.5 30.625,56.6 30.0625,56.6 C29.5,56.4125 28.475,55.9375 26.9625,55.1875 C26.3625,54.825 26.1875,54.3625 26.3625,53.8 Z M29.7375,85.8625 C28.8,84.925 28.05,83.8875 27.4875,82.7625 C27.3,82.3875 27.2,82.1 27.2,81.9125 C27.3875,81.725 27.7625,81.625 28.325,81.625 C37.7,81.625 47.075,80.5875 56.45,78.525 C57.0125,78.525 57.4875,78.7125 57.8625,79.0875 C58.425,79.4625 59.175,80.3 60.1125,81.625 C60.4875,82 60.5875,82.375 60.4,82.75 C60.2125,82.9375 59.8375,83.0375 59.275,83.0375 C51.775,82.85 44,83.5 35.925,85.0125 C34.425,85.2 32.925,85.475 31.425,85.8625 C30.6875,86.2375 30.125,86.2375 29.7375,85.8625 Z M50.55,56.05 C52.6125,56.6125 53.65,57.3625 53.65,58.3 C53.65,60.7375 54.025,63.925 54.775,67.8625 C54.9625,69.925 55.7125,71.8875 57.025,73.775 C57.2125,74.15 57.2125,74.425 57.025,74.625 C56.8375,74.625 56.4625,74.525 55.9,74.3375 L53.65,72.925 C49.7125,73.1125 45.025,73.675 39.5875,74.6125 C38.275,74.8 36.875,75.175 35.3625,75.7375 C34.05,76.4875 33.025,76.3875 32.2625,75.45 C32.075,75.075 31.7,74.6 31.1375,74.0375 C30.575,73.2875 30.575,72.725 31.1375,72.35 C32.6375,70.2875 33.95,67.6625 35.075,64.475 C34.8875,64.2875 34.6125,64 34.225,63.625 C33.85,63.25 33.575,62.9625 33.375,62.775 C32.8125,62.2125 32.525,61.8375 32.525,61.65 C32.7125,61.4625 33.0875,61.3625 33.65,61.3625 C36.0875,61.3625 40.9625,60.9875 48.275,60.2375 C49.025,60.05 49.5875,59.95 49.9625,59.95 L49.675,56.575 C49.7125,56.05 49.9875,55.8625 50.55,56.05 Z M36.4875,44.5125 C35.925,44.5125 35.4625,44.4125 35.075,44.225 L34.5125,43.6625 C34.1375,43.1 33.8625,42.725 33.6625,42.5375 C33.475,41.975 33.475,41.6875 33.6625,41.6875 C33.6625,41.5 33.85,41.4 34.225,41.4 C34.975,41.4 36.1,41.3 37.6,41.1125 C39.2875,41.1125 40.5125,41.0125 41.2625,40.825 L41.2625,31.5375 C38.2625,31.9125 35.6375,32.1 33.3875,32.1 C32.825,32.1 32.5375,32.3875 32.5375,32.95 L32.5375,34.075 C31.975,42.5125 31.7875,47.8625 31.975,50.1125 C31.7875,51.425 32.35,51.9875 33.6625,51.8 C34.4125,51.8 35.6375,51.7 37.325,51.5125 C39.0125,51.5125 40.325,51.4125 41.2625,51.225 L41.2625,43.35 C40.325,43.5375 39.2,43.8125 37.8875,44.2 C37.15,44.425 36.6875,44.5125 36.4875,44.5125 Z M39.025,71.8 C42.775,71.6125 46.9,71.2375 51.4,70.675 C50.8375,68.2375 50.4625,65.5125 50.275,62.5125 C45.9625,63.075 42.2125,63.6375 39.025,64.2 C38.275,67.2 37.9,69.35 37.9,70.675 C37.7125,71.425 38.0875,71.8 39.025,71.8 Z M53.3625,39.175 C53.175,36.3625 53.075,33.55 53.075,30.7375 C50.2625,30.7375 47.6375,30.925 45.2,31.3 L45.2,40.3 L53.3625,39.175 Z M53.925,50.1375 C53.55,47.325 53.3625,44.6 53.3625,41.975 C50.55,42.35 47.8375,42.625 45.2,42.825 L45.2,50.9875 C48.025,50.8 50.9375,50.5125 53.925,50.1375 Z M71.3625,22.8625 C72.4875,24.7375 73.05,26.7125 73.05,28.775 C73.05,30.4625 72.9625,33.3625 72.7625,37.5 C72.3875,45.5625 72.2,51.2875 72.2,54.6625 C77.075,48.2875 83.2625,43.4125 90.7625,40.0375 C91.325,39.6625 91.7,39.5625 91.8875,39.75 C91.8875,39.9375 91.6,40.3125 91.0375,40.875 C81.2875,48.9375 73.975,57.475 69.1,66.475 C68.725,67.0375 68.8125,67.225 69.3875,67.0375 C74.45,66.85 78.4875,66.2875 81.4875,65.35 C82.05,64.975 82.525,65.0625 82.9,65.6375 C83.4625,66.2 84.025,66.85 84.5875,67.6125 C84.5875,67.425 84.6875,67.5125 84.875,67.9 C85.0625,68.4625 84.875,68.75 84.3125,68.75 C81.6875,68.5625 78.125,68.9375 73.625,69.875 C70.8125,70.4375 68.375,71.2875 66.3125,72.4125 C65.75,72.7875 65.2875,72.7875 64.9,72.4125 L61.525,69.0375 C61.525,68.85 61.625,68.475 61.8125,67.9125 C63.5,66.4125 65.2875,64.25 67.1625,61.4375 C67.35,61.0625 67.6375,60.6875 68.0125,60.3125 C68.2,59.9375 68.675,59.275 69.425,58.3375 C69.2375,58.3375 69.05,58.2375 68.8625,58.05 C68.675,58.05 68.4875,57.95 68.3,57.7625 C68.1125,57.7625 68.0125,57.475 68.0125,56.9125 L68.0125,55.7875 C65.95,55.225 63.8875,54.475 61.825,53.5375 L61.5375,53.25 C60.975,52.875 60.6875,52.4 60.6875,51.8375 C60.6875,50.3375 61.0625,48.8375 61.8125,47.3375 C62.1875,46.5875 62.6625,46.4875 63.225,47.05 C64.5375,50.05 66.225,52.575 68.2875,54.65 L68.2875,50.425 C68.475,46.1125 68.575,39.2625 68.575,29.8875 C68.575,26.8875 69.05,24.5375 69.9875,22.85 C70.3375,22.3 70.8,22.3 71.3625,22.8625 Z M71.65,86.9875 C71.8375,87.3625 71.8375,87.6375 71.65,87.8375 C71.4625,88.025 71.1875,88.025 70.8,87.8375 C67.9875,86.3375 66.0125,84.8375 64.8875,83.3375 C63.7625,82.2125 63.575,81.275 64.325,80.525 C65.075,78.8375 66.1125,77.425 67.425,76.3 C67.9875,75.925 68.4625,75.7375 68.8375,75.7375 C69.025,75.925 69.2125,76.3875 69.4,77.15 C69.4,80.325 70.15,83.6125 71.65,86.9875 Z"/></g><g id="祥云" transform="translate(0.000000, 61.000000)"><path id="路径" fill="#D2221A" d="M14.45325,81.754625 L25.934625,81.754625 C26.62425,81.754625 27.183,81.19575 27.183,80.50625 C27.183,79.81675 26.624125,79.25775 25.934625,79.25775 L22.593625,79.25775 C21.904,79.25775 21.345125,78.69875 21.345125,78.00925 C21.345125,77.31975 21.904125,76.76075 22.593625,76.76075 L42.2,76.76075 C42.889625,76.76075 43.4485,77.31975 43.4485,78.00925 C43.4485,78.69875 42.8895,79.25775 42.2,79.25775 L30.74875,79.25775 C30.059125,79.25775 29.50025,79.81675 29.50025,80.50625 C29.50025,81.19575 30.05925,81.754625 30.74875,81.754625 L34.059625,81.754625 C34.74925,81.754625 35.308,82.31375 35.308,83.003125 C35.308,83.692875 34.749125,84.251625 34.059625,84.251625 L14.45325,84.251625 C14.1221069,84.2516913 13.8045075,84.1201746 13.5703539,83.8860211 C13.3362004,83.6518675 13.2046837,83.3342681 13.20475,83.003125 C13.20475,82.31375 13.7635,81.754625 14.45325,81.754625 Z"/><path id="路径" fill="#FFF" d="M70.594375,16.9345 C70.4169949,16.9346756 70.2484889,16.8569353 70.1335,16.721875 C70.0290548,16.6000649 69.9776557,16.441547 69.99075,16.281625 C70.0032127,16.1216373 70.0790877,15.9732624 70.2015,15.8695 C70.3108891,15.7762601 70.4498904,15.7249931 70.593625,15.724875 C70.771125,15.724875 70.939,15.802375 71.053875,15.937375 C71.1584168,16.0592354 71.2098641,16.2178533 71.19675,16.377875 C71.1844018,16.5379303 71.1085086,16.6863858 70.986,16.790125 C70.8767346,16.8832111 70.7379157,16.9343875 70.594375,16.9345 Z"/><path id="形状" fill="#D2221A" fill-rule="nonzero" d="M70.593625,15.974875 C70.69775,15.974875 70.796125,16.02025 70.86375,16.09975 C70.9249817,16.1712185 70.955092,16.2642049 70.947375,16.358 C70.9401246,16.4518722 70.8956609,16.5389543 70.823875,16.599875 C70.7600657,16.6548065 70.678571,16.6848565 70.594375,16.6845 C70.4952708,16.6846751 70.4006116,16.6433864 70.3333181,16.5706315 C70.2660246,16.4978767 70.2322328,16.4002896 70.240125,16.3015 C70.2474624,16.2076876 70.291913,16.120676 70.363625,16.05975 C70.4275865,16.0047136 70.5092449,15.9745799 70.593625,15.974875 Z M70.593625,15.474875 C70.260187,15.4746983 69.9571028,15.6684913 69.817349,15.9712286 C69.6775952,16.2739658 69.7267024,16.6303424 69.943125,16.884 C70.1054536,17.0749947 70.3435921,17.1848977 70.59425,17.1845 C70.9275483,17.184376 71.2303666,16.9904979 71.3699733,16.6878468 C71.50958,16.3851956 71.4605015,16.0289949 71.24425,15.775375 C71.0821294,15.5843888 70.8441418,15.474471 70.593625,15.474875 Z"/><path id="路径" fill="#FFF" d="M85.274875,20.618625 C85.0976387,20.6187557 84.9292816,20.5410665 84.814375,20.406125 C84.7095,20.283125 84.658875,20.12675 84.671625,19.96575 C84.684375,19.80475 84.75925,19.658375 84.882125,19.553625 C85.0042372,19.4495693 85.162686,19.3982881 85.3226102,19.4110642 C85.4825344,19.4238403 85.6308319,19.499627 85.734875,19.62175 C85.83975,19.74475 85.89025,19.901125 85.8775,20.062125 C85.86475,20.223125 85.78975,20.369375 85.666625,20.474125 C85.5573389,20.5672745 85.4184726,20.6184964 85.274875,20.618625 Z"/><path id="路径" fill="#D2221A" d="M85.27425,19.659 C85.3785,19.659 85.477,19.7045 85.5445,19.78375 C85.606,19.856 85.635625,19.94775 85.62825,20.042 C85.6208856,20.1359519 85.5762334,20.2230507 85.50425,20.283875 C85.42225,20.353875 85.33425,20.3685 85.274875,20.3685 C85.1708442,20.3686153 85.0720211,20.3229976 85.004625,20.24375 C84.9433933,20.1722815 84.913283,20.0792951 84.921,19.9855 C84.9285,19.891 84.97225,19.805125 85.04425,19.74375 C85.1082697,19.6888273 85.1898998,19.6587484 85.27425,19.659 Z"/><path id="路径" fill="#FFF" d="M81.4115,40.21525 C81.2340688,40.2154963 81.0654962,40.1377463 80.9505,40.002625 C80.7344253,39.748163 80.7649483,39.3668499 81.01875,39.15 C81.2732363,38.9336454 81.6548578,38.96424 81.871625,39.218375 C82.0877262,39.4728061 82.0571413,39.8541398 81.80325,40.070875 C81.6939294,40.1639507 81.5550759,40.2151235 81.4115,40.21525 Z"/><path id="形状" fill="#D2221A" fill-rule="nonzero" d="M81.4105,39.255625 C81.5746859,39.255442 81.7175608,39.36791 81.7559394,39.5275475 C81.7943179,39.687185 81.7181786,39.8523064 81.5718515,39.9267741 C81.4255244,40.0012418 81.2472194,39.9656102 81.14075,39.840625 C81.0140419,39.6914064 81.0318118,39.46783 81.1805,39.3405 C81.2444615,39.2854636 81.3261199,39.2553299 81.4105,39.255625 Z M81.4105,38.755625 C81.2073716,38.755477 81.0108657,38.8278645 80.856375,38.95975 C80.4972428,39.2660594 80.4541126,39.8053834 80.76,40.164875 C80.9224694,40.3558254 81.1606595,40.4657101 81.411375,40.465375 C81.614394,40.4655437 81.8107888,40.393148 81.965125,40.26125 C82.1377354,40.114261 82.2448672,39.9047095 82.2629421,39.6787152 C82.2810169,39.4527209 82.2085534,39.2288055 82.0615,39.05625 C81.8992655,38.8651866 81.6611494,38.7552271 81.4105,38.755625 Z"/><path id="形状" fill="#D2221A" fill-rule="nonzero" d="M78.875375,31.961875 C78.8219678,32.0073615 78.7526782,32.0297682 78.6827499,32.0241655 C78.6128217,32.0185628 78.5479835,31.9854097 78.5025,31.932 C78.4569911,31.8786451 78.434545,31.8093951 78.440101,31.7394885 C78.4456569,31.6695818 78.4787597,31.6047467 78.532125,31.55925 L79.8915,30.400875 C80.0026818,30.3060891 80.1696516,30.3193807 80.2644375,30.4305625 C80.3592234,30.5417443 80.3459318,30.7087141 80.23475,30.8035 L78.875375,31.961875 Z M78.043625,31.309125 C78.0272874,31.450827 77.9016711,31.5541432 77.75948,31.5428272 C77.6172889,31.5315112 77.5095948,31.4096274 77.515875,31.267125 L77.658,29.487 C77.6655249,29.3927265 77.7227725,29.3096287 77.8081782,29.2690088 C77.8935838,29.2283888 77.9941724,29.2364178 78.0720532,29.2900713 C78.1499339,29.3437248 78.1932749,29.4348515 78.18575,29.529125 L78.043625,31.309125 Z M76.99375,31.436 C77.0845837,31.5476168 77.0696266,31.7113495 76.9600726,31.8046607 C76.8505185,31.8979719 76.6864919,31.8866863 76.59075,31.77925 L75.43275,30.419875 C75.3714566,30.3479753 75.3531772,30.2488376 75.3847975,30.1598061 C75.4164178,30.0707747 75.4931339,30.0053754 75.5860475,29.9882436 C75.6789612,29.9711119 75.7739566,30.0048503 75.83525,30.07675 L76.99375,31.436 Z M76.341125,32.268125 C76.4867156,32.2798717 76.5952247,32.4074076 76.5835,32.553 C76.5780171,32.622952 76.5449254,32.6878474 76.491527,32.7333661 C76.4381287,32.7788849 76.3688128,32.8012855 76.298875,32.795625 L74.51875,32.6535 C74.4487639,32.6479864 74.3838483,32.6148504 74.338329,32.5614046 C74.2928098,32.5079587 74.2704287,32.4385965 74.276125,32.368625 C74.2816395,32.2986624 74.3147579,32.2337669 74.3681761,32.1882512 C74.4215943,32.1427356 74.4909241,32.1203386 74.560875,32.126 L76.341125,32.268125 Z M76.46775,33.317875 C76.5790009,33.2230546 76.7460546,33.2363741 76.840875,33.347625 C76.9356954,33.4588759 76.9223759,33.6259296 76.811125,33.72075 L75.452,34.878875 C75.3407837,34.9736954 75.1737579,34.9604038 75.0789375,34.8491875 C74.9841171,34.7379712 74.9974087,34.5709454 75.108625,34.476125 L76.46775,33.317875 Z M77.299625,33.970375 C77.3114385,33.8246805 77.4390426,33.7160968 77.58475,33.72775 C77.654734,33.7333275 77.7196295,33.7664993 77.7651391,33.8199572 C77.8106486,33.8734151 77.8330382,33.9427729 77.827375,34.01275 L77.685125,35.793 C77.6795155,35.862905 77.646361,35.9277169 77.5929576,35.9731731 C77.5395543,36.0186292 77.4702784,36.0410045 77.400375,36.035375 C77.3304358,36.0298597 77.2655605,35.9967589 77.2200484,35.9433683 C77.1745363,35.8899777 77.1521235,35.8206803 77.15775,35.75075 L77.299625,33.970375 Z M78.34925,33.84375 C78.2848673,33.7720738 78.2644589,33.6711014 78.2959509,33.5800472 C78.3274429,33.4889929 78.4058729,33.4222047 78.5007812,33.4056209 C78.5956895,33.389037 78.6921211,33.4252707 78.752625,33.50025 L79.91075,34.859625 C79.9739556,34.9313365 79.9935734,35.0315612 79.9620698,35.1218109 C79.9305662,35.2120606 79.8528389,35.278305 79.7587366,35.2951048 C79.6646343,35.3119047 79.5687863,35.2766484 79.508,35.202875 L78.34925,33.84375 Z M79.00225,33.011875 C78.8565904,33.0001281 78.7480255,32.8725364 78.75975,32.726875 C78.7652646,32.6568793 78.7983962,32.5919521 78.8518378,32.546413 C78.9052794,32.5008739 78.974641,32.4784637 79.044625,32.484125 L80.824625,32.626375 C80.97018,32.6382571 81.0786871,32.7656593 81.06725,32.91125 C81.0617024,32.9811764 81.0285925,33.0460316 80.9752097,33.0915371 C80.9218268,33.1370426 80.8525478,33.1594676 80.782625,33.153875 L79.00225,33.011875 Z"/><path id="形状" fill="#D2221A" fill-rule="nonzero" d="M68.213375,22.816625 C68.1855446,22.8404567 68.1493665,22.852219 68.1128422,22.8493102 C68.076318,22.8464014 68.0424575,22.8290612 68.01875,22.801125 C67.9948964,22.7732898 67.9831096,22.7371012 67.9859947,22.7005571 C67.9888798,22.6640131 68.0061991,22.6301223 68.034125,22.606375 L68.744,22.00125 C68.8022198,21.9531823 68.8882355,21.9607105 68.9372203,22.0181609 C68.986205,22.0756113 68.9800415,22.1617355 68.923375,22.211625 L68.213375,22.816625 Z M67.778875,22.476125 C67.7760065,22.5126447 67.7587226,22.5465217 67.7308383,22.5702784 C67.7029539,22.5940352 67.6667617,22.6057187 67.63025,22.60275 C67.5541219,22.5965731 67.4973013,22.5300309 67.503125,22.453875 L67.57775,21.52425 C67.5811082,21.4746469 67.6108649,21.4306756 67.6556641,21.4091168 C67.7004633,21.3875581 67.7533921,21.3917386 67.7942514,21.4200629 C67.8351107,21.4483872 67.8575955,21.4964847 67.853125,21.546 L67.778875,22.476125 Z M67.230375,22.542 C67.2624396,22.5795575 67.2720318,22.6313684 67.2555383,22.6779159 C67.2390448,22.7244634 67.1989714,22.7586759 67.1504133,22.7676659 C67.1018552,22.7766559 67.0521896,22.7590575 67.020125,22.7215 L66.414875,22.01125 C66.3654669,21.9531385 66.3724589,21.8659908 66.4305,21.8165 C66.4885762,21.7670573 66.575697,21.7738749 66.625375,21.83175 L67.230375,22.542 Z M66.88975,22.976625 C66.9389857,22.9805772 66.9823728,23.0104962 67.0035679,23.0551117 C67.024763,23.0997271 67.020546,23.1522609 66.9925054,23.1929242 C66.9644648,23.2335874 66.9168607,23.2562023 66.867625,23.25225 L65.93775,23.177875 C65.8616728,23.1718344 65.8048969,23.1052647 65.8109375,23.0291875 C65.8169781,22.9531103 65.8835478,22.8963344 65.959625,22.902375 L66.88975,22.976625 Z M66.95575,23.525 C66.9933745,23.4929577 67.0452354,23.4834219 67.0917971,23.4999846 C67.1383587,23.5165473 67.1725474,23.5566922 67.1814846,23.6052971 C67.1904217,23.653902 67.1727495,23.7035827 67.135125,23.735625 L66.424875,24.340625 C66.3970169,24.3643928 66.3608543,24.3761136 66.3243505,24.3732065 C66.2878466,24.3702993 66.253995,24.3530025 66.23025,24.325125 C66.2063649,24.2972465 66.1945723,24.261 66.1974812,24.2244043 C66.2003901,24.1878085 66.2177607,24.1538801 66.24575,24.130125 L66.95575,23.525 Z M67.39025,23.86575 C67.3931816,23.8292089 67.4105188,23.7953319 67.4384429,23.7715813 C67.4663669,23.7478306 67.502587,23.7361545 67.539125,23.739125 C67.615,23.745375 67.672125,23.811875 67.666,23.888125 L67.591625,24.817875 C67.585646,24.8939829 67.5191092,24.9508386 67.443,24.944875 C67.3668694,24.9386343 67.3101017,24.8720329 67.316,24.795875 L67.39025,23.86575 Z M67.93875,23.799875 C67.8892608,23.7416294 67.8963094,23.654304 67.9545,23.60475 C67.9823876,23.5809188 68.0186158,23.5691715 68.0551815,23.5721033 C68.0917472,23.5750351 68.1256409,23.5924048 68.149375,23.620375 L68.754375,24.330375 C68.8005195,24.3887738 68.7922031,24.4732121 68.7355522,24.5214865 C68.6789013,24.5697608 68.5942131,24.5645753 68.543875,24.50975 L67.93875,23.799875 Z M68.279625,23.36525 C68.2300465,23.3617229 68.1861683,23.3318763 68.1646755,23.2870597 C68.1431826,23.2422431 68.1473773,23.1893421 68.1756645,23.1484727 C68.2039516,23.1076033 68.2519851,23.0850447 68.3015,23.089375 L69.231375,23.163875 C69.3074178,23.1700505 69.3641466,23.23656 69.35825,23.312625 C69.3521407,23.3887017 69.285588,23.4454673 69.2095,23.4395 L68.279625,23.36525 Z"/><path id="路径" fill="#D2221A" d="M73.10725,12.73325 C73.0301699,12.7989645 72.9238868,12.8185656 72.8284363,12.7846695 C72.7329858,12.7507735 72.6628692,12.6685301 72.6444988,12.5689195 C72.6261283,12.469309 72.6622949,12.3674645 72.739375,12.30175 L74.425375,10.86525 C74.5446141,10.7638853 74.7234104,10.7782024 74.825,10.89725 C74.9262666,11.0164294 74.9119514,11.1950906 74.793,11.296625 L73.10725,12.73325 Z"/><path id="路径" fill="#D2221A" d="M72.832125,11.140375 C72.7342955,11.0208354 72.7501135,10.8449907 72.8677061,10.7448293 C72.9852987,10.6446679 73.1614205,10.6570249 73.263875,10.772625 L74.70025,12.458375 C74.7659199,12.5354774 74.7854677,12.6417574 74.7515301,12.7371804 C74.7175924,12.8326034 74.6353251,12.9026723 74.5357176,12.9209929 C74.43611,12.9393135 74.3342949,12.9031024 74.268625,12.826 L72.832125,11.140375 Z"/><path id="形状" fill="#D2221A" fill-rule="nonzero" d="M23.42375,8.79025 C23.3126198,8.88494747 23.1457771,8.87168734 23.051,8.760625 C22.956302,8.64938111 22.9694975,8.4824808 23.0805,8.3875 L24.439875,7.229125 C24.5516391,7.14022882 24.7137551,7.15593735 24.8063727,7.26463749 C24.8989904,7.37333762 24.8887623,7.53589143 24.78325,7.632125 L23.42375,8.79025 Z M22.591875,8.13775 C22.5863308,8.20773719 22.5531637,8.27264126 22.4996938,8.31813757 C22.4462239,8.36363389 22.376847,8.38598215 22.306875,8.38025 C22.236922,8.37473649 22.1720381,8.34161368 22.1265423,8.28819127 C22.0810465,8.23476886 22.0586786,8.16543836 22.064375,8.0955 L22.2065,6.3155 C22.2124261,6.22004149 22.2694002,6.1352092 22.3555226,6.09361128 C22.4416449,6.05201335 22.5435114,6.06012405 22.6219663,6.11482576 C22.7004212,6.16952746 22.7432538,6.26230645 22.734,6.3575 L22.591875,8.13775 Z M21.542125,8.2645 C21.6342319,8.37597818 21.619795,8.54075015 21.5097055,8.63451242 C21.399616,8.72827469 21.2346467,8.71630132 21.13925,8.607625 L19.981125,7.2485 C19.8864309,7.13725395 19.8997446,6.97032975 20.010875,6.8755 C20.0642416,6.82993012 20.13353,6.80743562 20.2034871,6.81296843 C20.2734442,6.81850123 20.3383352,6.85160776 20.383875,6.905 L21.542125,8.2645 Z M20.889375,9.096375 C20.9593783,9.10195427 21.024297,9.13511729 21.0698463,9.1885668 C21.1153956,9.24201631 21.1378433,9.31137283 21.13225,9.381375 C21.1204367,9.52700054 20.9928884,9.63552846 20.84725,9.623875 L19.06725,9.481625 C18.9216194,9.46995798 18.8130205,9.34244308 18.8246875,9.1968125 C18.8363545,9.05118192 18.9638694,8.94258299 19.1095,8.95425 L20.889375,9.096375 Z M21.016,10.146375 C21.1273653,10.0514847 21.29456,10.0648021 21.3895,10.176125 C21.4350184,10.2295184 21.4574456,10.2988158 21.4518421,10.3687542 C21.4462386,10.4386926 21.4130639,10.5035351 21.359625,10.549 L20.000375,11.70725 C19.9469768,11.7527903 19.8776689,11.7752421 19.8077107,11.7696624 C19.7377524,11.7640826 19.6728796,11.7309287 19.627375,11.6775 C19.5818028,11.6241156 19.5593303,11.5547999 19.5649109,11.4848315 C19.5704915,11.4148631 19.603667,11.3499859 19.657125,11.3045 L21.016,10.146375 Z M21.848125,10.799 C21.8537008,10.728969 21.8869078,10.6640332 21.940421,10.6185165 C21.9939341,10.5729999 22.0633567,10.5506421 22.133375,10.556375 C22.203279,10.561954 22.2681025,10.5950774 22.3135815,10.6484566 C22.3590606,10.7018359 22.3814686,10.7710972 22.375875,10.841 L22.233625,12.621125 C22.2260778,12.7153985 22.1688095,12.7984843 22.0833927,12.839085 C21.9979759,12.8796856 21.8973873,12.8716328 21.8195177,12.81796 C21.7416481,12.7642871 21.6983278,12.6731485 21.705875,12.578875 L21.848125,10.799 Z M22.897625,10.67225 C22.8027356,10.5608956 22.8160831,10.3937019 22.9274375,10.2988125 C23.0387919,10.2039231 23.2059856,10.2172706 23.300875,10.328625 L24.45925,11.688 C24.553875,11.79975 24.5405,11.966125 24.429375,12.061 C24.318125,12.156 24.151,12.1425 24.0565,12.03125 L22.897625,10.67225 Z M23.5505,9.840375 C23.4049099,9.82842658 23.2963837,9.7010117 23.30775,9.555375 C23.3194971,9.40964651 23.4471447,9.30102575 23.592875,9.31275 L25.372875,9.45475 C25.4671038,9.46225257 25.5501722,9.5194557 25.5907892,9.60481153 C25.6314062,9.69016735 25.6234011,9.7907083 25.5697892,9.86856154 C25.5161774,9.94641479 25.4251038,9.98975259 25.330875,9.98225 L23.5505,9.840375 Z"/><path id="路径" fill="#D2221A" d="M32.373875,2.1005 C32.254818,2.20192914 32.0761097,2.1877779 31.9745,2.068875 C31.8729663,1.94959915 31.8872898,1.77061082 32.0065,1.669 L33.692,0.232625 C33.8112265,0.131148869 33.9901397,0.145531322 34.091625,0.26475 C34.1403809,0.321913299 34.164405,0.396118055 34.1584024,0.471009632 C34.1523998,0.545901209 34.1168633,0.615332163 34.059625,0.664 L32.373875,2.1005 Z"/><path id="形状" fill="#D2221A" fill-rule="nonzero" d="M32.099,0.507875 C31.9974527,0.388557854 32.0117749,0.209530356 32.131,0.107875 C32.1882252,0.059097621 32.2624905,0.0350638663 32.3374435,0.0410657257 C32.4123964,0.0470675851 32.4818909,0.0826129175 32.530625,0.139875 L33.967125,1.8255 C34.0685977,1.94484226 34.0541618,2.12383704 33.934875,2.225375 C33.8776566,2.27411335 33.8034193,2.29812327 33.728497,2.29212198 C33.6535746,2.28612069 33.5841057,2.25059989 33.535375,2.193375 L32.099,0.507875 Z M90.09575,73.122875 C87.85425,73.122875 85.66325,72.6885 83.583375,71.831875 C81.932333,71.1531258 80.397944,70.2196616 79.036125,69.0655 C78.7573948,68.8284547 78.4862583,68.5826226 78.223125,68.328375 C78.1986248,68.3048101 78.175779,68.2795836 78.15475,68.252875 C77.642197,67.6025584 77.0923571,66.9825172 76.508,66.395875 C75.6348833,65.5206264 74.6873146,64.7229556 73.676,64.011875 C72.3699088,63.0944049 70.9659716,62.3248135 69.49,61.71725 C66.877125,60.641 64.1315,60.095125 61.329375,60.095125 C60.730375,60.095125 60.123625,60.12075 59.525875,60.171375 C58.986125,60.217125 58.731875,60.70775 58.23975,61.901125 C57.515875,63.656375 56.52425,66.06025 52.797375,66.5915 C51.998125,66.705375 51.221125,66.763125 50.487625,66.763125 C43.716375,66.763125 41.518875,61.966125 40.846,59.57575 C39.7183436,59.8576813 38.5603658,60.0002456 37.398,60.00025 C35.535375,60.00025 33.710375,59.637625 31.973875,58.92225 C29.80575,58.029 27.895875,56.619375 26.413125,54.824 C23.739375,56.355625 20.721625,57.162 17.64225,57.162 C15.340375,57.162 13.08525,56.71375 10.93925,55.829875 C6.587625,54.037625 3.1945,50.657875 1.38475,46.31325 C-0.425,41.96875 -0.4345,37.179625 1.357875,32.827875 C4.088625,26.198625 10.48575,21.915 17.655625,21.915 C17.971375,21.915 18.289625,21.923625 18.60675,21.940875 C20.2425,18.35 23.80075,16.049125 27.77375,16.049125 C29.090125,16.049125 30.379875,16.305375 31.60675,16.81075 C31.8593122,16.914782 32.1075573,17.0290006 32.350875,17.153125 C35.209,13.43025 39.658375,11.227375 44.386125,11.227375 C46.368,11.227375 48.31,11.61325 50.15775,12.374375 C56.19625,14.8615 59.954875,20.967125 59.51975,27.41875 C61.536625,27.50325 63.510625,27.9385 65.397875,28.715875 C73.18175,31.922 77.54175,40.212 75.765125,48.427375 C75.5166366,49.5732349 75.1538632,50.6912872 74.68225,51.76475 C73.999625,53.318375 73.105875,54.747 72.01775,56.026125 C72.1875395,56.0876425 72.3559947,56.1527824 72.523,56.2215 C73.0595498,56.4428686 73.5803097,56.7007218 74.081625,56.99325 C75.917625,58.065 77.460625,59.6015 78.543625,61.436875 C78.55875,61.4625 78.57225,61.489 78.58425,61.51625 C78.7825681,61.9671235 79.0045863,62.4071961 79.249375,62.834625 C80.79125,65.527625 83.126,67.577 86.00125,68.761375 C87.69175,69.457625 89.46775,69.81075 91.279875,69.81075 C92.1165576,69.8103998 92.9514962,69.7344241 93.7745,69.58375 C93.849375,69.57 93.924875,69.555125 94,69.539875 C94.039625,69.532 94.08,69.527125 94.120375,69.525625 C94.3423325,69.517284 94.563502,69.5565821 94.769,69.640875 C95.559375,69.9665 95.93775,70.874625 95.612375,71.66525 C95.4935926,71.9545128 95.2897659,72.2008833 95.027875,72.37175 C94.7875397,72.5292349 94.5081097,72.6167082 94.220875,72.624375 C92.8706638,72.9546205 91.4857614,73.1219788 90.09575,73.122875 Z M79.3005,67.2835 C79.5292304,67.5033096 79.764589,67.7161162 80.00625,67.921625 C81.2486628,68.9743893 82.6484512,69.8258531 84.154625,70.445 C86.052375,71.226625 88.05125,71.623 90.095625,71.623 C91.386875,71.623 92.684125,71.462625 93.951125,71.14625 C94.0243043,71.1277354 94.0999,71.1206101 94.17525,71.125125 C94.185875,71.12225 94.201125,71.12075 94.207,71.117 C94.2155984,71.1114481 94.2222085,71.1033058 94.225875,71.09375 C94.2353874,71.0692229 94.224734,71.0414809 94.20125,71.029625 C93.2387727,71.2162727 92.2606579,71.3104928 91.28025,71.311 C89.27125,71.311 87.303125,70.919875 85.43025,70.148625 C82.24425,68.836125 79.656875,66.565 77.948125,63.5805 C77.6846072,63.1203872 77.4449566,62.6470105 77.230125,62.16225 C76.278,60.563375 74.928875,59.22475 73.326,58.289125 C72.8840986,58.0312944 72.4250675,57.8040132 71.952125,57.608875 C71.4738606,57.4121555 70.9825119,57.2488877 70.481625,57.12025 C70.2221209,57.0536532 70.017848,56.8536883 69.9457358,56.5956624 C69.8736237,56.3376365 69.9446248,56.060739 70.132,55.86925 C71.467625,54.50425 72.536375,52.92075 73.308875,51.162875 C73.7403369,50.1811512 74.0722074,49.1586131 74.2995,48.110625 C75.922375,40.60575 71.938625,33.0325 64.827,30.103125 C62.894875,29.30725 60.863875,28.90375 58.790625,28.90375 L58.701375,28.904 L58.697125,28.904 C58.4822762,28.903917 58.2777722,28.8117282 58.1354339,28.6507939 C57.9930956,28.4898596 57.926583,28.2756244 57.95275,28.062375 C58.7005,21.979125 55.260375,16.098375 49.58675,13.7615 C47.921125,13.0755 46.1715,12.727625 44.386375,12.727625 C39.9215,12.727625 35.7325,14.907375 33.180625,18.558375 C32.9552923,18.8809253 32.518954,18.9744146 32.18125,18.7725 C31.8140455,18.5530887 31.431176,18.3610273 31.03575,18.197875 C29.990875,17.7675 28.893375,17.549375 27.773875,17.549375 C24.285,17.549375 21.172,19.633875 19.84325,22.859875 C19.83325,22.884 19.825,22.906375 19.81675,22.92875 L19.7905,22.9985 C19.669875,23.308875 19.359125,23.50475 19.027125,23.474125 C18.5710496,23.4349397 18.1135057,23.4152967 17.65575,23.41525 C11.096,23.41525 5.24325,27.33425 2.745,33.399375 C1.10525,37.380625 1.113875,41.762 2.7695,45.736625 C4.425125,49.711375 7.529375,52.803375 11.510625,54.443 C13.4745,55.252 15.5375,55.662125 17.642375,55.662125 C20.66475,55.662125 23.623125,54.812625 26.1975,53.205625 C26.5281008,52.999331 26.9616044,53.0805349 27.195125,53.3925 C28.567,55.226125 30.416875,56.65875 32.54525,57.5355 C34.099625,58.17575 35.73225,58.5005 37.398,58.5005 C38.675375,58.5005 39.944375,58.308 41.16975,57.9285 C41.372475,57.865782 41.5922782,57.8918478 41.7747117,58.0002406 C41.9571452,58.1086335 42.0851435,58.2892139 42.127,58.49725 C42.53575,60.5315 44.168625,65.263375 50.487625,65.263375 C51.1505,65.263375 51.856375,65.210625 52.585625,65.106625 C55.46425,64.6965 56.17025,62.984625 56.853,61.32925 C57.365,60.088 57.894375,58.8045 59.399125,58.676875 C60.0410682,58.6225731 60.6850142,58.5953407 61.32925,58.59525 C64.32825,58.59525 67.266125,59.179 70.061125,60.330375 C71.639831,60.9802995 73.14149,61.80351 74.5385,62.784875 C75.6211505,63.5460443 76.6355175,64.399973 77.570125,65.337 C78.1834022,65.9524569 78.7611293,66.6023426 79.3005,67.2835 Z"/><path id="路径" fill="#FFF" d="M53.36875,68.75825 C52.928,68.75825 52.48075,68.733625 52.039875,68.685125 C48.194375,68.261875 44.766875,65.989125 42.871375,62.605 C42.7496936,62.3879089 42.5282656,62.2453002 42.2802848,62.2243137 C42.032304,62.2033273 41.7900591,62.3066956 41.633625,62.50025 C40.29475,64.157125 38.312625,65.107375 36.195125,65.1075 C35.9365402,65.1074368 35.678153,65.0932072 35.421125,65.064875 C33.364,64.838625 31.522625,63.720375 30.369125,61.99675 C30.1397637,61.6532812 29.6757113,61.5601911 29.331625,61.788625 C27.00225,63.331375 24.3,64.14675 21.517125,64.146875 C20.997,64.146875 20.469125,64.117875 19.948375,64.060625 C12.16925,63.20475 6.5365,56.179625 7.392375,48.400625 C7.53440755,47.1169453 7.8504743,45.8585657 8.331875,44.660125 C8.41005789,44.4651586 8.40293951,44.2463476 8.31225,44.056875 C7.53795964,42.4402299 7.23202572,40.6390088 7.429125,38.857375 C7.96675,33.972375 12.071875,30.288625 16.978125,30.288625 C17.33125,30.288625 17.6895,30.30825 18.043125,30.34725 C20.79325,30.649625 23.282375,32.126 24.8725,34.398 C25.0111285,34.5959622 25.2365926,34.7150683 25.47825,34.718 L25.487,34.718 C25.7255461,34.7179626 25.9498628,34.604505 26.09125,34.412375 C28.3505,31.34 31.96425,29.50575 35.75825,29.50575 C36.198625,29.50575 36.6455,29.53025 37.08625,29.57875 C43.669,30.303 48.435375,36.24775 47.71125,42.8305 C47.633625,43.534375 47.488625,44.247375 47.280125,44.9495 C47.1962172,45.2320852 47.2856261,45.5376184 47.5086383,45.7303889 C47.7316505,45.9231594 48.0469057,45.9674156 48.314375,45.8435 C49.901375,45.1085 51.59175,44.735875 53.33825,44.735875 C53.778875,44.735875 54.225875,44.760375 54.66675,44.809 C57.8555,45.15975 60.716625,46.73125 62.7235,49.234125 C64.730375,51.737 65.6425,54.87175 65.2915,58.0605 C64.62025,64.15925 59.4945,68.75825 53.36875,68.75825 Z"/><path id="形状" fill="#D2221A" fill-rule="nonzero" d="M35.758125,30.255625 C36.17125,30.255625 36.590375,30.278875 37.00425,30.32425 C43.175875,31.00325 47.6445,36.57675 46.965625,42.748125 C46.892875,43.40775 46.75675,44.07675 46.561125,44.736125 C46.3931481,45.3012674 46.571874,45.9124001 47.0178898,46.2979803 C47.4639056,46.6835605 48.0944578,46.7720479 48.629375,46.524125 C50.11675,45.83525 51.701125,45.485875 53.338125,45.485875 C53.751375,45.485875 54.17075,45.509 54.584625,45.5545 C57.574125,45.883375 60.25675,47.35675 62.138375,49.703375 C64.019875,52.05 64.875,54.988875 64.546125,57.9785 C64.240875,60.752 62.926,63.30025 60.844,65.154 C58.776875,66.994625 56.122125,68.00825 53.368875,68.00825 C52.95525,68.00825 52.535875,67.985125 52.122,67.939625 C50.283625,67.737375 48.5805,67.1135 47.06,66.0855 C45.607625,65.10375 44.385625,63.773375 43.526,62.238625 C43.2827665,61.804308 42.8399149,61.5189495 42.3439032,61.4769223 C41.8478916,61.4348951 41.363341,61.6416744 41.0505,62.028875 C39.85475,63.50875 38.085125,64.3575 36.195375,64.3575 C35.966,64.3575 35.733125,64.344625 35.50325,64.319375 C33.666875,64.117375 32.022625,63.118875 30.992625,61.5795 C30.7141787,61.1628591 30.2458702,60.9130133 29.74475,60.91375 C29.46025,60.91375 29.172625,60.9945 28.917875,61.16325 C26.7115,62.624375 24.1525,63.396875 21.517375,63.396875 C21.0245,63.396875 20.52425,63.36925 20.03075,63.315125 C12.662625,62.5045 7.327625,55.850625 8.138125,48.48275 C8.27270023,47.2667111 8.57215682,46.0746459 9.02825,44.939375 C9.18463848,44.5494357 9.17035552,44.1117877 8.988875,43.732875 C8.27501092,42.2424758 7.99297781,40.5818884 8.17475,38.939375 C8.41295501,36.759068 9.45208242,34.7448233 11.09075,33.287 C12.719125,31.837 14.81,31.038625 16.97825,31.038625 C17.304125,31.038625 17.63475,31.056875 17.96125,31.09275 C20.49675,31.3715 22.791875,32.733 24.258,34.828125 C24.5351314,35.2240944 24.9860925,35.4622554 25.469375,35.467875 L25.487,35.468 C25.96375,35.468 26.4125,35.24125 26.6955,34.856625 C28.813875,31.97575 32.202,30.255625 35.758125,30.255625 Z M35.758125,28.755625 C31.6085,28.755625 27.833625,30.776875 25.486875,33.968 C23.834625,31.60725 21.214625,29.9415 18.125,29.60175 C17.7441112,29.5597194 17.3612008,29.538646 16.978,29.538625 C11.76,29.538625 7.2675,33.46825 6.683625,38.775375 C6.464125,40.7705 6.828,42.694625 7.635875,44.381 C7.128844,45.6425056 6.79615586,46.9672445 6.647,48.318625 C5.7445,56.521875 11.6635,63.90375 19.8665,64.806125 C20.42125,64.867125 20.97175,64.897 21.517125,64.897 C24.525125,64.897 27.36575,63.99025 29.745875,62.414 C30.973625,64.248625 32.972375,65.55025 35.339125,65.8105 C35.6234255,65.8418282 35.9092286,65.8575601 36.19525,65.857625 C38.591625,65.857625 40.7825,64.747125 42.217125,62.97175 C44.163125,66.446 47.698,68.962 51.957875,69.43075 C52.432,69.482875 52.9025,69.508375 53.36875,69.508375 C59.79025,69.508375 65.31825,64.673125 66.037,58.142625 C66.807625,51.1375 61.75325,44.833875 54.748625,44.0635 C54.2802344,44.0118169 53.8093584,43.9859028 53.338125,43.985875 C51.4940061,43.9854507 49.671974,44.3871569 47.999,45.163 C48.21375,44.43975 48.371125,43.68875 48.456625,42.9125 C49.227125,35.907625 44.173125,29.603875 37.168125,28.83325 C36.6998971,28.7816227 36.2291905,28.7557088 35.758125,28.755625 Z"/></g><g id="烟花" transform="translate(173.000000, 0.000000)"><path id="形状" fill="#FFBBA6" fill-rule="nonzero" d="M48.16125,31.33625 C46.9425,34.1275 46.17125,34.6325 45.6025,35.41375 C45.545,35.4925 45.42,35.43875 45.43875,35.3425 C45.62375,34.395 45.47125,33.485 46.69,30.69375 C48.2275,27.17125 48.98375,24.1025 50.21,24.6375 C51.43625,25.1725 49.69875,27.81375 48.16125,31.33625 Z M33.30625,32.655 C35.11375,35.10625 35.16625,36.02625 35.5575,36.91 C35.5975,36.99875 35.4875,37.08 35.41375,37.01625 C34.685,36.38125 33.82125,36.06 32.01375,33.60875 C29.7325,30.51625 27.4525,28.32625 28.52875,27.5325 C29.60625,26.7375 31.025,29.5625 33.30625,32.655 Z M27.02125,46.18 C30.0475,45.84 30.87125,46.255 31.83125,46.3575 C31.92875,46.3675 31.94375,46.50375 31.85125,46.535 C30.9375,46.84875 30.2275,47.43625 27.2,47.77625 C23.38125,48.205 20.345,49.085 20.195,47.75625 C20.045,46.425 23.20125,46.60875 27.02125,46.18 Z M35.59125,58.385 C36.81,55.59375 37.58125,55.08875 38.15,54.3075 C38.2075,54.22875 38.3325,54.2825 38.31375,54.37875 C38.12875,55.32625 38.28125,56.23625 37.0625,59.0275 C35.525,62.55 34.76875,65.61875 33.5425,65.08375 C32.315,64.54875 34.0525,61.9075 35.59125,58.385 Z M50.44625,57.06625 C48.63875,54.615 48.58625,53.695 48.195,52.81125 C48.155,52.7225 48.265,52.64125 48.33875,52.705 C49.0675,53.34 49.93125,53.66125 51.73875,56.1125 C54.02,59.205 56.3,61.395 55.22375,62.18875 C54.1475,62.9825 52.7275,60.15875 50.44625,57.06625 Z M56.73125,43.54125 C53.705,43.88125 52.88125,43.46625 51.92125,43.36375 C51.82375,43.35375 51.80875,43.2175 51.90125,43.18625 C52.815,42.8725 53.525,42.285 56.5525,41.945 C60.37125,41.51625 63.4075,40.63625 63.5575,41.965 C63.70625,43.29625 60.55,43.1125 56.73125,43.54125 Z"/><path id="路径" fill="#FFBBA6" d="M37.9625,44.81375 C37.9625,46.9000056 39.6537444,48.59125 41.74,48.59125 C43.8262556,48.59125 45.5175,46.9000056 45.5175,44.81375 C45.5175,42.7274944 43.8262556,41.03625 41.74,41.03625 C39.6537444,41.03625 37.9625,42.7274944 37.9625,44.81375 Z"/><path id="形状" fill="#FFBBA6" fill-rule="nonzero" d="M39.89,28.7 C40.815,33.43375 40.265,34.785 40.22625,36.315 C40.2225,36.47 40.01,36.51125 39.94875,36.36875 C39.3375,34.96625 38.31875,33.92125 37.395,29.1875 C36.22875,23.215 34.45125,18.535 36.53,18.12875 C38.61,17.7225 38.72375,22.7275 39.89,28.7 Z M26.8875,38.5 C31.44875,40.06625 32.345,41.2175 33.65,42.01625 C33.7825,42.0975 33.71125,42.30125 33.5575,42.28375 C32.0375,42.1125 30.6225,42.47125 26.06125,40.905 C20.305,38.92875 15.36375,38.12875 16.0525,36.125 C16.74125,34.12 21.13125,36.52375 26.8875,38.5 Z M28.87375,54.66125 C32.51125,51.49375 33.95625,51.29375 35.3,50.5625 C35.43625,50.48875 35.5775,50.65125 35.48625,50.77625 C34.5775,52.0075 34.18125,53.41125 30.54375,56.57875 C25.955,60.575 22.79125,64.455 21.39875,62.85625 C20.00625,61.25875 24.28375,58.6575 28.87375,54.66125 Z M43.86125,61.02125 C42.93625,56.2875 43.48625,54.93625 43.525,53.40625 C43.52875,53.25125 43.74125,53.21 43.8025,53.3525 C44.41375,54.755 45.4325,55.8 46.35625,60.53375 C47.5225,66.50625 49.3,71.18625 47.22125,71.5925 C45.1425,71.99875 45.0275,66.99375 43.86125,61.02125 Z M57.01625,51.235 C52.51625,49.69 51.63125,48.55375 50.34375,47.76625 C50.21375,47.68625 50.2825,47.485 50.435,47.5025 C51.935,47.67125 53.33,47.3175 57.83125,48.8625 C63.51,50.8125 68.385,51.60125 67.70625,53.57875 C67.02625,55.55625 62.695,53.185 57.01625,51.235 Z M54.87875,35.06125 C51.24125,38.22875 49.79625,38.42875 48.4525,39.16 C48.31625,39.23375 48.175,39.07125 48.26625,38.94625 C49.175,37.715 49.57125,36.31125 53.20875,33.14375 C57.7975,29.1475 60.96125,25.2675 62.35375,26.86625 C63.745,28.46375 59.4675,31.06375 54.87875,35.06125 Z"/><path id="形状" fill="#FFBBA6" fill-rule="nonzero" d="M46.215,17.2275 C45.8925,24.725 44.56875,26.57125 43.95375,28.87 C43.89125,29.1025 43.55625,29.0875 43.51375,28.85125 C43.09875,26.5075 41.93875,24.555 42.2625,17.0575 C42.67,7.59625 41.6825,-0.12875 44.9775,0.0125 C48.2725,0.15375 46.6225,7.76625 46.215,17.2275 Z M19.34375,27.32375 C25.675,31.3525 26.6125,33.42125 28.29625,35.10375 C28.46625,35.27375 28.28625,35.5575 28.06,35.475 C25.8225,34.6625 23.5525,34.69 17.22,30.6625 C9.23125,25.57875 2.04625,22.57125 3.81625,19.78875 C5.58625,17.00625 11.355,22.24 19.34375,27.32375 Z M18.7025,52.73125 C25.79,50.265 27.99375,50.81375 30.35875,50.5375 C30.5975,50.51 30.70875,50.8275 30.50375,50.95375 C28.47875,52.20375 27.09125,54.0025 20.00375,56.46875 C11.06,59.58 4.24375,63.34875 3.16,60.23375 C2.075,57.12 9.75875,55.8425 18.7025,52.73125 Z M38.64875,73.0225 C38.97125,65.525 40.295,63.67875 40.91,61.38 C40.9725,61.1475 41.3075,61.1625 41.35,61.39875 C41.765,63.7425 42.925,65.695 42.60125,73.1925 C42.19375,82.65375 43.18125,90.37875 39.88625,90.2375 C36.5925,90.09625 38.24125,82.48375 38.64875,73.0225 Z M62.11,61.185 C55.86375,57.21 54.93875,55.17 53.2775,53.51 C53.11,53.3425 53.2875,53.0625 53.51125,53.14375 C55.71875,53.945 57.95875,53.9175 64.205,57.8925 C72.0875,62.9075 79.175,65.875 77.42875,68.62 C75.6825,71.36375 69.99125,66.2 62.11,61.185 Z M66.5775,34.12 C59.9225,37.58875 57.6625,37.36625 55.36375,37.9825 C55.13125,38.045 54.97625,37.7475 55.16,37.5925 C56.9825,36.06125 58.09375,34.08 64.74875,30.61125 C73.14625,26.23375 79.34375,21.51625 80.8675,24.44 C82.39125,27.36375 74.97375,29.7425 66.5775,34.12 Z"/><path id="形状" fill="#FFBBA6" fill-rule="nonzero" d="M87.5025,34.36875 C87.5025,36.39875 87.16625,36.91375 87.02625,37.5425 C87.0125,37.60625 86.92125,37.60625 86.9075,37.5425 C86.7675,36.91375 86.43125,36.4 86.43125,34.36875 C86.43125,31.80625 86.075,29.73 86.96625,29.73 C87.85875,29.72875 87.5025,31.80625 87.5025,34.36875 Z M78.7775,39.1375 C80.53625,40.1525 80.81375,40.70125 81.2875,41.13625 C81.335,41.18 81.29,41.25875 81.2275,41.24 C80.61375,41.04625 80,41.08 78.24125,40.065 C76.0225,38.78375 74.045,38.055 74.49125,37.28125 C74.9375,36.5075 76.55875,37.85625 78.7775,39.1375 Z M78.54625,49.07625 C80.305,48.06125 80.91875,48.095 81.5325,47.90125 C81.595,47.88125 81.64,47.96 81.5925,48.005 C81.1175,48.44 80.84,48.98875 79.0825,50.00375 C76.86375,51.285 75.24375,52.6325 74.7975,51.86 C74.35,51.0875 76.32625,50.3575 78.54625,49.07625 Z M87.0375,54.2475 C87.0375,52.2175 87.37375,51.7025 87.51375,51.07375 C87.5275,51.01 87.61875,51.01 87.6325,51.07375 C87.7725,51.7025 88.10875,52.21625 88.10875,54.2475 C88.10875,56.81 88.465,58.88625 87.57375,58.88625 C86.68125,58.8875 87.0375,56.81 87.0375,54.2475 Z M95.7625,49.47875 C94.00375,48.46375 93.72625,47.915 93.2525,47.48 C93.205,47.43625 93.25,47.3575 93.3125,47.37625 C93.92625,47.57 94.54,47.53625 96.29875,48.55125 C98.5175,49.8325 100.495,50.56125 100.04875,51.335 C99.60125,52.1075 97.98125,50.76 95.7625,49.47875 Z M95.99375,39.54 C94.235,40.555 93.62125,40.52125 93.0075,40.715 C92.945,40.735 92.9,40.65625 92.9475,40.61125 C93.4225,40.17625 93.7,39.6275 95.4575,38.6125 C97.67625,37.33125 99.29625,35.98375 99.7425,36.75625 C100.19,37.52875 98.21375,38.25875 95.99375,39.54 Z"/><path id="形状" fill="#FFBBA6" fill-rule="nonzero" d="M87.5025,34.36875 C87.5025,36.39875 87.16625,36.91375 87.02625,37.5425 C87.0125,37.60625 86.92125,37.60625 86.9075,37.5425 C86.7675,36.91375 86.43125,36.4 86.43125,34.36875 C86.43125,31.80625 86.075,29.73 86.96625,29.73 C87.85875,29.72875 87.5025,31.80625 87.5025,34.36875 Z M78.7775,39.1375 C80.53625,40.1525 80.81375,40.70125 81.2875,41.13625 C81.335,41.18 81.29,41.25875 81.2275,41.24 C80.61375,41.04625 80,41.08 78.24125,40.065 C76.0225,38.78375 74.045,38.055 74.49125,37.28125 C74.9375,36.5075 76.55875,37.85625 78.7775,39.1375 Z M78.54625,49.07625 C80.305,48.06125 80.91875,48.095 81.5325,47.90125 C81.595,47.88125 81.64,47.96 81.5925,48.005 C81.1175,48.44 80.84,48.98875 79.0825,50.00375 C76.86375,51.285 75.24375,52.6325 74.7975,51.86 C74.35,51.0875 76.32625,50.3575 78.54625,49.07625 Z M87.0375,54.2475 C87.0375,52.2175 87.37375,51.7025 87.51375,51.07375 C87.5275,51.01 87.61875,51.01 87.6325,51.07375 C87.7725,51.7025 88.10875,52.21625 88.10875,54.2475 C88.10875,56.81 88.465,58.88625 87.57375,58.88625 C86.68125,58.8875 87.0375,56.81 87.0375,54.2475 Z M95.7625,49.47875 C94.00375,48.46375 93.72625,47.915 93.2525,47.48 C93.205,47.43625 93.25,47.3575 93.3125,47.37625 C93.92625,47.57 94.54,47.53625 96.29875,48.55125 C98.5175,49.8325 100.495,50.56125 100.04875,51.335 C99.60125,52.1075 97.98125,50.76 95.7625,49.47875 Z M95.99375,39.54 C94.235,40.555 93.62125,40.52125 93.0075,40.715 C92.945,40.735 92.9,40.65625 92.9475,40.61125 C93.4225,40.17625 93.7,39.6275 95.4575,38.6125 C97.67625,37.33125 99.29625,35.98375 99.7425,36.75625 C100.19,37.52875 98.21375,38.25875 95.99375,39.54 Z"/><path id="路径" fill="#FFBBA6" d="M84.65625,44.3075 C84.65625,45.6985672 85.7839328,46.82625 87.175,46.82625 C88.5660672,46.82625 89.69375,45.6985672 89.69375,44.3075 C89.69375,42.9164328 88.5660672,41.78875 87.175,41.78875 C85.7839328,41.78875 84.65625,42.9164328 84.65625,44.3075 Z"/><path id="形状" fill="#FFBBA6" fill-rule="nonzero" d="M82.52,34.5475 C84.1275,37.3325 84.07375,38.30375 84.38,39.27625 C84.41125,39.375 84.28625,39.44625 84.21625,39.37 C83.5275,38.61875 82.65875,38.17875 81.05125,35.395 C79.0225,31.88125 76.88875,29.31625 78.1125,28.60875 C79.33625,27.90375 80.49125,31.03375 82.52,34.5475 Z M76.4425,43.54125 C79.6575,43.54125 80.4725,44.07375 81.4675,44.295 C81.56875,44.3175 81.56875,44.46125 81.4675,44.48375 C80.47125,44.705 79.6575,45.2375 76.4425,45.2375 C72.385,45.2375 69.09625,45.8025 69.09625,44.39 C69.09625,42.9775 72.385,43.54125 76.4425,43.54125 Z M81.1925,53.3025 C82.8,50.5175 83.66875,50.07875 84.3575,49.3275 C84.4275,49.25125 84.5525,49.32375 84.52125,49.42125 C84.215,50.39375 84.26875,51.365 82.66125,54.15 C80.6325,57.66375 79.4775,60.795 78.25375,60.0875 C77.03,59.38125 79.16375,56.81625 81.1925,53.3025 Z M92.02,54.06875 C90.4125,51.28375 90.46625,50.3125 90.16,49.34 C90.12875,49.24125 90.25375,49.17 90.32375,49.24625 C91.0125,49.9975 91.88125,50.4375 93.48875,53.22125 C95.5175,56.735 97.65125,59.3 96.4275,60.0075 C95.20375,60.7125 94.04875,57.58125 92.02,54.06875 Z M98.19625,45.05 C95.02375,45.05 94.22125,44.525 93.23875,44.30625 C93.14,44.28375 93.14,44.1425 93.23875,44.12 C94.22125,43.9025 95.025,43.37625 98.19625,43.37625 C102.19875,43.37625 105.44375,42.81875 105.44375,44.2125 C105.44375,45.6075 102.19875,45.05 98.19625,45.05 Z M93.3475,35.31375 C91.74,38.09875 90.87125,38.5375 90.1825,39.28875 C90.1125,39.365 89.98875,39.2925 90.01875,39.195 C90.325,38.2225 90.27125,37.25125 91.87875,34.46625 C93.9075,30.9525 95.0625,27.82125 96.28625,28.52875 C97.51,29.235 95.37625,31.8 93.3475,35.31375 Z"/><path id="形状" fill="#9E1919" fill-rule="nonzero" d="M45.16125,32.83625 C43.9425,35.6275 43.17125,36.1325 42.6025,36.91375 C42.545,36.9925 42.42,36.93875 42.43875,36.8425 C42.62375,35.895 42.47125,34.985 43.69,32.19375 C45.2275,28.67125 45.98375,25.6025 47.21,26.1375 C48.43625,26.6725 46.69875,29.31375 45.16125,32.83625 Z M30.30625,34.155 C32.11375,36.60625 32.16625,37.52625 32.5575,38.41 C32.5975,38.49875 32.4875,38.58 32.41375,38.51625 C31.685,37.88125 30.82125,37.56 29.01375,35.10875 C26.7325,32.01625 24.4525,29.82625 25.52875,29.0325 C26.60625,28.2375 28.025,31.0625 30.30625,34.155 Z M24.02125,47.68 C27.0475,47.34 27.87125,47.755 28.83125,47.8575 C28.92875,47.8675 28.94375,48.00375 28.85125,48.035 C27.9375,48.34875 27.2275,48.93625 24.2,49.27625 C20.38125,49.705 17.345,50.585 17.195,49.25625 C17.045,47.925 20.20125,48.10875 24.02125,47.68 Z M32.59125,59.885 C33.81,57.09375 34.58125,56.58875 35.15,55.8075 C35.2075,55.72875 35.3325,55.7825 35.31375,55.87875 C35.12875,56.82625 35.28125,57.73625 34.0625,60.5275 C32.525,64.05 31.76875,67.11875 30.5425,66.58375 C29.315,66.04875 31.0525,63.4075 32.59125,59.885 Z M47.44625,58.56625 C45.63875,56.115 45.58625,55.195 45.195,54.31125 C45.155,54.2225 45.265,54.14125 45.33875,54.205 C46.0675,54.84 46.93125,55.16125 48.73875,57.6125 C51.02,60.705 53.3,62.895 52.22375,63.68875 C51.1475,64.4825 49.7275,61.65875 47.44625,58.56625 Z M53.73125,45.04125 C50.705,45.38125 49.88125,44.96625 48.92125,44.86375 C48.82375,44.85375 48.80875,44.7175 48.90125,44.68625 C49.815,44.3725 50.525,43.785 53.5525,43.445 C57.37125,43.01625 60.4075,42.13625 60.5575,43.465 C60.70625,44.79625 57.55,44.6125 53.73125,45.04125 Z"/><path id="路径" fill="#9E1919" d="M34.9625,46.31375 C34.9625,48.4000056 36.6537444,50.09125 38.74,50.09125 C40.8262556,50.09125 42.5175,48.4000056 42.5175,46.31375 C42.5175,44.2274944 40.8262556,42.53625 38.74,42.53625 C36.6537444,42.53625 34.9625,44.2274944 34.9625,46.31375 Z"/><path id="形状" fill="#9E1919" fill-rule="nonzero" d="M36.89,30.2 C37.815,34.93375 37.265,36.285 37.22625,37.815 C37.2225,37.97 37.01,38.01125 36.94875,37.86875 C36.3375,36.46625 35.31875,35.42125 34.395,30.6875 C33.22875,24.715 31.45125,20.035 33.53,19.62875 C35.61,19.2225 35.72375,24.2275 36.89,30.2 Z M23.8875,40 C28.44875,41.56625 29.345,42.7175 30.65,43.51625 C30.7825,43.5975 30.71125,43.80125 30.5575,43.78375 C29.0375,43.6125 27.6225,43.97125 23.06125,42.405 C17.305,40.42875 12.36375,39.62875 13.0525,37.625 C13.74125,35.62 18.13125,38.02375 23.8875,40 Z M25.87375,56.16125 C29.51125,52.99375 30.95625,52.79375 32.3,52.0625 C32.43625,51.98875 32.5775,52.15125 32.48625,52.27625 C31.5775,53.5075 31.18125,54.91125 27.54375,58.07875 C22.955,62.075 19.79125,65.955 18.39875,64.35625 C17.00625,62.75875 21.28375,60.1575 25.87375,56.16125 Z M40.86125,62.52125 C39.93625,57.7875 40.48625,56.43625 40.525,54.90625 C40.52875,54.75125 40.74125,54.71 40.8025,54.8525 C41.41375,56.255 42.4325,57.3 43.35625,62.03375 C44.5225,68.00625 46.3,72.68625 44.22125,73.0925 C42.1425,73.49875 42.0275,68.49375 40.86125,62.52125 Z M54.01625,52.735 C49.51625,51.19 48.63125,50.05375 47.34375,49.26625 C47.21375,49.18625 47.2825,48.985 47.435,49.0025 C48.935,49.17125 50.33,48.8175 54.83125,50.3625 C60.51,52.3125 65.385,53.10125 64.70625,55.07875 C64.02625,57.05625 59.695,54.685 54.01625,52.735 Z M51.87875,36.56125 C48.24125,39.72875 46.79625,39.92875 45.4525,40.66 C45.31625,40.73375 45.175,40.57125 45.26625,40.44625 C46.175,39.215 46.57125,37.81125 50.20875,34.64375 C54.7975,30.6475 57.96125,26.7675 59.35375,28.36625 C60.745,29.96375 56.4675,32.56375 51.87875,36.56125 Z"/><path id="形状" fill="#9E1919" fill-rule="nonzero" d="M43.215,18.7275 C42.8925,26.225 41.56875,28.07125 40.95375,30.37 C40.89125,30.6025 40.55625,30.5875 40.51375,30.35125 C40.09875,28.0075 38.93875,26.055 39.2625,18.5575 C39.67,9.09625 38.6825,1.37125 41.9775,1.5125 C45.2725,1.65375 43.6225,9.26625 43.215,18.7275 Z M16.34375,28.82375 C22.675,32.8525 23.6125,34.92125 25.29625,36.60375 C25.46625,36.77375 25.28625,37.0575 25.06,36.975 C22.8225,36.1625 20.5525,36.19 14.22,32.1625 C6.23125,27.07875 -0.95375,24.07125 0.81625,21.28875 C2.58625,18.50625 8.355,23.74 16.34375,28.82375 Z M15.7025,54.23125 C22.79,51.765 24.99375,52.31375 27.35875,52.0375 C27.5975,52.01 27.70875,52.3275 27.50375,52.45375 C25.47875,53.70375 24.09125,55.5025 17.00375,57.96875 C8.06,61.08 1.24375,64.84875 0.16,61.73375 C-0.925,58.62 6.75875,57.3425 15.7025,54.23125 Z M35.64875,74.5225 C35.97125,67.025 37.295,65.17875 37.91,62.88 C37.9725,62.6475 38.3075,62.6625 38.35,62.89875 C38.765,65.2425 39.925,67.195 39.60125,74.6925 C39.19375,84.15375 40.18125,91.87875 36.88625,91.7375 C33.5925,91.59625 35.24125,83.98375 35.64875,74.5225 Z M59.11,62.685 C52.86375,58.71 51.93875,56.67 50.2775,55.01 C50.11,54.8425 50.2875,54.5625 50.51125,54.64375 C52.71875,55.445 54.95875,55.4175 61.205,59.3925 C69.0875,64.4075 76.175,67.375 74.42875,70.12 C72.6825,72.86375 66.99125,67.7 59.11,62.685 Z M63.5775,35.62 C56.9225,39.08875 54.6625,38.86625 52.36375,39.4825 C52.13125,39.545 51.97625,39.2475 52.16,39.0925 C53.9825,37.56125 55.09375,35.58 61.74875,32.11125 C70.14625,27.73375 76.34375,23.01625 77.8675,25.94 C79.39125,28.86375 71.97375,31.2425 63.5775,35.62 Z"/><path id="形状" fill="#9E1919" fill-rule="nonzero" d="M84.5025,35.86875 C84.5025,37.89875 84.16625,38.41375 84.02625,39.0425 C84.0125,39.10625 83.92125,39.10625 83.9075,39.0425 C83.7675,38.41375 83.43125,37.9 83.43125,35.86875 C83.43125,33.30625 83.075,31.23 83.96625,31.23 C84.85875,31.22875 84.5025,33.30625 84.5025,35.86875 Z M75.7775,40.6375 C77.53625,41.6525 77.81375,42.20125 78.2875,42.63625 C78.335,42.68 78.29,42.75875 78.2275,42.74 C77.61375,42.54625 77,42.58 75.24125,41.565 C73.0225,40.28375 71.045,39.555 71.49125,38.78125 C71.9375,38.0075 73.55875,39.35625 75.7775,40.6375 Z M75.54625,50.57625 C77.305,49.56125 77.91875,49.595 78.5325,49.40125 C78.595,49.38125 78.64,49.46 78.5925,49.505 C78.1175,49.94 77.84,50.48875 76.0825,51.50375 C73.86375,52.785 72.24375,54.1325 71.7975,53.36 C71.35,52.5875 73.32625,51.8575 75.54625,50.57625 Z M84.0375,55.7475 C84.0375,53.7175 84.37375,53.2025 84.51375,52.57375 C84.5275,52.51 84.61875,52.51 84.6325,52.57375 C84.7725,53.2025 85.10875,53.71625 85.10875,55.7475 C85.10875,58.31 85.465,60.38625 84.57375,60.38625 C83.68125,60.3875 84.0375,58.31 84.0375,55.7475 Z M92.7625,50.97875 C91.00375,49.96375 90.72625,49.415 90.2525,48.98 C90.205,48.93625 90.25,48.8575 90.3125,48.87625 C90.92625,49.07 91.54,49.03625 93.29875,50.05125 C95.5175,51.3325 97.495,52.06125 97.04875,52.835 C96.60125,53.6075 94.98125,52.26 92.7625,50.97875 Z M92.99375,41.04 C91.235,42.055 90.62125,42.02125 90.0075,42.215 C89.945,42.235 89.9,42.15625 89.9475,42.11125 C90.4225,41.67625 90.7,41.1275 92.4575,40.1125 C94.67625,38.83125 96.29625,37.48375 96.7425,38.25625 C97.19,39.02875 95.21375,39.75875 92.99375,41.04 Z"/><path id="形状" fill="#9E1919" fill-rule="nonzero" d="M84.5025,35.86875 C84.5025,37.89875 84.16625,38.41375 84.02625,39.0425 C84.0125,39.10625 83.92125,39.10625 83.9075,39.0425 C83.7675,38.41375 83.43125,37.9 83.43125,35.86875 C83.43125,33.30625 83.075,31.23 83.96625,31.23 C84.85875,31.22875 84.5025,33.30625 84.5025,35.86875 Z M75.7775,40.6375 C77.53625,41.6525 77.81375,42.20125 78.2875,42.63625 C78.335,42.68 78.29,42.75875 78.2275,42.74 C77.61375,42.54625 77,42.58 75.24125,41.565 C73.0225,40.28375 71.045,39.555 71.49125,38.78125 C71.9375,38.0075 73.55875,39.35625 75.7775,40.6375 Z M75.54625,50.57625 C77.305,49.56125 77.91875,49.595 78.5325,49.40125 C78.595,49.38125 78.64,49.46 78.5925,49.505 C78.1175,49.94 77.84,50.48875 76.0825,51.50375 C73.86375,52.785 72.24375,54.1325 71.7975,53.36 C71.35,52.5875 73.32625,51.8575 75.54625,50.57625 Z M84.0375,55.7475 C84.0375,53.7175 84.37375,53.2025 84.51375,52.57375 C84.5275,52.51 84.61875,52.51 84.6325,52.57375 C84.7725,53.2025 85.10875,53.71625 85.10875,55.7475 C85.10875,58.31 85.465,60.38625 84.57375,60.38625 C83.68125,60.3875 84.0375,58.31 84.0375,55.7475 Z M92.7625,50.97875 C91.00375,49.96375 90.72625,49.415 90.2525,48.98 C90.205,48.93625 90.25,48.8575 90.3125,48.87625 C90.92625,49.07 91.54,49.03625 93.29875,50.05125 C95.5175,51.3325 97.495,52.06125 97.04875,52.835 C96.60125,53.6075 94.98125,52.26 92.7625,50.97875 Z M92.99375,41.04 C91.235,42.055 90.62125,42.02125 90.0075,42.215 C89.945,42.235 89.9,42.15625 89.9475,42.11125 C90.4225,41.67625 90.7,41.1275 92.4575,40.1125 C94.67625,38.83125 96.29625,37.48375 96.7425,38.25625 C97.19,39.02875 95.21375,39.75875 92.99375,41.04 Z"/><path id="路径" fill="#9E1919" d="M81.65625,45.8075 C81.65625,47.1985672 82.7839328,48.32625 84.175,48.32625 C85.5660672,48.32625 86.69375,47.1985672 86.69375,45.8075 C86.69375,44.4164328 85.5660672,43.28875 84.175,43.28875 C82.7839328,43.28875 81.65625,44.4164328 81.65625,45.8075 Z"/><path id="形状" fill="#9E1919" fill-rule="nonzero" d="M79.52,36.0475 C81.1275,38.8325 81.07375,39.80375 81.38,40.77625 C81.41125,40.875 81.28625,40.94625 81.21625,40.87 C80.5275,40.11875 79.65875,39.67875 78.05125,36.895 C76.0225,33.38125 73.88875,30.81625 75.1125,30.10875 C76.33625,29.40375 77.49125,32.53375 79.52,36.0475 Z M73.4425,45.04125 C76.6575,45.04125 77.4725,45.57375 78.4675,45.795 C78.56875,45.8175 78.56875,45.96125 78.4675,45.98375 C77.47125,46.205 76.6575,46.7375 73.4425,46.7375 C69.385,46.7375 66.09625,47.3025 66.09625,45.89 C66.09625,44.47625 69.385,45.04125 73.4425,45.04125 Z M78.1925,54.8025 C79.8,52.0175 80.66875,51.57875 81.3575,50.8275 C81.4275,50.75125 81.5525,50.82375 81.52125,50.92125 C81.215,51.89375 81.26875,52.865 79.66125,55.65 C77.6325,59.16375 76.4775,62.295 75.25375,61.5875 C74.03,60.88125 76.16375,58.31625 78.1925,54.8025 Z M89.02,55.56875 C87.4125,52.78375 87.46625,51.8125 87.16,50.84 C87.12875,50.74125 87.25375,50.67 87.32375,50.74625 C88.0125,51.4975 88.88125,51.9375 90.48875,54.72125 C92.5175,58.235 94.65125,60.8 93.4275,61.5075 C92.20375,62.2125 91.04875,59.08125 89.02,55.56875 Z M95.19625,46.55 C92.02375,46.55 91.22125,46.025 90.23875,45.80625 C90.14,45.78375 90.14,45.6425 90.23875,45.62 C91.22125,45.4025 92.025,44.87625 95.19625,44.87625 C99.19875,44.87625 102.44375,44.31875 102.44375,45.7125 C102.44375,47.1075 99.19875,46.55 95.19625,46.55 Z M90.3475,36.81375 C88.74,39.59875 87.87125,40.0375 87.1825,40.78875 C87.1125,40.865 86.98875,40.7925 87.01875,40.695 C87.325,39.7225 87.27125,38.75125 88.87875,35.96625 C90.9075,32.4525 92.0625,29.32125 93.28625,30.02875 C94.51,30.735 92.37625,33.3 90.3475,36.81375 Z"/></g></g></g></svg>