<svg width="1276" height="636" viewBox="0 0 1276 636" fill="none" xmlns="http://www.w3.org/2000/svg">
<g clip-path="url(#clip0_203_2)">
<rect width="1276" height="636" fill="#2E7EEE"/>
<circle cx="371" cy="163" r="281" fill="url(#paint0_linear_203_2)"/>
<circle cx="1275.5" cy="422.5" r="422.5" fill="url(#paint1_linear_203_2)" fill-opacity="0.6"/>
<circle cx="75.5" cy="73.5" r="99.5" fill="url(#paint2_linear_203_2)" fill-opacity="0.5"/>
<path d="M481.47 365.56C485.23 365.56 487.91 364 490.19 361.4L488.79 359.84C486.71 362.16 484.51 363.4 481.59 363.4C475.47 363.4 471.63 358.28 471.63 350.36C471.63 342.44 475.51 337.48 481.71 337.48C484.35 337.48 486.43 338.68 487.99 340.4L489.35 338.84C487.79 337.04 485.15 335.32 481.71 335.32C474.31 335.32 469.15 341.12 469.15 350.4C469.15 359.72 474.23 365.56 481.47 365.56ZM498.628 365.56C499.388 365.56 499.788 365.44 500.228 365.32L499.868 363.44C499.428 363.52 499.268 363.52 499.068 363.52C498.508 363.52 498.148 363.08 498.148 362.08V333.24H495.788V361.84C495.788 364.32 496.708 365.56 498.628 365.56ZM514.333 365.56C519.493 365.56 523.973 361.44 523.973 354.4C523.973 347.24 519.493 343.16 514.333 343.16C509.173 343.16 504.653 347.24 504.653 354.4C504.653 361.44 509.173 365.56 514.333 365.56ZM514.333 363.52C510.133 363.52 507.093 359.84 507.093 354.4C507.093 348.92 510.133 345.16 514.333 345.16C518.493 345.16 521.573 348.92 521.573 354.4C521.573 359.84 518.493 363.52 514.333 363.52ZM536.323 365.56C539.243 365.56 541.443 363.92 543.523 361.48H543.603L543.843 365H545.803V343.68H543.443V359.28C541.083 362.2 539.283 363.48 536.843 363.48C533.563 363.48 532.163 361.44 532.163 357.04V343.68H529.843V357.32C529.843 362.84 531.883 365.56 536.323 365.56ZM560.798 365.56C563.598 365.56 565.958 364.04 567.678 362.32H567.758L568.038 365H569.958V333.24H567.598V341.88L567.758 345.76C565.718 344.08 563.998 343.16 561.438 343.16C556.358 343.16 551.998 347.48 551.998 354.4C551.998 361.56 555.478 365.56 560.798 365.56ZM561.198 363.52C556.878 363.52 554.438 359.92 554.438 354.4C554.438 349.12 557.598 345.2 561.638 345.2C563.678 345.2 565.478 345.92 567.598 347.8V360.12C565.518 362.32 563.478 363.52 561.198 363.52ZM578.297 365H580.617V339.36C580.617 336.36 581.657 334.68 583.897 334.68C584.697 334.68 585.577 334.84 586.417 335.28L587.017 333.4C586.017 332.96 584.857 332.72 583.777 332.72C580.217 332.72 578.297 335 578.297 339.24V365ZM575.377 345.68H585.457V343.68H578.377L575.377 343.88V345.68ZM592.737 365.56C593.497 365.56 593.857 365.44 594.297 365.32L593.937 363.44C593.537 363.52 593.337 363.52 593.137 363.52C592.617 363.52 592.217 363.08 592.217 362.08V333.24H589.857V361.84C589.857 364.32 590.817 365.56 592.737 365.56ZM605.274 365.56C608.034 365.56 610.594 364.04 612.714 362.32H612.834L613.074 365H615.034V351.48C615.034 346.76 613.194 343.16 608.114 343.16C604.634 343.16 601.674 344.8 600.074 345.92L601.074 347.64C602.594 346.52 604.994 345.16 607.834 345.16C611.874 345.16 612.754 348.44 612.674 351.6C603.274 352.68 599.074 354.92 599.074 359.64C599.074 363.6 601.874 365.56 605.274 365.56ZM605.754 363.56C603.394 363.56 601.434 362.44 601.434 359.52C601.434 356.28 604.274 354.28 612.674 353.36V360.28C610.194 362.44 608.114 363.56 605.754 363.56ZM622.429 365H624.789V350.72C626.349 346.72 628.629 345.32 630.469 345.32C631.349 345.32 631.749 345.4 632.469 345.68L632.949 343.6C632.229 343.24 631.629 343.16 630.789 343.16C628.309 343.16 626.189 345 624.749 347.64H624.669L624.389 343.68H622.429V365ZM644.535 365.56C647.575 365.56 649.615 364.52 651.335 363.44L650.415 361.72C648.815 362.84 647.055 363.56 644.775 363.56C640.135 363.56 637.055 359.92 636.975 354.76H652.095C652.175 354.2 652.215 353.64 652.215 353.08C652.215 346.84 649.095 343.16 643.935 343.16C639.135 343.16 634.575 347.44 634.575 354.4C634.575 361.4 639.015 365.56 644.535 365.56ZM636.935 352.92C637.415 348 640.495 345.12 643.975 345.12C647.695 345.12 650.055 347.76 650.055 352.92H636.935ZM670.407 365H673.127L678.167 345.56C678.687 343.24 679.247 341.24 679.767 338.96H679.927C680.447 341.24 680.927 343.24 681.447 345.56L686.567 365H689.287L695.727 335.84H693.367L689.807 352.76C689.207 355.88 688.607 359.04 687.967 362.24H687.767C687.007 359.04 686.287 355.88 685.527 352.76L681.087 335.84H678.687L674.287 352.76C673.527 355.88 672.727 359.04 672.047 362.24H671.887C671.207 359.04 670.567 355.92 669.927 352.76L666.367 335.84H663.927L670.407 365ZM708.903 365.56C714.063 365.56 718.543 361.44 718.543 354.4C718.543 347.24 714.063 343.16 708.903 343.16C703.743 343.16 699.223 347.24 699.223 354.4C699.223 361.44 703.743 365.56 708.903 365.56ZM708.903 363.52C704.703 363.52 701.663 359.84 701.663 354.4C701.663 348.92 704.703 345.16 708.903 345.16C713.063 345.16 716.143 348.92 716.143 354.4C716.143 359.84 713.063 363.52 708.903 363.52ZM724.733 365H727.093V350.72C728.653 346.72 730.933 345.32 732.773 345.32C733.653 345.32 734.053 345.4 734.773 345.68L735.253 343.6C734.533 343.24 733.933 343.16 733.093 343.16C730.613 343.16 728.493 345 727.053 347.64H726.973L726.693 343.68H724.733V365ZM739.108 365H741.428V359.24L746.028 353.84L752.948 365H755.468L747.388 352.16L754.388 343.68H751.708L741.548 356.24H741.428V333.24H739.108V365ZM767.543 365.56C770.583 365.56 772.623 364.52 774.343 363.44L773.423 361.72C771.823 362.84 770.063 363.56 767.783 363.56C763.143 363.56 760.063 359.92 759.983 354.76H775.103C775.183 354.2 775.223 353.64 775.223 353.08C775.223 346.84 772.103 343.16 766.943 343.16C762.143 343.16 757.583 347.44 757.583 354.4C757.583 361.4 762.023 365.56 767.543 365.56ZM759.943 352.92C760.423 348 763.503 345.12 766.983 345.12C770.703 345.12 773.063 347.76 773.063 352.92H759.943ZM780.866 365H783.226V350.72C784.786 346.72 787.066 345.32 788.906 345.32C789.786 345.32 790.186 345.4 790.906 345.68L791.386 343.6C790.666 343.24 790.066 343.16 789.226 343.16C786.746 343.16 784.626 345 783.186 347.64H783.106L782.826 343.68H780.866V365ZM800.404 365.56C805.124 365.56 807.684 362.76 807.684 359.44C807.684 355.32 804.124 354.2 800.844 352.96C798.364 352 796.004 351.12 796.004 348.8C796.004 346.88 797.484 345.08 800.684 345.08C802.764 345.08 804.244 345.96 805.684 347L806.884 345.44C805.364 344.12 803.044 343.16 800.684 343.16C796.204 343.16 793.724 345.76 793.724 348.88C793.724 352.56 797.084 353.88 800.204 355C802.684 355.92 805.364 357.04 805.364 359.6C805.364 361.76 803.724 363.6 800.484 363.6C797.564 363.6 795.604 362.44 793.804 360.92L792.524 362.6C794.484 364.24 797.244 365.56 800.404 365.56ZM480.9 397.25V399.45H508.8V397.25H480.9ZM479.15 416.55V418.85H510.55V416.55H479.15ZM483.55 423.7V440.75H485.9V425.95H504.7V440.6H507.05V423.7H483.55ZM484.65 436.4V438.65H505.55V436.4H484.65ZM491.8 398.15C490.65 404.15 488.7 412.75 487.2 417.7H489.8C491.05 412.9 493 404.55 494.25 398.4L491.8 398.15ZM482.7 406.15V408.4H503.7V406.15H482.7ZM503.15 406.15V406.55C502.95 409.15 502.4 414.1 501.85 417.55L504.15 417.7C504.65 414.25 505.2 409.7 505.5 406.2L503.8 406L503.4 406.15H503.15ZM468.45 398.55C471.15 400.85 474.25 404.1 475.85 406.2L477.5 404.4C476 402.4 472.7 399.25 470.05 397.05L468.45 398.55ZM465.5 411.15V413.5H474.4V411.15H465.5ZM472.8 438.7C473.45 437.9 474.6 437.05 482.7 431.4C482.5 430.95 482.1 430.05 481.95 429.45L473.5 435L472.55 436.4L472.8 438.7ZM472.8 438.7C472.8 437.75 475.3 436.1 475.3 436.1V411.15H473.05V433.35C473.05 435.3 472.1 436.1 471.5 436.45C471.95 437.05 472.6 438.15 472.8 438.7ZM548.15 402.5C541.25 410.05 528.1 414.9 515.15 417.35C515.6 417.85 516.35 418.95 516.65 419.5C529.5 416.6 542.85 411.75 550.25 403.6L548.15 402.5ZM528.25 398.25C525.95 402.2 522.3 406 518.65 408.55C519.25 408.95 520.2 409.7 520.65 410.15C524.2 407.4 528.05 403.2 530.55 398.95L528.25 398.25ZM546.75 399.15C550.6 402.1 555.15 406.3 557.35 409.05L559.3 407.6C557.05 404.9 552.45 400.75 548.65 397.95L546.75 399.15ZM524.9 415.85V440.7H527.35V418H558.65V415.85H524.9ZM541.6 416.9V437.7H544V416.9H541.6ZM526.2 423V425H556.3V423H526.2ZM526.2 429.75V431.7H556.3V429.75H526.2ZM526.15 436.75V438.8H559.2V436.75H526.15ZM539.3 412.15C540.7 413.6 542.1 415.8 542.65 417.15L544.85 416.3C544.2 414.85 542.75 412.85 541.4 411.4L539.3 412.15ZM536.65 395.4V411H539.05V395.4H536.65ZM588 413.35C585.4 413.35 583.3 415.45 583.3 418C583.3 420.6 585.4 422.7 588 422.7C590.55 422.7 592.65 420.6 592.65 418C592.65 415.45 590.55 413.35 588 413.35ZM638.45 420.7V423H654.9V420.7H638.45ZM617.1 436.95V439.2H659.65V436.95H617.1ZM637.25 408.55V438.15H639.7V408.55H637.25ZM623.95 417.7V437.95H626.3V417.7H623.95ZM638.35 394.85C633.45 402.6 624.45 409.9 615.05 413.85C615.7 414.4 616.4 415.2 616.8 415.8C626.3 411.55 635.3 404 640.45 395.85L638.35 394.85ZM638.85 396.9L636.9 397.85C643.5 406.4 651.05 411.5 659.6 415.85C659.95 415.2 660.65 414.4 661.25 413.9C652.7 409.85 645 404.95 638.85 396.9ZM666.25 435.6V438H709.85V435.6H666.25ZM680.85 395.9V436.75H683.3V395.9H680.85ZM692.8 395.95V436.95H695.2V395.95H692.8ZM706.25 407.55C704.15 412.7 700.4 419.8 697.5 424.3L699.55 425.35C702.45 420.8 706 414 708.5 408.55L706.25 407.55ZM667.6 408.05C670.45 413.4 673.65 420.7 674.9 424.9L677.35 423.95C675.95 419.8 672.7 412.7 669.9 407.35L667.6 408.05ZM739.45 435.6C740.15 434.7 741.15 433.95 746.75 429.95C746.55 429.55 746.15 428.65 745.95 428.1L740.15 432L739.25 433.35L739.45 435.6ZM739.45 435.6C739.45 434.65 741.85 433.1 741.85 433.1V421.3H739.7V430.45C739.7 432.4 738.9 433.1 738.4 433.4C738.8 433.95 739.25 435 739.45 435.6ZM748.4 405.85L747.7 408.1H760.75V405.85H748.4ZM748.9 395.35C748.1 403.85 746.6 412.2 743.7 417.65C744.25 418.05 745.15 418.85 745.55 419.3C748.6 413.45 750.25 404.8 751.25 395.65L748.9 395.35ZM748.6 409.3L746.75 409.6C748.5 423.25 751.95 435.5 759.25 440.55C759.65 440 760.4 439.15 760.95 438.65C753.8 434.3 750.15 422.15 748.6 409.3ZM756.9 406.7C755.2 422.15 751.4 432.75 741.6 439C742.05 439.45 742.85 440.35 743.1 440.8C753.2 433.9 757.2 423.2 759.1 406.9L756.9 406.7ZM735.05 395.35V409.55H737.1V395.35H735.05ZM728.25 399.3V410.85H743.45V399.3H741.45V408.7H730.2V399.3H728.25ZM727.05 415.2V417.4H743.65V415.2H727.05ZM730.35 421.3V423.4H741.2V421.3H730.35ZM729.4 421.3V427.2C729.4 430.8 728.85 435.45 725.45 439.05C725.9 439.35 726.8 440.25 727.1 440.7C730.85 436.75 731.65 431.3 731.65 427.25V421.3H729.4ZM723.3 395.3C721.45 398.7 717.85 402.8 714.65 405.5C715.05 405.9 715.8 406.8 716.1 407.3C719.55 404.35 723.25 399.95 725.55 396.15L723.3 395.3ZM724.5 405.05C721.9 410.45 717.85 415.95 713.95 419.7C714.45 420.15 715.25 421.2 715.55 421.65C719.6 417.6 723.8 411.6 726.7 405.75L724.5 405.05ZM720.75 413.1V440.6H723.05V410.9L723 410.8L720.75 413.1ZM782.05 410.85V413H805.85V410.85H782.05ZM782.05 417.8V419.9H805.85V417.8H782.05ZM782.75 436.45V438.55H805V436.45H782.75ZM778.4 403.85V406.05H809.95V403.85H778.4ZM781.45 425.05V440.8H783.65V427.15H804.05V440.65H806.3V425.05H781.45ZM790.1 396.2C791.45 398.3 792.95 401.05 793.65 402.8L795.95 401.8C795.2 400.05 793.7 397.4 792.3 395.4L790.1 396.2ZM776.4 395.5C773.75 403.3 769.5 411.05 764.8 416.1C765.3 416.65 766.1 417.75 766.35 418.25C771.2 412.65 775.7 404.5 778.6 396.1L776.4 395.5ZM771.75 408.05V440.85H774V405.85L773.95 405.8L771.75 408.05Z" fill="white"/>
<g clip-path="url(#clip1_203_2)">
<path d="M675.563 275.363C676.8 271.163 676.313 267.288 674.263 264.425C672.406 261.788 669.25 260.256 665.444 260.063L593.275 259.15C593.052 259.154 592.833 259.099 592.638 258.99C592.444 258.882 592.282 258.723 592.169 258.531C591.938 258.14 591.868 257.673 591.975 257.231C592.118 256.881 592.354 256.578 592.659 256.354C592.963 256.13 593.323 255.994 593.7 255.962L666.488 255.019C675.113 254.594 684.488 247.631 687.775 239.069L691.906 228.231C692.109 227.793 692.155 227.299 692.038 226.831C689.698 216.313 683.838 206.907 675.426 200.172C667.015 193.436 656.557 189.772 645.781 189.787C635.877 189.788 626.222 192.89 618.171 198.658C610.12 204.427 604.078 212.572 600.894 221.95C596.601 218.76 591.272 217.286 585.95 217.819C581.067 218.311 576.504 220.476 573.034 223.946C569.563 227.417 567.399 231.979 566.906 236.862C566.681 239.431 566.844 241.975 567.425 244.287C559.536 244.519 552.048 247.817 546.554 253.483C541.059 259.148 537.99 266.733 538 274.625C538 276.056 538.131 277.525 538.294 279.019C538.353 279.35 538.524 279.651 538.779 279.871C539.034 280.091 539.357 280.216 539.694 280.225H672.863C673.246 280.218 673.618 280.093 673.927 279.866C674.236 279.638 674.467 279.32 674.588 278.956L675.563 275.363ZM698.55 229.012C697.9 229.012 697.213 229.012 696.563 229.112C696.075 229.112 695.681 229.469 695.488 229.925L692.688 239.725C691.45 243.925 691.906 247.8 693.988 250.694C695.844 253.331 699.031 254.825 702.844 255.025L718.175 255.969C718.663 255.969 719.056 256.162 719.313 256.556C719.527 256.943 719.585 257.397 719.475 257.825C719.353 258.185 719.127 258.501 718.826 258.732C718.524 258.964 718.161 259.1 717.781 259.125L701.763 260.069C693.069 260.462 683.763 267.456 680.475 276.019L679.338 279.012C679.075 279.6 679.5 280.187 680.15 280.187H735.131C735.444 280.181 735.748 280.078 735.999 279.89C736.25 279.703 736.436 279.442 736.531 279.144C737.475 275.725 737.994 272.144 737.994 268.469C737.994 246.787 720.288 229.081 698.538 229.081L698.55 229.012Z" fill="white"/>
</g>
</g>
<defs>
<linearGradient id="paint0_linear_203_2" x1="336.548" y1="-118" x2="371" y2="444" gradientUnits="userSpaceOnUse">
<stop stop-color="#006AFF" stop-opacity="0.76"/>
<stop offset="1" stop-color="#2E7EEE" stop-opacity="0"/>
</linearGradient>
<linearGradient id="paint1_linear_203_2" x1="1275.5" y1="0" x2="1275.5" y2="845" gradientUnits="userSpaceOnUse">
<stop stop-color="#006AFF"/>
<stop offset="1" stop-color="#2E7EEE"/>
</linearGradient>
<linearGradient id="paint2_linear_203_2" x1="75.5" y1="-26" x2="75.5" y2="173" gradientUnits="userSpaceOnUse">
<stop stop-color="#3388FF"/>
<stop offset="1" stop-color="#1774F7"/>
</linearGradient>
<clipPath id="clip0_203_2">
<rect width="1276" height="636" fill="white"/>
</clipPath>
<clipPath id="clip1_203_2">
<rect width="200" height="200" fill="white" transform="translate(538 135)"/>
</clipPath>
</defs>
</svg>
