<?xml version="1.0" encoding="UTF-8"?>
<svg width="500px" height="500px" viewBox="0 0 500 500" version="1.1" xmlns="http://www.w3.org/2000/svg" xmlns:xlink="http://www.w3.org/1999/xlink">
    <title>2</title>
    <g id="线性回归" stroke="none" stroke-width="1" fill="none" fill-rule="evenodd">
        <g id="画板" transform="translate(-830.000000, -423.000000)">
            <g id="2" transform="translate(830.000000, 423.000000)">
                <g id="坐标轴">
                    <rect id="矩形" stroke="#979797" stroke-width="2" fill="#FFFFFF" x="1" y="1" width="498" height="498" rx="8"></rect>
                    <path id="直线" d="M435.5,424.5 L449.5,431.5 L435.5,438.5 L435.5,432.5 L48.5,432.5 L48.5,430.5 L435.5,430.5 L435.5,424.5 Z" fill="#979797" fill-rule="nonzero"></path>
                    <path id="直线-2" d="M67.5,50.5 L74.5,64.5 L68.5,64.5 L68.5,451.5 L66.5,451.5 L66.5,64.5 L60.5,64.5 L67.5,50.5 Z" fill="#979797" fill-rule="nonzero"></path>
                    <text id="面-积" font-family="NotoSansSC-Regular, Noto Sans SC" font-size="24" font-weight="normal" fill="#6D7278">
                        <tspan x="223" y="465">面 积</tspan>
                    </text>
                    <text id="价-格" font-family="NotoSansSC-Regular, Noto Sans SC" font-size="24" font-weight="normal" fill="#6D7278">
                        <tspan x="31" y="243">价</tspan>
                        <tspan x="31" y="278">格</tspan>
                    </text>
                </g>
                <g id="蓝色的点" transform="translate(67.000000, 121.000000)" stroke-linecap="square" stroke-width="2">
                    <line x1="220.5" y1="99.5" x2="0.5" y2="99.5" id="直线-4" stroke="#0091FF" stroke-dasharray="6"></line>
                    <line x1="220.5" y1="99.5" x2="220.5" y2="310.5" id="直线-5" stroke="#0091FF" stroke-dasharray="6"></line>
                    <line x1="52.5" y1="246.5" x2="334.5" y2="0.5" id="直线-3" stroke="#E02020"></line>
                </g>
                <g id="散点" transform="translate(169.000000, 178.000000)">
                    <circle id="椭圆形" stroke="#979797" fill="#D8D8D8" cx="8" cy="136" r="7.5"></circle>
                    <circle id="椭圆形" stroke="#979797" fill="#D8D8D8" cx="96" cy="120" r="7.5"></circle>
                    <circle id="椭圆形" fill="#0091FF" cx="119" cy="43" r="8"></circle>
                    <circle id="椭圆形" stroke="#979797" fill="#D8D8D8" cx="56" cy="82" r="7.5"></circle>
                    <circle id="椭圆形" stroke="#979797" fill="#D8D8D8" cx="147" cy="66" r="7.5"></circle>
                    <circle id="椭圆形" stroke="#979797" fill="#D8D8D8" cx="96" cy="8" r="7.5"></circle>
                    <circle id="椭圆形" stroke="#979797" fill="#D8D8D8" cx="155" cy="8" r="7.5"></circle>
                </g>
            </g>
        </g>
    </g>
</svg>