<svg xmlns="http://www.w3.org/2000/svg" xmlns:xlink="http://www.w3.org/1999/xlink" width="366" height="160" version="1.1" viewBox="0 0 366 160"><title>算法模型</title><g id="线性回归" fill="none" fill-rule="evenodd" stroke="none" stroke-width="1"><g id="算法模型"><g transform="translate(-645.000000, -466.000000) translate(645.000000, 466.000000)"><g transform="translate(206.000000, 0.000000)"><rect id="矩形" width="158" height="158" x="1" y="1" fill="#FFF" stroke="#F7B500" stroke-width="2" rx="8"/><rect id="矩形" width="148" height="148" x="6" y="6" fill="#0091FF" stroke="#0091FF" stroke-width="2" rx="8"/><text fill="#FFF" font-family="NotoSansSC-Regular, Noto Sans SC" font-size="18" font-weight="normal"><tspan x="44" y="88">算法模型</tspan></text></g><g id="数据集"><rect id="矩形" width="158" height="158" x="1" y="1" fill="#FFF" stroke="#6D7278" stroke-width="2" rx="8"/><g id="编组" transform="translate(10.000000, 8.000000)"><g id="编组-3"><rect id="矩形" width="140" height="98" x="0" y="0" fill="#0091FF" rx="8"/><text id="训练集" fill="#FFF" font-family="NotoSansSC-Regular, Noto Sans SC" font-size="18" font-weight="normal"><tspan x="43" y="57">训练集</tspan></text></g><g id="编组-2" transform="translate(0.000000, 102.000000)"><rect id="矩形" width="140" height="42" x="0" y="0" fill="#F7B500" rx="8"/><text id="测试集" fill="#FFF" font-family="NotoSansSC-Regular, Noto Sans SC" font-size="18" font-weight="normal"><tspan x="43" y="29">测试集</tspan></text></g></g></g><path id="直线" fill="#0091FF" fill-rule="nonzero" d="M203,53 L212,57.5 L203,62 L203,58 L148,58 L148,57 L203,57 L203,53 Z"/><path id="直线" fill="#F7B500" fill-rule="nonzero" d="M198,127 L207,131.5 L198,136 L198,132 L148,132 L148,131 L198,131 L198,127 Z"/><text id="①" fill="#6D7278" font-family="NotoSansSC-Regular, Noto Sans SC" font-size="18" font-weight="normal"><tspan x="168" y="51">①</tspan></text><text id="②" fill="#6D7278" font-family="NotoSansSC-Regular, Noto Sans SC" font-size="18" font-weight="normal"><tspan x="168" y="125">②</tspan></text></g></g></g></svg>