<svg xmlns="http://www.w3.org/2000/svg" xmlns:xlink="http://www.w3.org/1999/xlink" width="500" height="500" version="1.1" viewBox="0 0 500 500"><title>1</title><g id="线性回归" fill="none" fill-rule="evenodd" stroke="none" stroke-width="1"><g id="画板" transform="translate(-273.000000, -423.000000)"><g id="1" transform="translate(273.000000, 423.000000)"><g id="坐标轴"><rect id="矩形" width="498" height="498" x="1" y="1" fill="#FFF" stroke="#979797" stroke-width="2" rx="8"/><path id="直线" fill="#979797" fill-rule="nonzero" d="M435.5,424.5 L449.5,431.5 L435.5,438.5 L435.5,432.5 L48.5,432.5 L48.5,430.5 L435.5,430.5 L435.5,424.5 Z"/><path id="直线-2" fill="#979797" fill-rule="nonzero" d="M67.5,50.5 L74.5,64.5 L68.5,64.5 L68.5,451.5 L66.5,451.5 L66.5,64.5 L60.5,64.5 L67.5,50.5 Z"/><text id="面-积" fill="#6D7278" font-family="NotoSansSC-Regular, Noto Sans SC" font-size="24" font-weight="normal"><tspan x="223" y="465">面 积</tspan></text><text id="价-格" fill="#6D7278" font-family="NotoSansSC-Regular, Noto Sans SC" font-size="24" font-weight="normal"><tspan x="31" y="243">价</tspan> <tspan x="31" y="278">格</tspan></text></g><g id="散点" fill="#D8D8D8" stroke="#979797" transform="translate(169.000000, 178.000000)"><circle id="椭圆形" cx="8" cy="136" r="7.5"/><circle id="椭圆形" cx="96" cy="120" r="7.5"/><circle id="椭圆形" cx="56" cy="82" r="7.5"/><circle id="椭圆形" cx="147" cy="66" r="7.5"/><circle id="椭圆形" cx="96" cy="8" r="7.5"/><circle id="椭圆形" cx="155" cy="8" r="7.5"/></g></g></g></g></svg>