<?xml version="1.0" encoding="UTF-8"?>
<svg width="500px" height="500px" viewBox="0 0 500 500" version="1.1" xmlns="http://www.w3.org/2000/svg" xmlns:xlink="http://www.w3.org/1999/xlink">
    <title>4</title>
    <g id="线性回归" stroke="none" stroke-width="1" fill="none" fill-rule="evenodd">
        <g id="画板" transform="translate(-1944.000000, -423.000000)">
            <g id="4" transform="translate(1944.000000, 423.000000)">
                <g id="坐标轴">
                    <rect id="矩形" stroke="#979797" stroke-width="2" fill="#FFFFFF" x="1" y="1" width="498" height="498" rx="8"></rect>
                    <path id="直线" d="M435.5,424.5 L449.5,431.5 L435.5,438.5 L435.5,432.5 L48.5,432.5 L48.5,430.5 L435.5,430.5 L435.5,424.5 Z" fill="#979797" fill-rule="nonzero"></path>
                    <path id="直线-2" d="M67.5,50.5 L74.5,64.5 L68.5,64.5 L68.5,451.5 L66.5,451.5 L66.5,64.5 L60.5,64.5 L67.5,50.5 Z" fill="#979797" fill-rule="nonzero"></path>
                    <text id="面-积" font-family="NotoSansSC-Regular, Noto Sans SC" font-size="24" font-weight="normal" fill="#6D7278">
                        <tspan x="223" y="465">面 积</tspan>
                    </text>
                    <text id="价-格" font-family="NotoSansSC-Regular, Noto Sans SC" font-size="24" font-weight="normal" fill="#6D7278">
                        <tspan x="31" y="243">价</tspan>
                        <tspan x="31" y="278">格</tspan>
                    </text>
                </g>
                <g id="残差" transform="translate(119.000000, 121.000000)" stroke-linecap="square">
                    <line x1="92" y1="126" x2="91" y2="167" id="直线-6" stroke="#0091FF" stroke-dasharray="3"></line>
                    <line x1="137.5" y1="178.5" x2="137.5" y2="128.5" id="直线-7" stroke="#0091FF" stroke-dasharray="3"></line>
                    <line x1="146.5" y1="65.5" x2="146.5" y2="119.5" id="直线-8" stroke="#0091FF" stroke-dasharray="3"></line>
                    <line x1="196.5" y1="124.5" x2="197.5" y2="75.5" id="直线-9" stroke="#0091FF" stroke-dasharray="3"></line>
                    <line x1="0.5" y1="246.5" x2="282.5" y2="0.5" id="直线-3" stroke="#E02020" stroke-width="2"></line>
                </g>
                <g id="误差" transform="translate(65.000000, 219.000000)">
                    <line x1="145.5" y1="28.5" x2="3.5" y2="28.5" id="直线-10" stroke="#6DD400" stroke-linecap="square" stroke-dasharray="3"></line>
                    <line x1="145.5" y1="69.5" x2="3.5" y2="69.5" id="直线-10" stroke="#6DD400" stroke-linecap="square" stroke-dasharray="3"></line>
                    <text id="yi" font-family="NotoSansSC-Regular, Noto Sans SC" font-size="12" font-weight="normal" fill="#6D7278">
                        <tspan x="7" y="21">y</tspan>
                        <tspan x="13.252" y="21" font-size="8">i</tspan>
                    </text>
                    <circle id="椭圆形" stroke="#979797" fill="#D8D8D8" cx="2.5" cy="28.5" r="2"></circle>
                    <circle id="椭圆形" stroke="#979797" fill="#D8D8D8" cx="2.5" cy="69.5" r="2"></circle>
                    <circle id="椭圆形" stroke="#979797" fill="#D8D8D8" cx="144.5" cy="69.5" r="2"></circle>
                    <text id="w0-+-w1-xi" font-family="NotoSansSC-Regular, Noto Sans SC" font-size="12" font-weight="normal" fill="#6D7278">
                        <tspan x="5" y="82">w</tspan>
                        <tspan x="14.624" y="82" font-size="8">0 </tspan>
                        <tspan x="20.856" y="82">+ w</tspan>
                        <tspan x="39.828" y="82" font-size="8">1 </tspan>
                        <tspan x="46.06" y="82">x</tspan>
                        <tspan x="52.036" y="82" font-size="8">i</tspan>
                    </text>
                    <text id="(xi,-yi)" font-family="NotoSansSC-Regular, Noto Sans SC" font-size="12" font-weight="normal" fill="#6D7278">
                        <tspan x="139" y="14">(x</tspan>
                        <tspan x="149.032" y="14" font-size="8">i</tspan>
                        <tspan x="151.232" y="14">, y</tspan>
                        <tspan x="163.508" y="14" font-size="8">i</tspan>
                        <tspan x="165.708" y="14">)</tspan>
                    </text>
                </g>
                <g id="散点" transform="translate(169.000000, 178.000000)" fill="#D8D8D8" stroke="#979797">
                    <circle id="椭圆形" cx="8" cy="136" r="7.5"></circle>
                    <circle id="椭圆形" cx="88" cy="120" r="7.5"></circle>
                    <circle id="椭圆形" cx="42" cy="69" r="7.5"></circle>
                    <circle id="椭圆形" cx="147" cy="66" r="7.5"></circle>
                    <circle id="椭圆形" cx="96" cy="8" r="7.5"></circle>
                    <circle id="椭圆形" cx="155" cy="8" r="7.5"></circle>
                </g>
            </g>
        </g>
    </g>
</svg>