<svg xmlns="http://www.w3.org/2000/svg" xmlns:xlink="http://www.w3.org/1999/xlink" width="770" height="448" version="1.1" viewBox="0 0 770 448"><title>homepage-step-1</title><desc>Created with Sketch.</desc><defs><rect id="path-1" width="655.309" height="401.756" x="0" y="0" rx="10.548"/><rect id="path-3" width="655.309" height="401.756" x="0" y="0" rx="10.548"/><rect id="path-5" width="655.309" height="401.756" x="0" y="0" rx="10.548"/><rect id="path-7" width="655.309" height="401.756" x="0" y="0" rx="10.548"/><rect id="path-9" width="24.303" height="24.303" x="0" y="0" rx="4.219"/><rect id="path-11" width="655.309" height="401.756" x="0" y="0" rx="10.548"/><rect id="path-13" width="655.309" height="401.756" x="0" y="0" rx="10.548"/><rect id="path-15" width="655.309" height="401.756" x="0" y="0" rx="10.548"/><rect id="path-17" width="655.309" height="401.756" x="0" y="0" rx="10.548"/></defs><g id="页面1" fill="none" fill-rule="evenodd" stroke="none" stroke-width="1"><g id="homepage-step-1" transform="translate(0.000000, -5.000000)"><rect id="Rectangle-18-Copy" width="657.309" height="391.756" x=".273" y="60.625" fill="#C7CFD5" fill-rule="nonzero" rx="10.548"/><g id="Group-3" transform="translate(22.000000, 21.000000)"><g id="Rectangle-18-Copy" fill-rule="nonzero" transform="translate(0.000000, 7.000000)"><g id="path-1-link" fill="#E5E5E5"><rect id="path-1" width="654.727" height="401.756" x=".273" y=".625" rx="10.548"/></g><g id="path-1-link" fill="#B2B9BF"><rect id="path-1" width="654.727" height="401.756" x=".273" y=".625" rx="10.548"/></g></g><g id="Group-25"><g id="Group-8-Copy" transform="translate(0.273488, 0.625095)"><g id="Group-2-Copy"><g id="Rectangle-18-Copy" fill="#EFF7FD" fill-rule="nonzero"><rect id="path-2" width="655.309" height="401.756" x="0" y="0" rx="10.548"/></g><g id="Group-17-Clipped"><mask id="mask-2" fill="#fff"><use xlink:href="#path-1"/></mask><g id="Group-17" mask="url(#mask-2)"><g id="编组"><g transform="translate(103.000000, 86.000000)"><rect id="Rectangle-21-Copy-8" width="160" height="11.2" x="256.369" y="72.159" fill="#CED4D8" fill-rule="nonzero" rx="1.557"/><rect id="Rectangle-21-Copy-9" width="192" height="11.2" x="256.369" y="91.359" fill="#CED4D8" fill-rule="nonzero" rx="1.557"/><rect id="Rectangle-21-Copy-9" width="160" height="11.2" x="256.369" y="110.559" fill="#CED4D8" fill-rule="nonzero" rx="1.557"/><g id="Cool-New-Phone" fill="#8E9498" font-family="Helvetica" font-size="24" font-weight="normal"><text transform="translate(256.000000, 36.000000)"><tspan x="0" y="23">Cool New Phone</tspan></text></g><rect id="Rectangle-4" width="107" height="46" x="247" y="132" fill="#0086FF" fill-opacity=".3" fill-rule="nonzero" stroke="#0086FF" stroke-width="4" rx="8"/><g id="$-1,432" fill="#0EBA61" font-family="Helvetica" font-size="24" font-weight="normal"><text transform="translate(256.000000, 140.000000)"><tspan x=".456" y="23">$ 1,432</tspan></text></g><rect id="Rectangle-21-Copy-7" width="120" height="40" x="256" y="208" fill="#B2B9BF" fill-rule="nonzero" rx="4"/><g id="Group-15" fill-rule="nonzero" transform="translate(0.368855, 0.158699)"><rect id="Rectangle-3" width="160" height="288" x="0" y="0" fill="#C7CFD5" rx="16"/><rect id="Rectangle-3" width="147.2" height="275.2" x="6.4" y="6.4" fill="#000" fill-opacity=".1" rx="10.4"/><path id="Rectangle-6" fill="#C7CFD5" d="M40.0000006,1.60000002 L120.000001,1.60000002 L120.000002,7.20000011 C120.000002,12.9437616 115.343763,17.6000003 109.600002,17.6000003 L50.4000008,17.6000003 C44.6562393,17.6000003 40.0000006,12.9437616 40.0000006,7.20000011 L40.0000006,1.60000002 Z"/></g></g></g></g></g><g id="Rectangle-Clipped"><mask id="mask-4" fill="#fff"><use xlink:href="#path-3"/></mask><rect id="Rectangle" width="658.309" height="60.757" x="-1" y="0" fill="#DEE7EE" fill-rule="nonzero" mask="url(#mask-4)"/></g><g id="Rectangle-2-Copy-Clipped"><mask id="mask-6" fill="#fff"><use xlink:href="#path-5"/></mask><rect id="Rectangle-2-Copy" width="24.303" height="24.303" x="16.721" y="17.721" fill="#C7CFD5" fill-rule="nonzero" mask="url(#mask-6)" rx="4.219"/></g><g id="Group-16-Clipped"><mask id="mask-8" fill="#fff"><use xlink:href="#path-7"/></mask><g id="Group-16" mask="url(#mask-8)"><g id="编组"><g transform="translate(611.000000, 18.000000)"><g id="Mask" fill="#EFF7FD" fill-rule="nonzero"><rect id="path-4" width="24.303" height="24.303" x="0" y="0" rx="4.219"/></g><g id="Group-16-Clipped"><mask id="mask-10" fill="#fff"><use xlink:href="#path-9"/></mask><g id="Group-16" mask="url(#mask-10)"><g id="编组"><g transform="translate(4.000000, 5.000000) translate(0.430204, 0.063091)"><rect id="Rectangle-5" width="15.189" height="15.189" x="0" y="11.392" fill="#C7CFD5" fill-rule="nonzero" rx="5.063"/><circle id="Oval-2" cx="7.595" cy="5.063" r="5.063" fill="#C7CFD5" fill-rule="nonzero"/></g></g></g></g></g></g></g></g><g id="Rectangle-21-Copy-5-Clipped"><mask id="mask-12" fill="#fff"><use xlink:href="#path-11"/></mask><rect id="Rectangle-21-Copy-5" width="37.973" height="6.336" x="134.438" y="26.581" fill="#C7CFD5" fill-rule="nonzero" mask="url(#mask-12)" rx="1.519"/></g><g id="Rectangle-21-Copy-3-Clipped"><mask id="mask-14" fill="#fff"><use xlink:href="#path-13"/></mask><rect id="Rectangle-21-Copy-3" width="37.973" height="6.336" x="77.478" y="26.581" fill="#C7CFD5" fill-rule="nonzero" mask="url(#mask-14)" rx="1.519"/></g><g id="Rectangle-21-Copy-6-Clipped"><mask id="mask-16" fill="#fff"><use xlink:href="#path-15"/></mask><rect id="Rectangle-21-Copy-6" width="37.973" height="6.336" x="191.397" y="26.581" fill="#C7CFD5" fill-rule="nonzero" mask="url(#mask-16)" rx="1.519"/></g><g id="Rectangle-21-Copy-7-Clipped"><mask id="mask-18" fill="#fff"><use xlink:href="#path-17"/></mask><rect id="Rectangle-21-Copy-7" width="37.973" height="6.336" x="248.357" y="26.581" fill="#C7CFD5" fill-rule="nonzero" mask="url(#mask-18)" rx="1.519"/></g></g></g></g></g><g id="cursor" fill-rule="nonzero" transform="translate(451.000000, 271.000000)"><polygon id="Combined-Shape" fill="#FFF" stroke="#FFF" stroke-width="4" points="27.688 45.28 34.205 61.123 18.733 67.618 11.726 50.945 0 62.611 0 .11 44.368 45.28"/><polygon id="Combined-Shape" fill="#000" stroke="#000" points="20.396 40.443 27.515 57.4 20.691 60.264 13.257 42.554 4.7 50.996 4.7 11.775 32.79 40.443"/></g><g id="Group-22" transform="translate(482.000000, 0.000000)"><rect id="Rectangle-2" width="286" height="90" x="0" y="21" fill="#FFF" fill-rule="nonzero" stroke="#0086FF" stroke-width="4" rx="8"/><g id="Group-10" transform="translate(12.000000, 0.000000)"><g id="Cool-New-Phone" fill="#000" fill-opacity=".6" font-family="Helvetica" font-size="16" font-weight="normal"><text transform="translate(2.000000, 43.000000)"><tspan x="0" y="15">Cool New Phone</tspan></text></g><g id="$-1,432-changed-to-$" fill="#0086FF" font-family="Helvetica" font-size="19" font-weight="normal" transform="translate(2.000000, 63.000000)"><text id="$-1,432-changed-to-$-1,110"><tspan x="0" y="19.6">$ 1,432 changed to $ 1,110</tspan></text></g><g id="Group-11"><circle id="Oval-6" cx="14" cy="21.5" r="13.5" fill="red" fill-rule="nonzero" stroke="#FFF" stroke-linecap="square" stroke-linejoin="round" stroke-width="3"/><text id="1" fill="#FFF" font-family="Helvetica" font-size="18" font-weight="normal"><tspan x="10.5" y="18">1</tspan></text></g></g></g></g></g></svg>