<svg xmlns="http://www.w3.org/2000/svg" xmlns:xlink="http://www.w3.org/1999/xlink" width="343" height="54" version="1.1" viewBox="0 0 343 54"><title>Group</title><desc>Created with Sketch.</desc><defs><polygon id="path-1" points="22.5 13.6 0 .8 0 53.4 9 48.2 9 33.4 15.8 37.3 15.7 27.2 9 23.3 9 17.4 22.5 25.3"/><linearGradient id="linearGradient-3" x1="0%" x2="100%" y1="50%" y2="50%"><stop offset="0%" stop-color="#FF6F00"/><stop offset="100%" stop-color="#FFA800"/></linearGradient><polygon id="path-4" points=".5 13.6 23 .8 23 53.4 14 48.2 14 17.4 .5 25.3"/></defs><g id="Page-1" fill="none" fill-rule="evenodd" stroke="none" stroke-width="1"><g id="Group"><g id="lockup"><g id="Clipped" transform="translate(25.000000, 0.000000)"><mask id="mask-2" fill="#fff"><use xlink:href="#path-1"/></mask><polygon id="Path" fill="url(#linearGradient-3)" fill-rule="nonzero" points="-26.6 .6 28.6 .6 28.6 53.5 -26.6 53.5" mask="url(#mask-2)"/></g><g id="Clipped"><mask id="mask-5" fill="#fff"><use xlink:href="#path-4"/></mask><polygon id="Path" fill="url(#linearGradient-3)" fill-rule="nonzero" points="-1.9 .6 53.3 .6 53.3 53.5 -1.9 53.5" mask="url(#mask-5)"/></g><polygon id="Path" fill="#425066" fill-rule="nonzero" points="88.2 17.1 78.2 17.1 78.2 44.8 72.6 44.8 72.6 17.1 62.6 17.1 62.6 12.6 88.2 12.6 88.2 17.1"/><path id="Shape" fill="#425066" fill-rule="nonzero" d="M94.9,45.2 C91.5,45.2 88.7,44.1 86.6,42 C84.5,39.9 83.4,37 83.4,33.4 L83.4,32.7 C83.4,30.5 83.8,28.3 84.8,26.3 C85.7,24.5 87,23 88.7,21.9 C90.4,20.8 92.3,20.3 94.3,20.3 C97.6,20.3 100.1,21.3 101.9,23.4 C103.7,25.5 104.6,28.4 104.6,32.2 L104.6,34.4 L88.9,34.4 C89,36.2 89.7,37.8 90.9,39.1 C92.1,40.3 93.6,40.9 95.3,40.8 C97.7,40.9 99.9,39.7 101.3,37.8 L104.2,40.6 C103.2,42 101.9,43.2 100.4,43.9 C98.6,44.9 96.8,45.3 94.9,45.2 L94.9,45.2 Z M94.3,24.7 C92.9,24.6 91.6,25.2 90.7,26.2 C89.7,27.4 89.1,28.9 89,30.5 L99.3,30.5 L99.3,30.1 C99.2,28.3 98.7,26.9 97.9,26 C96.9,25.2 95.6,24.6 94.3,24.7 L94.3,24.7 Z M113.7,20.8 L113.9,23.6 C115.6,21.5 118.2,20.3 120.9,20.4 C125.9,20.4 128.4,23.3 128.5,29 L128.5,44.8 L123.1,44.8 L123.1,29.3 C123.1,27.8 122.8,26.7 122.1,25.9 C121.4,25.2 120.4,24.8 118.9,24.8 C116.8,24.7 114.9,25.9 114,27.7 L114,44.7 L108.6,44.7 L108.6,20.7 L113.7,20.8 L113.7,20.8 Z M145.9,38.3 C145.9,37.4 145.5,36.6 144.7,36.1 C143.5,35.4 142.1,35 140.8,34.8 C139.2,34.5 137.7,34 136.2,33.3 C133.5,32 132.2,30.1 132.2,27.7 C132.2,25.7 133.2,23.7 134.8,22.5 C136.5,21.1 138.8,20.4 141.4,20.4 C144.3,20.4 146.6,21.1 148.3,22.5 C150,23.8 151,25.9 150.9,28 L145.5,28 C145.5,27 145.1,26.1 144.3,25.4 C143.4,24.7 142.4,24.3 141.2,24.4 C140.2,24.4 139.2,24.6 138.3,25.2 C137.6,25.7 137.2,26.5 137.2,27.4 C137.2,28.2 137.6,28.9 138.2,29.3 C138.9,29.8 140.3,30.2 142.4,30.7 C144.1,31 145.8,31.6 147.4,32.4 C148.5,32.9 149.4,33.7 150.1,34.7 C150.7,35.7 151,36.8 151,38 C151,40.1 150,42 148.3,43.2 C146.5,44.5 144.2,45.2 141.3,45.2 C139.5,45.2 137.7,44.9 136.1,44.1 C134.7,43.5 133.4,42.5 132.5,41.2 C131.7,40 131.2,38.6 131.2,37.2 L136.4,37.2 C136.4,38.3 136.9,39.4 137.8,40.1 C138.8,40.8 140.1,41.2 141.3,41.1 C142.7,41.1 143.8,40.8 144.5,40.3 C145.5,39.9 145.9,39.1 145.9,38.3 L145.9,38.3 Z M154,32.6 C154,30.4 154.4,28.2 155.4,26.3 C156.3,24.5 157.6,23 159.3,22 C161.1,21 163.1,20.4 165.1,20.5 C168.3,20.5 171,21.5 173,23.6 C175,25.7 176.1,28.4 176.3,31.9 L176.3,33.2 C176.3,35.4 175.9,37.5 174.9,39.5 C174.1,41.3 172.7,42.8 171,43.8 C169.2,44.8 167.2,45.4 165.1,45.3 C161.7,45.3 159,44.2 157,41.9 C155,39.7 154,36.7 153.9,32.9 L154,32.6 L154,32.6 Z M159.3,33.1 C159.3,35.6 159.8,37.5 160.8,38.9 C162.6,41.2 165.9,41.7 168.3,39.9 C168.7,39.6 169,39.3 169.3,38.9 C170.3,37.5 170.8,35.4 170.8,32.7 C170.8,30.3 170.3,28.4 169.2,26.9 C167.5,24.6 164.2,24.1 161.8,25.8 C161.4,26.1 161,26.5 160.7,26.8 C159.9,28.2 159.3,30.3 159.3,33.1 L159.3,33.1 Z M192.4,25.8 C191.7,25.7 190.9,25.6 190.2,25.6 C187.7,25.6 186.1,26.5 185.2,28.4 L185.2,44.8 L179.8,44.8 L179.8,20.8 L184.9,20.8 L185,23.5 C186.3,21.4 188.1,20.4 190.4,20.4 C191,20.4 191.7,20.5 192.3,20.7 L192.4,25.8 Z M214.9,31.1 L201.9,31.1 L201.9,44.8 L196.3,44.8 L196.3,12.6 L216.8,12.6 L216.8,17.1 L201.9,17.1 L201.9,26.7 L214.9,26.7 L214.9,31.1 Z M225.6,44.8 L220.2,44.8 L220.2,12.5 L225.6,12.5 L225.6,44.8 Z M229.5,32.6 C229.5,30.4 229.9,28.2 230.9,26.3 C231.8,24.5 233.1,23 234.8,22 C236.6,21 238.6,20.4 240.6,20.5 C243.8,20.5 246.5,21.5 248.5,23.6 C250.5,25.7 251.6,28.4 251.8,31.9 L251.8,33.2 C251.8,35.4 251.4,37.5 250.5,39.5 C249.7,41.3 248.3,42.8 246.6,43.8 C244.8,44.8 242.8,45.4 240.7,45.3 C237.3,45.3 234.6,44.2 232.6,41.9 C230.6,39.7 229.5,36.7 229.5,32.9 L229.5,32.6 L229.5,32.6 Z M234.9,33.1 C234.9,35.6 235.4,37.5 236.4,38.9 C237.4,40.3 239,41.1 240.7,41 C242.4,41.1 244,40.3 244.9,38.9 C245.9,37.5 246.4,35.4 246.4,32.7 C246.4,30.3 245.9,28.4 244.8,26.9 C243.1,24.6 239.8,24.1 237.4,25.8 C237,26.1 236.6,26.5 236.3,26.8 C235.4,28.2 234.9,30.3 234.9,33.1 L234.9,33.1 Z M276.1,37.4 L279.9,20.9 L285.1,20.9 L278.6,44.9 L274.2,44.9 L269.1,28.4 L264,44.9 L259.6,44.9 L253,20.9 L258.3,20.9 L262.2,37.3 L267.1,20.9 L271.2,20.9 L276.1,37.4 L276.1,37.4 Z"/></g><text id="2" fill="#4A4A4A" font-family="PingFangSC-Light, PingFang SC" font-size="33" font-weight="300"><tspan x="296.443" y="45">2.0</tspan></text></g></g></svg>