<svg width="98" height="30" viewBox="0 0 98 30" fill="none" xmlns="http://www.w3.org/2000/svg"><path d="M37.4033 6.70996C38.1783 6.70996 38.8066 7.33824 38.8066 8.11326V21.3703C38.8066 21.9342 39.2637 22.3913 39.8276 22.3913H45.244C46.019 22.3913 46.6473 23.0196 46.6473 23.7946C46.6473 24.5696 46.019 25.1979 45.244 25.1979H39.8276C37.7137 25.1979 36 23.4842 36 21.3703V8.11326C36 7.33824 36.6283 6.70996 37.4033 6.70996ZM52.1803 13.1251C53.5238 13.1251 54.7647 13.5639 55.7676 14.3061C56.0238 14.0188 56.3975 13.8378 56.8134 13.8378C57.5884 13.8378 58.2167 14.4661 58.2167 15.2411V23.7946C58.2167 24.5696 57.5884 25.1979 56.8134 25.1979C56.1867 25.1979 55.656 24.7871 55.4758 24.2202C54.5295 24.838 53.3969 25.1979 52.1803 25.1979C48.8465 25.1979 46.1439 22.4953 46.1439 19.1615C46.1439 15.8277 48.8465 13.1251 52.1803 13.1251ZM52.1803 15.9317C50.3965 15.9317 48.9505 17.3777 48.9505 19.1615C48.9505 20.9453 50.3965 22.3913 52.1803 22.3913C53.9641 22.3913 55.4101 20.9453 55.4101 19.1615C55.4101 17.3777 53.9641 15.9317 52.1803 15.9317ZM62.1593 6.70996C62.9344 6.70996 63.5626 7.33824 63.5626 8.11326L63.5622 14.0611C64.4963 13.4683 65.6043 13.1251 66.7924 13.1251C70.1263 13.1251 72.8289 15.8277 72.8289 19.1615C72.8289 22.4953 70.1263 25.1979 66.7924 25.1979C65.5763 25.1979 64.4441 24.8382 63.4964 24.2195C63.3169 24.787 62.7861 25.1979 62.1593 25.1979C61.3843 25.1979 60.756 24.5696 60.756 23.7946V8.11326C60.756 7.33824 61.3843 6.70996 62.1593 6.70996ZM66.7924 15.9317C65.0087 15.9317 63.5626 17.3777 63.5626 19.1615C63.5626 20.9453 65.0087 22.3913 66.7924 22.3913C68.5762 22.3913 70.0223 20.9453 70.0223 19.1615C70.0223 17.3777 68.5762 15.9317 66.7924 15.9317ZM83.543 7.42275C84.318 7.42275 84.9463 8.05103 84.9463 8.82605C84.9463 9.60107 84.318 10.2294 83.543 10.2294H78.3131C77.6462 10.2294 77.1056 10.77 77.1056 11.4368L77.105 14.9957L82.652 14.9961C83.427 14.9961 84.0553 15.6244 84.0553 16.3994C84.0553 17.1744 83.427 17.8027 82.652 17.8027L77.105 17.8017L77.1056 21.3703C77.1056 21.9342 77.5627 22.3913 78.1266 22.3913H83.543C84.318 22.3913 84.9463 23.0196 84.9463 23.7946C84.9463 24.5696 84.318 25.1979 83.543 25.1979H78.1266C76.0127 25.1979 74.299 23.4842 74.299 21.3703V11.4368C74.299 9.21992 76.0962 7.42275 78.3131 7.42275H83.543ZM94.4875 13.9908C94.9813 13.3934 95.8658 13.3093 96.4632 13.8031C97.0606 14.2968 97.1446 15.1813 96.6509 15.7787L93.5605 19.5174L96.6509 23.257C97.1446 23.8544 97.0606 24.7389 96.4632 25.2327C95.8658 25.7264 94.9813 25.6424 94.4875 25.045L91.7395 21.7204L88.9926 25.045C88.5297 25.605 87.7233 25.7139 87.1321 25.3185L87.0169 25.2327C86.4195 24.7389 86.3355 23.8544 86.8292 23.257L89.9185 19.5174L86.8292 15.7787C86.3355 15.1813 86.4195 14.2968 87.0169 13.8031C87.6143 13.3093 88.4988 13.3934 88.9926 13.9908L91.7395 17.3144L94.4875 13.9908Z" fill="white"/><path d="M21.5 0C22.3284 0 23 0.671573 23 1.5V6.5C23 7.32843 22.3284 8 21.5 8H20.997V9.515L29.7172 21.6234C29.8704 21.8362 29.9647 22.0846 29.9918 22.3436L30 22.5V28.5C30 29.3284 29.3284 30 28.5 30H1.5C0.671573 30 0 29.3284 0 28.5V22.5C0 22.1854 0.098913 21.8788 0.282747 21.6235L9.001 9.515V8H8.5C7.7203 8 7.07955 7.40511 7.00687 6.64446L7 6.5V1.5C7 0.671573 7.67157 0 8.5 0H21.5ZM20 3H10V5H10.5011C11.2807 5 11.9215 5.59489 11.9942 6.35554L12.0011 6.5V9.87827C12.0011 10.272 11.8773 10.6558 11.6472 10.9753L3 22.983V27H27V22.984L18.3519 10.9754C18.1547 10.7015 18.0355 10.3804 18.0055 10.0463L17.998 9.87826V6.5C17.998 5.67157 18.6695 5 19.498 5H20V3ZM19.3999 21C20.2283 21 20.8999 21.6716 20.8999 22.5C20.8999 23.3284 20.2283 24 19.3999 24H15.8C14.9716 24 14.3 23.3284 14.3 22.5C14.3 21.6716 14.9716 21 15.8 21H19.3999ZM11.729 15.4393L14.3973 18.1077C14.9831 18.6935 14.9831 19.6432 14.3973 20.229L11.729 22.8973C11.1432 23.4831 10.1935 23.4831 9.60767 22.8973C9.02188 22.3115 9.02188 21.3618 9.60767 20.776L11.2149 19.1687L9.60767 17.5607C9.05634 17.0093 9.02391 16.1356 9.51037 15.5463L9.60767 15.4393C10.1935 14.8536 11.1432 14.8536 11.729 15.4393Z" fill="white"/></svg>