<svg xmlns="http://www.w3.org/2000/svg" width="1276" height="636" fill="none" viewBox="0 0 1276 636"><g clip-path="url(#clip0_112_55)"><rect width="1276" height="636" fill="#2E7EEE"/><circle cx="371" cy="163" r="281" fill="url(#paint0_linear_112_55)"/><circle cx="1275.5" cy="422.5" r="422.5" fill="url(#paint1_linear_112_55)" fill-opacity=".6"/><circle cx="75.5" cy="73.5" r="99.5" fill="url(#paint2_linear_112_55)" fill-opacity=".5"/><path fill="#fff" d="M481.314 363.52C485.074 363.52 487.794 361.96 490.034 359.36L488.674 357.84C486.594 360.12 484.394 361.36 481.434 361.36C475.314 361.36 471.514 356.28 471.514 348.32C471.514 340.44 475.394 335.48 481.554 335.48C484.234 335.48 486.314 336.64 487.874 338.4L489.234 336.84C487.674 335 484.994 333.32 481.554 333.32C474.154 333.32 468.994 339.08 468.994 348.4C468.994 357.72 474.114 363.52 481.314 363.52ZM498.512 363.52C499.272 363.52 499.672 363.4 500.072 363.28L499.712 361.44C499.272 361.52 499.112 361.52 498.952 361.52C498.392 361.52 497.992 361.08 497.992 360.08V331.2H495.672V359.84C495.672 362.32 496.592 363.52 498.512 363.52ZM514.216 363.52C519.376 363.52 523.856 359.44 523.856 352.36C523.856 345.24 519.376 341.12 514.216 341.12C509.056 341.12 504.576 345.24 504.576 352.36C504.576 359.44 509.056 363.52 514.216 363.52ZM514.216 361.52C510.056 361.52 507.016 357.8 507.016 352.36C507.016 346.92 510.056 343.16 514.216 343.16C518.376 343.16 521.456 346.92 521.456 352.36C521.456 357.8 518.376 361.52 514.216 361.52ZM536.206 363.52C539.166 363.52 541.326 361.88 543.406 359.48H543.526L543.726 363H545.686V341.68H543.366V357.28C540.966 360.16 539.206 361.44 536.726 361.44C533.446 361.44 532.086 359.4 532.086 355.04V341.68H529.766V355.32C529.766 360.8 531.766 363.52 536.206 363.52ZM560.76 363.52C563.52 363.52 565.88 362.04 567.6 360.32H567.68L567.96 363H569.88V331.2H567.56V339.88L567.72 343.72C565.64 342.08 563.92 341.12 561.36 341.12C556.32 341.12 551.92 345.48 551.92 352.36C551.92 359.52 555.4 363.52 560.76 363.52ZM561.16 361.48C556.84 361.48 554.4 357.88 554.4 352.36C554.4 347.12 557.52 343.16 561.6 343.16C563.6 343.16 565.4 343.88 567.56 345.8V358.12C565.44 360.32 563.44 361.48 561.16 361.48ZM578.258 341.68L575.298 341.88V343.64H578.258V363H580.578V343.64H585.418V341.68H580.578V337.32C580.578 334.32 581.578 332.64 583.858 332.64C584.658 332.64 585.498 332.84 586.378 333.24L586.938 331.4C585.938 330.96 584.818 330.68 583.738 330.68C580.138 330.68 578.258 332.96 578.258 337.2V341.68ZM593.898 361.44C593.458 361.52 593.258 361.52 593.098 361.52C592.578 361.52 592.138 361.08 592.138 360.08V331.2H589.818V359.84C589.818 362.32 590.778 363.52 592.698 363.52C593.418 363.52 593.818 363.4 594.218 363.28L593.898 361.44ZM605.236 363.52C607.956 363.52 610.516 362.04 612.676 360.28H612.756L612.996 363H614.956V349.48C614.956 344.76 613.156 341.12 608.076 341.12C604.596 341.12 601.636 342.8 599.996 343.92L601.036 345.6C602.516 344.48 604.956 343.16 607.756 343.16C611.796 343.16 612.716 346.44 612.636 349.6C603.236 350.68 599.036 352.92 599.036 357.64C599.036 361.6 601.796 363.52 605.236 363.52ZM605.716 361.56C603.356 361.56 601.356 360.44 601.356 357.52C601.356 354.24 604.236 352.28 612.636 351.32V358.24C610.116 360.44 608.076 361.56 605.716 361.56ZM622.391 363H624.711V348.68C626.271 344.72 628.551 343.32 630.431 343.32C631.271 343.32 631.671 343.4 632.391 343.68L632.871 341.6C632.191 341.24 631.551 341.12 630.711 341.12C628.231 341.12 626.111 342.96 624.671 345.64H624.591L624.311 341.68H622.391V363ZM644.496 363.52C647.576 363.52 649.576 362.52 651.296 361.44L650.416 359.72C648.816 360.84 647.016 361.56 644.736 361.56C640.136 361.56 637.056 357.92 636.936 352.72H652.056C652.136 352.2 652.176 351.64 652.176 351.04C652.176 344.8 649.096 341.12 643.936 341.12C639.096 341.12 634.576 345.44 634.576 352.36C634.576 359.36 639.016 363.52 644.496 363.52ZM636.936 350.88C637.376 346 640.496 343.12 643.976 343.12C647.696 343.12 650.056 345.72 650.056 350.88H636.936ZM670.447 363H673.167L678.167 343.52C678.687 341.2 679.287 339.2 679.767 336.96H679.927C680.447 339.2 680.967 341.2 681.447 343.52L686.607 363H689.327L695.727 333.84H693.367L689.847 350.72C689.207 353.88 688.607 357.04 688.007 360.24H687.807C687.047 357.04 686.327 353.88 685.567 350.72L681.087 333.84H678.727L674.287 350.72C673.527 353.88 672.767 357.04 672.047 360.24H671.887C671.247 357.04 670.607 353.88 669.927 350.72L666.407 333.84H663.927L670.447 363ZM708.903 363.52C714.063 363.52 718.543 359.44 718.543 352.36C718.543 345.24 714.063 341.12 708.903 341.12C703.743 341.12 699.263 345.24 699.263 352.36C699.263 359.44 703.743 363.52 708.903 363.52ZM708.903 361.52C704.743 361.52 701.703 357.8 701.703 352.36C701.703 346.92 704.743 343.16 708.903 343.16C713.063 343.16 716.143 346.92 716.143 352.36C716.143 357.8 713.063 361.52 708.903 361.52ZM724.773 363H727.093V348.68C728.653 344.72 730.933 343.32 732.813 343.32C733.653 343.32 734.053 343.4 734.773 343.68L735.253 341.6C734.573 341.24 733.933 341.12 733.093 341.12C730.613 341.12 728.493 342.96 727.053 345.64H726.973L726.693 341.68H724.773V363ZM739.148 363H741.468V357.24L746.068 351.8L752.948 363H755.508L747.428 350.12L754.388 341.68H751.748L741.548 354.24H741.468V331.2H739.148V363ZM767.582 363.52C770.662 363.52 772.662 362.52 774.382 361.44L773.502 359.72C771.902 360.84 770.102 361.56 767.822 361.56C763.222 361.56 760.142 357.92 760.022 352.72H775.142C775.222 352.2 775.262 351.64 775.262 351.04C775.262 344.8 772.182 341.12 767.022 341.12C762.182 341.12 757.662 345.44 757.662 352.36C757.662 359.36 762.102 363.52 767.582 363.52ZM760.022 350.88C760.462 346 763.582 343.12 767.062 343.12C770.782 343.12 773.142 345.72 773.142 350.88H760.022ZM780.945 363H783.265V348.68C784.825 344.72 787.105 343.32 788.985 343.32C789.825 343.32 790.225 343.4 790.945 343.68L791.425 341.6C790.745 341.24 790.105 341.12 789.265 341.12C786.785 341.12 784.665 342.96 783.225 345.64H783.145L782.865 341.68H780.945V363ZM800.56 363.52C805.28 363.52 807.88 360.72 807.88 357.44C807.88 353.32 804.28 352.16 801 350.92C798.52 350 796.04 349.12 796.04 346.76C796.04 344.84 797.48 343.08 800.64 343.08C802.72 343.08 804.28 343.92 805.72 345L806.92 343.4C805.32 342.12 803.04 341.12 800.72 341.12C796.24 341.12 793.72 343.76 793.72 346.88C793.72 350.56 797.24 351.88 800.4 353C802.88 353.88 805.56 355.04 805.56 357.56C805.56 359.76 803.92 361.6 800.68 361.6C797.76 361.6 795.8 360.48 793.96 358.92L792.72 360.6C794.64 362.2 797.44 363.52 800.56 363.52ZM475.497 437.65C482.247 437.65 484.797 432.9 484.797 426.9V400.55H481.797V426.6C481.797 432.45 479.697 434.95 475.397 434.95C472.397 434.95 470.297 433.75 468.497 430.7L466.247 432.2C468.197 435.75 471.297 437.65 475.497 437.65ZM504.928 437.65C512.078 437.65 516.728 433.35 516.728 427.75C516.728 422.2 513.228 419.9 509.078 418.05L503.628 415.65C500.978 414.5 497.428 412.95 497.428 408.8C497.428 405.05 500.528 402.6 505.178 402.6C508.778 402.6 511.628 404.05 513.778 406.25L515.478 404.3C513.178 401.8 509.578 399.9 505.178 399.9C498.978 399.9 494.378 403.65 494.378 409.05C494.378 414.4 498.528 416.7 501.778 418.15L507.228 420.55C510.828 422.15 513.678 423.55 513.678 427.95C513.678 432.1 510.328 434.95 504.928 434.95C500.778 434.95 497.028 433.1 494.378 430.1L492.528 432.2C495.428 435.45 499.628 437.65 504.928 437.65ZM537.081 437.65C545.981 437.65 552.231 430.25 552.231 418.65C552.231 407.1 545.981 399.9 537.081 399.9C528.281 399.9 521.981 407.1 521.981 418.65C521.981 430.25 528.281 437.65 537.081 437.65ZM537.081 434.95C529.881 434.95 525.131 428.55 525.131 418.65C525.131 408.75 529.881 402.6 537.081 402.6C544.331 402.6 549.131 408.75 549.131 418.65C549.131 428.55 544.331 434.95 537.081 434.95ZM560.561 437H563.411V415.15C563.411 411.5 563.161 408.1 563.011 404.6H563.261L567.361 411.9L582.211 437H585.311V400.55H582.461V422.15C582.461 425.7 582.661 429.35 582.861 432.95H582.611L578.561 425.6L563.661 400.55H560.561V437ZM606.996 437H615.646C626.796 437 632.296 429.8 632.296 418.65C632.296 407.5 626.796 400.55 615.596 400.55H606.996V437ZM609.996 434.45V403.05H615.296C624.896 403.05 629.146 409.2 629.146 418.65C629.146 428.1 624.896 434.45 615.296 434.45H609.996ZM646.19 437.65C649.59 437.65 652.79 435.8 655.49 433.6H655.59L655.89 437H658.34V420.1C658.34 414.2 656.09 409.65 649.74 409.65C645.39 409.65 641.69 411.75 639.64 413.15L640.94 415.25C642.79 413.85 645.84 412.2 649.34 412.2C654.39 412.2 655.54 416.3 655.44 420.25C643.69 421.6 638.44 424.4 638.44 430.3C638.44 435.25 641.89 437.65 646.19 437.65ZM646.79 435.2C643.84 435.2 641.34 433.8 641.34 430.15C641.34 426.05 644.94 423.6 655.44 422.4V431.05C652.29 433.8 649.74 435.2 646.79 435.2ZM674.499 437.65C675.699 437.65 677.399 437.2 678.949 436.65L678.249 434.4C677.299 434.8 675.999 435.15 674.999 435.15C671.449 435.15 670.549 432.95 670.549 429.6V412.8H678.199V410.35H670.549V402.65H668.099L667.749 410.35L663.499 410.6V412.8H667.649V429.4C667.649 434.35 669.249 437.65 674.499 437.65ZM689.256 437.65C692.656 437.65 695.856 435.8 698.556 433.6H698.656L698.956 437H701.406V420.1C701.406 414.2 699.156 409.65 692.806 409.65C688.456 409.65 684.756 411.75 682.706 413.15L684.006 415.25C685.856 413.85 688.906 412.2 692.406 412.2C697.456 412.2 698.606 416.3 698.506 420.25C686.756 421.6 681.506 424.4 681.506 430.3C681.506 435.25 684.956 437.65 689.256 437.65ZM689.856 435.2C686.906 435.2 684.406 433.8 684.406 430.15C684.406 426.05 688.006 423.6 698.506 422.4V431.05C695.356 433.8 692.806 435.2 689.856 435.2ZM721.4 437.65C727.65 437.65 733.15 432.35 733.15 423.25C733.15 415.05 729.55 409.65 722.45 409.65C719.25 409.65 716.1 411.5 713.45 413.75L713.6 408.65V397.25H710.7V437H713.05L713.4 434.3H713.5C715.95 436.35 718.9 437.65 721.4 437.65ZM721.15 435.1C719.2 435.1 716.35 434.25 713.6 431.85V416.45C716.6 413.7 719.35 412.2 721.9 412.2C727.85 412.2 730.05 416.85 730.05 423.25C730.05 430.4 726.35 435.1 721.15 435.1ZM745.897 437.65C749.297 437.65 752.497 435.8 755.197 433.6H755.297L755.597 437H758.047V420.1C758.047 414.2 755.797 409.65 749.447 409.65C745.097 409.65 741.397 411.75 739.347 413.15L740.647 415.25C742.497 413.85 745.547 412.2 749.047 412.2C754.097 412.2 755.247 416.3 755.147 420.25C743.397 421.6 738.147 424.4 738.147 430.3C738.147 435.25 741.597 437.65 745.897 437.65ZM746.497 435.2C743.547 435.2 741.047 433.8 741.047 430.15C741.047 426.05 744.647 423.6 755.147 422.4V431.05C751.997 433.8 749.447 435.2 746.497 435.2ZM773.891 437.65C779.791 437.65 783.041 434.15 783.041 430.05C783.041 424.9 778.541 423.45 774.441 421.9C771.341 420.75 768.241 419.65 768.241 416.7C768.241 414.3 770.041 412.1 773.991 412.1C776.591 412.1 778.541 413.15 780.341 414.5L781.841 412.5C779.841 410.9 776.991 409.65 774.091 409.65C768.491 409.65 765.341 412.95 765.341 416.85C765.341 421.45 769.741 423.1 773.691 424.5C776.791 425.6 780.141 427.05 780.141 430.2C780.141 432.95 778.091 435.25 774.041 435.25C770.391 435.25 767.941 433.85 765.641 431.9L764.091 434C766.491 436 769.991 437.65 773.891 437.65ZM800.148 437.65C803.998 437.65 806.498 436.4 808.648 435.05L807.548 432.9C805.548 434.3 803.298 435.2 800.448 435.2C794.698 435.2 790.848 430.65 790.698 424.15H809.598C809.698 423.5 809.748 422.8 809.748 422.05C809.748 414.25 805.898 409.65 799.448 409.65C793.398 409.65 787.748 415.05 787.748 423.7C787.748 432.45 793.298 437.65 800.148 437.65ZM790.698 421.85C791.248 415.75 795.148 412.15 799.498 412.15C804.148 412.15 807.098 415.4 807.098 421.85H790.698Z"/><g clip-path="url(#clip1_112_55)"><path fill="#fff" d="M675.563 275.363C676.8 271.162 676.313 267.287 674.263 264.425C672.406 261.787 669.25 260.256 665.444 260.062L593.275 259.15C593.052 259.154 592.833 259.099 592.638 258.99C592.444 258.882 592.282 258.723 592.169 258.531C591.938 258.14 591.868 257.673 591.975 257.231C592.118 256.881 592.354 256.578 592.659 256.354C592.963 256.13 593.323 255.994 593.7 255.963L666.488 255.019C675.113 254.594 684.488 247.631 687.775 239.069L691.906 228.231C692.109 227.793 692.155 227.299 692.038 226.831C689.698 216.313 683.838 206.907 675.426 200.172C667.015 193.436 656.557 189.772 645.781 189.787C635.877 189.788 626.222 192.89 618.171 198.658C610.12 204.427 604.078 212.572 600.894 221.95C596.601 218.76 591.272 217.286 585.95 217.819C581.067 218.311 576.504 220.476 573.034 223.946C569.563 227.417 567.399 231.979 566.906 236.862C566.681 239.431 566.844 241.975 567.425 244.287C559.536 244.519 552.048 247.817 546.554 253.483C541.059 259.148 537.99 266.733 538 274.625C538 276.056 538.131 277.525 538.294 279.019C538.353 279.35 538.524 279.651 538.779 279.871C539.034 280.091 539.357 280.216 539.694 280.225H672.863C673.246 280.218 673.618 280.093 673.927 279.866C674.236 279.638 674.467 279.32 674.588 278.956L675.563 275.363ZM698.55 229.012C697.9 229.012 697.213 229.012 696.563 229.112C696.075 229.112 695.681 229.469 695.488 229.925L692.688 239.725C691.45 243.925 691.906 247.8 693.988 250.694C695.844 253.331 699.031 254.825 702.844 255.025L718.175 255.969C718.663 255.969 719.056 256.162 719.313 256.556C719.527 256.943 719.585 257.397 719.475 257.825C719.353 258.185 719.127 258.501 718.826 258.732C718.524 258.964 718.161 259.1 717.781 259.125L701.763 260.069C693.069 260.462 683.763 267.456 680.475 276.019L679.338 279.012C679.075 279.6 679.5 280.188 680.15 280.188H735.131C735.444 280.181 735.748 280.078 735.999 279.89C736.25 279.703 736.436 279.442 736.531 279.144C737.475 275.725 737.994 272.144 737.994 268.469C737.994 246.787 720.288 229.081 698.538 229.081L698.55 229.012Z"/></g></g><defs><linearGradient id="paint0_linear_112_55" x1="336.548" x2="371" y1="-118" y2="444" gradientUnits="userSpaceOnUse"><stop stop-color="#006AFF" stop-opacity=".76"/><stop offset="1" stop-color="#2E7EEE" stop-opacity="0"/></linearGradient><linearGradient id="paint1_linear_112_55" x1="1275.5" x2="1275.5" y1="0" y2="845" gradientUnits="userSpaceOnUse"><stop stop-color="#006AFF"/><stop offset="1" stop-color="#2E7EEE"/></linearGradient><linearGradient id="paint2_linear_112_55" x1="75.5" x2="75.5" y1="-26" y2="173" gradientUnits="userSpaceOnUse"><stop stop-color="#38F"/><stop offset="1" stop-color="#1774F7"/></linearGradient><clipPath id="clip0_112_55"><rect width="1276" height="636" fill="#fff"/></clipPath><clipPath id="clip1_112_55"><rect width="200" height="200" fill="#fff" transform="translate(538 135)"/></clipPath></defs></svg>