<svg xmlns="http://www.w3.org/2000/svg" width="1276" height="282" fill="none" viewBox="0 0 1276 282"><g clip-path="url(#clip0_109_2)"><rect width="1276" height="282" fill="#2E7EEE"/><circle cx="1275.5" cy="422.5" r="422.5" fill="url(#paint0_linear_109_2)" fill-opacity=".6"/><circle cx="825.5" cy="110.5" r="99.5" fill="url(#paint1_linear_109_2)" fill-opacity=".5"/><path fill="#fff" d="M550.84 149.6V157.68H538.12C538.68 155.16 539 152.48 539.24 149.6H550.84ZM526.48 157.68V149.6H537.24C537 152.48 536.72 155.2 536.16 157.68H526.48ZM542.16 142.72C541.12 144.44 539.68 146.4 538.32 147.8H526.36C528.08 146.16 529.6 144.44 530.96 142.72H542.16ZM544.52 171.28C542.48 171.28 542.12 171.08 542.12 169.96V159.48H552.8V147.8H540.52C542.08 146.04 543.72 143.76 544.84 141.76L543.6 140.88L543.24 141H532.2C532.92 140 533.52 139 534.08 138.04L531.96 137.68C529.8 141.64 525.72 146.72 520.16 150.4C520.64 150.68 521.28 151.28 521.6 151.72C522.64 150.96 523.6 150.24 524.56 149.4V159.48H535.64C533.8 165.2 529.84 169.56 520.48 171.84C520.88 172.2 521.4 173 521.6 173.48C531.56 170.88 535.72 165.96 537.64 159.48H540.2V169.96C540.2 172.48 541.12 173.08 544.44 173.08H551.84C555 173.08 555.6 171.76 555.92 166.24C555.32 166.08 554.6 165.76 554.08 165.44C553.92 170.52 553.64 171.28 551.76 171.28H544.52ZM565.28 150.88C565.48 149.72 565.68 148.44 565.88 147.16H572.56C572.44 148.48 572.16 149.68 571.56 150.88H565.28ZM574.44 145.4V142.12H582V145.6H574.44V145.4ZM590.84 142.12V145.6H583.84V142.12H590.84ZM582 150.88H573.6C574.08 149.68 574.28 148.48 574.4 147.16H582V150.88ZM582 152.44V156.64H583.84V152.44H593C592.76 153.92 592.56 154.6 592.28 154.88C592.08 155.08 591.8 155.12 591.32 155.12C590.88 155.12 589.6 155.12 588.24 154.96C588.44 155.4 588.6 156 588.64 156.44C590 156.52 591.36 156.56 591.96 156.48C592.76 156.48 593.24 156.32 593.72 155.92C594.28 155.4 594.56 154.24 594.92 151.68C594.92 151.4 594.96 150.88 594.96 150.88H583.84V147.16H592.64V140.52H583.84V137.68H582V140.52H574.44V137.68H572.64V140.52H562.4V142.12H572.64V145.4V145.6H564.32C564.04 147.8 563.56 150.6 563.16 152.44H570.56C568.88 154.44 565.92 156.2 560.72 157.6C561.08 157.96 561.48 158.68 561.68 159.16C568 157.36 571.24 155.12 572.88 152.44H582ZM590.52 168.68V157.72H565.84V168.88H567.68V159.44H588.6V168.68H590.52ZM577.36 161.28C576.2 168.12 572.52 171.08 560.12 172.36C560.44 172.76 560.84 173.52 560.96 174C573.8 172.48 577.92 169.12 579.32 161.28H577.36ZM578.92 168.16C584.12 169.68 590.76 172.16 594.16 173.92L595.28 172.28C591.68 170.56 585.08 168.2 579.96 166.76L578.92 168.16ZM612.12 154.72C612.16 154.04 612.16 153.36 612.16 152.68V142.32H624.48V154.72H612.12ZM635.76 154.72H626.44V142.32H634.44V140.48H601.88V142.32H610.2V152.64C610.2 153.36 610.2 154 610.16 154.72H600.32V156.56H610.08C609.6 162.44 607.68 168.16 600.52 172.68C601 173 601.64 173.64 601.96 174.08C609.6 169.28 611.56 163 612.04 156.56H624.48V173.96H626.44V156.56H635.76V154.72ZM649.68 142.68C648.16 141.52 645.16 139.56 642.92 138.24L641.8 139.52C644.04 140.92 647 142.96 648.52 144.24L649.68 142.68ZM647.8 153.08C646.24 151.96 643.2 150.16 640.96 148.96L639.8 150.24C642.16 151.52 645.12 153.44 646.68 154.64L647.8 153.08ZM647.16 159.28C645.32 163.72 642.68 169.12 640.84 172.2L642.52 173.32C644.52 169.72 646.92 164.6 648.72 160.4L647.16 159.28ZM653.6 141.36H675.8V139.56H651.72V150.48C651.72 157.08 651.28 166.12 646.72 172.68C647.12 172.84 647.96 173.32 648.28 173.64C652.96 166.96 653.6 157.36 653.6 150.48V141.36ZM658.32 162.72C657.08 165.48 655.16 168.32 653.16 170.32C653.6 170.6 654.44 171.12 654.76 171.36C656.68 169.28 658.72 166.16 660.12 163.16L658.32 162.72ZM658.28 154.12H672.2V158.44H658.28V154.12ZM658.28 148.32H672.2V152.56H658.28V148.32ZM674.04 160.08V146.68H664.76C665.24 145.52 665.76 144.12 666.24 142.84L664.2 142.32C663.92 143.56 663.4 145.36 662.96 146.68H656.48V160.08H664.16V171.64C664.16 172.08 664 172.24 663.44 172.28C662.96 172.28 661.16 172.32 658.96 172.24C659.2 172.76 659.44 173.44 659.56 173.92C662.32 173.96 663.96 173.96 664.88 173.64C665.76 173.32 666 172.8 666 171.64V160.08H674.04ZM669.6 163.12C671.36 165.64 673.44 169.04 674.48 171L676.24 170.16C675.16 168.24 673.04 164.96 671.24 162.48L669.6 163.12ZM689.2 144.2C688.08 142.72 685.68 140.32 683.68 138.64L682.4 139.8C684.36 141.56 686.72 144.04 687.84 145.6L689.2 144.2ZM687.92 167.16V150.28H680V152.08H686.08V166.68C686.08 168.6 684.72 169.92 684.04 170.44C684.48 170.72 685.08 171.44 685.32 171.84C685.76 171.16 686.6 170.48 692.96 165.2C692.76 164.88 692.44 164.2 692.24 163.72L687.92 167.16ZM695.6 147.84H702.8V152.92H695.6V147.84ZM695.6 141.16H702.8V146.16H695.6V141.16ZM711.24 146.16H704.6V141.16H711.24V146.16ZM711.24 152.92H704.6V147.84H711.24V152.92ZM716 160.48V158.68H704.64V154.64H713.08V139.44H693.8V154.64H702.76V158.68H691.48V160.48H701.24C698.64 164.72 694.12 168.88 690.04 170.76C690.48 171.12 691 171.76 691.32 172.24C695.52 170 700.08 165.52 702.76 160.96V173.92H704.64V160.96C707.28 165.16 711.6 169.52 715.12 171.8C715.48 171.28 716.04 170.68 716.48 170.32C712.96 168.36 708.76 164.36 706.2 160.48H716ZM751.64 148.72H737.28V140.96H751.64V148.72ZM753.48 139.24H735.48V150.44H753.48V139.24ZM732.96 159.2C732.32 158.04 729.28 153.48 728.24 152.08V151.04H733.68V149.2H728.24V141.36C730 140.84 731.68 140.28 733 139.68L731.6 138.12C729.2 139.32 724.84 140.48 721.2 141.2C721.44 141.68 721.68 142.32 721.8 142.76C723.28 142.48 724.84 142.16 726.4 141.8V149.2H720.48V151.04H726.12C724.76 156 722.04 161.72 719.64 164.8C720.04 165.2 720.6 166.04 720.88 166.56C722.84 163.96 724.88 159.56 726.4 155.24V173.96H728.24V154.72C729.44 156.72 731 159.52 731.6 160.84L732.96 159.2ZM745.64 171V164.28H754.16V162.52H745.64V156.28H755V154.48H734.52V156.28H743.72V162.52H735.44V164.28H743.72V171H732.64V172.84H755.88V171H745.64ZM459.57 230.52C466.69 230.52 471.69 224.6 471.69 215.32C471.69 206.08 466.69 200.32 459.57 200.32C452.53 200.32 447.49 206.08 447.49 215.32C447.49 224.6 452.53 230.52 459.57 230.52ZM459.57 228.36C453.81 228.36 450.01 223.24 450.01 215.32C450.01 207.4 453.81 202.48 459.57 202.48C465.37 202.48 469.21 207.4 469.21 215.32C469.21 223.24 465.37 228.36 459.57 228.36ZM478.113 239.52H480.433V231.84L480.393 227.92C482.553 229.6 484.673 230.52 486.673 230.52C491.673 230.52 496.073 226.28 496.073 219C496.073 212.44 493.193 208.12 487.513 208.12C484.913 208.12 482.473 209.68 480.393 211.28H480.313L480.033 208.68H478.113V239.52ZM486.473 228.48C484.913 228.48 482.713 227.8 480.433 225.88V213.56C482.913 211.36 485.033 210.16 487.073 210.16C491.833 210.16 493.593 213.88 493.593 219C493.593 224.72 490.633 228.48 486.473 228.48ZM510.492 230.52C513.572 230.52 515.572 229.52 517.292 228.44L516.412 226.72C514.812 227.84 513.012 228.56 510.732 228.56C506.132 228.56 503.052 224.92 502.932 219.72H518.052C518.132 219.2 518.172 218.64 518.172 218.04C518.172 211.8 515.092 208.12 509.932 208.12C505.092 208.12 500.572 212.44 500.572 219.36C500.572 226.36 505.012 230.52 510.492 230.52ZM502.932 217.88C503.372 213 506.492 210.12 509.972 210.12C513.692 210.12 516.052 212.72 516.052 217.88H502.932ZM523.855 230H526.175V214.04C528.655 211.48 530.415 210.2 532.895 210.2C536.175 210.2 537.575 212.24 537.575 216.68V230H539.895V216.36C539.895 210.88 537.855 208.12 533.415 208.12C530.495 208.12 528.295 209.8 526.135 211.92H526.055L525.775 208.68H523.855V230ZM564.394 230.52C570.114 230.52 573.834 227.08 573.834 222.6C573.834 218.16 571.034 216.32 567.714 214.84L563.354 212.92C561.234 212 558.394 210.76 558.394 207.44C558.394 204.44 560.874 202.48 564.594 202.48C567.474 202.48 569.754 203.64 571.474 205.4L572.834 203.84C570.994 201.84 568.114 200.32 564.594 200.32C559.634 200.32 555.954 203.32 555.954 207.64C555.954 211.92 559.274 213.76 561.874 214.92L566.234 216.84C569.114 218.12 571.394 219.24 571.394 222.76C571.394 226.08 568.714 228.36 564.394 228.36C561.074 228.36 558.074 226.88 555.954 224.48L554.474 226.16C556.794 228.76 560.154 230.52 564.394 230.52ZM587.517 230.52C592.677 230.52 597.157 226.44 597.157 219.36C597.157 212.24 592.677 208.12 587.517 208.12C582.357 208.12 577.877 212.24 577.877 219.36C577.877 226.44 582.357 230.52 587.517 230.52ZM587.517 228.52C583.357 228.52 580.317 224.8 580.317 219.36C580.317 213.92 583.357 210.16 587.517 210.16C591.677 210.16 594.757 213.92 594.757 219.36C594.757 224.8 591.677 228.52 587.517 228.52ZM609.507 230.52C612.467 230.52 614.627 228.88 616.707 226.48H616.827L617.027 230H618.987V208.68H616.667V224.28C614.267 227.16 612.507 228.44 610.027 228.44C606.747 228.44 605.387 226.4 605.387 222.04V208.68H603.067V222.32C603.067 227.8 605.067 230.52 609.507 230.52ZM626.98 230H629.3V215.68C630.86 211.72 633.14 210.32 635.02 210.32C635.86 210.32 636.26 210.4 636.98 210.68L637.46 208.6C636.78 208.24 636.14 208.12 635.3 208.12C632.82 208.12 630.7 209.96 629.26 212.64H629.18L628.9 208.68H626.98V230ZM648.926 230.52C651.606 230.52 653.886 229.36 655.726 227.76L654.606 226.16C653.166 227.44 651.246 228.52 649.046 228.52C644.566 228.52 641.606 224.8 641.606 219.36C641.606 213.92 644.846 210.16 649.086 210.16C651.086 210.16 652.646 211.08 653.966 212.32L655.286 210.72C653.806 209.4 651.886 208.12 649.046 208.12C643.766 208.12 639.166 212.24 639.166 219.36C639.166 226.44 643.366 230.52 648.926 230.52ZM668.187 230.52C671.267 230.52 673.267 229.52 674.987 228.44L674.107 226.72C672.507 227.84 670.707 228.56 668.427 228.56C663.827 228.56 660.747 224.92 660.627 219.72H675.747C675.827 219.2 675.867 218.64 675.867 218.04C675.867 211.8 672.787 208.12 667.627 208.12C662.787 208.12 658.267 212.44 658.267 219.36C658.267 226.36 662.707 230.52 668.187 230.52ZM660.627 217.88C661.067 213 664.187 210.12 667.667 210.12C671.387 210.12 673.747 212.72 673.747 217.88H660.627ZM701.138 230.52C704.898 230.52 707.618 228.96 709.858 226.36L708.498 224.84C706.418 227.12 704.218 228.36 701.258 228.36C695.138 228.36 691.338 223.28 691.338 215.32C691.338 207.44 695.218 202.48 701.378 202.48C704.058 202.48 706.138 203.64 707.698 205.4L709.058 203.84C707.498 202 704.818 200.32 701.378 200.32C693.978 200.32 688.818 206.08 688.818 215.4C688.818 224.72 693.938 230.52 701.138 230.52ZM723.376 230.52C728.536 230.52 733.016 226.44 733.016 219.36C733.016 212.24 728.536 208.12 723.376 208.12C718.216 208.12 713.736 212.24 713.736 219.36C713.736 226.44 718.216 230.52 723.376 230.52ZM723.376 228.52C719.216 228.52 716.176 224.8 716.176 219.36C716.176 213.92 719.216 210.16 723.376 210.16C727.536 210.16 730.616 213.92 730.616 219.36C730.616 224.8 727.536 228.52 723.376 228.52ZM745.366 230.52C748.326 230.52 750.486 228.88 752.566 226.48H752.686L752.886 230H754.846V208.68H752.526V224.28C750.126 227.16 748.366 228.44 745.886 228.44C742.606 228.44 741.246 226.4 741.246 222.04V208.68H738.926V222.32C738.926 227.8 740.926 230.52 745.366 230.52ZM762.84 230H765.16V215.68C766.72 211.72 769 210.32 770.88 210.32C771.72 210.32 772.12 210.4 772.84 210.68L773.32 208.6C772.64 208.24 772 208.12 771.16 208.12C768.68 208.12 766.56 209.96 765.12 212.64H765.04L764.76 208.68H762.84V230ZM782.455 230.52C787.175 230.52 789.775 227.72 789.775 224.44C789.775 220.32 786.175 219.16 782.895 217.92C780.415 217 777.935 216.12 777.935 213.76C777.935 211.84 779.375 210.08 782.535 210.08C784.615 210.08 786.175 210.92 787.615 212L788.815 210.4C787.215 209.12 784.935 208.12 782.615 208.12C778.135 208.12 775.615 210.76 775.615 213.88C775.615 217.56 779.135 218.88 782.295 220C784.775 220.88 787.455 222.04 787.455 224.56C787.455 226.76 785.815 228.6 782.575 228.6C779.655 228.6 777.695 227.48 775.855 225.92L774.615 227.6C776.535 229.2 779.335 230.52 782.455 230.52ZM803.461 230.52C806.541 230.52 808.541 229.52 810.261 228.44L809.381 226.72C807.781 227.84 805.981 228.56 803.701 228.56C799.101 228.56 796.021 224.92 795.901 219.72H811.021C811.101 219.2 811.141 218.64 811.141 218.04C811.141 211.8 808.061 208.12 802.901 208.12C798.061 208.12 793.541 212.44 793.541 219.36C793.541 226.36 797.981 230.52 803.461 230.52ZM795.901 217.88C796.341 213 799.461 210.12 802.941 210.12C806.661 210.12 809.021 212.72 809.021 217.88H795.901ZM822.064 230.52C826.784 230.52 829.384 227.72 829.384 224.44C829.384 220.32 825.784 219.16 822.504 217.92C820.024 217 817.544 216.12 817.544 213.76C817.544 211.84 818.984 210.08 822.144 210.08C824.224 210.08 825.784 210.92 827.224 212L828.424 210.4C826.824 209.12 824.544 208.12 822.224 208.12C817.744 208.12 815.224 210.76 815.224 213.88C815.224 217.56 818.744 218.88 821.904 220C824.384 220.88 827.064 222.04 827.064 224.56C827.064 226.76 825.424 228.6 822.184 228.6C819.264 228.6 817.304 227.48 815.464 225.92L814.224 227.6C816.144 229.2 818.944 230.52 822.064 230.52Z"/><path fill="#fff" fill-rule="evenodd" d="M527.323 56.5806C531.349 59.7194 533.942 64.6032 533.949 70.0967H536.31C536.307 64.1765 534.161 58.7588 530.612 54.5638C529.437 55.1141 528.335 55.7913 527.323 56.5806Z" clip-rule="evenodd"/><mask id="mask0_109_2" width="49" height="25" x="509" y="46" maskUnits="userSpaceOnUse" style="mask-type:alpha"><path fill="#fff" d="M509.135 46H557.447V70.0965H509.135V46Z"/></mask><g mask="url(#mask0_109_2)"><path fill="#fff" fill-rule="evenodd" d="M518.535 51.0243C517.757 51.6241 517.016 52.2717 516.317 52.962C511.888 57.3285 509.142 63.392 509.135 70.0965H520.699C520.705 64.6031 523.297 59.7193 527.322 56.5804C528.336 55.7928 529.436 55.1139 530.611 54.5636C532.822 53.5305 535.289 52.9505 537.892 52.9505C547.382 52.9505 555.075 60.6255 555.085 70.0965H557.447C557.436 56.7864 546.627 45.9988 533.292 45.9988C529.501 45.9988 525.915 46.8721 522.724 48.4259C522.425 48.5709 522.132 48.7225 521.84 48.8774C521.259 49.1921 520.694 49.5282 520.142 49.8858C519.59 50.2433 519.054 50.6239 518.535 51.0243Z" clip-rule="evenodd"/></g><mask id="mask1_109_2" width="34" height="25" x="488" y="46" maskUnits="userSpaceOnUse" style="mask-type:alpha"><path fill="#fff" d="M488 46H521.2V70.0975H488V46Z"/></mask><g mask="url(#mask1_109_2)"><path fill="#fff" fill-rule="evenodd" d="M521.2 47.7563C518.405 46.6277 515.355 45.9999 512.154 45.9999C498.819 45.9999 488.008 56.7858 488 70.0976H499.562C499.572 61.4307 506.016 54.2763 514.38 53.1229C514.713 52.7538 515.054 52.3913 515.41 52.042C517.136 50.3383 519.079 48.9015 521.2 47.7563Z" clip-rule="evenodd"/></g><path fill="#fff" fill-rule="evenodd" d="M518.535 51.0244C519.054 50.624 519.59 50.2433 520.142 49.8858C519.59 50.2433 519.054 50.624 518.535 51.0244Z" clip-rule="evenodd"/><path fill="#fff" fill-rule="evenodd" d="M512.126 94.23C515.415 94.23 518.549 93.5742 521.407 92.3879H502.849C505.706 93.5742 508.839 94.23 512.126 94.23Z" clip-rule="evenodd"/><path fill="#fff" fill-rule="evenodd" d="M500.396 75.5228H488.555C488.77 76.4488 489.038 77.3517 489.355 78.2349H501.572C501.106 77.3715 500.709 76.4653 500.396 75.5228Z" clip-rule="evenodd"/><path fill="#fff" fill-rule="evenodd" d="M518.712 89.377H497.582C498.464 90.0377 499.39 90.6457 500.358 91.1845H521.494C520.525 90.6441 519.595 90.0394 518.712 89.377Z" clip-rule="evenodd"/><path fill="#fff" fill-rule="evenodd" d="M502.288 79.4392H489.822C490.215 80.3734 490.667 81.278 491.169 82.1497H504.47C503.654 81.3242 502.924 80.4146 502.288 79.4392Z" clip-rule="evenodd"/><path fill="#fff" fill-rule="evenodd" d="M516.256 87.2643C514.495 87.2165 512.801 86.9018 511.21 86.3647H494.268C494.848 86.999 495.459 87.6037 496.105 88.1722H517.237C516.902 87.8772 516.573 87.5757 516.256 87.2643Z" clip-rule="evenodd"/><path fill="#fff" fill-rule="evenodd" d="M505.789 83.3526H491.921C492.331 83.9771 492.771 84.5802 493.236 85.1618H508.462C507.513 84.6412 506.618 84.0348 505.789 83.3526Z" clip-rule="evenodd"/><path fill="#fff" fill-rule="evenodd" d="M533.084 82.149C533.588 81.279 534.038 80.3744 534.43 79.4385H531.18C530.544 80.4156 529.811 81.3235 528.996 82.149H533.084Z" clip-rule="evenodd"/><path fill="#fff" fill-rule="evenodd" d="M527.298 83.6583C528.02 84.2185 528.788 84.7194 529.593 85.161H531.022C531.488 84.581 531.928 83.9763 532.338 83.3518H527.677C527.552 83.4556 527.427 83.5578 527.298 83.6583Z" clip-rule="evenodd"/><path fill="#fff" fill-rule="evenodd" d="M535.697 75.5228H533.072C532.757 76.4653 532.362 77.3715 531.896 78.2349H534.901C535.216 77.3517 535.484 76.4488 535.697 75.5228Z" clip-rule="evenodd"/><path fill="#fff" fill-rule="evenodd" d="M546.141 85.1612H552.147C552.613 84.5795 553.051 83.9765 553.463 83.352H548.81C547.981 84.0341 547.088 84.6421 546.141 85.1612Z" clip-rule="evenodd"/><path fill="#fff" fill-rule="evenodd" d="M521.494 91.184H545.023C545.994 90.6452 546.92 90.0389 547.8 89.3765H518.713C519.594 90.0405 520.524 90.6436 521.494 91.184Z" clip-rule="evenodd"/><path fill="#fff" fill-rule="evenodd" d="M550.128 82.149H554.213C554.717 81.279 555.168 80.3744 555.56 79.4385H552.309C551.673 80.414 550.944 81.3235 550.128 82.149Z" clip-rule="evenodd"/><path fill="#fff" fill-rule="evenodd" d="M537.863 87.2755C535.926 87.2755 534.064 86.9542 532.327 86.3643H515.394C515.675 86.6708 515.96 86.9724 516.257 87.264C516.573 87.5771 516.903 87.8769 517.236 88.1719H549.279C549.923 87.6034 550.534 86.9987 551.114 86.3643H543.406C541.666 86.9559 539.803 87.2755 537.863 87.2755Z" clip-rule="evenodd"/><path fill="#fff" fill-rule="evenodd" d="M533.256 94.23C536.545 94.23 539.677 93.5742 542.534 92.3879H523.976C526.835 93.5742 529.967 94.23 533.256 94.23Z" clip-rule="evenodd"/><path fill="#fff" fill-rule="evenodd" d="M526.919 83.3526H513.042C513.454 83.9771 513.896 84.5785 514.362 85.1618H529.593C528.788 84.7186 528.02 84.2177 527.298 83.6591C527.17 83.5586 527.044 83.4548 526.919 83.3526Z" clip-rule="evenodd"/><path fill="#fff" fill-rule="evenodd" d="M521.525 75.5228H509.685C509.899 76.4488 510.168 77.3517 510.484 78.2349H522.702C522.236 77.3715 521.839 76.4653 521.525 75.5228Z" clip-rule="evenodd"/><path fill="#fff" fill-rule="evenodd" d="M525.601 82.149C524.786 81.3235 524.052 80.4156 523.416 79.4385H510.951C511.345 80.3744 511.797 81.279 512.301 82.149H525.601Z" clip-rule="evenodd"/><path fill="#fff" fill-rule="evenodd" d="M556.826 75.5228H554.202C553.887 76.4653 553.491 77.3715 553.025 78.2349H556.027C556.344 77.3517 556.614 76.4488 556.826 75.5228Z" clip-rule="evenodd"/><path fill="#fff" fill-rule="evenodd" d="M765.856 55.8017C765.856 56.3142 765.492 56.7409 765.033 56.7409H760.501C760.04 56.7409 759.678 56.3142 759.678 55.8017V54.0552C759.678 53.546 760.04 53.116 760.501 53.116H765.033C765.492 53.116 765.856 53.546 765.856 54.0552V55.8017ZM765.856 62.6084C765.856 63.134 765.492 63.5295 765.033 63.5295H760.501C760.04 63.5295 759.678 63.134 759.678 62.6084V60.8767C759.678 60.351 760.04 59.9391 760.501 59.9391H765.033C765.492 59.9391 765.856 60.351 765.856 60.8767V62.6084ZM772.958 60.8767C772.958 60.351 773.319 59.9391 773.782 59.9391H778.313C778.758 59.9391 779.137 60.351 779.137 60.8767V62.6084C779.137 63.134 778.758 63.5295 778.313 63.5295H773.782C773.319 63.5295 772.958 63.134 772.958 62.6084V60.8767ZM772.958 54.0552C772.958 53.546 773.319 53.116 773.782 53.116H778.313C778.758 53.116 779.137 53.546 779.137 54.0552V55.8017C779.137 56.3142 778.758 56.7409 778.313 56.7409H773.782C773.319 56.7409 772.958 56.3142 772.958 55.8017V54.0552ZM787.176 69.018H772.958V66.7441H784.573C785.497 66.7441 786.22 65.9038 786.22 64.8822V51.783C786.22 50.7597 785.497 49.9211 784.573 49.9211H754.238C753.317 49.9211 752.591 50.7597 752.591 51.783V64.8822C752.591 65.9038 753.317 66.7441 754.238 66.7441H765.856V69.018H751.637C751.192 69.018 750.813 69.4299 750.813 69.939V71.2901C750.813 71.7845 751.192 72.2129 751.637 72.2129H764.209C765.115 72.2129 765.856 73.0548 765.856 74.0764V90.3557C765.856 91.262 766.58 92.0035 767.504 92.0035H771.31C772.215 92.0035 772.958 91.262 772.958 90.3557V74.0764C772.958 73.0548 773.683 72.2129 774.606 72.2129H787.176C787.623 72.2129 788 71.7845 788 71.2901V69.939C788 69.4299 787.623 69.018 787.176 69.018ZM643.892 59.9391H641.867C640.959 59.9391 640.219 60.7794 640.219 61.801V68.0606L645.539 67.5515V61.801C645.539 60.7794 644.798 59.9391 643.892 59.9391ZM640.219 71.1583V86.7967C640.219 87.8183 640.959 88.657 641.867 88.657H643.892C644.798 88.657 645.539 87.8183 645.539 86.7967V71.0611L640.219 71.1583ZM611.137 87.8183C611.137 88.3274 610.774 88.7393 610.313 88.7393H605.583C605.123 88.7393 604.759 88.3274 604.759 87.8183V81.2752C604.759 80.7645 605.123 80.3377 605.583 80.3377H610.313C610.774 80.3377 611.137 80.7645 611.137 81.2752V87.8183ZM598.367 87.8183C598.367 88.3274 598.005 88.7393 597.543 88.7393H592.813C592.353 88.7393 591.989 88.3274 591.989 87.8183V81.2752C591.989 80.7645 592.353 80.3377 592.813 80.3377H597.543C598.005 80.3377 598.367 80.7645 598.367 81.2752V87.8183ZM585.598 87.8183C585.598 88.3274 585.235 88.7393 584.774 88.7393H580.043C579.583 88.7393 579.219 88.3274 579.219 87.8183V81.2752C579.219 80.7645 579.583 80.3377 580.043 80.3377H584.774C585.235 80.3377 585.598 80.7645 585.598 81.2752V87.8183ZM620.249 88.7393H618.352C617.893 88.7393 617.528 88.3274 617.528 87.8183V79.0195C617.528 77.9798 616.789 77.156 615.881 77.156H574.475C573.569 77.156 572.828 77.9798 572.828 79.0195V87.8183C572.828 88.3274 572.465 88.7393 572.004 88.7393H570.109C569.648 88.7393 569.285 89.1678 569.285 89.6802V91.0132C569.285 91.5256 569.648 91.9524 570.109 91.9524H620.249C620.71 91.9524 621.073 91.5256 621.073 91.0132V89.6802C621.073 89.1678 620.71 88.7393 620.249 88.7393ZM740.531 71.1583L740.365 90.1069C740.35 91.1615 741.091 92.0035 742.013 92.0035H746.049C746.956 92.0035 747.697 91.1615 747.697 90.1415V71.043L740.531 71.1583ZM746.873 59.9556H737.022C736.575 59.9556 736.198 60.3823 736.198 60.8948V62.2278C736.198 62.7567 736.575 63.1686 737.022 63.1686H739.773C740.233 63.1686 740.597 63.5954 740.597 64.0897L740.563 68.0771L747.697 67.3851V60.8948C747.697 60.3823 747.32 59.9556 746.873 59.9556ZM727.432 88.7393L722.637 73.9759C722.406 73.2344 721.78 72.7401 721.088 72.7401H717.513C716.359 72.7401 715.567 74.0418 715.964 75.2628L719.523 86.2513C719.918 87.4541 719.128 88.7393 717.973 88.7393H695.417C694.28 88.7393 693.489 87.4723 693.868 86.2678L697.262 75.3122L690.144 75.4259L686.009 88.7393L685.776 89.5319C685.447 90.7166 686.239 91.9524 687.358 91.9524H726.079C727.183 91.9524 727.976 90.7331 727.646 89.5319L727.432 88.7393ZM729.953 63.9414H681.823C681.377 63.9414 681 64.3533 681 64.8822V66.2152C681 66.7277 681.377 67.1561 681.823 67.1561H690.39C691.528 67.1561 692.319 68.4231 691.94 69.6276L691.182 72.0646L698.48 71.4071L699.421 68.3754C699.65 67.6339 700.276 67.1561 700.986 67.1561H729.953C730.413 67.1561 730.777 66.7277 730.777 66.2152V64.8822C730.777 64.3533 730.413 63.9414 729.953 63.9414ZM628.982 59.9391H626.97C626.049 59.9391 625.322 60.7794 625.322 61.801V69.5106L630.629 69.018V61.801C630.629 60.7794 629.886 59.9391 628.982 59.9391ZM625.322 71.4071V86.7967C625.322 87.8183 626.049 88.657 626.97 88.657H628.982C629.886 88.657 630.629 87.8183 630.629 86.7967V71.3066L625.322 71.4071ZM676.32 70.9952L666.104 62.2788H676.221C676.666 62.2788 677.045 61.8669 677.045 61.3545V60.005C677.045 59.5091 676.666 59.0807 676.221 59.0807H667.472C666.564 59.0807 665.824 58.2403 665.824 57.2187V55.3568C665.824 54.3204 666.564 53.4966 667.472 53.4966H673.931C674.374 53.4966 674.755 53.0682 674.755 52.5557V51.2227C674.755 50.6938 674.374 50.2819 673.931 50.2819H651.24C650.797 50.2819 650.417 50.6938 650.417 51.2227V52.5557C650.417 53.0682 650.797 53.4966 651.24 53.4966H657.619C658.523 53.4966 659.266 54.3204 659.266 55.3568V57.2187C659.266 58.2403 658.523 59.0807 657.619 59.0807H648.835C648.392 59.0807 648.011 59.5091 648.011 60.005V61.3545C648.011 61.8669 648.392 62.2788 648.835 62.2788H659.579L648.803 71.5554C648.309 71.885 648.011 72.4765 648.011 73.1207V75.2776L651.077 73.0202C651.621 72.6083 652.363 73.0697 652.344 73.8276L652.064 90.0328C652.049 91.0873 652.791 91.9458 653.712 91.9458H656.118C656.993 91.9458 657.734 91.1532 657.765 90.1498L658.476 68.4891L659.413 67.797L662.428 65.7226C662.694 65.5232 663.023 65.5232 663.287 65.7226L667.174 68.4577L667.884 68.9834V90.0921C667.884 91.1137 668.624 91.9524 669.532 91.9524H671.558C672.463 91.9524 673.206 91.1137 673.206 90.0921V73.9265C673.206 73.218 673.882 72.7747 674.425 73.1207L677.111 74.7339V72.5918C677.111 71.9328 676.814 71.3248 676.32 70.9952ZM644.716 54.3353H639.741C638.835 54.3353 638.093 53.4966 638.093 52.4734V49.7892C638.093 48.766 637.352 47.9273 636.446 47.9273H634.417C633.513 47.9273 632.77 48.766 632.77 49.7892V52.4734C632.77 53.4966 632.03 54.3353 631.122 54.3353H626.146C625.686 54.3353 625.322 54.7472 625.322 55.2596V56.6091C625.322 57.1034 625.686 57.5335 626.146 57.5335H631.122C632.03 57.5335 632.77 58.3573 632.77 59.3954V68.7873L638.093 68.2748V59.3954C638.093 58.3573 638.835 57.5335 639.741 57.5335H644.716C645.162 57.5335 645.539 57.1034 645.539 56.6091V55.2596C645.539 54.7472 645.162 54.3353 644.716 54.3353ZM632.77 71.2753V90.0575C632.77 91.0972 633.513 91.9211 634.417 91.9211H636.446C637.352 91.9211 638.093 91.0972 638.093 90.0575V71.1929L632.77 71.2753ZM588.201 60.7284H584.395C583.488 60.7284 582.747 61.5687 582.747 62.5903V73.2839C582.747 74.3055 583.488 75.1458 584.395 75.1458H588.201C589.105 75.1458 589.849 74.3055 589.849 73.2839V62.5903C589.849 61.5687 589.105 60.7284 588.201 60.7284ZM595.171 71.1929V73.5986L618.42 72.8571V70.4663L595.171 71.1929ZM577.557 62.3925H573.75C572.844 62.3925 572.103 63.2345 572.103 64.2726V71.6872C572.103 72.7088 572.844 73.5492 573.75 73.5492H577.557C578.463 73.5492 579.204 72.7088 579.204 71.6872V64.2726C579.204 63.2345 578.463 62.3925 577.557 62.3925ZM605.288 65.9516C603.623 65.9862 602.272 64.4703 602.272 62.5903C602.272 61.5687 601.547 60.7284 600.625 60.7284H596.818C595.896 60.7284 595.171 61.5522 595.171 62.5903V69.593L618.42 68.1941V65.7885L605.288 65.9516ZM620.249 51.9296H613.493C612.585 51.9296 611.845 51.0909 611.845 50.0694V49.7892C611.845 48.766 611.104 47.9273 610.198 47.9273H606.392C605.485 47.9273 604.744 48.766 604.744 49.7892C604.744 50.9739 603.902 51.9296 602.865 51.9296H587.229C586.322 51.9296 585.581 51.0909 585.581 50.0694V49.7892C585.581 48.766 584.856 47.9273 583.933 47.9273H580.144C579.219 47.9273 578.496 48.766 578.496 49.7892C578.496 50.9739 577.639 51.9296 576.601 51.9296H570.091C569.631 51.9296 569.267 52.3415 569.267 52.8705V54.2034C569.267 54.7159 569.631 55.1443 570.091 55.1443H576.848C577.754 55.1443 578.496 55.9517 578.496 57.0045V57.2533C578.496 58.3079 579.219 59.1153 580.144 59.1153H583.933C584.856 59.1153 585.581 58.3079 585.581 57.2533C585.581 56.0835 586.438 55.1443 587.476 55.1443H603.096C604.019 55.1443 604.744 55.9517 604.744 57.0045V57.2533C604.744 58.3079 605.485 59.1153 606.392 59.1153H610.198C611.104 59.1153 611.845 58.3079 611.845 57.2533C611.845 56.0835 612.702 55.1443 613.74 55.1443H620.249C620.71 55.1443 621.073 54.7159 621.073 54.2034V52.8705C621.073 52.3415 620.71 51.9296 620.249 51.9296ZM747.056 54.4836L745.689 49.2603C745.474 48.4876 744.83 47.9422 744.107 47.9422H740.449C739.345 47.9422 738.554 49.1631 738.884 50.3478L740.251 55.5397C740.465 56.3455 741.106 56.8892 741.833 56.8892H745.491C746.595 56.8892 747.386 55.6716 747.056 54.4836ZM724.202 51.9296H687.572C687.129 51.9296 686.748 52.3415 686.748 52.8705V54.2034C686.748 54.7159 687.129 55.1443 687.572 55.1443H724.202C724.664 55.1443 725.026 54.7159 725.026 54.2034V52.8705C725.026 52.3415 724.664 51.9296 724.202 51.9296Z" clip-rule="evenodd"/><path fill="#fff" fill-rule="evenodd" d="M761.333 77.2364L760.589 88.1178C760.44 88.8939 759.761 89.4558 758.969 89.4558H755.23C754.197 89.4558 753.418 88.5149 753.61 87.4999L754.359 76.6185C754.505 75.8408 755.186 75.2806 755.975 75.2806H759.717C760.75 75.2806 761.528 76.2214 761.333 77.2364Z" clip-rule="evenodd"/><path fill="#fff" fill-rule="evenodd" d="M784.393 76.4463L784.912 87.3277C785.235 88.3856 784.443 89.4566 783.335 89.4566H779.687C778.961 89.4566 778.32 88.9804 778.11 88.2883L777.591 77.4069C777.268 76.3474 778.059 75.2797 779.167 75.2797H782.816C783.541 75.2797 784.181 75.7526 784.393 76.4463Z" clip-rule="evenodd"/><circle cx="150" cy="200" r="281" fill="url(#paint2_linear_109_2)"/></g><defs><linearGradient id="paint0_linear_109_2" x1="1275.5" x2="1275.5" y1="0" y2="845" gradientUnits="userSpaceOnUse"><stop stop-color="#006AFF"/><stop offset="1" stop-color="#2E7EEE"/></linearGradient><linearGradient id="paint1_linear_109_2" x1="825.5" x2="825.5" y1="11" y2="210" gradientUnits="userSpaceOnUse"><stop stop-color="#38F"/><stop offset="1" stop-color="#1774F7"/></linearGradient><linearGradient id="paint2_linear_109_2" x1="115.548" x2="150" y1="-81" y2="481" gradientUnits="userSpaceOnUse"><stop stop-color="#006AFF" stop-opacity=".76"/><stop offset="1" stop-color="#2E7EEE" stop-opacity="0"/></linearGradient><clipPath id="clip0_109_2"><rect width="1276" height="282" fill="#fff"/></clipPath></defs></svg>