<svg width="300" height="49" viewBox="0 0 300 49" fill="none" xmlns="http://www.w3.org/2000/svg">
<path fill-rule="evenodd" clip-rule="evenodd" d="M39.3232 10.5805C43.3486 13.7194 45.9421 18.6032 45.9487 24.0966H48.3098C48.3065 18.1764 46.1612 12.7588 42.6121 8.56372C41.4372 9.11405 40.3349 9.79126 39.3232 10.5805Z" fill="white"/>
<mask id="mask0_303_7" style="mask-type:alpha" maskUnits="userSpaceOnUse" x="21" y="0" width="49" height="25">
<path d="M21.1348 0H69.4471V24.0965H21.1348V0Z" fill="white"/>
</mask>
<g mask="url(#mask0_303_7)">
<path fill-rule="evenodd" clip-rule="evenodd" d="M30.5349 5.0244C29.7572 5.62417 29.0157 6.27172 28.3171 6.9621C23.8881 11.3285 21.1414 17.3921 21.1348 24.0966H32.6984C32.705 18.6031 35.2968 13.7193 39.3221 10.5805C40.3355 9.79286 41.4361 9.11401 42.611 8.56367C44.8222 7.53056 47.2888 6.95057 49.8922 6.95057C59.3813 6.95057 67.0744 14.6256 67.0843 24.0966H69.4471C69.4356 10.7864 58.6266 -0.00109863 45.2918 -0.00109863C41.5004 -0.00109863 37.915 0.872185 34.7234 2.42597C34.4252 2.57097 34.1319 2.72256 33.8402 2.87744C33.2586 3.19215 32.6934 3.52829 32.1414 3.88584C31.5895 4.24339 31.054 4.62401 30.5349 5.0244Z" fill="white"/>
</g>
<mask id="mask1_303_7" style="mask-type:alpha" maskUnits="userSpaceOnUse" x="0" y="0" width="34" height="25">
<path d="M0 0H33.1996V24.0975H0V0Z" fill="white"/>
</mask>
<g mask="url(#mask1_303_7)">
<path fill-rule="evenodd" clip-rule="evenodd" d="M33.1996 1.75633C30.4051 0.627654 27.3552 -0.00012207 24.1537 -0.00012207C10.8188 -0.00012207 0.00823853 10.7858 0 24.0976H11.5619C11.5718 15.4306 18.016 8.2763 26.3798 7.12291C26.7126 6.75382 27.0537 6.39133 27.4096 6.04201C29.1364 4.33829 31.079 2.90149 33.1996 1.75633Z" fill="white"/>
</g>
<path fill-rule="evenodd" clip-rule="evenodd" d="M30.5352 5.02431C31.0542 4.62391 31.5897 4.24329 32.1417 3.88574C31.5897 4.24329 31.0542 4.62391 30.5352 5.02431Z" fill="white"/>
<path fill-rule="evenodd" clip-rule="evenodd" d="M24.1262 48.23C27.415 48.23 30.5489 47.5742 33.4077 46.3878H14.8496C17.7067 47.5742 20.839 48.23 24.1262 48.23Z" fill="white"/>
<path fill-rule="evenodd" clip-rule="evenodd" d="M12.3961 29.5228H0.555664C0.769866 30.4488 1.03844 31.3518 1.3548 32.2349H13.5725C13.1062 31.3716 12.7091 30.4653 12.3961 29.5228Z" fill="white"/>
<path fill-rule="evenodd" clip-rule="evenodd" d="M30.7122 43.3771H9.58203C10.4636 44.0378 11.3896 44.6458 12.3584 45.1846H33.4935C32.5247 44.6442 31.5954 44.0395 30.7122 43.3771Z" fill="white"/>
<path fill-rule="evenodd" clip-rule="evenodd" d="M14.2883 33.4392H1.82178C2.21558 34.3735 2.66705 35.278 3.1696 36.1497H16.4699C15.6543 35.3242 14.9243 34.4147 14.2883 33.4392Z" fill="white"/>
<path fill-rule="evenodd" clip-rule="evenodd" d="M28.2567 41.2643C26.4953 41.2165 24.8015 40.9018 23.2098 40.3646H6.26807C6.84806 40.999 7.45936 41.6037 8.10526 42.1722H29.2371C28.9026 41.8772 28.5731 41.5757 28.2567 41.2643Z" fill="white"/>
<path fill-rule="evenodd" clip-rule="evenodd" d="M17.7896 37.3527H3.9209C4.33118 37.9771 4.77111 38.5802 5.23577 39.1618H20.4622C19.5131 38.6412 18.6184 38.0348 17.7896 37.3527Z" fill="white"/>
<path fill-rule="evenodd" clip-rule="evenodd" d="M45.0836 36.1491C45.5878 35.2791 46.0376 34.3745 46.4297 33.4386H43.1805C42.5444 34.4157 41.8112 35.3236 40.9956 36.1491H45.0836Z" fill="white"/>
<path fill-rule="evenodd" clip-rule="evenodd" d="M39.2983 37.6583C40.02 38.2185 40.7879 38.7194 41.5936 39.161H43.0222C43.4885 38.581 43.9284 37.9763 44.3387 37.3518H39.6773C39.5521 37.4556 39.4269 37.5578 39.2983 37.6583Z" fill="white"/>
<path fill-rule="evenodd" clip-rule="evenodd" d="M47.6968 29.5228H45.072C44.7573 30.4653 44.3618 31.3716 43.8955 32.2349H46.9009C47.2156 31.3518 47.4842 30.4488 47.6968 29.5228Z" fill="white"/>
<path fill-rule="evenodd" clip-rule="evenodd" d="M58.1406 39.1612H64.1465C64.6128 38.5796 65.0511 37.9765 65.463 37.3521H60.8099C59.9811 38.0342 59.0881 38.6422 58.1406 39.1612Z" fill="white"/>
<path fill-rule="evenodd" clip-rule="evenodd" d="M33.4942 45.184H57.0234C57.9939 44.6452 58.92 44.0388 59.7998 43.3765H30.7129C31.5944 44.0405 32.5237 44.6436 33.4942 45.184Z" fill="white"/>
<path fill-rule="evenodd" clip-rule="evenodd" d="M62.1279 36.1491H66.2126C66.7168 35.2791 67.1683 34.3745 67.5604 33.4386H64.3095C63.6735 34.414 62.9435 35.3236 62.1279 36.1491Z" fill="white"/>
<path fill-rule="evenodd" clip-rule="evenodd" d="M49.8633 41.2756C47.9256 41.2756 46.0637 40.9543 44.327 40.3644H27.3936C27.6753 40.6709 27.9604 40.9724 28.257 41.264C28.5733 41.5771 28.9029 41.877 29.2357 42.1719H61.2786C61.9229 41.6035 62.5342 40.9987 63.1142 40.3644H55.4062C53.6662 40.9559 51.8027 41.2756 49.8633 41.2756Z" fill="white"/>
<path fill-rule="evenodd" clip-rule="evenodd" d="M45.256 48.23C48.5448 48.23 51.6771 47.5742 54.5342 46.3878H35.9761C38.8348 47.5742 41.9671 48.23 45.256 48.23Z" fill="white"/>
<path fill-rule="evenodd" clip-rule="evenodd" d="M38.919 37.3527H25.042C25.4539 37.9771 25.8955 38.5786 26.3618 39.1618H41.5932C40.7875 38.7186 40.0196 38.2177 39.2979 37.6591C39.1694 37.5586 39.0442 37.4548 38.919 37.3527Z" fill="white"/>
<path fill-rule="evenodd" clip-rule="evenodd" d="M33.5255 29.5228H21.6851C21.8993 30.4488 22.1678 31.3518 22.4842 32.2349H34.7019C34.2356 31.3716 33.8385 30.4653 33.5255 29.5228Z" fill="white"/>
<path fill-rule="evenodd" clip-rule="evenodd" d="M37.6014 36.1491C36.7858 35.3236 36.0526 34.4157 35.4166 33.4386H22.9517C23.3455 34.3745 23.7969 35.2791 24.3011 36.1491H37.6014Z" fill="white"/>
<path fill-rule="evenodd" clip-rule="evenodd" d="M68.8267 29.5228H66.2019C65.8871 30.4653 65.4917 31.3716 65.0254 32.2349H68.0275C68.3439 31.3518 68.6141 30.4488 68.8267 29.5228Z" fill="white"/>
<path fill-rule="evenodd" clip-rule="evenodd" d="M277.856 9.80175C277.856 10.3142 277.492 10.7409 277.033 10.7409H272.501C272.04 10.7409 271.678 10.3142 271.678 9.80175V8.05518C271.678 7.54604 272.04 7.11599 272.501 7.11599H277.033C277.492 7.11599 277.856 7.54604 277.856 8.05518V9.80175ZM277.856 16.6084C277.856 17.134 277.492 17.5295 277.033 17.5295H272.501C272.04 17.5295 271.678 17.134 271.678 16.6084V14.8767C271.678 14.3511 272.04 13.9391 272.501 13.9391H277.033C277.492 13.9391 277.856 14.3511 277.856 14.8767V16.6084ZM284.958 14.8767C284.958 14.3511 285.319 13.9391 285.782 13.9391H290.313C290.758 13.9391 291.137 14.3511 291.137 14.8767V16.6084C291.137 17.134 290.758 17.5295 290.313 17.5295H285.782C285.319 17.5295 284.958 17.134 284.958 16.6084V14.8767ZM284.958 8.05518C284.958 7.54604 285.319 7.11599 285.782 7.11599H290.313C290.758 7.11599 291.137 7.54604 291.137 8.05518V9.80175C291.137 10.3142 290.758 10.7409 290.313 10.7409H285.782C285.319 10.7409 284.958 10.3142 284.958 9.80175V8.05518ZM299.176 23.018H284.958V20.7442H296.573C297.497 20.7442 298.22 19.9038 298.22 18.8823V5.783C298.22 4.75977 297.497 3.92109 296.573 3.92109H266.238C265.317 3.92109 264.591 4.75977 264.591 5.783V18.8823C264.591 19.9038 265.317 20.7442 266.238 20.7442H277.856V23.018H263.637C263.192 23.018 262.813 23.4299 262.813 23.9391V25.2902C262.813 25.7845 263.192 26.2129 263.637 26.2129H276.209C277.115 26.2129 277.856 27.0549 277.856 28.0764V44.3558C277.856 45.262 278.58 46.0035 279.504 46.0035H283.31C284.215 46.0035 284.958 45.262 284.958 44.3558V28.0764C284.958 27.0549 285.683 26.2129 286.606 26.2129H299.176C299.623 26.2129 300 25.7845 300 25.2902V23.9391C300 23.4299 299.623 23.018 299.176 23.018ZM155.892 13.9391H153.867C152.959 13.9391 152.219 14.7795 152.219 15.801V22.0607L157.539 21.5515V15.801C157.539 14.7795 156.798 13.9391 155.892 13.9391ZM152.219 25.1584V40.7967C152.219 41.8183 152.959 42.657 153.867 42.657H155.892C156.798 42.657 157.539 41.8183 157.539 40.7967V25.0611L152.219 25.1584ZM123.137 41.8183C123.137 42.3274 122.774 42.7394 122.313 42.7394H117.583C117.123 42.7394 116.759 42.3274 116.759 41.8183V35.2753C116.759 34.7645 117.123 34.3377 117.583 34.3377H122.313C122.774 34.3377 123.137 34.7645 123.137 35.2753V41.8183ZM110.367 41.8183C110.367 42.3274 110.005 42.7394 109.543 42.7394H104.813C104.353 42.7394 103.989 42.3274 103.989 41.8183V35.2753C103.989 34.7645 104.353 34.3377 104.813 34.3377H109.543C110.005 34.3377 110.367 34.7645 110.367 35.2753V41.8183ZM97.5975 41.8183C97.5975 42.3274 97.235 42.7394 96.7737 42.7394H92.0431C91.5834 42.7394 91.2192 42.3274 91.2192 41.8183V35.2753C91.2192 34.7645 91.5834 34.3377 92.0431 34.3377H96.7737C97.235 34.3377 97.5975 34.7645 97.5975 35.2753V41.8183ZM132.249 42.7394H130.352C129.893 42.7394 129.528 42.3274 129.528 41.8183V33.0196C129.528 31.9799 128.789 31.156 127.881 31.156H86.4755C85.5693 31.156 84.8278 31.9799 84.8278 33.0196V41.8183C84.8278 42.3274 84.4653 42.7394 84.0039 42.7394H82.1091C81.6477 42.7394 81.2852 43.1678 81.2852 43.6802V45.0132C81.2852 45.5256 81.6477 45.9524 82.1091 45.9524H132.249C132.71 45.9524 133.073 45.5256 133.073 45.0132V43.6802C133.073 43.1678 132.71 42.7394 132.249 42.7394ZM252.531 25.1584L252.365 44.107C252.35 45.1615 253.091 46.0035 254.013 46.0035H258.049C258.956 46.0035 259.697 45.1615 259.697 44.1416V25.043L252.531 25.1584ZM258.873 13.9556H249.022C248.575 13.9556 248.198 14.3824 248.198 14.8948V16.2278C248.198 16.7567 248.575 17.1686 249.022 17.1686H251.773C252.233 17.1686 252.597 17.5954 252.597 18.0897L252.563 22.0772L259.697 21.3851V14.8948C259.697 14.3824 259.32 13.9556 258.873 13.9556ZM239.432 42.7394L234.637 27.9759C234.406 27.2345 233.78 26.7402 233.088 26.7402H229.513C228.359 26.7402 227.567 28.0418 227.964 29.2628L231.523 40.2513C231.918 41.4542 231.128 42.7394 229.973 42.7394H207.417C206.28 42.7394 205.489 41.4723 205.868 40.2678L209.262 29.3122L202.144 29.4259L198.009 42.7394L197.776 43.5319C197.447 44.7166 198.239 45.9524 199.358 45.9524H238.079C239.183 45.9524 239.976 44.7331 239.646 43.5319L239.432 42.7394ZM241.953 17.9414H193.823C193.377 17.9414 193 18.3533 193 18.8823V20.2152C193 20.7277 193.377 21.1561 193.823 21.1561H202.39C203.528 21.1561 204.319 22.4232 203.94 23.6276L203.182 26.0646L210.48 25.4072L211.421 22.3754C211.65 21.6339 212.276 21.1561 212.986 21.1561H241.953C242.413 21.1561 242.777 20.7277 242.777 20.2152V18.8823C242.777 18.3533 242.413 17.9414 241.953 17.9414ZM140.982 13.9391H138.97C138.049 13.9391 137.322 14.7795 137.322 15.801V23.5107L142.629 23.018V15.801C142.629 14.7795 141.886 13.9391 140.982 13.9391ZM137.322 25.4072V40.7967C137.322 41.8183 138.049 42.657 138.97 42.657H140.982C141.886 42.657 142.629 41.8183 142.629 40.7967V25.3067L137.322 25.4072ZM188.32 24.9952L178.104 16.2789H188.221C188.666 16.2789 189.045 15.867 189.045 15.3545V14.005C189.045 13.5091 188.666 13.0807 188.221 13.0807H179.472C178.564 13.0807 177.824 12.2404 177.824 11.2188V9.35687C177.824 8.32046 178.564 7.49661 179.472 7.49661H185.931C186.374 7.49661 186.755 7.06821 186.755 6.55577V5.22278C186.755 4.69386 186.374 4.28194 185.931 4.28194H163.24C162.797 4.28194 162.417 4.69386 162.417 5.22278V6.55577C162.417 7.06821 162.797 7.49661 163.24 7.49661H169.619C170.523 7.49661 171.266 8.32046 171.266 9.35687V11.2188C171.266 12.2404 170.523 13.0807 169.619 13.0807H160.835C160.392 13.0807 160.011 13.5091 160.011 14.005V15.3545C160.011 15.867 160.392 16.2789 160.835 16.2789H171.579L160.803 25.5555C160.309 25.885 160.011 26.4765 160.011 27.1208V29.2776L163.077 27.0203C163.621 26.6083 164.363 27.0697 164.344 27.8276L164.064 44.0328C164.049 45.0874 164.791 45.9458 165.712 45.9458H168.118C168.993 45.9458 169.734 45.1533 169.765 44.1498L170.476 22.4891L171.413 21.797L174.428 19.7226C174.694 19.5232 175.023 19.5232 175.287 19.7226L179.174 22.4578L179.884 22.9834V44.0921C179.884 45.1137 180.624 45.9524 181.532 45.9524H183.558C184.463 45.9524 185.206 45.1137 185.206 44.0921V27.9265C185.206 27.218 185.882 26.7748 186.425 27.1208L189.111 28.7339V26.5919C189.111 25.9328 188.814 25.3248 188.32 24.9952ZM156.716 8.33529H151.741C150.835 8.33529 150.093 7.49661 150.093 6.47339V3.78927C150.093 2.76605 149.352 1.92737 148.446 1.92737H146.417C145.513 1.92737 144.77 2.76605 144.77 3.78927V6.47339C144.77 7.49661 144.03 8.33529 143.122 8.33529H138.146C137.686 8.33529 137.322 8.74722 137.322 9.25966V10.6091C137.322 11.1034 137.686 11.5335 138.146 11.5335H143.122C144.03 11.5335 144.77 12.3573 144.77 13.3954V22.7873L150.093 22.2749V13.3954C150.093 12.3573 150.835 11.5335 151.741 11.5335H156.716C157.162 11.5335 157.539 11.1034 157.539 10.6091V9.25966C157.539 8.74722 157.162 8.33529 156.716 8.33529ZM144.77 25.2754V44.0575C144.77 45.0972 145.513 45.9211 146.417 45.9211H148.446C149.352 45.9211 150.093 45.0972 150.093 44.0575V25.193L144.77 25.2754ZM100.201 14.7284H96.3947C95.4884 14.7284 94.747 15.5687 94.747 16.5903V27.2839C94.747 28.3055 95.4884 29.1458 96.3947 29.1458H100.201C101.105 29.1458 101.849 28.3055 101.849 27.2839V16.5903C101.849 15.5687 101.105 14.7284 100.201 14.7284ZM107.171 25.193V27.5986L130.42 26.8571V24.4663L107.171 25.193ZM89.5567 16.3926H85.7505C84.8443 16.3926 84.1028 17.2345 84.1028 18.2726V25.6873C84.1028 26.7089 84.8443 27.5492 85.7505 27.5492H89.5567C90.4629 27.5492 91.2044 26.7089 91.2044 25.6873V18.2726C91.2044 17.2345 90.4629 16.3926 89.5567 16.3926ZM117.288 19.9516C115.623 19.9862 114.272 18.4703 114.272 16.5903C114.272 15.5687 113.547 14.7284 112.625 14.7284H108.818C107.896 14.7284 107.171 15.5522 107.171 16.5903V23.593L130.42 22.1941V19.7885L117.288 19.9516ZM132.249 5.92964H125.493C124.585 5.92964 123.845 5.09096 123.845 4.06938V3.78927C123.845 2.76605 123.104 1.92737 122.198 1.92737H118.392C117.485 1.92737 116.744 2.76605 116.744 3.78927C116.744 4.97397 115.902 5.92964 114.865 5.92964H99.2287C98.3225 5.92964 97.581 5.09096 97.581 4.06938V3.78927C97.581 2.76605 96.856 1.92737 95.9333 1.92737H92.1436C91.2192 1.92737 90.4959 2.76605 90.4959 3.78927C90.4959 4.97397 89.6391 5.92964 88.601 5.92964H82.0909C81.6312 5.92964 81.2671 6.34157 81.2671 6.87048V8.20348C81.2671 8.71591 81.6312 9.14432 82.0909 9.14432H88.8482C89.7544 9.14432 90.4959 9.95169 90.4959 11.0046V11.2534C90.4959 12.3079 91.2192 13.1153 92.1436 13.1153H95.9333C96.856 13.1153 97.581 12.3079 97.581 11.2534C97.581 10.0835 98.4378 9.14432 99.4759 9.14432H115.096C116.019 9.14432 116.744 9.95169 116.744 11.0046V11.2534C116.744 12.3079 117.485 13.1153 118.392 13.1153H122.198C123.104 13.1153 123.845 12.3079 123.845 11.2534C123.845 10.0835 124.702 9.14432 125.74 9.14432H132.249C132.71 9.14432 133.073 8.71591 133.073 8.20348V6.87048C133.073 6.34157 132.71 5.92964 132.249 5.92964ZM259.056 8.48359L257.689 3.26036C257.474 2.48759 256.83 1.9422 256.107 1.9422H252.449C251.345 1.9422 250.554 3.16315 250.884 4.34785L252.251 9.53977C252.465 10.3455 253.106 10.8892 253.833 10.8892H257.491C258.595 10.8892 259.386 9.67158 259.056 8.48359ZM236.202 5.92964H199.572C199.129 5.92964 198.748 6.34157 198.748 6.87048V8.20348C198.748 8.71591 199.129 9.14432 199.572 9.14432H236.202C236.664 9.14432 237.026 8.71591 237.026 8.20348V6.87048C237.026 6.34157 236.664 5.92964 236.202 5.92964Z" fill="white"/>
<path fill-rule="evenodd" clip-rule="evenodd" d="M273.333 31.2363L272.589 42.1178C272.44 42.8939 271.761 43.4557 270.969 43.4557H267.23C266.197 43.4557 265.418 42.5149 265.61 41.4999L266.359 30.6185C266.505 29.8407 267.186 29.2805 267.975 29.2805H271.717C272.75 29.2805 273.528 30.2214 273.333 31.2363Z" fill="white"/>
<path fill-rule="evenodd" clip-rule="evenodd" d="M296.393 30.4462L296.912 41.3277C297.235 42.3855 296.443 43.4565 295.335 43.4565H291.687C290.961 43.4565 290.32 42.9803 290.11 42.2883L289.591 31.4069C289.268 30.3474 290.059 29.2797 291.167 29.2797H294.816C295.541 29.2797 296.181 29.7526 296.393 30.4462Z" fill="white"/>
</svg>
